<?xml version="1.0" encoding="UTF-8"?>
<!-- Generator: visioncortex VTracer 0.6.4 -->
<svg version="1.1" xmlns="http://www.w3.org/2000/svg" width="16" height="16">
<path d="M0,0 L1,0 L1,2 L4,2 L4,4 L1,4 L1,6 L0,6 L0,5 L-1,5 L-1,4 L-2,4 L-2,2 L-1,2 L-1,1 L0,1 Z " fill="#D14A4A" transform="translate(7,5)"/>
<path d="M0,0 L1,0 L1,1 L0,1 Z M1,1 L2,1 L2,2 L1,2 Z M2,2 L3,2 L3,3 L2,3 Z M3,3 L4,3 L4,4 L3,4 Z " fill="#D14A4A" opacity="0.49803922" transform="translate(4,8)"/>
<path d="M0,0 L1,0 L1,1 L0,1 Z M-1,1 L0,1 L0,2 L-1,2 Z M-2,2 L-1,2 L-1,3 L-2,3 Z M-3,3 L-2,3 L-2,4 L-3,4 Z " fill="#D24A4A" opacity="0.5019608" transform="translate(7,4)"/>
<path d="M0,0 L1,0 L1,1 L0,1 Z M-1,1 L0,1 L0,2 L-1,2 Z M-2,2 L-1,2 L-1,3 L-2,3 Z " fill="#D14A4A" transform="translate(7,5)"/>
<path d="M0,0 L1,0 L1,2 L0,2 Z " fill="#D24A4A" opacity="0.5019608" transform="translate(11,7)"/>
</svg>
