<?xml version="1.0" encoding="UTF-8"?>
<!-- Generator: visioncortex VTracer 0.6.4 -->
<svg version="1.1" xmlns="http://www.w3.org/2000/svg" width="16" height="16">
<path d="M0,0 L8,0 L8,3 L7,3 L7,1 L1,1 L1,3 L6,3 L6,4 L1,4 L1,6 L3,6 L3,7 L1,7 L1,9 L3,9 L3,10 L0,10 Z " fill="#FFFFFF" transform="translate(4,3)"/>
<path d="M0,0 L2,0 L2,3 L5,3 L5,5 L2,5 L2,8 L0,8 L0,5 L-3,5 L-3,3 L0,3 Z " fill="#A5EFAC" transform="translate(11,7)"/>
<path d="M0,0 L7,0 L7,1 L0,1 Z " fill="#FFFFFF" opacity="0.09411765" transform="translate(5,2)"/>
<path d="M0,0 L3,0 L3,1 L1,1 L1,3 L3,3 L3,4 L0,4 Z " fill="#FFFFFF" transform="translate(4,9)"/>
<path d="M0,0 L3,0 L3,1 L0,1 Z " fill="#FFFFFF" opacity="0.18431373" transform="translate(7,5)"/>
<path d="M0,0 L4,0 L4,1 L0,1 Z " fill="#FFFFFF" opacity="0.28235295" transform="translate(6,8)"/>
<path d="M0,0 L1,0 L1,10 L0,10 Z " fill="#FFFFFF" opacity="0.3764706" transform="translate(3,3)"/>
<path d="M0,0 L3,0 L3,1 L0,1 Z " fill="#FFFFFF" opacity="0.35686275" transform="translate(7,4)"/>
<path d="M0,0 L1,0 L1,1 L0,1 Z " fill="#FFFFFF" opacity="0.3764706" transform="translate(6,11)"/>
<path d="M0,0 L4,0 L4,1 L0,1 Z " fill="#FFFFFF" opacity="0.26666668" transform="translate(6,7)"/>
<path d="M0,0 L1,0 L1,3 L0,3 Z " fill="#FFFFFF" opacity="0.36078432" transform="translate(12,3)"/>
<path d="M0,0 L1,0 L1,1 L0,1 Z " fill="#FFFFFF" opacity="0.17254902" transform="translate(6,10)"/>
<path d="M0,0 L1,0 L1,1 L0,1 Z " fill="#FFFFFF" opacity="0.3372549" transform="translate(5,8)"/>
<path d="M0,0 L1,0 L1,1 L0,1 Z " fill="#FFFFFF" opacity="0.18431373" transform="translate(6,5)"/>
<path d="M0,0 L1,0 L1,1 L0,1 Z " fill="#FFFFFF" opacity="0.35686275" transform="translate(6,4)"/>
<path d="M0,0 L1,0 L1,1 L0,1 Z " fill="#FFFFFF" opacity="0.09411765" transform="translate(4,2)"/>
<path d="M0,0 L1,0 L1,1 L0,1 Z " fill="#FFFFFF" opacity="0.42352942" transform="translate(5,11)"/>
<path d="M0,0 L1,0 L1,1 L0,1 Z " fill="#FFFFFF" opacity="0.23529412" transform="translate(5,10)"/>
<path d="M0,0 L1,0 L1,1 L0,1 Z " fill="#FFFFFF" opacity="0.32156864" transform="translate(5,7)"/>
<path d="M0,0 L1,0 L1,1 L0,1 Z " fill="#FFFFFF" opacity="0.2627451" transform="translate(10,5)"/>
<path d="M0,0 L1,0 L1,1 L0,1 Z " fill="#FFFFFF" opacity="0.2509804" transform="translate(5,5)"/>
<path d="M0,0 L1,0 L1,1 L0,1 Z " fill="#FFFFFF" opacity="0.41960785" transform="translate(10,4)"/>
<path d="M0,0 L1,0 L1,1 L0,1 Z " fill="#FFFFFF" opacity="0.40784314" transform="translate(5,4)"/>
<path d="M0,0 L1,0 L1,1 L0,1 Z " fill="#FFFFFF" opacity="0.03137255" transform="translate(12,2)"/>
<path d="M0,0 L1,0 L1,1 L0,1 Z " fill="#FFFFFF" opacity="0.03529412" transform="translate(3,2)"/>
</svg>
