<?xml version="1.0" encoding="UTF-8"?>
<!-- Generator: visioncortex VTracer 0.6.4 -->
<svg version="1.1" xmlns="http://www.w3.org/2000/svg" width="16" height="16">
<path d="M0,0 L12,0 L12,2 L0,2 Z " fill="#7DFFF7" transform="translate(2,5)"/>
<path d="M0,0 L7,0 L7,2 L0,2 Z " fill="#7DFFF7" transform="translate(2,11)"/>
<path d="M0,0 L7,0 L7,2 L0,2 Z " fill="#7DFFF7" transform="translate(7,8)"/>
<path d="M0,0 L6,0 L6,2 L0,2 Z " fill="#7DFFF7" transform="translate(2,2)"/>
<path d="M0,0 L5,0 L5,2 L0,2 Z " fill="#7DFFF7" transform="translate(9,2)"/>
<path d="M0,0 L4,0 L4,2 L0,2 Z " fill="#7DFFF7" transform="translate(10,11)"/>
<path d="M0,0 L4,0 L4,2 L0,2 Z " fill="#7DFFF7" transform="translate(2,8)"/>
</svg>
