<?xml version="1.0" encoding="UTF-8"?>
<!-- Generator: visioncortex VTracer 0.6.4 -->
<svg version="1.1" xmlns="http://www.w3.org/2000/svg" width="16" height="16">
<path d="M0,0 L6,0 L6,1 L7,1 L7,3 L12,3 L12,4 L8,4 L8,7 L5,7 L5,11 L8,11 L8,12 L0,12 L0,11 L-1,11 L-1,1 L0,1 Z M12,4 L13,4 L13,7 L12,7 Z " fill="#E0E0E0" transform="translate(2,2)"/>
<path d="M0,0 L2,0 L2,3 L5,3 L5,5 L2,5 L2,8 L0,8 L0,5 L-3,5 L-3,3 L0,3 Z " fill="#A5EFAC" transform="translate(11,7)"/>
<path d="M0,0 L1,0 L1,1 L0,1 Z M1,1 L2,1 L2,4 L1,4 Z " fill="#E0E0E0" transform="translate(13,5)"/>
<path d="M0,0 L1,0 L1,1 L0,1 Z M-1,1 L0,1 L0,2 L-1,2 Z " fill="#E0E0E0" transform="translate(2,2)"/>
<path d="M0,0 L2,0 L2,1 L0,1 Z " fill="#E0E0E0" transform="translate(8,13)"/>
<path d="M0,0 L1,0 L1,2 L0,2 Z " fill="#E0E0E0" transform="translate(14,7)"/>
<path d="M0,0 L2,0 L2,1 L0,1 Z " fill="#E0E0E0" transform="translate(11,5)"/>
<path d="M0,0 L1,0 L1,1 L0,1 Z " fill="#E0E0E0" opacity="0.7058824" transform="translate(14,13)"/>
<path d="M0,0 L1,0 L1,1 L0,1 Z " fill="#E1E1E1" opacity="0.7176471" transform="translate(1,13)"/>
<path d="M0,0 L1,0 L1,1 L0,1 Z " fill="#E1E1E1" opacity="0.7176471" transform="translate(14,5)"/>
<path d="M0,0 L1,0 L1,1 L0,1 Z " fill="#E1E1E1" opacity="0.29411766" transform="translate(9,4)"/>
<path d="M0,0 L1,0 L1,1 L0,1 Z " fill="#E1E1E1" opacity="0.7176471" transform="translate(8,2)"/>
<path d="M0,0 L1,0 L1,1 L0,1 Z " fill="#E0E0E0" opacity="0.72156864" transform="translate(1,2)"/>
</svg>
