<?xml version="1.0" encoding="UTF-8"?>
<!-- Generator: visioncortex VTracer 0.6.4 -->
<svg version="1.1" xmlns="http://www.w3.org/2000/svg" width="22" height="22">
<path d="M0,0 L1,0 L1,1 L0,1 Z M1,1 L2,1 L2,2 L1,2 Z M2,2 L3,2 L3,3 L2,3 Z M3,3 L4,3 L4,4 L3,4 Z M4,4 L5,4 L5,5 L4,5 Z M5,5 L6,5 L6,7 L5,7 Z M3,6 L4,6 L4,7 L3,7 Z M2,7 L3,7 L3,8 L2,8 Z M4,7 L5,7 L5,8 L4,8 Z M1,8 L2,8 L2,9 L1,9 Z M3,8 L4,8 L4,9 L3,9 Z M0,9 L1,9 L1,10 L0,10 Z M2,9 L3,9 L3,10 L2,10 Z M-1,10 L0,10 L0,11 L-1,11 Z M1,10 L2,10 L2,11 L1,11 Z M0,11 L1,11 L1,12 L0,12 Z " fill="#FFFFFF" opacity="0.08235294" transform="translate(8,5)"/>
<path d="M0,0 L1,0 L1,1 L0,1 Z M1,1 L2,1 L2,2 L1,2 Z M2,2 L3,2 L3,3 L2,3 Z M3,3 L4,3 L4,4 L3,4 Z M4,4 L5,4 L5,5 L4,5 Z M5,5 L6,5 L6,7 L5,7 Z M4,7 L5,7 L5,8 L4,8 Z M3,8 L4,8 L4,9 L3,9 Z M2,9 L3,9 L3,10 L2,10 Z M1,10 L2,10 L2,11 L1,11 Z M0,11 L1,11 L1,12 L0,12 Z " fill="#FFFFFF" transform="translate(8,5)"/>
<path d="M0,0 L1,0 L1,1 L0,1 Z M1,1 L2,1 L2,2 L1,2 Z M2,2 L3,2 L3,4 L2,4 Z M1,4 L2,4 L2,5 L1,5 Z M0,5 L1,5 L1,6 L0,6 Z " fill="#FFFFFF" opacity="0.83137256" transform="translate(12,8)"/>
<path d="M0,0 L1,0 L1,1 L0,1 Z M-1,1 L0,1 L0,2 L-1,2 Z M-2,2 L-1,2 L-1,3 L-2,3 Z M0,2 L1,2 L1,3 L0,3 Z M-3,3 L-2,3 L-2,4 L-3,4 Z M-1,3 L0,3 L0,4 L-1,4 Z " fill="#FFFFFF" opacity="0.827451" transform="translate(11,12)"/>
<path d="M0,0 L1,0 L1,1 L0,1 Z M1,1 L2,1 L2,2 L1,2 Z M2,2 L3,2 L3,3 L2,3 Z M3,3 L4,3 L4,4 L3,4 Z " fill="#FFFFFF" opacity="0.08235294" transform="translate(9,4)"/>
<path d="M0,0 L1,0 L1,1 L0,1 Z M-1,1 L0,1 L0,2 L-1,2 Z M-2,2 L-1,2 L-1,3 L-2,3 Z M-3,3 L-2,3 L-2,4 L-3,4 Z M-4,4 L-3,4 L-3,5 L-4,5 Z " fill="#FFFFFF" opacity="0.08235294" transform="translate(13,13)"/>
<path d="M0,0 L1,0 L1,1 L0,1 Z M1,1 L2,1 L2,2 L1,2 Z M2,2 L3,2 L3,4 L2,4 Z M1,4 L2,4 L2,5 L1,5 Z " fill="#FFFFFF" opacity="0.08627451" transform="translate(13,8)"/>
<path d="M0,0 L1,0 L1,1 L0,1 Z M1,1 L2,1 L2,2 L1,2 Z M2,2 L3,2 L3,3 L2,3 Z M3,3 L4,3 L4,4 L3,4 Z M4,4 L5,4 L5,5 L4,5 Z " fill="#FFFFFF" opacity="0.08235294" transform="translate(7,6)"/>
<path d="M0,0 L1,0 L1,1 L0,1 Z M1,1 L2,1 L2,2 L1,2 Z M2,2 L3,2 L3,3 L2,3 Z M3,3 L4,3 L4,4 L3,4 Z " fill="#FFFFFF" opacity="0.8235294" transform="translate(8,6)"/>
<path d="M0,0 L1,0 L1,1 L0,1 Z M1,1 L2,1 L2,2 L1,2 Z M2,2 L3,2 L3,3 L2,3 Z " fill="#FFFFFF" opacity="0.827451" transform="translate(9,5)"/>
<path d="M0,0 L1,0 L1,1 L0,1 Z M1,1 L2,1 L2,2 L1,2 Z " fill="#FFFFFF" opacity="0.4117647" transform="translate(7,16)"/>
<path d="M0,0 L1,0 L1,2 L0,2 Z " fill="#FFFFFF" opacity="0.9098039" transform="translate(12,10)"/>
<path d="M0,0 L1,0 L1,1 L0,1 Z M-1,1 L0,1 L0,2 L-1,2 Z " fill="#FFFFFF" opacity="0.4117647" transform="translate(8,4)"/>
<path d="M0,0 L1,0 L1,1 L0,1 Z " fill="#FFFFFF" opacity="0.8235294" transform="translate(9,16)"/>
</svg>
