<?xml version="1.0" encoding="UTF-8"?>
<!-- Generator: visioncortex VTracer 0.6.4 -->
<svg version="1.1" xmlns="http://www.w3.org/2000/svg" width="22" height="22">
<path d="M0,0 L1,0 L1,1 L0,1 Z M11,0 L12,0 L12,1 L11,1 Z M1,1 L2,1 L2,2 L1,2 Z M10,1 L11,1 L11,2 L10,2 Z M2,2 L3,2 L3,3 L2,3 Z M9,2 L10,2 L10,3 L9,3 Z M3,3 L4,3 L4,4 L3,4 Z M8,3 L9,3 L9,4 L8,4 Z M4,4 L5,4 L5,5 L4,5 Z M7,4 L8,4 L8,5 L7,5 Z M5,5 L7,5 L7,6 L5,6 Z " fill="#FFFFFF" transform="translate(5,8)"/>
<path d="M0,0 L1,0 L1,1 L0,1 Z M-1,1 L0,1 L0,2 L-1,2 Z M-2,2 L-1,2 L-1,3 L-2,3 Z M-3,3 L-2,3 L-2,4 L-3,4 Z M-4,4 L-3,4 L-3,5 L-4,5 Z M-5,5 L-4,5 L-4,6 L-5,6 Z M-6,6 L-5,6 L-5,7 L-6,7 Z " fill="#FFFFFF" opacity="0.078431375" transform="translate(17,9)"/>
<path d="M0,0 L1,0 L1,1 L0,1 Z M-1,1 L0,1 L0,2 L-1,2 Z M1,1 L2,1 L2,2 L1,2 Z M10,1 L11,1 L11,2 L10,2 Z M0,2 L1,2 L1,3 L0,3 Z M2,2 L3,2 L3,3 L2,3 Z M9,2 L10,2 L10,3 L9,3 Z M1,3 L2,3 L2,4 L1,4 Z M3,3 L4,3 L4,4 L3,4 Z M8,3 L9,3 L9,4 L8,4 Z M2,4 L3,4 L3,5 L2,5 Z M7,4 L8,4 L8,5 L7,5 Z M3,5 L4,5 L4,6 L3,6 Z M6,5 L7,5 L7,6 L6,6 Z M4,6 L6,6 L6,7 L4,7 Z " fill="#FFFFFF" opacity="0.8235294" transform="translate(6,8)"/>
<path d="M0,0 L1,0 L1,1 L0,1 Z M9,0 L10,0 L10,1 L9,1 Z M1,1 L2,1 L2,2 L1,2 Z M8,1 L9,1 L9,2 L8,2 Z M2,2 L3,2 L3,3 L2,3 Z M7,2 L8,2 L8,3 L7,3 Z M3,3 L4,3 L4,4 L3,4 Z M6,3 L7,3 L7,4 L6,4 Z M4,4 L6,4 L6,5 L4,5 Z " fill="#FFFFFF" opacity="0.08235294" transform="translate(6,7)"/>
<path d="M0,0 L1,0 L1,1 L0,1 Z M1,1 L2,1 L2,2 L1,2 Z M2,2 L3,2 L3,3 L2,3 Z M3,3 L4,3 L4,4 L3,4 Z M4,4 L5,4 L5,5 L4,5 Z M5,5 L6,5 L6,6 L5,6 Z " fill="#FFFFFF" transform="translate(5,8)"/>
<path d="M0,0 L1,0 L1,1 L0,1 Z M1,1 L2,1 L2,2 L1,2 Z M2,2 L3,2 L3,3 L2,3 Z M3,3 L4,3 L4,4 L3,4 Z M4,4 L5,4 L5,5 L4,5 Z M5,5 L6,5 L6,6 L5,6 Z M6,6 L7,6 L7,7 L6,7 Z " fill="#FFFFFF" opacity="0.08235294" transform="translate(4,9)"/>
<path d="M0,0 L1,0 L1,1 L0,1 Z M-1,1 L0,1 L0,2 L-1,2 Z M-2,2 L-1,2 L-1,3 L-2,3 Z M-3,3 L-2,3 L-2,4 L-3,4 Z " fill="#FFFFFF" opacity="0.827451" transform="translate(15,8)"/>
<path d="M0,0 L2,0 L2,1 L0,1 Z " fill="#FFFFFF" opacity="0.9098039" transform="translate(10,12)"/>
<path d="M0,0 L1,0 L1,1 L0,1 Z M1,1 L2,1 L2,2 L1,2 Z " fill="#FFFFFF" opacity="0.4117647" transform="translate(16,7)"/>
<path d="M0,0 L1,0 L1,1 L0,1 Z M-1,1 L0,1 L0,2 L-1,2 Z " fill="#FFFFFF" opacity="0.4117647" transform="translate(5,7)"/>
</svg>
