<?xml version="1.0" encoding="UTF-8"?>
<!-- Generator: visioncortex VTracer 0.6.4 -->
<svg version="1.1" xmlns="http://www.w3.org/2000/svg" width="64" height="64">
<path d="M0,0 L5,0 L5,1 L8,1 L8,2 L10,2 L10,3 L11,3 L11,4 L12,4 L12,5 L13,5 L13,7 L14,7 L14,9 L15,9 L15,14 L14,14 L14,16 L13,16 L13,18 L12,18 L12,19 L11,19 L11,22 L12,22 L12,25 L15,25 L15,24 L16,24 L16,23 L18,23 L18,22 L20,22 L20,21 L21,21 L21,20 L23,20 L23,19 L24,19 L24,43 L22,43 L22,42 L20,42 L20,41 L19,41 L19,40 L17,40 L17,39 L16,39 L16,38 L14,38 L14,37 L12,37 L12,41 L11,41 L11,42 L10,42 L10,43 L8,43 L8,44 L-21,44 L-21,43 L-23,43 L-23,42 L-24,42 L-24,40 L-25,40 L-25,30 L-26,30 L-26,29 L-28,29 L-28,28 L-29,28 L-29,27 L-30,27 L-30,26 L-31,26 L-31,25 L-32,25 L-32,23 L-33,23 L-33,15 L-32,15 L-32,14 L-31,14 L-31,12 L-30,12 L-30,11 L-28,11 L-28,10 L-27,10 L-27,9 L-24,9 L-24,8 L-18,8 L-18,9 L-15,9 L-15,10 L-13,10 L-13,11 L-12,11 L-12,12 L-10,12 L-10,8 L-9,8 L-9,6 L-8,6 L-8,5 L-7,5 L-7,4 L-6,4 L-6,3 L-5,3 L-5,2 L-3,2 L-3,1 L0,1 Z M-8,14 L-8,15 L-10,15 L-10,16 L-12,16 L-12,17 L-14,17 L-14,18 L-17,18 L-17,19 L-19,19 L-19,20 L-21,20 L-21,36 L-19,36 L-19,37 L-17,37 L-17,38 L-15,38 L-15,39 L-12,39 L-12,40 L-10,40 L-10,41 L-8,41 L-8,42 L-6,42 L-6,41 L-4,41 L-4,40 L-2,40 L-2,39 L1,39 L1,38 L3,38 L3,37 L5,37 L5,36 L6,36 L6,20 L5,20 L5,19 L3,19 L3,18 L0,18 L0,17 L-2,17 L-2,16 L-4,16 L-4,15 L-6,15 L-6,14 Z M-8,17 L-6,17 L-6,18 L-4,18 L-4,19 L-2,19 L-2,20 L1,20 L1,21 L-1,21 L-1,22 L-3,22 L-3,23 L-6,23 L-6,24 L-8,24 L-8,23 L-11,23 L-11,22 L-13,22 L-13,21 L-15,21 L-15,20 L-12,20 L-12,19 L-10,19 L-10,18 L-8,18 Z " fill="#F5F5F5" transform="translate(37,10)"/>
<path d="M0,0 L1,0 L1,1 L0,1 Z M12,6 L13,6 L13,7 L12,7 Z M-2,20 L-1,20 L-1,21 L-2,21 Z " fill="#F5F5F5" opacity="0.99215686" transform="translate(39,28)"/>
<path d="M0,0 L1,0 L1,1 L3,1 L3,2 L5,2 L5,3 L8,3 L8,13 L7,13 L7,12 L5,12 L5,11 L3,11 L3,10 L1,10 L1,9 L0,9 Z " fill="#F5F5F5" transform="translate(19,34)"/>
<path d="M0,0 L1,0 L1,1 L0,1 Z " fill="#F5F5F5" opacity="0.99607843" transform="translate(24,36)"/>
<path d="M0,0 L2,0 L2,1 L4,1 L4,2 L6,2 L6,3 L9,3 L9,4 L7,4 L7,5 L5,5 L5,6 L2,6 L2,7 L0,7 L0,6 L-3,6 L-3,5 L-5,5 L-5,4 L-7,4 L-7,3 L-4,3 L-4,2 L-2,2 L-2,1 L0,1 Z " fill="#F5F5F5" transform="translate(29,27)"/>
<path d="M0,0 L1,0 L1,1 L0,1 Z M-7,5 L-6,5 L-6,6 L-7,6 Z " fill="#F5F5F5" opacity="0.05490196" transform="translate(29,25)"/>
<path d="M0,0 L24,0 L24,1 L0,1 Z " fill="#F7F7F7" opacity="0.36078432" transform="translate(19,54)"/>
<path d="M0,0 L1,0 L1,13 L0,13 Z " fill="#F5F5F5" opacity="0.011764706" transform="translate(42,32)"/>
<path d="M0,0 L1,0 L1,8 L0,8 Z " fill="#F6F6F6" opacity="0.8117647" transform="translate(27,39)"/>
<path d="M0,0 L1,0 L1,1 L0,1 Z M-1,1 L0,1 L0,2 L-1,2 Z M-2,2 L-1,2 L-1,3 L-2,3 Z M-3,3 L-2,3 L-2,4 L-3,4 Z M-4,4 L-3,4 L-3,5 L-4,5 Z " fill="#F5F5F5" transform="translate(32,12)"/>
<path d="M0,0 L1,0 L1,14 L0,14 Z " fill="#F5F5F5" opacity="0.9843137" transform="translate(16,31)"/>
<path d="M0,0 L1,0 L1,1 L0,1 Z M-2,1 L-1,1 L-1,2 L-2,2 Z " fill="#F5F5F5" opacity="0.99607843" transform="translate(24,29)"/>
<path d="M0,0 L1,0 L1,8 L0,8 Z " fill="#F8F8F8" opacity="0.26666668" transform="translate(11,41)"/>
<path d="M0,0 L1,0 L1,9 L0,9 Z " fill="#F5F5F5" opacity="0.3882353" transform="translate(18,34)"/>
<path d="M0,0 L1,0 L1,1 L0,1 Z " fill="#F5F5F5" opacity="0.07058824" transform="translate(33,27)"/>
<path d="M0,0 L1,0 L1,1 L0,1 Z " fill="#F6F6F6" opacity="0.43529412" transform="translate(15,17)"/>
<path d="M0,0 L1,0 L1,1 L0,1 Z " fill="#F7F7F7" opacity="0.34509805" transform="translate(39,9)"/>
<path d="M0,0 L1,0 L1,1 L0,1 Z " fill="#F5F5F5" transform="translate(22,30)"/>
<path d="M0,0 L1,0 L1,1 L0,1 Z " fill="#F6F6F6" opacity="0.3137255" transform="translate(49,49)"/>
<path d="M0,0 L1,0 L1,1 L0,1 Z " fill="#F4F4F4" opacity="0.45490196" transform="translate(49,34)"/>
<path d="M0,0 L1,0 L1,1 L0,1 Z " fill="#F5F5F5" opacity="0.019607844" transform="translate(27,26)"/>
<path d="M0,0 L1,0 L1,1 L0,1 Z " fill="#FAFAFA" opacity="0.1764706" transform="translate(52,22)"/>
<path d="M0,0 L1,0 L1,1 L0,1 Z " fill="#F6F6F6" opacity="0.627451" transform="translate(26,20)"/>
<path d="M0,0 L1,0 L1,1 L0,1 Z " fill="#F7F7F7" opacity="0.36078432" transform="translate(18,54)"/>
<path d="M0,0 L1,0 L1,1 L0,1 Z " fill="#F7F7F7" opacity="0.4509804" transform="translate(59,53)"/>
<path d="M0,0 L1,0 L1,1 L0,1 Z " fill="#F5F5F5" opacity="0.76862746" transform="translate(13,52)"/>
<path d="M0,0 L1,0 L1,1 L0,1 Z " fill="#F6F6F6" opacity="0.42352942" transform="translate(54,50)"/>
<path d="M0,0 L1,0 L1,1 L0,1 Z " fill="#F5F5F5" opacity="0.019607844" transform="translate(29,50)"/>
<path d="M0,0 L1,0 L1,1 L0,1 Z " fill="#F5F5F5" opacity="0.9882353" transform="translate(22,48)"/>
<path d="M0,0 L1,0 L1,1 L0,1 Z " fill="#F6F6F6" opacity="0.8117647" transform="translate(27,38)"/>
<path d="M0,0 L1,0 L1,1 L0,1 Z " fill="#F6F6F6" opacity="0.3254902" transform="translate(29,34)"/>
<path d="M0,0 L1,0 L1,1 L0,1 Z " fill="#F5F5F5" opacity="0.8" transform="translate(52,33)"/>
<path d="M0,0 L1,0 L1,1 L0,1 Z " fill="#F5F5F5" opacity="0.8235294" transform="translate(57,30)"/>
<path d="M0,0 L1,0 L1,1 L0,1 Z " fill="#F5F5F5" opacity="0.96862745" transform="translate(26,28)"/>
<path d="M0,0 L1,0 L1,1 L0,1 Z " fill="#F5F5F5" opacity="0.8784314" transform="translate(3,28)"/>
<path d="M0,0 L1,0 L1,1 L0,1 Z " fill="#F6F6F6" opacity="0.8156863" transform="translate(9,19)"/>
<path d="M0,0 L1,0 L1,1 L0,1 Z " fill="#F5F5F5" opacity="0.8745098" transform="translate(31,12)"/>
<path d="M0,0 L1,0 L1,1 L0,1 Z " fill="#F5F5F5" opacity="0.99607843" transform="translate(36,10)"/>
<path d="M0,0 L1,0 L1,1 L0,1 Z " fill="#F5F5F5" opacity="0.9843137" transform="translate(7,37)"/>
<path d="M0,0 L1,0 L1,1 L0,1 Z " fill="#F5F5F5" opacity="0.93333334" transform="translate(5,35)"/>
<path d="M0,0 L1,0 L1,1 L0,1 Z " fill="#F5F5F5" opacity="0.99215686" transform="translate(5,23)"/>
<path d="M0,0 L1,0 L1,1 L0,1 Z " fill="#F6F6F6" opacity="0.5019608" transform="translate(7,20)"/>
<path d="M0,0 L1,0 L1,1 L0,1 Z " fill="#F5F5F5" opacity="0.9647059" transform="translate(29,14)"/>
<path d="M0,0 L1,0 L1,1 L0,1 Z " fill="#F5F5F5" opacity="0.023529412" transform="translate(45,54)"/>
<path d="M0,0 L1,0 L1,1 L0,1 Z " fill="#F9F9F9" opacity="0.16470589" transform="translate(16,54)"/>
<path d="M0,0 L1,0 L1,1 L0,1 Z " fill="#F5F5F5" opacity="0.83137256" transform="translate(58,52)"/>
<path d="M0,0 L1,0 L1,1 L0,1 Z " fill="#F4F4F4" opacity="0.63529414" transform="translate(56,51)"/>
<path d="M0,0 L1,0 L1,1 L0,1 Z " fill="#F5F5F5" opacity="0.9019608" transform="translate(30,51)"/>
<path d="M0,0 L1,0 L1,1 L0,1 Z " fill="#F6F6F6" opacity="0.80784315" transform="translate(53,49)"/>
<path d="M0,0 L1,0 L1,1 L0,1 Z " fill="#F5F5F5" opacity="0.29803923" transform="translate(33,49)"/>
<path d="M0,0 L1,0 L1,1 L0,1 Z " fill="#F5F5F5" opacity="0.6745098" transform="translate(36,48)"/>
<path d="M0,0 L1,0 L1,1 L0,1 Z " fill="#F5F5F5" opacity="0.92941177" transform="translate(50,47)"/>
<path d="M0,0 L1,0 L1,1 L0,1 Z " fill="#F5F5F5" opacity="0.5882353" transform="translate(38,47)"/>
<path d="M0,0 L1,0 L1,1 L0,1 Z " fill="#F6F6F6" opacity="0.44313726" transform="translate(26,47)"/>
<path d="M0,0 L1,0 L1,1 L0,1 Z " fill="#F6F6F6" opacity="0.5058824" transform="translate(40,46)"/>
<path d="M0,0 L1,0 L1,1 L0,1 Z " fill="#F6F6F6" opacity="0.5019608" transform="translate(24,46)"/>
<path d="M0,0 L1,0 L1,1 L0,1 Z " fill="#F5F5F5" opacity="0.07058824" transform="translate(20,46)"/>
<path d="M0,0 L1,0 L1,1 L0,1 Z " fill="#F6F6F6" opacity="0.42352942" transform="translate(42,45)"/>
<path d="M0,0 L1,0 L1,1 L0,1 Z " fill="#F5F5F5" opacity="0.56078434" transform="translate(22,45)"/>
<path d="M0,0 L1,0 L1,1 L0,1 Z " fill="#F6F6F6" opacity="0.03137255" transform="translate(18,45)"/>
<path d="M0,0 L1,0 L1,1 L0,1 Z " fill="#F6F6F6" opacity="0.61960787" transform="translate(20,44)"/>
<path d="M0,0 L1,0 L1,1 L0,1 Z " fill="#F4F4F4" opacity="0.54509807" transform="translate(11,40)"/>
<path d="M0,0 L1,0 L1,1 L0,1 Z " fill="#F5F5F5" opacity="0.5529412" transform="translate(9,39)"/>
<path d="M0,0 L1,0 L1,1 L0,1 Z " fill="#F6F6F6" opacity="0.011764706" transform="translate(27,36)"/>
<path d="M0,0 L1,0 L1,1 L0,1 Z " fill="#F8F8F8" opacity="0.13725491" transform="translate(24,35)"/>
<path d="M0,0 L1,0 L1,1 L0,1 Z " fill="#F5F5F5" opacity="0.03137255" transform="translate(22,34)"/>
<path d="M0,0 L1,0 L1,1 L0,1 Z " fill="#F9F9F9" opacity="0.15294118" transform="translate(33,33)"/>
<path d="M0,0 L1,0 L1,1 L0,1 Z " fill="#F5F5F5" opacity="0.54901963" transform="translate(27,33)"/>
<path d="M0,0 L1,0 L1,1 L0,1 Z " fill="#F5F5F5" opacity="0.19607843" transform="translate(19,33)"/>
<path d="M0,0 L1,0 L1,1 L0,1 Z " fill="#F8F8F8" opacity="0.12941177" transform="translate(3,33)"/>
<path d="M0,0 L1,0 L1,1 L0,1 Z " fill="#F6F6F6" opacity="0.41568628" transform="translate(53,32)"/>
<path d="M0,0 L1,0 L1,1 L0,1 Z " fill="#F7F7F7" opacity="0.24313726" transform="translate(49,32)"/>
<path d="M0,0 L1,0 L1,1 L0,1 Z " fill="#F5F5F5" opacity="0.039215688" transform="translate(36,32)"/>
<path d="M0,0 L1,0 L1,1 L0,1 Z " fill="#F5F5F5" opacity="0.38431373" transform="translate(24,32)"/>
<path d="M0,0 L1,0 L1,1 L0,1 Z " fill="#F6F6F6" opacity="0.627451" transform="translate(55,31)"/>
<path d="M0,0 L1,0 L1,1 L0,1 Z " fill="#F5F5F5" opacity="0.9490196" transform="translate(48,31)"/>
<path d="M0,0 L1,0 L1,1 L0,1 Z " fill="#F6F6F6" opacity="0.6117647" transform="translate(22,31)"/>
<path d="M0,0 L1,0 L1,1 L0,1 Z " fill="#F6F6F6" opacity="0.5137255" transform="translate(42,30)"/>
<path d="M0,0 L1,0 L1,1 L0,1 Z " fill="#F7F7F7" opacity="0.22352941" transform="translate(39,30)"/>
<path d="M0,0 L1,0 L1,1 L0,1 Z " fill="#F7F7F7" opacity="0.24313726" transform="translate(20,30)"/>
<path d="M0,0 L1,0 L1,1 L0,1 Z " fill="#F5F5F5" opacity="0.07450981" transform="translate(18,30)"/>
<path d="M0,0 L1,0 L1,1 L0,1 Z " fill="#F6F6F6" opacity="0.44313726" transform="translate(58,29)"/>
<path d="M0,0 L1,0 L1,1 L0,1 Z " fill="#F5F5F5" opacity="0.96862745" transform="translate(41,29)"/>
<path d="M0,0 L1,0 L1,1 L0,1 Z " fill="#F8F8F8" opacity="0.25882354" transform="translate(37,29)"/>
<path d="M0,0 L1,0 L1,1 L0,1 Z " fill="#F4F4F4" opacity="0.27058825" transform="translate(22,29)"/>
<path d="M0,0 L1,0 L1,1 L0,1 Z " fill="#F5F5F5" opacity="0.654902" transform="translate(60,28)"/>
<path d="M0,0 L1,0 L1,1 L0,1 Z " fill="#F5F5F5" opacity="0.003921569" transform="translate(50,28)"/>
<path d="M0,0 L1,0 L1,1 L0,1 Z " fill="#F9F9F9" opacity="0.16470589" transform="translate(24,28)"/>
<path d="M0,0 L1,0 L1,1 L0,1 Z " fill="#FFFFFF" opacity="0.08235294" transform="translate(51,26)"/>
<path d="M0,0 L1,0 L1,1 L0,1 Z " fill="#F6F6F6" opacity="0.02745098" transform="translate(32,26)"/>
<path d="M0,0 L1,0 L1,1 L0,1 Z " fill="#F4F4F4" opacity="0.3647059" transform="translate(30,26)"/>
<path d="M0,0 L1,0 L1,1 L0,1 Z " fill="#F4F4F4" opacity="0.54509807" transform="translate(3,26)"/>
<path d="M0,0 L2,0 L2,1 L0,1 Z " fill="#F5F5F5" opacity="0.9882353" transform="translate(29,24)"/>
<path d="M0,0 L1,0 L1,1 L0,1 Z " fill="#F5F5F5" opacity="0.76862746" transform="translate(26,21)"/>
<path d="M0,0 L1,0 L1,1 L0,1 Z M-1,1 L0,1 L0,2 L-1,2 Z " fill="#F5F5F5" transform="translate(7,21)"/>
<path d="M0,0 L1,0 L1,1 L0,1 Z " fill="#F5F5F5" opacity="0.18431373" transform="translate(52,20)"/>
<path d="M0,0 L1,0 L1,1 L0,1 Z " fill="#F6F6F6" opacity="0.3137255" transform="translate(26,18)"/>
<path d="M0,0 L1,0 L1,1 L0,1 Z " fill="#F5F5F5" opacity="0.023529412" transform="translate(22,18)"/>
<path d="M0,0 L1,0 L1,1 L0,1 Z " fill="#F5F5F5" opacity="0.95686275" transform="translate(12,18)"/>
<path d="M0,0 L1,0 L1,1 L0,1 Z " fill="#F6F6F6" opacity="0.30980393" transform="translate(10,18)"/>
<path d="M0,0 L1,0 L1,1 L0,1 Z " fill="#F5F5F5" opacity="0.49019608" transform="translate(51,17)"/>
<path d="M0,0 L1,0 L1,1 L0,1 Z " fill="#F7F7F7" opacity="0.23137255" transform="translate(13,17)"/>
<path d="M0,0 L1,0 L1,1 L0,1 Z " fill="#F6F6F6" opacity="0.5176471" transform="translate(27,16)"/>
<path d="M0,0 L1,0 L1,1 L0,1 Z " fill="#F5F5F5" opacity="0.45882353" transform="translate(50,15)"/>
<path d="M0,0 L1,0 L1,1 L0,1 Z M1,1 L2,1 L2,2 L1,2 Z " fill="#F5F5F5" opacity="0.047058824" transform="translate(48,12)"/>
<path d="M0,0 L1,0 L1,1 L0,1 Z " fill="#F6F6F6" opacity="0.62352943" transform="translate(32,11)"/>
<path d="M0,0 L1,0 L1,1 L0,1 Z " fill="#F7F7F7" opacity="0.011764706" transform="translate(45,10)"/>
<path d="M0,0 L1,0 L1,1 L0,1 Z " fill="#F5F5F5" opacity="0.4627451" transform="translate(34,10)"/>
<path d="M0,0 L1,0 L1,1 L0,1 Z " fill="#FAFAFA" opacity="0.019607844" transform="translate(42,9)"/>
<path d="M0,0 L1,0 L1,1 L0,1 Z " fill="#F9F9F9" opacity="0.15294118" transform="translate(37,9)"/>
<path d="M0,0 L1,0 L1,1 L0,1 Z " fill="#F6F6F6" opacity="0.105882354" transform="translate(60,54)"/>
<path d="M0,0 L1,0 L1,1 L0,1 Z " fill="#F5F5F5" opacity="0.19215687" transform="translate(44,54)"/>
<path d="M0,0 L1,0 L1,1 L0,1 Z " fill="#F7F7F7" opacity="0.34509805" transform="translate(43,54)"/>
<path d="M0,0 L1,0 L1,1 L0,1 Z " fill="#F6F6F6" opacity="0.33333334" transform="translate(17,54)"/>
<path d="M0,0 L1,0 L1,1 L0,1 Z " fill="#F5F5F5" opacity="0.011764706" transform="translate(15,54)"/>
<path d="M0,0 L1,0 L1,1 L0,1 Z " fill="#F5F5F5" opacity="0.9529412" transform="translate(60,53)"/>
<path d="M0,0 L1,0 L1,1 L0,1 Z " fill="#F5F5F5" opacity="0.015686275" transform="translate(58,53)"/>
<path d="M0,0 L1,0 L1,1 L0,1 Z " fill="#F5F5F5" opacity="0.047058824" transform="translate(47,53)"/>
<path d="M0,0 L1,0 L1,1 L0,1 Z " fill="#F5F5F5" opacity="0.5529412" transform="translate(46,53)"/>
<path d="M0,0 L1,0 L1,1 L0,1 Z " fill="#F5F5F5" opacity="0.98039216" transform="translate(45,53)"/>
<path d="M0,0 L1,0 L1,1 L0,1 Z " fill="#F5F5F5" opacity="0.9529412" transform="translate(15,53)"/>
<path d="M0,0 L1,0 L1,1 L0,1 Z " fill="#F5F5F5" opacity="0.47058824" transform="translate(14,53)"/>
<path d="M0,0 L1,0 L1,1 L0,1 Z " fill="#F5F5F5" opacity="0.019607844" transform="translate(13,53)"/>
<path d="M0,0 L1,0 L1,1 L0,1 Z " fill="#F7F7F7" opacity="0.24313726" transform="translate(57,52)"/>
<path d="M0,0 L1,0 L1,1 L0,1 Z " fill="#F5F5F5" opacity="0.0627451" transform="translate(48,52)"/>
<path d="M0,0 L1,0 L1,1 L0,1 Z " fill="#F5F5F5" opacity="0.8627451" transform="translate(47,52)"/>
<path d="M0,0 L1,0 L1,1 L0,1 Z " fill="#F6F6F6" opacity="0.019607844" transform="translate(12,52)"/>
<path d="M0,0 L1,0 L1,1 L0,1 Z " fill="#F4F4F4" opacity="0.09019608" transform="translate(55,51)"/>
<path d="M0,0 L1,0 L1,1 L0,1 Z " fill="#F5F5F5" opacity="0.6784314" transform="translate(48,51)"/>
<path d="M0,0 L1,0 L1,1 L0,1 Z " fill="#F5F5F5" opacity="0.8901961" transform="translate(29,51)"/>
<path d="M0,0 L1,0 L1,1 L0,1 Z " fill="#F6F6F6" opacity="0.5411765" transform="translate(12,51)"/>
<path d="M0,0 L1,0 L1,1 L0,1 Z " fill="#F5F5F5" opacity="0.9411765" transform="translate(55,50)"/>
<path d="M0,0 L1,0 L1,1 L0,1 Z " fill="#F6F6F6" opacity="0.011764706" transform="translate(53,50)"/>
<path d="M0,0 L1,0 L1,1 L0,1 Z " fill="#F4F4F4" opacity="0.09019608" transform="translate(49,50)"/>
<path d="M0,0 L1,0 L1,1 L0,1 Z " fill="#F5F5F5" opacity="0.8392157" transform="translate(32,50)"/>
<path d="M0,0 L1,0 L1,1 L0,1 Z " fill="#F5F5F5" opacity="0.38431373" transform="translate(31,50)"/>
<path d="M0,0 L1,0 L1,1 L0,1 Z " fill="#F5F5F5" opacity="0.023529412" transform="translate(30,50)"/>
<path d="M0,0 L1,0 L1,1 L0,1 Z " fill="#F5F5F5" opacity="0.36862746" transform="translate(28,50)"/>
<path d="M0,0 L1,0 L1,1 L0,1 Z " fill="#F5F5F5" opacity="0.8235294" transform="translate(27,50)"/>
<path d="M0,0 L1,0 L1,1 L0,1 Z " fill="#F5F5F5" opacity="0.94509804" transform="translate(12,50)"/>
<path d="M0,0 L1,0 L1,1 L0,1 Z " fill="#FAFAFA" opacity="0.007843138" transform="translate(11,50)"/>
<path d="M0,0 L1,0 L1,1 L0,1 Z " fill="#F6F6F6" opacity="0.21960784" transform="translate(52,49)"/>
<path d="M0,0 L1,0 L1,1 L0,1 Z " fill="#F5F5F5" opacity="0.75686276" transform="translate(34,49)"/>
<path d="M0,0 L1,0 L1,1 L0,1 Z " fill="#F5F5F5" opacity="0.003921569" transform="translate(32,49)"/>
<path d="M0,0 L1,0 L1,1 L0,1 Z " fill="#F5F5F5" opacity="0.28235295" transform="translate(26,49)"/>
<path d="M0,0 L1,0 L1,1 L0,1 Z " fill="#F5F5F5" opacity="0.74509805" transform="translate(25,49)"/>
<path d="M0,0 L1,0 L1,1 L0,1 Z " fill="#FAFAFA" opacity="0.17254902" transform="translate(11,49)"/>
<path d="M0,0 L1,0 L1,1 L0,1 Z " fill="#F5F5F5" opacity="0.99607843" transform="translate(52,48)"/>
<path d="M0,0 L1,0 L1,1 L0,1 Z " fill="#F6F6F6" opacity="0.60784316" transform="translate(51,48)"/>
<path d="M0,0 L1,0 L1,1 L0,1 Z " fill="#F5F5F5" opacity="0.07450981" transform="translate(50,48)"/>
<path d="M0,0 L1,0 L1,1 L0,1 Z " fill="#F6F6F6" opacity="0.40784314" transform="translate(49,48)"/>
<path d="M0,0 L1,0 L1,1 L0,1 Z " fill="#F6F6F6" opacity="0.21568628" transform="translate(35,48)"/>
<path d="M0,0 L1,0 L1,1 L0,1 Z " fill="#F6F6F6" opacity="0.003921569" transform="translate(27,48)"/>
<path d="M0,0 L1,0 L1,1 L0,1 Z " fill="#F5F5F5" opacity="0.2" transform="translate(24,48)"/>
<path d="M0,0 L1,0 L1,1 L0,1 Z " fill="#F5F5F5" opacity="0.65882355" transform="translate(23,48)"/>
<path d="M0,0 L1,0 L1,1 L0,1 Z " fill="#F6F6F6" opacity="0.7176471" transform="translate(49,47)"/>
<path d="M0,0 L1,0 L1,1 L0,1 Z " fill="#F5F5F5" opacity="0.9647059" transform="translate(39,47)"/>
<path d="M0,0 L1,0 L1,1 L0,1 Z " fill="#F8F8F8" opacity="0.14117648" transform="translate(37,47)"/>
<path d="M0,0 L1,0 L1,1 L0,1 Z " fill="#F6F6F6" opacity="0.7058824" transform="translate(27,47)"/>
<path d="M0,0 L1,0 L1,1 L0,1 Z " fill="#F5F5F5" opacity="0.043137256" transform="translate(25,47)"/>
<path d="M0,0 L1,0 L1,1 L0,1 Z " fill="#F8F8F8" opacity="0.12941177" transform="translate(22,47)"/>
<path d="M0,0 L1,0 L1,1 L0,1 Z " fill="#F5F5F5" opacity="0.5764706" transform="translate(21,47)"/>
<path d="M0,0 L1,0 L1,1 L0,1 Z " fill="#F5F5F5" opacity="0.9607843" transform="translate(20,47)"/>
<path d="M0,0 L1,0 L1,1 L0,1 Z " fill="#F5F5F5" opacity="0.9254902" transform="translate(41,46)"/>
<path d="M0,0 L1,0 L1,1 L0,1 Z " fill="#FFFFFF" opacity="0.08235294" transform="translate(39,46)"/>
<path d="M0,0 L1,0 L1,1 L0,1 Z " fill="#F5F5F5" opacity="0.92941177" transform="translate(25,46)"/>
<path d="M0,0 L1,0 L1,1 L0,1 Z " fill="#F5F5F5" opacity="0.07450981" transform="translate(23,46)"/>
<path d="M0,0 L1,0 L1,1 L0,1 Z " fill="#F5F5F5" opacity="0.49019608" transform="translate(19,46)"/>
<path d="M0,0 L1,0 L1,1 L0,1 Z " fill="#F5F5F5" opacity="0.9137255" transform="translate(18,46)"/>
<path d="M0,0 L1,0 L1,1 L0,1 Z " fill="#F6F6F6" opacity="0.039215688" transform="translate(41,45)"/>
<path d="M0,0 L1,0 L1,1 L0,1 Z " fill="#F5F5F5" opacity="0.95686275" transform="translate(23,45)"/>
<path d="M0,0 L1,0 L1,1 L0,1 Z " fill="#F7F7F7" opacity="0.11372549" transform="translate(21,45)"/>
<path d="M0,0 L1,0 L1,1 L0,1 Z " fill="#F6F6F6" opacity="0.40392157" transform="translate(17,45)"/>
<path d="M0,0 L1,0 L1,1 L0,1 Z " fill="#F5F5F5" opacity="0.99607843" transform="translate(16,45)"/>
<path d="M0,0 L1,0 L1,1 L0,1 Z " fill="#F5F5F5" opacity="0.98039216" transform="translate(21,44)"/>
<path d="M0,0 L1,0 L1,1 L0,1 Z " fill="#F9F9F9" opacity="0.15686275" transform="translate(19,44)"/>
<path d="M0,0 L1,0 L1,1 L0,1 Z " fill="#F5F5F5" opacity="0.99607843" transform="translate(19,43)"/>
<path d="M0,0 L1,0 L1,1 L0,1 Z " fill="#F6F6F6" opacity="0.32156864" transform="translate(18,43)"/>
<path d="M0,0 L1,0 L1,1 L0,1 Z " fill="#F5F5F5" opacity="0.06666667" transform="translate(10,40)"/>
<path d="M0,0 L1,0 L1,1 L0,1 Z " fill="#F5F5F5" opacity="0.9647059" transform="translate(10,39)"/>
<path d="M0,0 L1,0 L1,1 L0,1 Z " fill="#F4F4F4" opacity="0.05882353" transform="translate(8,39)"/>
<path d="M0,0 L1,0 L1,1 L0,1 Z " fill="#F4F4F4" opacity="0.9098039" transform="translate(8,38)"/>
<path d="M0,0 L1,0 L1,1 L0,1 Z " fill="#F8F8F8" opacity="0.2509804" transform="translate(7,38)"/>
<path d="M0,0 L1,0 L1,1 L0,1 Z " fill="#F5F5F5" opacity="0.74509805" transform="translate(27,37)"/>
<path d="M0,0 L1,0 L1,1 L0,1 Z " fill="#F5F5F5" opacity="0.37254903" transform="translate(6,37)"/>
<path d="M0,0 L1,0 L1,1 L0,1 Z " fill="#F6F6F6" opacity="0.30588236" transform="translate(26,36)"/>
<path d="M0,0 L1,0 L1,1 L0,1 Z " fill="#F6F6F6" opacity="0.72156864" transform="translate(25,36)"/>
<path d="M0,0 L1,0 L1,1 L0,1 Z " fill="#F5F5F5" opacity="0.9882353" transform="translate(6,36)"/>
<path d="M0,0 L1,0 L1,1 L0,1 Z " fill="#F6F6F6" opacity="0.30588236" transform="translate(5,36)"/>
<path d="M0,0 L1,0 L1,1 L0,1 Z " fill="#F4F4F4" opacity="0.54509807" transform="translate(23,35)"/>
<path d="M0,0 L1,0 L1,1 L0,1 Z " fill="#F5F5F5" opacity="0.9254902" transform="translate(22,35)"/>
<path d="M0,0 L1,0 L1,1 L0,1 Z " fill="#F5F5F5" opacity="0.09803922" transform="translate(4,35)"/>
<path d="M0,0 L1,0 L1,1 L0,1 Z " fill="#F6F6F6" opacity="0.6039216" transform="translate(50,34)"/>
<path d="M0,0 L1,0 L1,1 L0,1 Z " fill="#F4F4F4" opacity="0.015686275" transform="translate(31,34)"/>
<path d="M0,0 L1,0 L1,1 L0,1 Z " fill="#F6F6F6" opacity="0.3137255" transform="translate(30,34)"/>
<path d="M0,0 L1,0 L1,1 L0,1 Z " fill="#F5F5F5" opacity="0.019607844" transform="translate(28,34)"/>
<path d="M0,0 L1,0 L1,1 L0,1 Z " fill="#F5F5F5" opacity="0.36862746" transform="translate(21,34)"/>
<path d="M0,0 L1,0 L1,1 L0,1 Z " fill="#F5F5F5" opacity="0.78431374" transform="translate(20,34)"/>
<path d="M0,0 L1,0 L1,1 L0,1 Z " fill="#F5F5F5" opacity="0.6509804" transform="translate(4,34)"/>
<path d="M0,0 L1,0 L1,1 L0,1 Z " fill="#F6F6F6" opacity="0.21176471" transform="translate(51,33)"/>
<path d="M0,0 L1,0 L1,1 L0,1 Z " fill="#F6F6F6" opacity="0.32156864" transform="translate(49,33)"/>
<path d="M0,0 L1,0 L1,1 L0,1 Z " fill="#F6F6F6" opacity="0.5372549" transform="translate(32,33)"/>
<path d="M0,0 L1,0 L1,1 L0,1 Z " fill="#F4F4F4" opacity="0.9098039" transform="translate(31,33)"/>
<path d="M0,0 L1,0 L1,1 L0,1 Z " fill="#F5F5F5" opacity="0.91764706" transform="translate(28,33)"/>
<path d="M0,0 L1,0 L1,1 L0,1 Z " fill="#F9F9F9" opacity="0.16470589" transform="translate(26,33)"/>
<path d="M0,0 L1,0 L1,1 L0,1 Z " fill="#F5F5F5" opacity="0.1882353" transform="translate(18,33)"/>
<path d="M0,0 L1,0 L1,1 L0,1 Z " fill="#F5F5F5" opacity="0.9882353" transform="translate(4,33)"/>
<path d="M0,0 L1,0 L1,1 L0,1 Z " fill="#F5F5F5" opacity="0.9372549" transform="translate(54,32)"/>
<path d="M0,0 L1,0 L1,1 L0,1 Z " fill="#F6F6F6" opacity="0.007843138" transform="translate(52,32)"/>
<path d="M0,0 L1,0 L1,1 L0,1 Z " fill="#F5F5F5" opacity="0.37254903" transform="translate(35,32)"/>
<path d="M0,0 L1,0 L1,1 L0,1 Z " fill="#F5F5F5" opacity="0.7647059" transform="translate(34,32)"/>
<path d="M0,0 L1,0 L1,1 L0,1 Z " fill="#F5F5F5" opacity="0.7764706" transform="translate(25,32)"/>
<path d="M0,0 L1,0 L1,1 L0,1 Z " fill="#F5F5F5" opacity="0.047058824" transform="translate(23,32)"/>
<path d="M0,0 L1,0 L1,1 L0,1 Z " fill="#F5F5F5" opacity="0.4745098" transform="translate(3,32)"/>
<path d="M0,0 L1,0 L1,1 L0,1 Z " fill="#F5F5F5" opacity="0.99607843" transform="translate(56,31)"/>
<path d="M0,0 L1,0 L1,1 L0,1 Z " fill="#FFFFFF" opacity="0.08627451" transform="translate(54,31)"/>
<path d="M0,0 L1,0 L1,1 L0,1 Z " fill="#F5F5F5" opacity="0.02745098" transform="translate(49,31)"/>
<path d="M0,0 L1,0 L1,1 L0,1 Z " fill="#F6F6F6" opacity="0.011764706" transform="translate(42,31)"/>
<path d="M0,0 L1,0 L1,1 L0,1 Z " fill="#F6F6F6" opacity="0.20784314" transform="translate(38,31)"/>
<path d="M0,0 L1,0 L1,1 L0,1 Z " fill="#F5F5F5" opacity="0.6" transform="translate(37,31)"/>
<path d="M0,0 L1,0 L1,1 L0,1 Z " fill="#F5F5F5" opacity="0.94509804" transform="translate(36,31)"/>
<path d="M0,0 L1,0 L1,1 L0,1 Z " fill="#F5F5F5" opacity="0.9529412" transform="translate(23,31)"/>
<path d="M0,0 L1,0 L1,1 L0,1 Z " fill="#F7F7F7" opacity="0.22352941" transform="translate(21,31)"/>
<path d="M0,0 L1,0 L1,1 L0,1 Z " fill="#F5F5F5" opacity="0.73333335" transform="translate(3,31)"/>
<path d="M0,0 L1,0 L1,1 L0,1 Z " fill="#F7F7F7" opacity="0.23529412" transform="translate(56,30)"/>
<path d="M0,0 L1,0 L1,1 L0,1 Z " fill="#F4F4F4" opacity="0.45490196" transform="translate(48,30)"/>
<path d="M0,0 L1,0 L1,1 L0,1 Z " fill="#FFFFFF" opacity="0.08627451" transform="translate(41,30)"/>
<path d="M0,0 L1,0 L1,1 L0,1 Z " fill="#F6F6F6" opacity="0.8156863" transform="translate(38,30)"/>
<path d="M0,0 L1,0 L1,1 L0,1 Z " fill="#F5F5F5" transform="translate(37,30)"/>
<path d="M0,0 L1,0 L1,1 L0,1 Z " fill="#F5F5F5" transform="translate(23,30)"/>
<path d="M0,0 L1,0 L1,1 L0,1 Z " fill="#F5F5F5" opacity="0.827451" transform="translate(21,30)"/>
<path d="M0,0 L1,0 L1,1 L0,1 Z " fill="#F5F5F5" opacity="0.49411765" transform="translate(17,30)"/>
<path d="M0,0 L1,0 L1,1 L0,1 Z " fill="#F5F5F5" opacity="0.99607843" transform="translate(16,30)"/>
<path d="M0,0 L1,0 L1,1 L0,1 Z " fill="#F5F5F5" opacity="0.8745098" transform="translate(3,30)"/>
<path d="M0,0 L1,0 L1,1 L0,1 Z " fill="#F5F5F5" opacity="0.9490196" transform="translate(59,29)"/>
<path d="M0,0 L1,0 L1,1 L0,1 Z " fill="#F6F6F6" opacity="0.015686275" transform="translate(57,29)"/>
<path d="M0,0 L1,0 L1,1 L0,1 Z " fill="#F5F5F5" opacity="0.02745098" transform="translate(49,29)"/>
<path d="M0,0 L1,0 L1,1 L0,1 Z " fill="#F6F6F6" opacity="0.7254902" transform="translate(48,29)"/>
<path d="M0,0 L1,0 L1,1 L0,1 Z " fill="#F5F5F5" opacity="0.59607846" transform="translate(40,29)"/>
<path d="M0,0 L1,0 L1,1 L0,1 Z " fill="#F9F9F9" opacity="0.14509805" transform="translate(39,29)"/>
<path d="M0,0 L1,0 L1,1 L0,1 Z " fill="#F5F5F5" opacity="0.7019608" transform="translate(36,29)"/>
<path d="M0,0 L1,0 L1,1 L0,1 Z " fill="#F5F5F5" opacity="0.99607843" transform="translate(35,29)"/>
<path d="M0,0 L1,0 L1,1 L0,1 Z " fill="#F6F6F6" opacity="0.7176471" transform="translate(23,29)"/>
<path d="M0,0 L1,0 L1,1 L0,1 Z " fill="#F8F8F8" opacity="0.13333334" transform="translate(20,29)"/>
<path d="M0,0 L1,0 L1,1 L0,1 Z " fill="#F5F5F5" opacity="0.5803922" transform="translate(19,29)"/>
<path d="M0,0 L1,0 L1,1 L0,1 Z " fill="#F5F5F5" opacity="0.9607843" transform="translate(18,29)"/>
<path d="M0,0 L1,0 L1,1 L0,1 Z " fill="#F5F5F5" opacity="0.94509804" transform="translate(3,29)"/>
<path d="M0,0 L1,0 L1,1 L0,1 Z " fill="#F6F6F6" opacity="0.101960786" transform="translate(59,28)"/>
<path d="M0,0 L1,0 L1,1 L0,1 Z " fill="#F5F5F5" opacity="0.6901961" transform="translate(49,28)"/>
<path d="M0,0 L1,0 L1,1 L0,1 Z " fill="#F5F5F5" opacity="0.6784314" transform="translate(38,28)"/>
<path d="M0,0 L1,0 L1,1 L0,1 Z " fill="#F6F6F6" opacity="0.21960784" transform="translate(37,28)"/>
<path d="M0,0 L1,0 L1,1 L0,1 Z " fill="#F9F9F9" opacity="0.15294118" transform="translate(35,28)"/>
<path d="M0,0 L1,0 L1,1 L0,1 Z " fill="#F5F5F5" opacity="0.5921569" transform="translate(34,28)"/>
<path d="M0,0 L1,0 L1,1 L0,1 Z " fill="#F5F5F5" opacity="0.9607843" transform="translate(33,28)"/>
<path d="M0,0 L1,0 L1,1 L0,1 Z " fill="#F6F6F6" opacity="0.6039216" transform="translate(25,28)"/>
<path d="M0,0 L1,0 L1,1 L0,1 Z " fill="#F6F6F6" opacity="0.20392157" transform="translate(22,28)"/>
<path d="M0,0 L1,0 L1,1 L0,1 Z " fill="#F5F5F5" opacity="0.6627451" transform="translate(21,28)"/>
<path d="M0,0 L1,0 L1,1 L0,1 Z " fill="#F5F5F5" opacity="0.9882353" transform="translate(20,28)"/>
<path d="M0,0 L1,0 L1,1 L0,1 Z " fill="#F5F5F5" opacity="0.4" transform="translate(50,27)"/>
<path d="M0,0 L1,0 L1,1 L0,1 Z " fill="#F5F5F5" opacity="0.7647059" transform="translate(36,27)"/>
<path d="M0,0 L1,0 L1,1 L0,1 Z " fill="#F6F6F6" opacity="0.30588236" transform="translate(35,27)"/>
<path d="M0,0 L1,0 L1,1 L0,1 Z " fill="#F5F5F5" opacity="0.003921569" transform="translate(34,27)"/>
<path d="M0,0 L1,0 L1,1 L0,1 Z " fill="#F5F5F5" opacity="0.47843137" transform="translate(32,27)"/>
<path d="M0,0 L1,0 L1,1 L0,1 Z " fill="#F5F5F5" opacity="0.8980392" transform="translate(31,27)"/>
<path d="M0,0 L1,0 L1,1 L0,1 Z " fill="#F4F4F4" opacity="0.9098039" transform="translate(28,27)"/>
<path d="M0,0 L1,0 L1,1 L0,1 Z " fill="#F5F5F5" opacity="0.49019608" transform="translate(27,27)"/>
<path d="M0,0 L1,0 L1,1 L0,1 Z " fill="#FFFFFF" opacity="0.08235294" transform="translate(26,27)"/>
<path d="M0,0 L1,0 L1,1 L0,1 Z " fill="#F5F5F5" opacity="0.28627452" transform="translate(24,27)"/>
<path d="M0,0 L1,0 L1,1 L0,1 Z " fill="#F5F5F5" opacity="0.74509805" transform="translate(23,27)"/>
<path d="M0,0 L1,0 L1,1 L0,1 Z " fill="#F5F5F5" opacity="0.76862746" transform="translate(3,27)"/>
<path d="M0,0 L1,0 L1,1 L0,1 Z " fill="#F5F5F5" opacity="0.9372549" transform="translate(50,26)"/>
<path d="M0,0 L1,0 L1,1 L0,1 Z " fill="#F5F5F5" opacity="0.84313726" transform="translate(34,26)"/>
<path d="M0,0 L1,0 L1,1 L0,1 Z " fill="#F5F5F5" opacity="0.3882353" transform="translate(33,26)"/>
<path d="M0,0 L1,0 L1,1 L0,1 Z " fill="#F5F5F5" opacity="0.019607844" transform="translate(31,26)"/>
<path d="M0,0 L1,0 L1,1 L0,1 Z " fill="#F5F5F5" opacity="0.38039216" transform="translate(29,26)"/>
<path d="M0,0 L1,0 L1,1 L0,1 Z " fill="#F4F4F4" opacity="0.02745098" transform="translate(28,26)"/>
<path d="M0,0 L1,0 L1,1 L0,1 Z " fill="#F5F5F5" opacity="0.36862746" transform="translate(26,26)"/>
<path d="M0,0 L1,0 L1,1 L0,1 Z " fill="#F5F5F5" opacity="0.827451" transform="translate(25,26)"/>
<path d="M0,0 L1,0 L1,1 L0,1 Z " fill="#F7F7F7" opacity="0.4509804" transform="translate(51,25)"/>
<path d="M0,0 L1,0 L1,1 L0,1 Z " fill="#F6F6F6" opacity="0.90588236" transform="translate(32,25)"/>
<path d="M0,0 L1,0 L1,1 L0,1 Z " fill="#F5F5F5" opacity="0.4745098" transform="translate(31,25)"/>
<path d="M0,0 L1,0 L1,1 L0,1 Z " fill="#F5F5F5" opacity="0.06666667" transform="translate(30,25)"/>
<path d="M0,0 L1,0 L1,1 L0,1 Z " fill="#F4F4F4" opacity="0.45490196" transform="translate(28,25)"/>
<path d="M0,0 L1,0 L1,1 L0,1 Z " fill="#F5F5F5" opacity="0.89411765" transform="translate(27,25)"/>
<path d="M0,0 L1,0 L1,1 L0,1 Z " fill="#F6F6F6" opacity="0.20392157" transform="translate(3,25)"/>
<path d="M0,0 L1,0 L1,1 L0,1 Z " fill="#F6F6F6" opacity="0.80784315" transform="translate(51,24)"/>
<path d="M0,0 L1,0 L1,1 L0,1 Z " fill="#F5F5F5" opacity="0.7882353" transform="translate(4,24)"/>
<path d="M0,0 L1,0 L1,1 L0,1 Z " fill="#FAFAFA" opacity="0.05882353" transform="translate(52,23)"/>
<path d="M0,0 L1,0 L1,1 L0,1 Z " fill="#F6F6F6" opacity="0.20784314" transform="translate(4,23)"/>
<path d="M0,0 L1,0 L1,1 L0,1 Z " fill="#F6F6F6" opacity="0.5176471" transform="translate(5,22)"/>
<path d="M0,0 L1,0 L1,1 L0,1 Z " fill="#F8F8F8" opacity="0.26666668" transform="translate(52,21)"/>
<path d="M0,0 L1,0 L1,1 L0,1 Z " fill="#F6F6F6" opacity="0.72156864" transform="translate(25,21)"/>
<path d="M0,0 L1,0 L1,1 L0,1 Z " fill="#F6F6F6" opacity="0.6156863" transform="translate(6,21)"/>
<path d="M0,0 L1,0 L1,1 L0,1 Z " fill="#F4F4F4" opacity="0.019607844" transform="translate(25,20)"/>
<path d="M0,0 L1,0 L1,1 L0,1 Z " fill="#F4F4F4" opacity="0.63529414" transform="translate(24,20)"/>
<path d="M0,0 L1,0 L1,1 L0,1 Z " fill="#F5F5F5" opacity="0.99215686" transform="translate(8,20)"/>
<path d="M0,0 L1,0 L1,1 L0,1 Z " fill="#F6F6F6" opacity="0.007843138" transform="translate(6,20)"/>
<path d="M0,0 L1,0 L1,1 L0,1 Z " fill="#F5F5F5" opacity="0.07058824" transform="translate(52,19)"/>
<path d="M0,0 L1,0 L1,1 L0,1 Z " fill="#F6F6F6" opacity="0.5294118" transform="translate(26,19)"/>
<path d="M0,0 L1,0 L1,1 L0,1 Z " fill="#F6F6F6" opacity="0.30980393" transform="translate(23,19)"/>
<path d="M0,0 L1,0 L1,1 L0,1 Z " fill="#F5F5F5" opacity="0.85882354" transform="translate(22,19)"/>
<path d="M0,0 L1,0 L1,1 L0,1 Z " fill="#F8F8F8" opacity="0.25490198" transform="translate(8,19)"/>
<path d="M0,0 L1,0 L1,1 L0,1 Z " fill="#F5F5F5" opacity="0.83137256" transform="translate(51,18)"/>
<path d="M0,0 L1,0 L1,1 L0,1 Z " fill="#F5F5F5" opacity="0.38039216" transform="translate(21,18)"/>
<path d="M0,0 L1,0 L1,1 L0,1 Z " fill="#F6F6F6" opacity="0.70980394" transform="translate(20,18)"/>
<path d="M0,0 L1,0 L1,1 L0,1 Z " fill="#F5F5F5" opacity="0.9764706" transform="translate(19,18)"/>
<path d="M0,0 L1,0 L1,1 L0,1 Z " fill="#F5F5F5" opacity="0.7019608" transform="translate(11,18)"/>
<path d="M0,0 L1,0 L1,1 L0,1 Z " fill="#F6F6F6" opacity="0.003921569" transform="translate(9,18)"/>
<path d="M0,0 L1,0 L1,1 L0,1 Z " fill="#F5F5F5" opacity="0.9019608" transform="translate(27,17)"/>
<path d="M0,0 L1,0 L1,1 L0,1 Z " fill="#F5F5F5" opacity="0.015686275" transform="translate(26,17)"/>
<path d="M0,0 L1,0 L1,1 L0,1 Z " fill="#F7F7F7" opacity="0.05490196" transform="translate(19,17)"/>
<path d="M0,0 L1,0 L1,1 L0,1 Z " fill="#F7F7F7" opacity="0.23529412" transform="translate(18,17)"/>
<path d="M0,0 L1,0 L1,1 L0,1 Z " fill="#F7F7F7" opacity="0.3372549" transform="translate(17,17)"/>
<path d="M0,0 L1,0 L1,1 L0,1 Z " fill="#F6F6F6" opacity="0.4392157" transform="translate(16,17)"/>
<path d="M0,0 L1,0 L1,1 L0,1 Z " fill="#F7F7F7" opacity="0.34509805" transform="translate(14,17)"/>
<path d="M0,0 L1,0 L1,1 L0,1 Z " fill="#F7F7F7" opacity="0.023529412" transform="translate(12,17)"/>
<path d="M0,0 L1,0 L1,1 L0,1 Z " fill="#F6F6F6" opacity="0.101960786" transform="translate(51,16)"/>
<path d="M0,0 L1,0 L1,1 L0,1 Z " fill="#F5F5F5" opacity="0.9529412" transform="translate(50,16)"/>
<path d="M0,0 L1,0 L1,1 L0,1 Z " fill="#F5F5F5" opacity="0.85882354" transform="translate(28,15)"/>
<path d="M0,0 L1,0 L1,1 L0,1 Z " fill="#F5F5F5" opacity="0.05882353" transform="translate(27,15)"/>
<path d="M0,0 L1,0 L1,1 L0,1 Z " fill="#F5F5F5" opacity="0.019607844" transform="translate(50,14)"/>
<path d="M0,0 L1,0 L1,1 L0,1 Z " fill="#F5F5F5" opacity="0.73333335" transform="translate(49,14)"/>
<path d="M0,0 L1,0 L1,1 L0,1 Z " fill="#F5F5F5" opacity="0.18431373" transform="translate(28,14)"/>
<path d="M0,0 L1,0 L1,1 L0,1 Z " fill="#F5F5F5" opacity="0.8" transform="translate(48,13)"/>
<path d="M0,0 L1,0 L1,1 L0,1 Z " fill="#F5F5F5" opacity="0.98039216" transform="translate(30,13)"/>
<path d="M0,0 L1,0 L1,1 L0,1 Z " fill="#F7F7F7" opacity="0.34901962" transform="translate(29,13)"/>
<path d="M0,0 L1,0 L1,1 L0,1 Z " fill="#F5F5F5" opacity="0.6392157" transform="translate(47,12)"/>
<path d="M0,0 L1,0 L1,1 L0,1 Z " fill="#F6F6F6" opacity="0.21176471" transform="translate(30,12)"/>
<path d="M0,0 L1,0 L1,1 L0,1 Z " fill="#F7F7F7" opacity="0.34901962" transform="translate(46,11)"/>
<path d="M0,0 L1,0 L1,1 L0,1 Z " fill="#F5F5F5" opacity="0.85882354" transform="translate(45,11)"/>
<path d="M0,0 L1,0 L1,1 L0,1 Z " fill="#F5F5F5" opacity="0.972549" transform="translate(33,11)"/>
<path d="M0,0 L1,0 L1,1 L0,1 Z " fill="#F6F6F6" opacity="0.0627451" transform="translate(31,11)"/>
<path d="M0,0 L1,0 L1,1 L0,1 Z " fill="#F7F7F7" opacity="0.3529412" transform="translate(44,10)"/>
<path d="M0,0 L1,0 L1,1 L0,1 Z " fill="#F5F5F5" opacity="0.6862745" transform="translate(43,10)"/>
<path d="M0,0 L1,0 L1,1 L0,1 Z " fill="#F5F5F5" opacity="0.94509804" transform="translate(42,10)"/>
<path d="M0,0 L1,0 L1,1 L0,1 Z " fill="#F5F5F5" opacity="0.84705883" transform="translate(35,10)"/>
<path d="M0,0 L1,0 L1,1 L0,1 Z " fill="#FFFFFF" opacity="0.078431375" transform="translate(33,10)"/>
<path d="M0,0 L1,0 L1,1 L0,1 Z " fill="#FAFAFA" opacity="0.16862746" transform="translate(41,9)"/>
<path d="M0,0 L1,0 L1,1 L0,1 Z " fill="#F8F8F8" opacity="0.2627451" transform="translate(40,9)"/>
<path d="M0,0 L1,0 L1,1 L0,1 Z " fill="#F5F5F5" opacity="0.2784314" transform="translate(38,9)"/>
<path d="M0,0 L1,0 L1,1 L0,1 Z " fill="#F9F9F9" opacity="0.03137255" transform="translate(36,9)"/>
</svg>
