<?xml version="1.0" encoding="UTF-8"?>
<!-- Generator: visioncortex VTracer 0.6.4 -->
<svg version="1.1" xmlns="http://www.w3.org/2000/svg" width="128" height="128">
<path d="M0,0 L17,0 L17,1 L20,1 L20,2 L23,2 L23,3 L25,3 L25,4 L27,4 L27,5 L29,5 L29,6 L30,6 L30,7 L32,7 L32,8 L33,8 L33,9 L34,9 L34,10 L35,10 L35,11 L36,11 L36,12 L37,12 L37,13 L38,13 L38,14 L39,14 L39,15 L40,15 L40,17 L41,17 L41,19 L42,19 L42,21 L43,21 L43,23 L44,23 L44,25 L45,25 L45,29 L46,29 L46,47 L42,47 L42,46 L43,46 L43,35 L42,35 L42,32 L41,32 L41,30 L40,30 L40,29 L39,29 L39,28 L38,28 L38,27 L31,27 L31,28 L30,28 L30,29 L29,29 L29,30 L28,30 L28,32 L27,32 L27,34 L26,34 L26,46 L27,46 L27,49 L28,49 L28,50 L26,50 L26,51 L25,51 L25,52 L23,52 L23,53 L22,53 L22,54 L21,54 L21,55 L20,55 L20,56 L19,56 L19,57 L18,57 L18,58 L17,58 L17,60 L16,60 L16,62 L15,62 L15,64 L14,64 L14,68 L13,68 L13,78 L14,78 L14,81 L15,81 L15,84 L16,84 L16,86 L17,86 L17,87 L18,87 L18,89 L19,89 L19,90 L20,90 L20,91 L21,91 L21,92 L22,92 L22,93 L24,93 L24,108 L23,108 L23,109 L22,109 L22,110 L17,110 L17,109 L16,109 L16,108 L15,108 L15,106 L14,106 L14,97 L13,97 L13,96 L12,96 L12,95 L9,95 L9,94 L8,94 L8,95 L5,95 L5,96 L4,96 L4,97 L3,97 L3,100 L2,100 L2,108 L1,108 L1,109 L0,109 L0,110 L-5,110 L-5,109 L-6,109 L-6,108 L-7,108 L-7,106 L-8,106 L-8,97 L-9,97 L-9,96 L-10,96 L-10,95 L-13,95 L-13,94 L-14,94 L-14,95 L-17,95 L-17,96 L-18,96 L-18,97 L-19,97 L-19,100 L-20,100 L-20,108 L-21,108 L-21,109 L-22,109 L-22,110 L-27,110 L-27,109 L-28,109 L-28,108 L-29,108 L-29,105 L-30,105 L-30,36 L-29,36 L-29,28 L-28,28 L-28,25 L-27,25 L-27,22 L-26,22 L-26,20 L-25,20 L-25,18 L-24,18 L-24,17 L-23,17 L-23,15 L-22,15 L-22,14 L-21,14 L-21,13 L-20,13 L-20,12 L-19,12 L-19,11 L-18,11 L-18,10 L-17,10 L-17,9 L-16,9 L-16,8 L-15,8 L-15,7 L-14,7 L-14,6 L-12,6 L-12,5 L-10,5 L-10,4 L-9,4 L-9,3 L-6,3 L-6,2 L-4,2 L-4,1 L0,1 Z M4,27 L4,28 L2,28 L2,29 L1,29 L1,31 L0,31 L0,33 L-1,33 L-1,37 L-2,37 L-2,43 L-1,43 L-1,47 L0,47 L0,50 L1,50 L1,51 L2,51 L2,52 L3,52 L3,53 L4,53 L4,54 L10,54 L10,53 L11,53 L11,52 L12,52 L12,51 L13,51 L13,50 L14,50 L14,48 L15,48 L15,44 L16,44 L16,37 L15,37 L15,33 L14,33 L14,31 L13,31 L13,29 L12,29 L12,28 L11,28 L11,27 Z " fill="#8DA5F3" transform="translate(30,9)"/>
<path d="M0,0 L1,0 L1,1 L0,1 Z " fill="#8CA4F3" opacity="0.99215686" transform="translate(48,97)"/>
<path d="M0,0 L4,0 L4,1 L8,1 L8,2 L10,2 L10,3 L12,3 L12,4 L13,4 L13,5 L14,5 L14,6 L15,6 L15,7 L16,7 L16,8 L17,8 L17,10 L18,10 L18,19 L17,19 L17,21 L16,21 L16,23 L15,23 L15,24 L14,24 L14,25 L13,25 L13,27 L14,27 L14,29 L15,29 L15,32 L17,32 L17,31 L19,31 L19,30 L21,30 L21,29 L22,29 L22,28 L24,28 L24,27 L26,27 L26,26 L27,26 L27,25 L29,25 L29,24 L30,24 L30,56 L29,56 L29,55 L28,55 L28,54 L26,54 L26,53 L24,53 L24,52 L23,52 L23,51 L21,51 L21,50 L19,50 L19,49 L18,49 L18,48 L16,48 L16,47 L15,47 L15,51 L14,51 L14,53 L13,53 L13,54 L12,54 L12,55 L10,55 L10,56 L-28,56 L-28,55 L-30,55 L-30,54 L-31,54 L-31,53 L-32,53 L-32,39 L-33,39 L-33,38 L-35,38 L-35,37 L-37,37 L-37,36 L-38,36 L-38,35 L-39,35 L-39,34 L-40,34 L-40,33 L-41,33 L-41,31 L-42,31 L-42,29 L-43,29 L-43,20 L-42,20 L-42,18 L-41,18 L-41,17 L-40,17 L-40,16 L-39,16 L-39,15 L-38,15 L-38,14 L-37,14 L-37,13 L-35,13 L-35,12 L-33,12 L-33,11 L-29,11 L-29,10 L-26,10 L-26,11 L-21,11 L-21,12 L-19,12 L-19,13 L-17,13 L-17,14 L-16,14 L-16,15 L-15,15 L-15,16 L-14,16 L-14,12 L-13,12 L-13,9 L-12,9 L-12,8 L-11,8 L-11,6 L-10,6 L-10,5 L-9,5 L-9,4 L-8,4 L-8,3 L-6,3 L-6,2 L-4,2 L-4,1 L0,1 Z " fill="#8DA5F3" transform="translate(98,57)"/>
<path d="M0,0 L33,0 L33,1 L0,1 Z " fill="#8CA5F3" opacity="0.5647059" transform="translate(73,113)"/>
<path d="M0,0 L1,0 L1,1 L0,1 Z M-1,1 L0,1 L0,2 L-1,2 Z M-2,2 L-1,2 L-1,3 L-2,3 Z M-3,3 L-2,3 L-2,4 L-3,4 Z M-4,4 L-3,4 L-3,5 L-4,5 Z M-5,5 L-4,5 L-4,6 L-5,6 Z M-6,6 L-5,6 L-5,7 L-6,7 Z M-7,7 L-6,7 L-6,8 L-7,8 Z M-8,8 L-7,8 L-7,9 L-8,9 Z M-9,9 L-8,9 L-8,10 L-9,10 Z " fill="#8DA5F3" transform="translate(16,15)"/>
<path d="M0,0 L1,0 L1,11 L0,11 Z " fill="#8CA5F3" opacity="0.8" transform="translate(76,45)"/>
<path d="M0,0 L1,0 L1,1 L0,1 Z M-1,1 L0,1 L0,2 L-1,2 Z M-2,2 L-1,2 L-1,3 L-2,3 Z M-3,3 L-2,3 L-2,4 L-3,4 Z M-4,4 L-3,4 L-3,5 L-4,5 Z M-5,5 L-4,5 L-4,6 L-5,6 Z " fill="#8DA5F3" transform="translate(61,70)"/>
<path d="M0,0 L1,0 L1,4 L0,4 Z " fill="#8DA4F2" opacity="0.84705883" transform="translate(54,110)"/>
<path d="M0,0 L1,0 L1,1 L0,1 Z M-1,1 L0,1 L0,2 L-1,2 Z M-2,2 L-1,2 L-1,3 L-2,3 Z M-3,3 L-2,3 L-2,4 L-3,4 Z " fill="#8DA5F3" transform="translate(90,60)"/>
<path d="M0,0 L1,0 L1,9 L0,9 Z " fill="#8DA5F3" opacity="0.83137256" transform="translate(65,98)"/>
<path d="M0,0 L1,0 L1,1 L0,1 Z " fill="#8CA5F3" opacity="0.85490197" transform="translate(54,82)"/>
<path d="M0,0 L1,0 L1,3 L0,3 Z " fill="#90A8F8" opacity="0.1254902" transform="translate(43,111)"/>
<path d="M0,0 L1,0 L1,3 L0,3 Z " fill="#8DA5F3" opacity="0.0627451" transform="translate(21,111)"/>
<path d="M0,0 L1,0 L1,2 L0,2 Z " fill="#8CA4F3" opacity="0.627451" transform="translate(54,104)"/>
<path d="M0,0 L1,0 L1,1 L0,1 Z " fill="#92AAF3" opacity="0.08235294" transform="translate(113,86)"/>
<path d="M0,0 L1,0 L1,1 L0,1 Z " fill="#8DA4F2" opacity="0.76862746" transform="translate(75,56)"/>
<path d="M0,0 L1,0 L1,1 L0,1 Z " fill="#8DA4F2" opacity="0.38431373" transform="translate(72,48)"/>
<path d="M0,0 L1,0 L1,1 L0,1 Z " fill="#8FA5F4" opacity="0.26666668" transform="translate(56,48)"/>
<path d="M0,0 L1,0 L1,1 L0,1 Z " fill="#8CA4F3" opacity="0.9137255" transform="translate(0,43)"/>
<path d="M0,0 L1,0 L1,1 L0,1 Z " fill="#8DA4F4" opacity="0.4392157" transform="translate(76,40)"/>
<path d="M0,0 L1,0 L1,1 L0,1 Z " fill="#8DA5F3" opacity="0.9529412" transform="translate(29,9)"/>
<path d="M0,0 L1,0 L1,1 L0,1 Z " fill="#8DA4F3" opacity="0.85882354" transform="translate(41,8)"/>
<path d="M0,0 L1,0 L1,1 L0,1 Z " fill="#8CA5F4" opacity="0.84313726" transform="translate(49,119)"/>
<path d="M0,0 L1,0 L1,1 L0,1 Z " fill="#8CA5F4" opacity="0.84313726" transform="translate(27,119)"/>
<path d="M0,0 L1,0 L1,1 L0,1 Z " fill="#8CA5F4" opacity="0.84313726" transform="translate(5,119)"/>
<path d="M0,0 L1,0 L1,3 L0,3 Z " fill="#8DA5F3" opacity="0.9098039" transform="translate(32,111)"/>
<path d="M0,0 L1,0 L1,3 L0,3 Z " fill="#8DA5F3" opacity="0.972549" transform="translate(10,111)"/>
<path d="M0,0 L1,0 L1,1 L0,1 Z " fill="#8DA5F3" opacity="0.5764706" transform="translate(43,81)"/>
<path d="M0,0 L1,0 L1,1 L0,1 Z " fill="#8CA5F4" opacity="0.75686276" transform="translate(42,59)"/>
<path d="M0,0 L1,0 L1,1 L0,1 Z " fill="#8DA4F3" opacity="0.94509804" transform="translate(57,57)"/>
<path d="M0,0 L1,0 L1,1 L0,1 Z " fill="#8BA6F4" opacity="0.25882354" transform="translate(83,70)"/>
<path d="M0,0 L1,0 L1,1 L0,1 Z " fill="#8DA5F3" opacity="0.4745098" transform="translate(37,62)"/>
<path d="M0,0 L1,0 L1,1 L0,1 Z " fill="#8CA4F3" opacity="0.16470589" transform="translate(100,56)"/>
<path d="M0,0 L1,0 L1,1 L0,1 Z " fill="#8CA4F3" opacity="0.96862745" transform="translate(2,33)"/>
<path d="M0,0 L1,0 L1,1 L0,1 Z " fill="#8DA4F2" opacity="0.84705883" transform="translate(14,16)"/>
<path d="M0,0 L1,0 L1,1 L0,1 Z " fill="#8DA4F6" opacity="0.21960784" transform="translate(113,106)"/>
<path d="M0,0 L1,0 L1,1 L0,1 Z " fill="#8CA5F7" opacity="0.12156863" transform="translate(39,104)"/>
<path d="M0,0 L1,0 L1,1 L0,1 Z " fill="#89A4F6" opacity="0.10980392" transform="translate(17,104)"/>
<path d="M0,0 L1,0 L1,1 L0,1 Z " fill="#8AAAF5" opacity="0.09411765" transform="translate(71,66)"/>
<path d="M0,0 L1,0 L1,1 L0,1 Z " fill="#8DA4F3" opacity="0.78039217" transform="translate(31,59)"/>
<path d="M0,0 L1,0 L1,1 L0,1 Z " fill="#8CA4F3" opacity="0.8352941" transform="translate(45,50)"/>
<path d="M0,0 L1,0 L1,1 L0,1 Z " fill="#8AA8F8" opacity="0.13725491" transform="translate(65,36)"/>
<path d="M0,0 L1,0 L1,1 L0,1 Z " fill="#8DA5F3" opacity="0.5529412" transform="translate(72,113)"/>
<path d="M0,0 L1,0 L1,1 L0,1 Z " fill="#8CA6F3" opacity="0.3137255" transform="translate(68,112)"/>
<path d="M0,0 L1,0 L1,1 L0,1 Z " fill="#8DA5F4" opacity="0.45490196" transform="translate(124,111)"/>
<path d="M0,0 L1,0 L1,1 L0,1 Z " fill="#90A8F8" opacity="0.1254902" transform="translate(43,110)"/>
<path d="M0,0 L1,0 L1,1 L0,1 Z " fill="#8DA5F3" opacity="0.0627451" transform="translate(21,110)"/>
<path d="M0,0 L1,0 L1,1 L0,1 Z " fill="#8DA4F4" opacity="0.4392157" transform="translate(119,108)"/>
<path d="M0,0 L1,0 L1,1 L0,1 Z " fill="#8CA4F3" opacity="0.627451" transform="translate(54,103)"/>
<path d="M0,0 L1,0 L1,1 L0,1 Z " fill="#8DA5F4" opacity="0.45490196" transform="translate(48,96)"/>
<path d="M0,0 L1,0 L1,1 L0,1 Z " fill="#8DA4F3" opacity="0.8156863" transform="translate(44,89)"/>
<path d="M0,0 L1,0 L1,1 L0,1 Z " fill="#8CA4F3" opacity="0.87058824" transform="translate(116,87)"/>
<path d="M0,0 L1,0 L1,1 L0,1 Z " fill="#8CA4F3" opacity="0.7058824" transform="translate(119,85)"/>
<path d="M0,0 L1,0 L1,1 L0,1 Z " fill="#8DA4F3" opacity="0.94509804" transform="translate(112,85)"/>
<path d="M0,0 L1,0 L1,1 L0,1 Z " fill="#8CA4F3" opacity="0.7137255" transform="translate(124,82)"/>
<path d="M0,0 L1,0 L1,1 L0,1 Z " fill="#8CA5F4" opacity="0.7647059" transform="translate(54,80)"/>
<path d="M0,0 L1,0 L1,1 L0,1 Z " fill="#8CA5F4" opacity="0.75686276" transform="translate(116,70)"/>
<path d="M0,0 L1,0 L1,1 L0,1 Z " fill="#8DA5F3" opacity="0.8666667" transform="translate(60,70)"/>
<path d="M0,0 L1,0 L1,1 L0,1 Z " fill="#8DA5F3" opacity="0.8745098" transform="translate(67,67)"/>
<path d="M0,0 L1,0 L1,1 L0,1 Z " fill="#8EA3F3" opacity="0.23921569" transform="translate(84,66)"/>
<path d="M0,0 L1,0 L1,1 L0,1 Z " fill="#8DA5F4" opacity="0.6901961" transform="translate(87,62)"/>
<path d="M0,0 L1,0 L1,1 L0,1 Z " fill="#8CA5F3" opacity="0.8784314" transform="translate(91,59)"/>
<path d="M0,0 L1,0 L1,1 L0,1 Z " fill="#8DA5F3" opacity="0.77254903" transform="translate(96,57)"/>
<path d="M0,0 L1,0 L1,1 L0,1 Z " fill="#8DA5F3" opacity="0.8745098" transform="translate(28,50)"/>
<path d="M0,0 L1,0 L1,1 L0,1 Z " fill="#8AA8F8" opacity="0.003921569" transform="translate(44,46)"/>
<path d="M0,0 L1,0 L1,1 L0,1 Z " fill="#8BA8F4" opacity="0.015686275" transform="translate(29,46)"/>
<path d="M0,0 L1,0 L1,1 L0,1 Z " fill="#8CA5F4" opacity="0.75686276" transform="translate(76,44)"/>
<path d="M0,0 L1,0 L1,1 L0,1 Z " fill="#8DA5F3" opacity="0.91764706" transform="translate(70,39)"/>
<path d="M0,0 L1,0 L1,1 L0,1 Z " fill="#8DA5F3" opacity="0.49803922" transform="translate(0,39)"/>
<path d="M0,0 L1,0 L1,1 L0,1 Z " fill="#8CA5F3" opacity="0.93333334" transform="translate(75,37)"/>
<path d="M0,0 L1,0 L1,1 L0,1 Z " fill="#8DA5F3" opacity="0.05490196" transform="translate(36,36)"/>
<path d="M0,0 L1,0 L1,1 L0,1 Z " fill="#8CA5F4" opacity="0.35686275" transform="translate(4,27)"/>
<path d="M0,0 L1,0 L1,1 L0,1 Z " fill="#8DA6F4" opacity="0.5254902" transform="translate(71,26)"/>
<path d="M0,0 L1,0 L1,1 L0,1 Z " fill="#8CA5F3" opacity="0.7294118" transform="translate(7,23)"/>
<path d="M0,0 L1,0 L1,1 L0,1 Z " fill="#8DA4F3" opacity="0.98039216" transform="translate(60,15)"/>
<path d="M0,0 L1,0 L1,1 L0,1 Z " fill="#8CA5F4" opacity="0.92156863" transform="translate(17,14)"/>
<path d="M0,0 L1,0 L1,1 L0,1 Z " fill="#8DA4F3" opacity="0.94509804" transform="translate(57,13)"/>
<path d="M0,0 L1,0 L1,1 L0,1 Z " fill="#8DA5F3" opacity="0.91764706" transform="translate(36,8)"/>
<path d="M0,0 L1,0 L1,1 L0,1 Z " fill="#8DA6F4" opacity="0.5254902" transform="translate(32,8)"/>
<path d="M0,0 L1,0 L1,1 L0,1 Z " fill="#8DA5F3" opacity="0.9607843" transform="translate(45,117)"/>
<path d="M0,0 L1,0 L1,1 L0,1 Z " fill="#8CA5F3" opacity="0.93333334" transform="translate(23,117)"/>
<path d="M0,0 L1,0 L1,1 L0,1 Z " fill="#8DA4F3" opacity="0.9019608" transform="translate(1,117)"/>
<path d="M0,0 L1,0 L1,1 L0,1 Z " fill="#8CA5F7" opacity="0.12156863" transform="translate(11,108)"/>
<path d="M0,0 L1,0 L1,1 L0,1 Z " fill="#8CA5F3" opacity="0.7411765" transform="translate(42,105)"/>
<path d="M0,0 L1,0 L1,1 L0,1 Z " fill="#8DA4F2" opacity="0.69411767" transform="translate(20,105)"/>
<path d="M0,0 L1,0 L1,1 L0,1 Z " fill="#8DA4F3" opacity="0.9372549" transform="translate(51,100)"/>
<path d="M0,0 L1,0 L1,1 L0,1 Z " fill="#8DA4F3" opacity="0.94509804" transform="translate(49,98)"/>
<path d="M0,0 L1,0 L1,1 L0,1 Z " fill="#8DA5F4" opacity="0.8392157" transform="translate(59,92)"/>
<path d="M0,0 L1,0 L1,1 L0,1 Z " fill="#8CA5F3" opacity="0.81960785" transform="translate(57,90)"/>
<path d="M0,0 L1,0 L1,1 L0,1 Z " fill="#8CA4F3" opacity="0.96862745" transform="translate(58,72)"/>
<path d="M0,0 L1,0 L1,1 L0,1 Z " fill="#8DA5F3" opacity="0.972549" transform="translate(112,62)"/>
<path d="M0,0 L1,0 L1,1 L0,1 Z " fill="#8DA4F3" opacity="0.98039216" transform="translate(34,62)"/>
<path d="M0,0 L1,0 L1,1 L0,1 Z " fill="#8DA5F3" opacity="0.8745098" transform="translate(110,60)"/>
<path d="M0,0 L1,0 L1,1 L0,1 Z " fill="#8CA5F3" opacity="0.5411765" transform="translate(58,58)"/>
<path d="M0,0 L1,0 L1,1 L0,1 Z " fill="#8CA5F4" opacity="0.3647059" transform="translate(105,57)"/>
<path d="M0,0 L1,0 L1,1 L0,1 Z " fill="#8BA6F4" opacity="0.3372549" transform="translate(71,55)"/>
<path d="M0,0 L1,0 L1,1 L0,1 Z " fill="#8BA7F6" opacity="0.21568628" transform="translate(44,53)"/>
<path d="M0,0 L1,0 L1,1 L0,1 Z " fill="#8CA4F4" opacity="0.2509804" transform="translate(29,53)"/>
<path d="M0,0 L1,0 L1,1 L0,1 Z " fill="#8DA3F5" opacity="0.18431373" transform="translate(71,43)"/>
<path d="M0,0 L1,0 L1,1 L0,1 Z " fill="#8CA5F3" opacity="0.7411765" transform="translate(68,37)"/>
<path d="M0,0 L1,0 L1,1 L0,1 Z " fill="#8DA5F3" opacity="0.9529412" transform="translate(41,37)"/>
<path d="M0,0 L1,0 L1,1 L0,1 Z " fill="#8DA5F3" opacity="0.8666667" transform="translate(67,21)"/>
<path d="M0,0 L1,0 L1,1 L0,1 Z " fill="#8DA5F3" opacity="0.9607843" transform="translate(9,21)"/>
<path d="M0,0 L1,0 L1,1 L0,1 Z " fill="#8DA5F3" opacity="0.92941177" transform="translate(65,19)"/>
<path d="M0,0 L1,0 L1,1 L0,1 Z " fill="#8DA5F3" opacity="0.83137256" transform="translate(63,17)"/>
<path d="M0,0 L1,0 L1,1 L0,1 Z " fill="#8CA4F3" opacity="0.40784314" transform="translate(49,9)"/>
<path d="M0,0 L1,0 L1,1 L0,1 Z " fill="#8CA6F3" opacity="0.15686275" transform="translate(46,8)"/>
<path d="M0,0 L1,0 L1,1 L0,1 Z " fill="#8DA5F3" opacity="0.99607843" transform="translate(38,8)"/>
<path d="M0,0 L1,0 L1,1 L0,1 Z " fill="#8CA6F4" opacity="0.5137255" transform="translate(47,119)"/>
<path d="M0,0 L1,0 L1,1 L0,1 Z " fill="#8DA5F3" opacity="0.49803922" transform="translate(25,119)"/>
<path d="M0,0 L1,0 L1,1 L0,1 Z " fill="#8DA5F3" opacity="0.4745098" transform="translate(3,119)"/>
<path d="M0,0 L1,0 L1,1 L0,1 Z " fill="#8CA4F3" opacity="0.019607844" transform="translate(54,117)"/>
<path d="M0,0 L1,0 L1,1 L0,1 Z " fill="#8DA4F4" opacity="0.2627451" transform="translate(70,113)"/>
<path d="M0,0 L1,0 L1,1 L0,1 Z " fill="#8DA4F3" opacity="0.65882355" transform="translate(126,112)"/>
<path d="M0,0 L1,0 L1,1 L0,1 Z " fill="#8CA5F4" opacity="0.6784314" transform="translate(67,111)"/>
<path d="M0,0 L1,0 L1,1 L0,1 Z " fill="#8CA4F3" opacity="0.8352941" transform="translate(123,110)"/>
<path d="M0,0 L1,0 L1,1 L0,1 Z " fill="#8DA5F3" opacity="0.9098039" transform="translate(32,110)"/>
<path d="M0,0 L1,0 L1,1 L0,1 Z " fill="#8DA5F3" opacity="0.972549" transform="translate(10,110)"/>
<path d="M0,0 L1,0 L1,1 L0,1 Z " fill="#8DA4F3" opacity="0.64705884" transform="translate(121,109)"/>
<path d="M0,0 L1,0 L1,1 L0,1 Z " fill="#8CA5F3" opacity="0.827451" transform="translate(54,109)"/>
<path d="M0,0 L1,0 L1,1 L0,1 Z " fill="#8DA8F9" opacity="0.02745098" transform="translate(113,108)"/>
<path d="M0,0 L1,0 L1,1 L0,1 Z " fill="#8EA7F5" opacity="0.28235295" transform="translate(43,108)"/>
<path d="M0,0 L1,0 L1,1 L0,1 Z " fill="#8EA4F5" opacity="0.06666667" transform="translate(33,108)"/>
<path d="M0,0 L1,0 L1,1 L0,1 Z " fill="#8DA4F6" opacity="0.21960784" transform="translate(21,108)"/>
<path d="M0,0 L1,0 L1,1 L0,1 Z " fill="#8CA5F3" opacity="0.827451" transform="translate(118,107)"/>
<path d="M0,0 L1,0 L1,1 L0,1 Z " fill="#8CA5F3" opacity="0.63529414" transform="translate(116,106)"/>
<path d="M0,0 L1,0 L1,1 L0,1 Z " fill="#92AAF3" opacity="0.08235294" transform="translate(37,104)"/>
<path d="M0,0 L1,0 L1,1 L0,1 Z " fill="#8AAAF5" opacity="0.09411765" transform="translate(15,104)"/>
<path d="M0,0 L1,0 L1,1 L0,1 Z " fill="#8EA5F4" opacity="0.003921569" transform="translate(54,101)"/>
<path d="M0,0 L1,0 L1,1 L0,1 Z " fill="#8DA5F3" opacity="0.83137256" transform="translate(65,97)"/>
<path d="M0,0 L1,0 L1,1 L0,1 Z " fill="#8EA5F4" opacity="0.34509805" transform="translate(63,95)"/>
<path d="M0,0 L1,0 L1,1 L0,1 Z " fill="#8CA5F4" opacity="0.7647059" transform="translate(47,95)"/>
<path d="M0,0 L1,0 L1,1 L0,1 Z " fill="#8DA4F2" opacity="0.30588236" transform="translate(61,94)"/>
<path d="M0,0 L1,0 L1,1 L0,1 Z " fill="#8DA5F4" opacity="0.53333336" transform="translate(46,93)"/>
<path d="M0,0 L1,0 L1,1 L0,1 Z " fill="#8DA4F3" opacity="0.56078434" transform="translate(45,91)"/>
<path d="M0,0 L1,0 L1,1 L0,1 Z " fill="#8FA4F2" opacity="0.23137255" transform="translate(44,87)"/>
<path d="M0,0 L1,0 L1,1 L0,1 Z " fill="#8EA6F4" opacity="0.5019608" transform="translate(117,86)"/>
<path d="M0,0 L1,0 L1,1 L0,1 Z " fill="#8AAAF5" opacity="0.09411765" transform="translate(54,86)"/>
<path d="M0,0 L1,0 L1,1 L0,1 Z " fill="#8DA4F2" opacity="0.30588236" transform="translate(120,84)"/>
<path d="M0,0 L1,0 L1,1 L0,1 Z " fill="#8DA5F4" opacity="0.50980395" transform="translate(122,83)"/>
<path d="M0,0 L1,0 L1,1 L0,1 Z " fill="#8CA6F3" opacity="0.15686275" transform="translate(112,83)"/>
<path d="M0,0 L1,0 L1,1 L0,1 Z " fill="#8CA5F3" opacity="0.9764706" transform="translate(111,83)"/>
<path d="M0,0 L1,0 L1,1 L0,1 Z " fill="#8CA6F3" opacity="0.3137255" transform="translate(125,81)"/>
<path d="M0,0 L1,0 L1,1 L0,1 Z " fill="#8DA4F4" opacity="0.5176471" transform="translate(127,80)"/>
<path d="M0,0 L1,0 L1,1 L0,1 Z " fill="#8CA5F3" opacity="0.023529412" transform="translate(114,80)"/>
<path d="M0,0 L1,0 L1,1 L0,1 Z " fill="#8DA4F3" opacity="0.7254902" transform="translate(43,79)"/>
<path d="M0,0 L1,0 L1,1 L0,1 Z " fill="#8DA5F3" opacity="0.46666667" transform="translate(54,78)"/>
<path d="M0,0 L1,0 L1,1 L0,1 Z " fill="#8AA5F5" opacity="0.011764706" transform="translate(44,77)"/>
<path d="M0,0 L1,0 L1,1 L0,1 Z " fill="#8EA4F4" opacity="0.043137256" transform="translate(116,76)"/>
<path d="M0,0 L1,0 L1,1 L0,1 Z " fill="#8DA4F3" opacity="0.78039217" transform="translate(55,76)"/>
<path d="M0,0 L1,0 L1,1 L0,1 Z " fill="#8EA5F4" opacity="0.42352942" transform="translate(44,75)"/>
<path d="M0,0 L1,0 L1,1 L0,1 Z " fill="#8CA5F4" opacity="0.6" transform="translate(116,74)"/>
<path d="M0,0 L1,0 L1,1 L0,1 Z " fill="#8DA5F3" opacity="0.7019608" transform="translate(56,74)"/>
<path d="M0,0 L1,0 L1,1 L0,1 Z " fill="#8DA6F4" opacity="0.07450981" transform="translate(45,73)"/>
<path d="M0,0 L1,0 L1,1 L0,1 Z " fill="#8DA5F3" opacity="0.83137256" transform="translate(116,72)"/>
<path d="M0,0 L1,0 L1,1 L0,1 Z " fill="#8DA6F3" opacity="0.3254902" transform="translate(83,71)"/>
<path d="M0,0 L1,0 L1,1 L0,1 Z " fill="#8CA6F4" opacity="0.003921569" transform="translate(46,71)"/>
<path d="M0,0 L1,0 L1,1 L0,1 Z " fill="#89A7F6" opacity="0.101960786" transform="translate(83,69)"/>
<path d="M0,0 L1,0 L1,1 L0,1 Z " fill="#8DA5F3" opacity="0.6313726" transform="translate(61,69)"/>
<path d="M0,0 L1,0 L1,1 L0,1 Z " fill="#8CA6F5" opacity="0.45882353" transform="translate(116,68)"/>
<path d="M0,0 L1,0 L1,1 L0,1 Z " fill="#8DA5F3" opacity="0.9098039" transform="translate(84,68)"/>
<path d="M0,0 L1,0 L1,1 L0,1 Z " fill="#8BA6F5" opacity="0.007843138" transform="translate(79,68)"/>
<path d="M0,0 L1,0 L1,1 L0,1 Z " fill="#8DA5F3" opacity="0.6313726" transform="translate(63,68)"/>
<path d="M0,0 L1,0 L1,1 L0,1 Z " fill="#8AA6F9" opacity="0.14509805" transform="translate(76,67)"/>
<path d="M0,0 L1,0 L1,1 L0,1 Z " fill="#8CA6F4" opacity="0.34901962" transform="translate(65,67)"/>
<path d="M0,0 L1,0 L1,1 L0,1 Z " fill="#8DA5F3" opacity="0.77254903" transform="translate(115,66)"/>
<path d="M0,0 L1,0 L1,1 L0,1 Z " fill="#8DA8F9" opacity="0.06666667" transform="translate(69,66)"/>
<path d="M0,0 L1,0 L1,1 L0,1 Z " fill="#8CA5F4" opacity="0.7647059" transform="translate(85,65)"/>
<path d="M0,0 L1,0 L1,1 L0,1 Z " fill="#8CA4F3" opacity="0.7058824" transform="translate(114,64)"/>
<path d="M0,0 L1,0 L1,1 L0,1 Z " fill="#8DA5F3" opacity="0.003921569" transform="translate(55,61)"/>
<path d="M0,0 L1,0 L1,1 L0,1 Z " fill="#8DA4F2" opacity="0.69411767" transform="translate(40,61)"/>
<path d="M0,0 L1,0 L1,1 L0,1 Z " fill="#8DA6F3" opacity="0.5803922" transform="translate(89,60)"/>
<path d="M0,0 L1,0 L1,1 L0,1 Z " fill="#8DA5F4" opacity="0.59607846" transform="translate(41,60)"/>
<path d="M0,0 L1,0 L1,1 L0,1 Z " fill="#8DA5F3" opacity="0.4117647" transform="translate(92,58)"/>
<path d="M0,0 L1,0 L1,1 L0,1 Z " fill="#8BA6F7" opacity="0.22352941" transform="translate(94,57)"/>
<path d="M0,0 L1,0 L1,1 L0,1 Z " fill="#8CA5F3" opacity="0.5568628" transform="translate(43,57)"/>
<path d="M0,0 L1,0 L1,1 L0,1 Z " fill="#8DA5F4" opacity="0.5882353" transform="translate(30,57)"/>
<path d="M0,0 L1,0 L1,1 L0,1 Z " fill="#92AAF3" opacity="0.007843138" transform="translate(102,56)"/>
<path d="M0,0 L1,0 L1,1 L0,1 Z " fill="#8CA6F3" opacity="0.078431375" transform="translate(98,56)"/>
<path d="M0,0 L1,0 L1,1 L0,1 Z " fill="#8CA4F4" opacity="0.5294118" transform="translate(73,56)"/>
<path d="M0,0 L1,0 L1,1 L0,1 Z " fill="#8CA4F6" opacity="0.20784314" transform="translate(57,55)"/>
<path d="M0,0 L1,0 L1,1 L0,1 Z " fill="#8DA5F3" opacity="0.99607843" transform="translate(72,54)"/>
<path d="M0,0 L1,0 L1,1 L0,1 Z " fill="#8CA4F3" opacity="0.8901961" transform="translate(56,54)"/>
<path d="M0,0 L1,0 L1,1 L0,1 Z " fill="#8CA5F4" opacity="0.60784316" transform="translate(72,52)"/>
<path d="M0,0 L1,0 L1,1 L0,1 Z " fill="#8DA5F3" opacity="0.80784315" transform="translate(45,48)"/>
<path d="M0,0 L1,0 L1,1 L0,1 Z " fill="#8DA4F2" opacity="0.84705883" transform="translate(28,48)"/>
<path d="M0,0 L1,0 L1,1 L0,1 Z " fill="#8DA5F4" opacity="0.53333336" transform="translate(72,46)"/>
<path d="M0,0 L1,0 L1,1 L0,1 Z " fill="#8CA4F3" opacity="0.41568628" transform="translate(56,46)"/>
<path d="M0,0 L1,0 L1,1 L0,1 Z " fill="#8CA4F3" opacity="0.32941177" transform="translate(44,44)"/>
<path d="M0,0 L1,0 L1,1 L0,1 Z " fill="#8CA5F4" opacity="0.3647059" transform="translate(29,44)"/>
<path d="M0,0 L1,0 L1,1 L0,1 Z " fill="#92AAF3" opacity="0.08235294" transform="translate(57,43)"/>
<path d="M0,0 L1,0 L1,1 L0,1 Z " fill="#8CA5F3" opacity="0.6509804" transform="translate(76,42)"/>
<path d="M0,0 L1,0 L1,1 L0,1 Z " fill="#8DA4F4" opacity="0.019607844" transform="translate(43,42)"/>
<path d="M0,0 L1,0 L1,1 L0,1 Z " fill="#8CA4F5" opacity="0.03137255" transform="translate(30,42)"/>
<path d="M0,0 L1,0 L1,1 L0,1 Z " fill="#8EA5F3" opacity="0.003921569" transform="translate(58,41)"/>
<path d="M0,0 L1,0 L1,1 L0,1 Z " fill="#8CA5F3" opacity="0.8" transform="translate(0,41)"/>
<path d="M0,0 L1,0 L1,1 L0,1 Z " fill="#8DA6F4" opacity="0.011764706" transform="translate(42,40)"/>
<path d="M0,0 L1,0 L1,1 L0,1 Z " fill="#8CA5F3" opacity="0.019607844" transform="translate(31,40)"/>
<path d="M0,0 L1,0 L1,1 L0,1 Z " fill="#90A8F8" opacity="0.1254902" transform="translate(76,38)"/>
<path d="M0,0 L1,0 L1,1 L0,1 Z " fill="#90A4F2" opacity="0.15294118" transform="translate(0,37)"/>
<path d="M0,0 L1,0 L1,1 L0,1 Z " fill="#8CA5F7" opacity="0.12156863" transform="translate(63,36)"/>
<path d="M0,0 L1,0 L1,1 L0,1 Z " fill="#8DA5F3" opacity="0.89411765" transform="translate(1,36)"/>
<path d="M0,0 L1,0 L1,1 L0,1 Z " fill="#8CA4F3" opacity="0.40784314" transform="translate(75,35)"/>
<path d="M0,0 L1,0 L1,1 L0,1 Z " fill="#8CA5F4" opacity="0.3647059" transform="translate(1,34)"/>
<path d="M0,0 L1,0 L1,1 L0,1 Z " fill="#8EA5F4" opacity="0.42352942" transform="translate(74,32)"/>
<path d="M0,0 L1,0 L1,1 L0,1 Z " fill="#8FA5F4" opacity="0.26666668" transform="translate(2,31)"/>
<path d="M0,0 L1,0 L1,1 L0,1 Z " fill="#8DA4F3" opacity="0.6392157" transform="translate(73,30)"/>
<path d="M0,0 L1,0 L1,1 L0,1 Z " fill="#8DA4F4" opacity="0.36078432" transform="translate(3,29)"/>
<path d="M0,0 L1,0 L1,1 L0,1 Z " fill="#8CA5F3" opacity="0.6509804" transform="translate(72,28)"/>
<path d="M0,0 L1,0 L1,1 L0,1 Z " fill="#8CA4F3" opacity="0.7490196" transform="translate(5,26)"/>
<path d="M0,0 L1,0 L1,1 L0,1 Z " fill="#8DA5F3" opacity="0.8666667" transform="translate(70,25)"/>
<path d="M0,0 L1,0 L1,1 L0,1 Z " fill="#8CA6F4" opacity="0.5137255" transform="translate(69,23)"/>
<path d="M0,0 L1,0 L1,1 L0,1 Z M-1,1 L0,1 L0,2 L-1,2 Z " fill="#8CA5F3" opacity="0.32156864" transform="translate(11,18)"/>
<path d="M0,0 L1,0 L1,1 L0,1 Z " fill="#8CA5F3" opacity="0.93333334" transform="translate(13,17)"/>
<path d="M0,0 L1,0 L1,1 L0,1 Z " fill="#8DA4F2" opacity="0.6156863" transform="translate(15,15)"/>
<path d="M0,0 L1,0 L1,1 L0,1 Z " fill="#8DA6F3" opacity="0.5803922" transform="translate(18,13)"/>
<path d="M0,0 L1,0 L1,1 L0,1 Z " fill="#8DA5F3" opacity="0.70980394" transform="translate(20,12)"/>
<path d="M0,0 L1,0 L1,1 L0,1 Z " fill="#8FA3F5" opacity="0.09803922" transform="translate(55,11)"/>
<path d="M0,0 L1,0 L1,1 L0,1 Z " fill="#8DA4F3" opacity="0.6392157" transform="translate(22,11)"/>
<path d="M0,0 L1,0 L1,1 L0,1 Z " fill="#8DA5F5" opacity="0.05490196" transform="translate(53,10)"/>
<path d="M0,0 L1,0 L1,1 L0,1 Z " fill="#8DA5F4" opacity="0.45490196" transform="translate(24,10)"/>
<path d="M0,0 L1,0 L1,1 L0,1 Z " fill="#8DA4F2" opacity="0.4627451" transform="translate(27,9)"/>
<path d="M0,0 L1,0 L1,1 L0,1 Z " fill="#8DA5F3" opacity="0.49019608" transform="translate(44,8)"/>
<path d="M0,0 L1,0 L1,1 L0,1 Z " fill="#8CA5F3" opacity="0.8117647" transform="translate(34,8)"/>
<path d="M0,0 L1,0 L1,1 L0,1 Z " fill="#8CA4F6" opacity="0.20784314" transform="translate(30,8)"/>
<path d="M0,0 L1,0 L1,1 L0,1 Z " fill="#8CA5F3" opacity="0.015686275" transform="translate(52,119)"/>
<path d="M0,0 L1,0 L1,1 L0,1 Z " fill="#8DA5F3" opacity="0.4117647" transform="translate(51,119)"/>
<path d="M0,0 L1,0 L1,1 L0,1 Z " fill="#8DA5F3" opacity="0.6666667" transform="translate(50,119)"/>
<path d="M0,0 L1,0 L1,1 L0,1 Z " fill="#8CA5F3" opacity="0.72156864" transform="translate(48,119)"/>
<path d="M0,0 L1,0 L1,1 L0,1 Z " fill="#92AAF3" opacity="0.08235294" transform="translate(46,119)"/>
<path d="M0,0 L1,0 L1,1 L0,1 Z " fill="#8DA5F3" opacity="0.02745098" transform="translate(30,119)"/>
<path d="M0,0 L1,0 L1,1 L0,1 Z " fill="#8DA4F4" opacity="0.4392157" transform="translate(29,119)"/>
<path d="M0,0 L1,0 L1,1 L0,1 Z " fill="#8CA5F4" opacity="0.6784314" transform="translate(28,119)"/>
<path d="M0,0 L1,0 L1,1 L0,1 Z " fill="#8DA5F3" opacity="0.70980394" transform="translate(26,119)"/>
<path d="M0,0 L1,0 L1,1 L0,1 Z " fill="#8CA5F3" opacity="0.0627451" transform="translate(24,119)"/>
<path d="M0,0 L1,0 L1,1 L0,1 Z " fill="#8DA4F3" opacity="0.039215688" transform="translate(8,119)"/>
<path d="M0,0 L1,0 L1,1 L0,1 Z " fill="#8DA4F2" opacity="0.4627451" transform="translate(7,119)"/>
<path d="M0,0 L1,0 L1,1 L0,1 Z " fill="#8DA5F4" opacity="0.6901961" transform="translate(6,119)"/>
<path d="M0,0 L1,0 L1,1 L0,1 Z " fill="#8CA5F3" opacity="0.69803923" transform="translate(4,119)"/>
<path d="M0,0 L1,0 L1,1 L0,1 Z " fill="#8DA5F3" opacity="0.047058824" transform="translate(2,119)"/>
<path d="M0,0 L1,0 L1,1 L0,1 Z " fill="#8AA8F8" opacity="0.13725491" transform="translate(53,118)"/>
<path d="M0,0 L1,0 L1,1 L0,1 Z " fill="#8CA5F3" opacity="0.8" transform="translate(52,118)"/>
<path d="M0,0 L1,0 L1,1 L0,1 Z " fill="#8CA5F4" opacity="0.92156863" transform="translate(46,118)"/>
<path d="M0,0 L1,0 L1,1 L0,1 Z " fill="#8DA5F5" opacity="0.29803923" transform="translate(45,118)"/>
<path d="M0,0 L1,0 L1,1 L0,1 Z " fill="#8EA6F4" opacity="0.16862746" transform="translate(31,118)"/>
<path d="M0,0 L1,0 L1,1 L0,1 Z " fill="#8DA5F3" opacity="0.83137256" transform="translate(30,118)"/>
<path d="M0,0 L1,0 L1,1 L0,1 Z " fill="#8CA5F3" opacity="0.8980392" transform="translate(24,118)"/>
<path d="M0,0 L1,0 L1,1 L0,1 Z " fill="#8BA6F4" opacity="0.25882354" transform="translate(23,118)"/>
<path d="M0,0 L1,0 L1,1 L0,1 Z " fill="#8CA5F5" opacity="0.2" transform="translate(9,118)"/>
<path d="M0,0 L1,0 L1,1 L0,1 Z " fill="#8DA4F3" opacity="0.85882354" transform="translate(8,118)"/>
<path d="M0,0 L1,0 L1,1 L0,1 Z " fill="#8DA5F3" opacity="0.8745098" transform="translate(2,118)"/>
<path d="M0,0 L1,0 L1,1 L0,1 Z " fill="#8DA4F6" opacity="0.21960784" transform="translate(1,118)"/>
<path d="M0,0 L1,0 L1,1 L0,1 Z " fill="#8DA5F3" opacity="0.79607844" transform="translate(53,117)"/>
<path d="M0,0 L1,0 L1,1 L0,1 Z " fill="#8EA3F8" opacity="0.14117648" transform="translate(44,117)"/>
<path d="M0,0 L1,0 L1,1 L0,1 Z " fill="#8CA4F3" opacity="0.03529412" transform="translate(32,117)"/>
<path d="M0,0 L1,0 L1,1 L0,1 Z " fill="#8CA5F4" opacity="0.84313726" transform="translate(31,117)"/>
<path d="M0,0 L1,0 L1,1 L0,1 Z " fill="#8EAAF6" opacity="0.105882354" transform="translate(22,117)"/>
<path d="M0,0 L1,0 L1,1 L0,1 Z " fill="#8DA5F4" opacity="0.05882353" transform="translate(10,117)"/>
<path d="M0,0 L1,0 L1,1 L0,1 Z " fill="#8DA4F3" opacity="0.88235295" transform="translate(9,117)"/>
<path d="M0,0 L1,0 L1,1 L0,1 Z " fill="#8DA5F3" opacity="0.07450981" transform="translate(0,117)"/>
<path d="M0,0 L1,0 L1,1 L0,1 Z " fill="#8CA4F3" opacity="0.40784314" transform="translate(54,116)"/>
<path d="M0,0 L1,0 L1,1 L0,1 Z " fill="#8DA4F2" opacity="0.69411767" transform="translate(44,116)"/>
<path d="M0,0 L1,0 L1,1 L0,1 Z " fill="#8CA4F3" opacity="0.47058824" transform="translate(32,116)"/>
<path d="M0,0 L1,0 L1,1 L0,1 Z " fill="#8DA5F3" opacity="0.6313726" transform="translate(22,116)"/>
<path d="M0,0 L1,0 L1,1 L0,1 Z " fill="#8DA5F4" opacity="0.53333336" transform="translate(10,116)"/>
<path d="M0,0 L1,0 L1,1 L0,1 Z " fill="#8DA5F3" opacity="0.5686275" transform="translate(0,116)"/>
<path d="M0,0 L1,0 L1,1 L0,1 Z " fill="#8DA4F3" opacity="0.64705884" transform="translate(54,115)"/>
<path d="M0,0 L1,0 L1,1 L0,1 Z " fill="#8CA5F3" opacity="0.93333334" transform="translate(44,115)"/>
<path d="M0,0 L1,0 L1,1 L0,1 Z " fill="#8EAAF6" opacity="0.003921569" transform="translate(43,115)"/>
<path d="M0,0 L1,0 L1,1 L0,1 Z " fill="#8DA5F3" opacity="0.70980394" transform="translate(32,115)"/>
<path d="M0,0 L1,0 L1,1 L0,1 Z " fill="#8DA5F3" opacity="0.8745098" transform="translate(22,115)"/>
<path d="M0,0 L1,0 L1,1 L0,1 Z " fill="#8DA5F3" opacity="0.77254903" transform="translate(10,115)"/>
<path d="M0,0 L1,0 L1,1 L0,1 Z " fill="#8CA5F3" opacity="0.8117647" transform="translate(0,115)"/>
<path d="M0,0 L1,0 L1,1 L0,1 Z " fill="#8CA5F3" opacity="0.827451" transform="translate(54,114)"/>
<path d="M0,0 L1,0 L1,1 L0,1 Z " fill="#8EAAF6" opacity="0.105882354" transform="translate(43,114)"/>
<path d="M0,0 L1,0 L1,1 L0,1 Z " fill="#8CA4F3" opacity="0.8901961" transform="translate(32,114)"/>
<path d="M0,0 L1,0 L1,1 L0,1 Z " fill="#8DA5F3" opacity="0.047058824" transform="translate(21,114)"/>
<path d="M0,0 L1,0 L1,1 L0,1 Z " fill="#8DA5F3" opacity="0.9529412" transform="translate(10,114)"/>
<path d="M0,0 L1,0 L1,1 L0,1 Z " fill="#8CA5F3" opacity="0.9843137" transform="translate(0,114)"/>
<path d="M0,0 L1,0 L1,1 L0,1 Z " fill="#8DA4F4" opacity="0.2627451" transform="translate(127,113)"/>
<path d="M0,0 L1,0 L1,1 L0,1 Z " fill="#8FA3F5" opacity="0.09803922" transform="translate(108,113)"/>
<path d="M0,0 L1,0 L1,1 L0,1 Z " fill="#8CA5F4" opacity="0.3647059" transform="translate(107,113)"/>
<path d="M0,0 L1,0 L1,1 L0,1 Z " fill="#8EA6F4" opacity="0.5019608" transform="translate(106,113)"/>
<path d="M0,0 L1,0 L1,1 L0,1 Z " fill="#8DA5F3" opacity="0.46666667" transform="translate(71,113)"/>
<path d="M0,0 L1,0 L1,1 L0,1 Z " fill="#8DA5F3" opacity="0.02745098" transform="translate(69,113)"/>
<path d="M0,0 L1,0 L1,1 L0,1 Z " fill="#89A4F6" opacity="0.10980392" transform="translate(125,112)"/>
<path d="M0,0 L1,0 L1,1 L0,1 Z " fill="#8DA5F3" opacity="0.050980393" transform="translate(110,112)"/>
<path d="M0,0 L1,0 L1,1 L0,1 Z " fill="#8CA4F3" opacity="0.54901963" transform="translate(109,112)"/>
<path d="M0,0 L1,0 L1,1 L0,1 Z " fill="#8DA5F3" opacity="0.9882353" transform="translate(108,112)"/>
<path d="M0,0 L1,0 L1,1 L0,1 Z " fill="#8DA5F3" opacity="0.8862745" transform="translate(69,112)"/>
<path d="M0,0 L1,0 L1,1 L0,1 Z " fill="#8CA5F4" opacity="0.003921569" transform="translate(67,112)"/>
<path d="M0,0 L1,0 L1,1 L0,1 Z " fill="#8CA4F3" opacity="0.95686275" transform="translate(125,111)"/>
<path d="M0,0 L1,0 L1,1 L0,1 Z " fill="#8CA4F3" opacity="0.019607844" transform="translate(123,111)"/>
<path d="M0,0 L1,0 L1,1 L0,1 Z " fill="#8FA3F5" opacity="0.19607843" transform="translate(111,111)"/>
<path d="M0,0 L1,0 L1,1 L0,1 Z " fill="#8DA5F3" opacity="0.89411765" transform="translate(110,111)"/>
<path d="M0,0 L1,0 L1,1 L0,1 Z " fill="#8DA4F2" opacity="0.02745098" transform="translate(66,111)"/>
<path d="M0,0 L1,0 L1,1 L0,1 Z " fill="#8CA4F4" opacity="0.2509804" transform="translate(122,110)"/>
<path d="M0,0 L1,0 L1,1 L0,1 Z " fill="#8BA2F4" opacity="0.08627451" transform="translate(112,110)"/>
<path d="M0,0 L1,0 L1,1 L0,1 Z " fill="#8CA4F3" opacity="0.9137255" transform="translate(111,110)"/>
<path d="M0,0 L1,0 L1,1 L0,1 Z " fill="#8DA4F2" opacity="0.6156863" transform="translate(66,110)"/>
<path d="M0,0 L1,0 L1,1 L0,1 Z " fill="#89A7F6" opacity="0.101960786" transform="translate(120,109)"/>
<path d="M0,0 L1,0 L1,1 L0,1 Z " fill="#8CA5F4" opacity="0.6" transform="translate(112,109)"/>
<path d="M0,0 L1,0 L1,1 L0,1 Z " fill="#8BA7F6" opacity="0.21568628" transform="translate(65,109)"/>
<path d="M0,0 L1,0 L1,1 L0,1 Z " fill="#8FA5F8" opacity="0.13333334" transform="translate(43,109)"/>
<path d="M0,0 L1,0 L1,1 L0,1 Z " fill="#8DA5F3" opacity="0.91764706" transform="translate(32,109)"/>
<path d="M0,0 L1,0 L1,1 L0,1 Z " fill="#8DA4F6" opacity="0.07058824" transform="translate(21,109)"/>
<path d="M0,0 L1,0 L1,1 L0,1 Z " fill="#8CA5F7" opacity="0.003921569" transform="translate(11,109)"/>
<path d="M0,0 L1,0 L1,1 L0,1 Z " fill="#8DA4F3" opacity="0.98039216" transform="translate(10,109)"/>
<path d="M0,0 L1,0 L1,1 L0,1 Z " fill="#8CA5F3" opacity="0.9490196" transform="translate(120,108)"/>
<path d="M0,0 L1,0 L1,1 L0,1 Z " fill="#8CA5F3" opacity="0.019607844" transform="translate(118,108)"/>
<path d="M0,0 L1,0 L1,1 L0,1 Z " fill="#8CA5F3" opacity="0.9490196" transform="translate(112,108)"/>
<path d="M0,0 L1,0 L1,1 L0,1 Z " fill="#8DA5F4" opacity="0.5882353" transform="translate(65,108)"/>
<path d="M0,0 L1,0 L1,1 L0,1 Z " fill="#8DA5F4" opacity="0.7529412" transform="translate(54,108)"/>
<path d="M0,0 L1,0 L1,1 L0,1 Z " fill="#8CA5F3" opacity="0.24313726" transform="translate(117,107)"/>
<path d="M0,0 L1,0 L1,1 L0,1 Z " fill="#8DA8F9" opacity="0.14901961" transform="translate(113,107)"/>
<path d="M0,0 L1,0 L1,1 L0,1 Z " fill="#8CA5F4" opacity="0.7647059" transform="translate(65,107)"/>
<path d="M0,0 L1,0 L1,1 L0,1 Z " fill="#8DA5F4" opacity="0.6745098" transform="translate(54,107)"/>
<path d="M0,0 L1,0 L1,1 L0,1 Z " fill="#8DA5F3" opacity="0.49803922" transform="translate(43,107)"/>
<path d="M0,0 L1,0 L1,1 L0,1 Z " fill="#8EA4F5" opacity="0.27450982" transform="translate(33,107)"/>
<path d="M0,0 L1,0 L1,1 L0,1 Z " fill="#8CA6F4" opacity="0.43529412" transform="translate(21,107)"/>
<path d="M0,0 L1,0 L1,1 L0,1 Z " fill="#8BA6F4" opacity="0.3372549" transform="translate(11,107)"/>
<path d="M0,0 L1,0 L1,1 L0,1 Z " fill="#8AAAF5" opacity="0.09411765" transform="translate(115,106)"/>
<path d="M0,0 L1,0 L1,1 L0,1 Z " fill="#8DA5F3" opacity="0.6313726" transform="translate(54,106)"/>
<path d="M0,0 L1,0 L1,1 L0,1 Z " fill="#8DA4F2" opacity="0.9254902" transform="translate(43,106)"/>
<path d="M0,0 L1,0 L1,1 L0,1 Z " fill="#8FA3F5" opacity="0.09803922" transform="translate(42,106)"/>
<path d="M0,0 L1,0 L1,1 L0,1 Z " fill="#8DA5F3" opacity="0.015686275" transform="translate(34,106)"/>
<path d="M0,0 L1,0 L1,1 L0,1 Z " fill="#8CA5F3" opacity="0.78431374" transform="translate(33,106)"/>
<path d="M0,0 L1,0 L1,1 L0,1 Z " fill="#8DA5F3" opacity="0.89411765" transform="translate(21,106)"/>
<path d="M0,0 L1,0 L1,1 L0,1 Z " fill="#8DA4F2" opacity="0.06666667" transform="translate(20,106)"/>
<path d="M0,0 L1,0 L1,1 L0,1 Z " fill="#8CA5F3" opacity="0.03137255" transform="translate(12,106)"/>
<path d="M0,0 L1,0 L1,1 L0,1 Z " fill="#8DA5F3" opacity="0.83137256" transform="translate(11,106)"/>
<path d="M0,0 L1,0 L1,1 L0,1 Z " fill="#8DA4F3" opacity="0.94509804" transform="translate(115,105)"/>
<path d="M0,0 L1,0 L1,1 L0,1 Z " fill="#8CA4F4" opacity="0.42745098" transform="translate(114,105)"/>
<path d="M0,0 L1,0 L1,1 L0,1 Z " fill="#8CA6F3" opacity="0.23529412" transform="translate(113,105)"/>
<path d="M0,0 L1,0 L1,1 L0,1 Z " fill="#8CA5F3" opacity="0.06666667" transform="translate(41,105)"/>
<path d="M0,0 L1,0 L1,1 L0,1 Z " fill="#8DA5F3" opacity="0.019607844" transform="translate(35,105)"/>
<path d="M0,0 L1,0 L1,1 L0,1 Z " fill="#8DA5F3" opacity="0.5686275" transform="translate(34,105)"/>
<path d="M0,0 L1,0 L1,1 L0,1 Z " fill="#8DA4F3" opacity="0.050980393" transform="translate(19,105)"/>
<path d="M0,0 L1,0 L1,1 L0,1 Z " fill="#8DA5F4" opacity="0.02745098" transform="translate(13,105)"/>
<path d="M0,0 L1,0 L1,1 L0,1 Z " fill="#8CA5F3" opacity="0.61960787" transform="translate(12,105)"/>
<path d="M0,0 L1,0 L1,1 L0,1 Z " fill="#8CA5F3" opacity="0.90588236" transform="translate(113,104)"/>
<path d="M0,0 L1,0 L1,1 L0,1 Z " fill="#8CA5F3" opacity="0.90588236" transform="translate(41,104)"/>
<path d="M0,0 L1,0 L1,1 L0,1 Z " fill="#8CA4F5" opacity="0.37254903" transform="translate(40,104)"/>
<path d="M0,0 L1,0 L1,1 L0,1 Z " fill="#8DA5F3" opacity="0.003921569" transform="translate(38,104)"/>
<path d="M0,0 L1,0 L1,1 L0,1 Z " fill="#8BA3F5" opacity="0.29411766" transform="translate(36,104)"/>
<path d="M0,0 L1,0 L1,1 L0,1 Z " fill="#8DA5F3" opacity="0.80784315" transform="translate(35,104)"/>
<path d="M0,0 L1,0 L1,1 L0,1 Z " fill="#8DA4F3" opacity="0.88235295" transform="translate(19,104)"/>
<path d="M0,0 L1,0 L1,1 L0,1 Z " fill="#8CA6F4" opacity="0.34901962" transform="translate(18,104)"/>
<path d="M0,0 L1,0 L1,1 L0,1 Z " fill="#8DA5F3" opacity="0.003921569" transform="translate(16,104)"/>
<path d="M0,0 L1,0 L1,1 L0,1 Z " fill="#8CA6F3" opacity="0.3137255" transform="translate(14,104)"/>
<path d="M0,0 L1,0 L1,1 L0,1 Z " fill="#8DA5F4" opacity="0.8392157" transform="translate(13,104)"/>
<path d="M0,0 L1,0 L1,1 L0,1 Z " fill="#8DA5F3" opacity="0.9607843" transform="translate(38,103)"/>
<path d="M0,0 L1,0 L1,1 L0,1 Z " fill="#8DA5F3" opacity="0.9607843" transform="translate(16,103)"/>
<path d="M0,0 L1,0 L1,1 L0,1 Z " fill="#8DA5F3" opacity="0.49803922" transform="translate(54,102)"/>
<path d="M0,0 L1,0 L1,1 L0,1 Z " fill="#8EA5F4" opacity="0.42352942" transform="translate(53,101)"/>
<path d="M0,0 L1,0 L1,1 L0,1 Z " fill="#8DA4F3" opacity="0.98039216" transform="translate(52,101)"/>
<path d="M0,0 L1,0 L1,1 L0,1 Z " fill="#8DA7F7" opacity="0.22745098" transform="translate(52,100)"/>
<path d="M0,0 L1,0 L1,1 L0,1 Z " fill="#8DA7F5" opacity="0.19215687" transform="translate(51,99)"/>
<path d="M0,0 L1,0 L1,1 L0,1 Z " fill="#8DA4F2" opacity="0.9254902" transform="translate(50,99)"/>
<path d="M0,0 L1,0 L1,1 L0,1 Z " fill="#8EA4F4" opacity="0.1764706" transform="translate(50,98)"/>
<path d="M0,0 L1,0 L1,1 L0,1 Z " fill="#8CA4F5" opacity="0.28627452" transform="translate(49,97)"/>
<path d="M0,0 L1,0 L1,1 L0,1 Z " fill="#8CA4F3" opacity="0.8352941" transform="translate(65,96)"/>
<path d="M0,0 L1,0 L1,1 L0,1 Z " fill="#8CA4F3" opacity="0.7490196" transform="translate(64,95)"/>
<path d="M0,0 L1,0 L1,1 L0,1 Z " fill="#8CA5F3" opacity="0.02745098" transform="translate(62,95)"/>
<path d="M0,0 L1,0 L1,1 L0,1 Z " fill="#8CA5F4" opacity="0.007843138" transform="translate(48,95)"/>
<path d="M0,0 L1,0 L1,1 L0,1 Z " fill="#8CA5F3" opacity="0.8627451" transform="translate(62,94)"/>
<path d="M0,0 L1,0 L1,1 L0,1 Z " fill="#8DA5F4" opacity="0.003921569" transform="translate(60,94)"/>
<path d="M0,0 L1,0 L1,1 L0,1 Z " fill="#8CA6F3" opacity="0.15686275" transform="translate(47,94)"/>
<path d="M0,0 L1,0 L1,1 L0,1 Z " fill="#8CA5F3" opacity="0.9764706" transform="translate(46,94)"/>
<path d="M0,0 L1,0 L1,1 L0,1 Z " fill="#8DA5F4" opacity="0.6745098" transform="translate(60,93)"/>
<path d="M0,0 L1,0 L1,1 L0,1 Z " fill="#8DA5F4" opacity="0.050980393" transform="translate(59,93)"/>
<path d="M0,0 L1,0 L1,1 L0,1 Z " fill="#8FA5F8" opacity="0.13333334" transform="translate(58,92)"/>
<path d="M0,0 L1,0 L1,1 L0,1 Z " fill="#92AAF3" opacity="0.08235294" transform="translate(46,92)"/>
<path d="M0,0 L1,0 L1,1 L0,1 Z " fill="#8DA5F3" opacity="0.9647059" transform="translate(45,92)"/>
<path d="M0,0 L1,0 L1,1 L0,1 Z " fill="#8CA4F3" opacity="0.87058824" transform="translate(58,91)"/>
<path d="M0,0 L1,0 L1,1 L0,1 Z " fill="#89A7F6" opacity="0.101960786" transform="translate(57,91)"/>
<path d="M0,0 L1,0 L1,1 L0,1 Z " fill="#8DA5F3" opacity="0.03137255" transform="translate(56,90)"/>
<path d="M0,0 L1,0 L1,1 L0,1 Z " fill="#90A4F2" opacity="0.15294118" transform="translate(45,90)"/>
<path d="M0,0 L1,0 L1,1 L0,1 Z " fill="#8DA5F3" opacity="0.54509807" transform="translate(56,89)"/>
<path d="M0,0 L1,0 L1,1 L0,1 Z " fill="#8CA5F3" opacity="0.69803923" transform="translate(114,88)"/>
<path d="M0,0 L1,0 L1,1 L0,1 Z " fill="#8EA4F3" opacity="0.31764707" transform="translate(113,88)"/>
<path d="M0,0 L1,0 L1,1 L0,1 Z " fill="#8DA5F3" opacity="0.99607843" transform="translate(56,88)"/>
<path d="M0,0 L1,0 L1,1 L0,1 Z " fill="#8DA3F5" opacity="0.18431373" transform="translate(55,88)"/>
<path d="M0,0 L1,0 L1,1 L0,1 Z " fill="#8DA4F3" opacity="0.48235294" transform="translate(44,88)"/>
<path d="M0,0 L1,0 L1,1 L0,1 Z " fill="#8DA5F5" opacity="0.29803923" transform="translate(115,87)"/>
<path d="M0,0 L1,0 L1,1 L0,1 Z " fill="#8FA5F8" opacity="0.13333334" transform="translate(113,87)"/>
<path d="M0,0 L1,0 L1,1 L0,1 Z " fill="#8DA4F3" opacity="0.64705884" transform="translate(55,87)"/>
<path d="M0,0 L1,0 L1,1 L0,1 Z " fill="#8DA5F3" opacity="0.972549" transform="translate(118,86)"/>
<path d="M0,0 L1,0 L1,1 L0,1 Z " fill="#8EA6F4" opacity="0.03529412" transform="translate(116,86)"/>
<path d="M0,0 L1,0 L1,1 L0,1 Z " fill="#8DA5F3" opacity="0.9882353" transform="translate(55,86)"/>
<path d="M0,0 L1,0 L1,1 L0,1 Z " fill="#8DA5F3" opacity="0.047058824" transform="translate(44,86)"/>
<path d="M0,0 L1,0 L1,1 L0,1 Z " fill="#8DA5F3" opacity="0.99607843" transform="translate(43,86)"/>
<path d="M0,0 L1,0 L1,1 L0,1 Z " fill="#8AA8F8" opacity="0.13725491" transform="translate(118,85)"/>
<path d="M0,0 L1,0 L1,1 L0,1 Z " fill="#8DA4F3" opacity="0.015686275" transform="translate(113,85)"/>
<path d="M0,0 L1,0 L1,1 L0,1 Z " fill="#8CA5F4" opacity="0.3647059" transform="translate(54,85)"/>
<path d="M0,0 L1,0 L1,1 L0,1 Z " fill="#8CA5F4" opacity="0.84313726" transform="translate(43,85)"/>
<path d="M0,0 L1,0 L1,1 L0,1 Z " fill="#8DA5F3" opacity="0.8745098" transform="translate(121,84)"/>
<path d="M0,0 L1,0 L1,1 L0,1 Z " fill="#8DA4F2" opacity="0.003921569" transform="translate(119,84)"/>
<path d="M0,0 L1,0 L1,1 L0,1 Z " fill="#8DA4F3" opacity="0.65882355" transform="translate(112,84)"/>
<path d="M0,0 L1,0 L1,1 L0,1 Z " fill="#8DA5F3" opacity="0.6313726" transform="translate(54,84)"/>
<path d="M0,0 L1,0 L1,1 L0,1 Z " fill="#8DA5F3" opacity="0.7176471" transform="translate(43,84)"/>
<path d="M0,0 L1,0 L1,1 L0,1 Z " fill="#8CA5F3" opacity="0.9764706" transform="translate(123,83)"/>
<path d="M0,0 L1,0 L1,1 L0,1 Z " fill="#8DA5F4" opacity="0.039215688" transform="translate(121,83)"/>
<path d="M0,0 L1,0 L1,1 L0,1 Z " fill="#8DA4F2" opacity="0.76862746" transform="translate(54,83)"/>
<path d="M0,0 L1,0 L1,1 L0,1 Z " fill="#8DA5F3" opacity="0.654902" transform="translate(43,83)"/>
<path d="M0,0 L1,0 L1,1 L0,1 Z " fill="#8EA3F8" opacity="0.14117648" transform="translate(123,82)"/>
<path d="M0,0 L1,0 L1,1 L0,1 Z " fill="#8AAAF5" opacity="0.09411765" transform="translate(112,82)"/>
<path d="M0,0 L1,0 L1,1 L0,1 Z " fill="#8DA5F3" opacity="0.89411765" transform="translate(111,82)"/>
<path d="M0,0 L1,0 L1,1 L0,1 Z " fill="#8CA4F4" opacity="0.5921569" transform="translate(43,82)"/>
<path d="M0,0 L1,0 L1,1 L0,1 Z " fill="#8CA5F3" opacity="0.8784314" transform="translate(126,81)"/>
<path d="M0,0 L1,0 L1,1 L0,1 Z " fill="#8CA6F3" opacity="0.003921569" transform="translate(124,81)"/>
<path d="M0,0 L1,0 L1,1 L0,1 Z " fill="#8CA6F3" opacity="0.078431375" transform="translate(113,81)"/>
<path d="M0,0 L1,0 L1,1 L0,1 Z " fill="#8CA5F3" opacity="0.827451" transform="translate(112,81)"/>
<path d="M0,0 L1,0 L1,1 L0,1 Z " fill="#8DA5F3" opacity="0.8745098" transform="translate(54,81)"/>
<path d="M0,0 L1,0 L1,1 L0,1 Z " fill="#8DA4F4" opacity="0.039215688" transform="translate(126,80)"/>
<path d="M0,0 L1,0 L1,1 L0,1 Z " fill="#8DA5F3" opacity="0.79607844" transform="translate(113,80)"/>
<path d="M0,0 L1,0 L1,1 L0,1 Z " fill="#8CA5F3" opacity="0.6509804" transform="translate(43,80)"/>
<path d="M0,0 L1,0 L1,1 L0,1 Z " fill="#8CA5F3" opacity="0.4862745" transform="translate(114,79)"/>
<path d="M0,0 L1,0 L1,1 L0,1 Z " fill="#8DA5F3" opacity="0.654902" transform="translate(54,79)"/>
<path d="M0,0 L1,0 L1,1 L0,1 Z " fill="#8DA8F9" opacity="0.14901961" transform="translate(115,78)"/>
<path d="M0,0 L1,0 L1,1 L0,1 Z " fill="#8DA5F3" opacity="0.972549" transform="translate(114,78)"/>
<path d="M0,0 L1,0 L1,1 L0,1 Z " fill="#8DA4F3" opacity="0.8039216" transform="translate(43,78)"/>
<path d="M0,0 L1,0 L1,1 L0,1 Z " fill="#8DA4F3" opacity="0.6392157" transform="translate(115,77)"/>
<path d="M0,0 L1,0 L1,1 L0,1 Z " fill="#90A8F8" opacity="0.1254902" transform="translate(54,77)"/>
<path d="M0,0 L1,0 L1,1 L0,1 Z " fill="#8CA5F3" opacity="0.9490196" transform="translate(43,77)"/>
<path d="M0,0 L1,0 L1,1 L0,1 Z " fill="#8CA4F3" opacity="0.95686275" transform="translate(115,76)"/>
<path d="M0,0 L1,0 L1,1 L0,1 Z " fill="#8AA5F5" opacity="0.1882353" transform="translate(44,76)"/>
<path d="M0,0 L1,0 L1,1 L0,1 Z " fill="#8EA4F4" opacity="0.3529412" transform="translate(116,75)"/>
<path d="M0,0 L1,0 L1,1 L0,1 Z " fill="#8DA4F2" opacity="0.30588236" transform="translate(55,75)"/>
<path d="M0,0 L1,0 L1,1 L0,1 Z " fill="#8DA5F4" opacity="0.6745098" transform="translate(44,74)"/>
<path d="M0,0 L1,0 L1,1 L0,1 Z " fill="#8CA4F3" opacity="0.7137255" transform="translate(116,73)"/>
<path d="M0,0 L1,0 L1,1 L0,1 Z " fill="#8CA5F3" opacity="0.9411765" transform="translate(57,73)"/>
<path d="M0,0 L1,0 L1,1 L0,1 Z " fill="#8FA5F8" opacity="0.13333334" transform="translate(56,73)"/>
<path d="M0,0 L1,0 L1,1 L0,1 Z " fill="#8DA5F3" opacity="0.972549" transform="translate(44,73)"/>
<path d="M0,0 L1,0 L1,1 L0,1 Z " fill="#8DA4F3" opacity="0.9019608" transform="translate(83,72)"/>
<path d="M0,0 L1,0 L1,1 L0,1 Z " fill="#8EA3F3" opacity="0.23921569" transform="translate(57,72)"/>
<path d="M0,0 L1,0 L1,1 L0,1 Z " fill="#8DA6F4" opacity="0.44705883" transform="translate(45,72)"/>
<path d="M0,0 L1,0 L1,1 L0,1 Z " fill="#8CA4F3" opacity="0.87058824" transform="translate(116,71)"/>
<path d="M0,0 L1,0 L1,1 L0,1 Z " fill="#8DA5F3" opacity="0.6313726" transform="translate(82,71)"/>
<path d="M0,0 L1,0 L1,1 L0,1 Z " fill="#8CA5F3" opacity="0.9764706" transform="translate(59,71)"/>
<path d="M0,0 L1,0 L1,1 L0,1 Z " fill="#8BA6F6" opacity="0.3019608" transform="translate(58,71)"/>
<path d="M0,0 L1,0 L1,1 L0,1 Z " fill="#8DA5F3" opacity="0.8509804" transform="translate(45,71)"/>
<path d="M0,0 L1,0 L1,1 L0,1 Z " fill="#8DA5F4" opacity="0.003921569" transform="translate(82,70)"/>
<path d="M0,0 L1,0 L1,1 L0,1 Z " fill="#8DA5F4" opacity="0.53333336" transform="translate(81,70)"/>
<path d="M0,0 L1,0 L1,1 L0,1 Z " fill="#8EA7F6" opacity="0.20392157" transform="translate(59,70)"/>
<path d="M0,0 L1,0 L1,1 L0,1 Z " fill="#8CA6F4" opacity="0.34901962" transform="translate(46,70)"/>
<path d="M0,0 L1,0 L1,1 L0,1 Z " fill="#8DA4F3" opacity="0.64705884" transform="translate(116,69)"/>
<path d="M0,0 L1,0 L1,1 L0,1 Z " fill="#8EA3F3" opacity="0.23921569" transform="translate(80,69)"/>
<path d="M0,0 L1,0 L1,1 L0,1 Z " fill="#8DA4F3" opacity="0.8039216" transform="translate(79,69)"/>
<path d="M0,0 L1,0 L1,1 L0,1 Z " fill="#8DA5F3" opacity="0.99607843" transform="translate(62,69)"/>
<path d="M0,0 L1,0 L1,1 L0,1 Z " fill="#8DA5F3" opacity="0.05882353" transform="translate(60,69)"/>
<path d="M0,0 L1,0 L1,1 L0,1 Z " fill="#8DA5F4" opacity="0.047058824" transform="translate(47,69)"/>
<path d="M0,0 L1,0 L1,1 L0,1 Z " fill="#8CA5F3" opacity="0.8980392" transform="translate(46,69)"/>
<path d="M0,0 L1,0 L1,1 L0,1 Z " fill="#8DA5F3" opacity="0.003921569" transform="translate(83,68)"/>
<path d="M0,0 L1,0 L1,1 L0,1 Z " fill="#8BA6F5" opacity="0.38039216" transform="translate(78,68)"/>
<path d="M0,0 L1,0 L1,1 L0,1 Z " fill="#8DA4F3" opacity="0.8235294" transform="translate(77,68)"/>
<path d="M0,0 L1,0 L1,1 L0,1 Z " fill="#8DA5F3" opacity="0.9882353" transform="translate(64,68)"/>
<path d="M0,0 L1,0 L1,1 L0,1 Z " fill="#90A4F2" opacity="0.15294118" transform="translate(62,68)"/>
<path d="M0,0 L1,0 L1,1 L0,1 Z " fill="#8DA5F4" opacity="0.53333336" transform="translate(47,68)"/>
<path d="M0,0 L1,0 L1,1 L0,1 Z " fill="#8CA5F7" opacity="0.12156863" transform="translate(116,67)"/>
<path d="M0,0 L1,0 L1,1 L0,1 Z " fill="#8CA5F4" opacity="0.6" transform="translate(84,67)"/>
<path d="M0,0 L1,0 L1,1 L0,1 Z " fill="#8DA5F3" opacity="0.46666667" transform="translate(75,67)"/>
<path d="M0,0 L1,0 L1,1 L0,1 Z " fill="#8DA4F4" opacity="0.7607843" transform="translate(74,67)"/>
<path d="M0,0 L1,0 L1,1 L0,1 Z " fill="#8CA4F3" opacity="0.8901961" transform="translate(73,67)"/>
<path d="M0,0 L1,0 L1,1 L0,1 Z " fill="#8CA5F3" opacity="0.9843137" transform="translate(72,67)"/>
<path d="M0,0 L1,0 L1,1 L0,1 Z " fill="#8CA5F3" opacity="0.9764706" transform="translate(68,67)"/>
<path d="M0,0 L1,0 L1,1 L0,1 Z " fill="#8DA5F3" opacity="0.6313726" transform="translate(66,67)"/>
<path d="M0,0 L1,0 L1,1 L0,1 Z " fill="#8CA6F3" opacity="0.078431375" transform="translate(64,67)"/>
<path d="M0,0 L1,0 L1,1 L0,1 Z " fill="#8CA6F3" opacity="0.23529412" transform="translate(48,67)"/>
<path d="M0,0 L1,0 L1,1 L0,1 Z " fill="#8CA5F3" opacity="0.9843137" transform="translate(47,67)"/>
<path d="M0,0 L1,0 L1,1 L0,1 Z " fill="#8AAAF5" opacity="0.007843138" transform="translate(72,66)"/>
<path d="M0,0 L1,0 L1,1 L0,1 Z " fill="#8DA8F9" opacity="0.14901961" transform="translate(70,66)"/>
<path d="M0,0 L1,0 L1,1 L0,1 Z " fill="#8CA5F3" opacity="0.003921569" transform="translate(68,66)"/>
<path d="M0,0 L1,0 L1,1 L0,1 Z " fill="#89A4F6" opacity="0.10980392" transform="translate(49,66)"/>
<path d="M0,0 L1,0 L1,1 L0,1 Z " fill="#8CA4F3" opacity="0.9137255" transform="translate(48,66)"/>
<path d="M0,0 L1,0 L1,1 L0,1 Z " fill="#8DA4F2" opacity="0.30588236" transform="translate(115,65)"/>
<path d="M0,0 L1,0 L1,1 L0,1 Z " fill="#8CA5F4" opacity="0.003921569" transform="translate(84,65)"/>
<path d="M0,0 L1,0 L1,1 L0,1 Z " fill="#8CA5F3" opacity="0.03529412" transform="translate(50,65)"/>
<path d="M0,0 L1,0 L1,1 L0,1 Z " fill="#8CA4F3" opacity="0.7921569" transform="translate(49,65)"/>
<path d="M0,0 L1,0 L1,1 L0,1 Z " fill="#8CA4F3" opacity="0.99215686" transform="translate(86,64)"/>
<path d="M0,0 L1,0 L1,1 L0,1 Z " fill="#8EA5F6" opacity="0.21176471" transform="translate(85,64)"/>
<path d="M0,0 L1,0 L1,1 L0,1 Z " fill="#8CA5F3" opacity="0.050980393" transform="translate(51,64)"/>
<path d="M0,0 L1,0 L1,1 L0,1 Z " fill="#8CA5F3" opacity="0.7411765" transform="translate(50,64)"/>
<path d="M0,0 L1,0 L1,1 L0,1 Z " fill="#8FA5F8" opacity="0.13333334" transform="translate(114,63)"/>
<path d="M0,0 L1,0 L1,1 L0,1 Z " fill="#8DA4F3" opacity="0.94509804" transform="translate(113,63)"/>
<path d="M0,0 L1,0 L1,1 L0,1 Z " fill="#8DA6F4" opacity="0.5254902" transform="translate(86,63)"/>
<path d="M0,0 L1,0 L1,1 L0,1 Z " fill="#8DA5F3" opacity="0.07058824" transform="translate(52,63)"/>
<path d="M0,0 L1,0 L1,1 L0,1 Z " fill="#8CA5F3" opacity="0.78431374" transform="translate(51,63)"/>
<path d="M0,0 L1,0 L1,1 L0,1 Z " fill="#8EA6F3" opacity="0.24705882" transform="translate(113,62)"/>
<path d="M0,0 L1,0 L1,1 L0,1 Z " fill="#8DA5F4" opacity="0.015686275" transform="translate(86,62)"/>
<path d="M0,0 L1,0 L1,1 L0,1 Z " fill="#8CA4F3" opacity="0.16470589" transform="translate(53,62)"/>
<path d="M0,0 L1,0 L1,1 L0,1 Z " fill="#8DA5F3" opacity="0.83137256" transform="translate(52,62)"/>
<path d="M0,0 L1,0 L1,1 L0,1 Z " fill="#8CA5F3" opacity="0.9764706" transform="translate(39,62)"/>
<path d="M0,0 L1,0 L1,1 L0,1 Z " fill="#8DA4F3" opacity="0.65882355" transform="translate(38,62)"/>
<path d="M0,0 L1,0 L1,1 L0,1 Z " fill="#8CA5F3" opacity="0.47843137" transform="translate(36,62)"/>
<path d="M0,0 L1,0 L1,1 L0,1 Z " fill="#8DA5F3" opacity="0.6666667" transform="translate(35,62)"/>
<path d="M0,0 L1,0 L1,1 L0,1 Z " fill="#8CA6F3" opacity="0.3137255" transform="translate(112,61)"/>
<path d="M0,0 L1,0 L1,1 L0,1 Z " fill="#8CA5F3" opacity="0.9843137" transform="translate(111,61)"/>
<path d="M0,0 L1,0 L1,1 L0,1 Z " fill="#8DA5F3" opacity="0.7176471" transform="translate(88,61)"/>
<path d="M0,0 L1,0 L1,1 L0,1 Z " fill="#8DA5F3" opacity="0.03529412" transform="translate(87,61)"/>
<path d="M0,0 L1,0 L1,1 L0,1 Z " fill="#8DA6F3" opacity="0.40392157" transform="translate(54,61)"/>
<path d="M0,0 L1,0 L1,1 L0,1 Z " fill="#8DA5F3" opacity="0.9647059" transform="translate(53,61)"/>
<path d="M0,0 L1,0 L1,1 L0,1 Z " fill="#8DA7F7" opacity="0.11372549" transform="translate(39,61)"/>
<path d="M0,0 L1,0 L1,1 L0,1 Z " fill="#8CA5F7" opacity="0.12156863" transform="translate(34,61)"/>
<path d="M0,0 L1,0 L1,1 L0,1 Z " fill="#8CA4F3" opacity="0.7137255" transform="translate(33,61)"/>
<path d="M0,0 L1,0 L1,1 L0,1 Z " fill="#8EA5F6" opacity="0.21176471" transform="translate(111,60)"/>
<path d="M0,0 L1,0 L1,1 L0,1 Z " fill="#8DA6F3" opacity="0.015686275" transform="translate(88,60)"/>
<path d="M0,0 L1,0 L1,1 L0,1 Z " fill="#8DA8F9" opacity="0.14901961" transform="translate(56,60)"/>
<path d="M0,0 L1,0 L1,1 L0,1 Z " fill="#8DA5F3" opacity="0.7019608" transform="translate(55,60)"/>
<path d="M0,0 L1,0 L1,1 L0,1 Z " fill="#8DA5F4" opacity="0.011764706" transform="translate(40,60)"/>
<path d="M0,0 L1,0 L1,1 L0,1 Z " fill="#8DA5F3" opacity="0.015686275" transform="translate(33,60)"/>
<path d="M0,0 L1,0 L1,1 L0,1 Z " fill="#8DA5F3" opacity="0.62352943" transform="translate(32,60)"/>
<path d="M0,0 L1,0 L1,1 L0,1 Z " fill="#8CA5F3" opacity="0.06666667" transform="translate(110,59)"/>
<path d="M0,0 L1,0 L1,1 L0,1 Z " fill="#8CA5F3" opacity="0.6431373" transform="translate(109,59)"/>
<path d="M0,0 L1,0 L1,1 L0,1 Z " fill="#8DA5F3" opacity="0.99607843" transform="translate(108,59)"/>
<path d="M0,0 L1,0 L1,1 L0,1 Z " fill="#8CA5F5" opacity="0.2784314" transform="translate(90,59)"/>
<path d="M0,0 L1,0 L1,1 L0,1 Z " fill="#8AAAF5" opacity="0.09411765" transform="translate(58,59)"/>
<path d="M0,0 L1,0 L1,1 L0,1 Z " fill="#8DA5F4" opacity="0.5882353" transform="translate(57,59)"/>
<path d="M0,0 L1,0 L1,1 L0,1 Z " fill="#8DA5F3" opacity="0.9882353" transform="translate(56,59)"/>
<path d="M0,0 L1,0 L1,1 L0,1 Z " fill="#8CA5F4" opacity="0.015686275" transform="translate(41,59)"/>
<path d="M0,0 L1,0 L1,1 L0,1 Z " fill="#8DA4F3" opacity="0.019607844" transform="translate(32,59)"/>
<path d="M0,0 L1,0 L1,1 L0,1 Z " fill="#8CA4F3" opacity="0.16470589" transform="translate(108,58)"/>
<path d="M0,0 L1,0 L1,1 L0,1 Z " fill="#8DA4F3" opacity="0.64705884" transform="translate(107,58)"/>
<path d="M0,0 L1,0 L1,1 L0,1 Z " fill="#8CA4F3" opacity="0.99215686" transform="translate(106,58)"/>
<path d="M0,0 L1,0 L1,1 L0,1 Z " fill="#8CA4F3" opacity="0.87058824" transform="translate(93,58)"/>
<path d="M0,0 L1,0 L1,1 L0,1 Z " fill="#8DA5F3" opacity="0.03137255" transform="translate(91,58)"/>
<path d="M0,0 L1,0 L1,1 L0,1 Z " fill="#8CA4F3" opacity="0.96862745" transform="translate(43,58)"/>
<path d="M0,0 L1,0 L1,1 L0,1 Z " fill="#89A4F6" opacity="0.10980392" transform="translate(42,58)"/>
<path d="M0,0 L1,0 L1,1 L0,1 Z " fill="#8FA5F8" opacity="0.13333334" transform="translate(31,58)"/>
<path d="M0,0 L1,0 L1,1 L0,1 Z " fill="#8DA4F3" opacity="0.98039216" transform="translate(30,58)"/>
<path d="M0,0 L1,0 L1,1 L0,1 Z " fill="#90A6F4" opacity="0.09019608" transform="translate(106,57)"/>
<path d="M0,0 L1,0 L1,1 L0,1 Z " fill="#8DA4F3" opacity="0.64705884" transform="translate(104,57)"/>
<path d="M0,0 L1,0 L1,1 L0,1 Z " fill="#8CA4F3" opacity="0.8901961" transform="translate(103,57)"/>
<path d="M0,0 L1,0 L1,1 L0,1 Z " fill="#8DA5F3" opacity="0.9882353" transform="translate(102,57)"/>
<path d="M0,0 L1,0 L1,1 L0,1 Z " fill="#8CA4F3" opacity="0.95686275" transform="translate(97,57)"/>
<path d="M0,0 L1,0 L1,1 L0,1 Z " fill="#8CA4F3" opacity="0.54901963" transform="translate(95,57)"/>
<path d="M0,0 L1,0 L1,1 L0,1 Z " fill="#8BA6F7" opacity="0.007843138" transform="translate(93,57)"/>
<path d="M0,0 L1,0 L1,1 L0,1 Z " fill="#8DA4F3" opacity="0.07450981" transform="translate(58,57)"/>
<path d="M0,0 L1,0 L1,1 L0,1 Z " fill="#92AAF3" opacity="0.08235294" transform="translate(101,56)"/>
<path d="M0,0 L1,0 L1,1 L0,1 Z " fill="#8EA3F8" opacity="0.14117648" transform="translate(99,56)"/>
<path d="M0,0 L1,0 L1,1 L0,1 Z " fill="#8CA6F3" opacity="0.007843138" transform="translate(97,56)"/>
<path d="M0,0 L1,0 L1,1 L0,1 Z " fill="#8DA5F3" opacity="0.7019608" transform="translate(76,56)"/>
<path d="M0,0 L1,0 L1,1 L0,1 Z " fill="#8DA4F3" opacity="0.64705884" transform="translate(74,56)"/>
<path d="M0,0 L1,0 L1,1 L0,1 Z " fill="#8CA4F3" opacity="0.40784314" transform="translate(72,56)"/>
<path d="M0,0 L1,0 L1,1 L0,1 Z " fill="#8CA4F3" opacity="0.16470589" transform="translate(71,56)"/>
<path d="M0,0 L1,0 L1,1 L0,1 Z " fill="#8DA4F3" opacity="0.56078434" transform="translate(57,56)"/>
<path d="M0,0 L1,0 L1,1 L0,1 Z " fill="#8DA5F3" opacity="0.99607843" transform="translate(44,56)"/>
<path d="M0,0 L1,0 L1,1 L0,1 Z " fill="#89A7F6" opacity="0.101960786" transform="translate(43,56)"/>
<path d="M0,0 L1,0 L1,1 L0,1 Z " fill="#8BA2F8" opacity="0.12941177" transform="translate(30,56)"/>
<path d="M0,0 L1,0 L1,1 L0,1 Z " fill="#8CA4F3" opacity="0.7490196" transform="translate(44,55)"/>
<path d="M0,0 L1,0 L1,1 L0,1 Z " fill="#8CA5F3" opacity="0.78431374" transform="translate(29,55)"/>
<path d="M0,0 L1,0 L1,1 L0,1 Z " fill="#8DA5F3" opacity="0.07450981" transform="translate(71,54)"/>
<path d="M0,0 L1,0 L1,1 L0,1 Z " fill="#8CA4F3" opacity="0.003921569" transform="translate(57,54)"/>
<path d="M0,0 L1,0 L1,1 L0,1 Z " fill="#8CA4F4" opacity="0.42745098" transform="translate(44,54)"/>
<path d="M0,0 L1,0 L1,1 L0,1 Z " fill="#8DA5F3" opacity="0.46666667" transform="translate(29,54)"/>
<path d="M0,0 L1,0 L1,1 L0,1 Z " fill="#8DA5F3" opacity="0.7882353" transform="translate(72,53)"/>
<path d="M0,0 L1,0 L1,1 L0,1 Z " fill="#8DA4F4" opacity="0.68235296" transform="translate(56,53)"/>
<path d="M0,0 L1,0 L1,1 L0,1 Z " fill="#8DA4F3" opacity="0.48235294" transform="translate(56,52)"/>
<path d="M0,0 L1,0 L1,1 L0,1 Z " fill="#8CA4F3" opacity="0.99215686" transform="translate(45,52)"/>
<path d="M0,0 L1,0 L1,1 L0,1 Z " fill="#8CA4F3" opacity="0.039215688" transform="translate(44,52)"/>
<path d="M0,0 L1,0 L1,1 L0,1 Z " fill="#8DA5F3" opacity="0.06666667" transform="translate(29,52)"/>
<path d="M0,0 L1,0 L1,1 L0,1 Z " fill="#8CA5F4" opacity="0.52156866" transform="translate(72,51)"/>
<path d="M0,0 L1,0 L1,1 L0,1 Z " fill="#8CA5F4" opacity="0.35686275" transform="translate(56,51)"/>
<path d="M0,0 L1,0 L1,1 L0,1 Z " fill="#8CA5F3" opacity="0.8980392" transform="translate(45,51)"/>
<path d="M0,0 L1,0 L1,1 L0,1 Z " fill="#8DA4F3" opacity="0.9372549" transform="translate(28,51)"/>
<path d="M0,0 L1,0 L1,1 L0,1 Z " fill="#8CA6F4" opacity="0.43529412" transform="translate(72,50)"/>
<path d="M0,0 L1,0 L1,1 L0,1 Z " fill="#8BA3F5" opacity="0.29411766" transform="translate(56,50)"/>
<path d="M0,0 L1,0 L1,1 L0,1 Z " fill="#8CA5F4" opacity="0.35686275" transform="translate(72,49)"/>
<path d="M0,0 L1,0 L1,1 L0,1 Z " fill="#8EA3F3" opacity="0.23921569" transform="translate(56,49)"/>
<path d="M0,0 L1,0 L1,1 L0,1 Z " fill="#8DA5F3" opacity="0.77254903" transform="translate(45,49)"/>
<path d="M0,0 L1,0 L1,1 L0,1 Z " fill="#8CA5F3" opacity="0.81960785" transform="translate(28,49)"/>
<path d="M0,0 L1,0 L1,1 L0,1 Z " fill="#8DA6F4" opacity="0.44705883" transform="translate(72,47)"/>
<path d="M0,0 L1,0 L1,1 L0,1 Z " fill="#8CA4F3" opacity="0.32941177" transform="translate(56,47)"/>
<path d="M0,0 L1,0 L1,1 L0,1 Z " fill="#8CA4F3" opacity="0.87058824" transform="translate(45,47)"/>
<path d="M0,0 L1,0 L1,1 L0,1 Z " fill="#8DA5F3" opacity="0.9098039" transform="translate(28,47)"/>
<path d="M0,0 L1,0 L1,1 L0,1 Z " fill="#8DA5F3" opacity="0.9529412" transform="translate(45,46)"/>
<path d="M0,0 L1,0 L1,1 L0,1 Z " fill="#8DA4F3" opacity="0.98039216" transform="translate(28,46)"/>
<path d="M0,0 L1,0 L1,1 L0,1 Z " fill="#8DA5F3" opacity="0.7176471" transform="translate(72,45)"/>
<path d="M0,0 L1,0 L1,1 L0,1 Z " fill="#8DA5F4" opacity="0.59607846" transform="translate(56,45)"/>
<path d="M0,0 L1,0 L1,1 L0,1 Z " fill="#8AA8F8" opacity="0.13725491" transform="translate(44,45)"/>
<path d="M0,0 L1,0 L1,1 L0,1 Z " fill="#8BA8F4" opacity="0.17254902" transform="translate(29,45)"/>
<path d="M0,0 L1,0 L1,1 L0,1 Z " fill="#8DA5F3" opacity="0.9098039" transform="translate(72,44)"/>
<path d="M0,0 L1,0 L1,1 L0,1 Z " fill="#8DA3F5" opacity="0.003921569" transform="translate(71,44)"/>
<path d="M0,0 L1,0 L1,1 L0,1 Z " fill="#8CA4F3" opacity="0.7921569" transform="translate(56,44)"/>
<path d="M0,0 L1,0 L1,1 L0,1 Z " fill="#8CA4F3" opacity="0.96862745" transform="translate(0,44)"/>
<path d="M0,0 L1,0 L1,1 L0,1 Z " fill="#8DA5F3" opacity="0.7019608" transform="translate(76,43)"/>
<path d="M0,0 L1,0 L1,1 L0,1 Z " fill="#8CA4F3" opacity="0.99215686" transform="translate(56,43)"/>
<path d="M0,0 L1,0 L1,1 L0,1 Z " fill="#8CA5F4" opacity="0.60784316" transform="translate(44,43)"/>
<path d="M0,0 L1,0 L1,1 L0,1 Z " fill="#8CA5F3" opacity="0.6431373" transform="translate(29,43)"/>
<path d="M0,0 L1,0 L1,1 L0,1 Z " fill="#8DA4F4" opacity="0.5176471" transform="translate(71,42)"/>
<path d="M0,0 L1,0 L1,1 L0,1 Z " fill="#8CA5F3" opacity="0.4" transform="translate(57,42)"/>
<path d="M0,0 L1,0 L1,1 L0,1 Z " fill="#8DA5F3" opacity="0.92941177" transform="translate(44,42)"/>
<path d="M0,0 L1,0 L1,1 L0,1 Z " fill="#8CA5F3" opacity="0.9490196" transform="translate(29,42)"/>
<path d="M0,0 L1,0 L1,1 L0,1 Z " fill="#8CA5F3" opacity="0.8627451" transform="translate(0,42)"/>
<path d="M0,0 L1,0 L1,1 L0,1 Z " fill="#8DA5F4" opacity="0.5882353" transform="translate(76,41)"/>
<path d="M0,0 L1,0 L1,1 L0,1 Z " fill="#8CA4F3" opacity="0.8901961" transform="translate(71,41)"/>
<path d="M0,0 L1,0 L1,1 L0,1 Z " fill="#8DA5F4" opacity="0.02745098" transform="translate(70,41)"/>
<path d="M0,0 L1,0 L1,1 L0,1 Z " fill="#8CA5F3" opacity="0.8" transform="translate(57,41)"/>
<path d="M0,0 L1,0 L1,1 L0,1 Z " fill="#8DA4F4" opacity="0.34117648" transform="translate(43,41)"/>
<path d="M0,0 L1,0 L1,1 L0,1 Z " fill="#8CA4F5" opacity="0.37254903" transform="translate(30,41)"/>
<path d="M0,0 L1,0 L1,1 L0,1 Z " fill="#8DA5F4" opacity="0.41960785" transform="translate(70,40)"/>
<path d="M0,0 L1,0 L1,1 L0,1 Z " fill="#8EA5F3" opacity="0.30980393" transform="translate(58,40)"/>
<path d="M0,0 L1,0 L1,1 L0,1 Z " fill="#8DA5F4" opacity="0.8392157" transform="translate(43,40)"/>
<path d="M0,0 L1,0 L1,1 L0,1 Z " fill="#8DA5F3" opacity="0.8666667" transform="translate(30,40)"/>
<path d="M0,0 L1,0 L1,1 L0,1 Z " fill="#8DA5F3" opacity="0.654902" transform="translate(0,40)"/>
<path d="M0,0 L1,0 L1,1 L0,1 Z " fill="#8EA7F5" opacity="0.28235295" transform="translate(76,39)"/>
<path d="M0,0 L1,0 L1,1 L0,1 Z " fill="#89A7F6" opacity="0.101960786" transform="translate(69,39)"/>
<path d="M0,0 L1,0 L1,1 L0,1 Z " fill="#8DA4F3" opacity="0.050980393" transform="translate(59,39)"/>
<path d="M0,0 L1,0 L1,1 L0,1 Z " fill="#8DA4F3" opacity="0.85882354" transform="translate(58,39)"/>
<path d="M0,0 L1,0 L1,1 L0,1 Z " fill="#8DA6F4" opacity="0.44705883" transform="translate(42,39)"/>
<path d="M0,0 L1,0 L1,1 L0,1 Z " fill="#8CA5F3" opacity="0.47843137" transform="translate(31,39)"/>
<path d="M0,0 L1,0 L1,1 L0,1 Z " fill="#8DA5F4" opacity="0.7529412" transform="translate(69,38)"/>
<path d="M0,0 L1,0 L1,1 L0,1 Z " fill="#8CA5F3" opacity="0.023529412" transform="translate(68,38)"/>
<path d="M0,0 L1,0 L1,1 L0,1 Z " fill="#8CA5F3" opacity="0.007843138" transform="translate(60,38)"/>
<path d="M0,0 L1,0 L1,1 L0,1 Z " fill="#8DA4F3" opacity="0.65882355" transform="translate(59,38)"/>
<path d="M0,0 L1,0 L1,1 L0,1 Z " fill="#8CA5F3" opacity="0.9843137" transform="translate(42,38)"/>
<path d="M0,0 L1,0 L1,1 L0,1 Z " fill="#8DA7F7" opacity="0.22745098" transform="translate(41,38)"/>
<path d="M0,0 L1,0 L1,1 L0,1 Z " fill="#8EA6F3" opacity="0.24705882" transform="translate(32,38)"/>
<path d="M0,0 L1,0 L1,1 L0,1 Z " fill="#8DA5F3" opacity="0.9882353" transform="translate(31,38)"/>
<path d="M0,0 L1,0 L1,1 L0,1 Z " fill="#8DA4F4" opacity="0.34117648" transform="translate(0,38)"/>
<path d="M0,0 L1,0 L1,1 L0,1 Z " fill="#8CA5F3" opacity="0.007843138" transform="translate(76,37)"/>
<path d="M0,0 L1,0 L1,1 L0,1 Z " fill="#8CA5F3" opacity="0.05882353" transform="translate(67,37)"/>
<path d="M0,0 L1,0 L1,1 L0,1 Z " fill="#8CA4F3" opacity="0.03137255" transform="translate(61,37)"/>
<path d="M0,0 L1,0 L1,1 L0,1 Z " fill="#8CA5F3" opacity="0.6627451" transform="translate(60,37)"/>
<path d="M0,0 L1,0 L1,1 L0,1 Z " fill="#8CA5F5" opacity="0.2784314" transform="translate(40,37)"/>
<path d="M0,0 L1,0 L1,1 L0,1 Z " fill="#8BA6F6" opacity="0.3019608" transform="translate(33,37)"/>
<path d="M0,0 L1,0 L1,1 L0,1 Z " fill="#8DA5F3" opacity="0.9607843" transform="translate(32,37)"/>
<path d="M0,0 L1,0 L1,1 L0,1 Z " fill="#8DA5F4" opacity="0.6745098" transform="translate(75,36)"/>
<path d="M0,0 L1,0 L1,1 L0,1 Z " fill="#8CA5F3" opacity="0.90588236" transform="translate(67,36)"/>
<path d="M0,0 L1,0 L1,1 L0,1 Z " fill="#8CA6F4" opacity="0.43529412" transform="translate(66,36)"/>
<path d="M0,0 L1,0 L1,1 L0,1 Z " fill="#8DA5F3" opacity="0.015686275" transform="translate(64,36)"/>
<path d="M0,0 L1,0 L1,1 L0,1 Z " fill="#8EA5F3" opacity="0.3882353" transform="translate(62,36)"/>
<path d="M0,0 L1,0 L1,1 L0,1 Z " fill="#8CA4F3" opacity="0.87058824" transform="translate(61,36)"/>
<path d="M0,0 L1,0 L1,1 L0,1 Z " fill="#8DA5F3" opacity="0.99607843" transform="translate(40,36)"/>
<path d="M0,0 L1,0 L1,1 L0,1 Z " fill="#8CA5F3" opacity="0.6509804" transform="translate(39,36)"/>
<path d="M0,0 L1,0 L1,1 L0,1 Z " fill="#8DA7F7" opacity="0.22745098" transform="translate(38,36)"/>
<path d="M0,0 L1,0 L1,1 L0,1 Z " fill="#8DA5F3" opacity="0.050980393" transform="translate(37,36)"/>
<path d="M0,0 L1,0 L1,1 L0,1 Z " fill="#8CA6F3" opacity="0.23529412" transform="translate(35,36)"/>
<path d="M0,0 L1,0 L1,1 L0,1 Z " fill="#8DA5F3" opacity="0.6666667" transform="translate(34,36)"/>
<path d="M0,0 L1,0 L1,1 L0,1 Z " fill="#8DA5F3" opacity="0.003921569" transform="translate(0,36)"/>
<path d="M0,0 L1,0 L1,1 L0,1 Z " fill="#8DA5F3" opacity="0.6313726" transform="translate(1,35)"/>
<path d="M0,0 L1,0 L1,1 L0,1 Z " fill="#8EA3F8" opacity="0.14117648" transform="translate(75,34)"/>
<path d="M0,0 L1,0 L1,1 L0,1 Z " fill="#8DA4F3" opacity="0.8039216" transform="translate(74,33)"/>
<path d="M0,0 L1,0 L1,1 L0,1 Z " fill="#8CA4F3" opacity="0.05882353" transform="translate(1,33)"/>
<path d="M0,0 L1,0 L1,1 L0,1 Z " fill="#8DA4F3" opacity="0.64705884" transform="translate(2,32)"/>
<path d="M0,0 L1,0 L1,1 L0,1 Z " fill="#8DA4F3" opacity="0.07450981" transform="translate(74,31)"/>
<path d="M0,0 L1,0 L1,1 L0,1 Z " fill="#8DA4F3" opacity="0.98039216" transform="translate(73,31)"/>
<path d="M0,0 L1,0 L1,1 L0,1 Z " fill="#8DA4F2" opacity="0.84705883" transform="translate(3,30)"/>
<path d="M0,0 L1,0 L1,1 L0,1 Z " fill="#8DA4F2" opacity="0.007843138" transform="translate(2,30)"/>
<path d="M0,0 L1,0 L1,1 L0,1 Z " fill="#8CA6F3" opacity="0.15686275" transform="translate(73,29)"/>
<path d="M0,0 L1,0 L1,1 L0,1 Z " fill="#8DA5F3" opacity="0.99607843" transform="translate(72,29)"/>
<path d="M0,0 L1,0 L1,1 L0,1 Z " fill="#8DA4F3" opacity="0.85882354" transform="translate(4,28)"/>
<path d="M0,0 L1,0 L1,1 L0,1 Z " fill="#8DA4F3" opacity="0.015686275" transform="translate(3,28)"/>
<path d="M0,0 L1,0 L1,1 L0,1 Z " fill="#8CA6F3" opacity="0.15686275" transform="translate(72,27)"/>
<path d="M0,0 L1,0 L1,1 L0,1 Z " fill="#8CA5F3" opacity="0.9843137" transform="translate(71,27)"/>
<path d="M0,0 L1,0 L1,1 L0,1 Z " fill="#8CA4F3" opacity="0.003921569" transform="translate(4,26)"/>
<path d="M0,0 L1,0 L1,1 L0,1 Z " fill="#8DA5F3" opacity="0.039215688" transform="translate(71,25)"/>
<path d="M0,0 L1,0 L1,1 L0,1 Z " fill="#8CA5F3" opacity="0.9764706" transform="translate(6,25)"/>
<path d="M0,0 L1,0 L1,1 L0,1 Z " fill="#90A4F2" opacity="0.15294118" transform="translate(5,25)"/>
<path d="M0,0 L1,0 L1,1 L0,1 Z " fill="#8FA5F4" opacity="0.26666668" transform="translate(70,24)"/>
<path d="M0,0 L1,0 L1,1 L0,1 Z " fill="#8DA4F3" opacity="0.48235294" transform="translate(6,24)"/>
<path d="M0,0 L1,0 L1,1 L0,1 Z " fill="#8CA5F3" opacity="0.011764706" transform="translate(6,23)"/>
<path d="M0,0 L1,0 L1,1 L0,1 Z " fill="#8DA4F3" opacity="0.011764706" transform="translate(69,22)"/>
<path d="M0,0 L1,0 L1,1 L0,1 Z " fill="#8DA4F3" opacity="0.7372549" transform="translate(68,22)"/>
<path d="M0,0 L1,0 L1,1 L0,1 Z " fill="#8CA4F3" opacity="0.8901961" transform="translate(8,22)"/>
<path d="M0,0 L1,0 L1,1 L0,1 Z " fill="#8CA6F3" opacity="0.078431375" transform="translate(7,22)"/>
<path d="M0,0 L1,0 L1,1 L0,1 Z " fill="#8BA2F4" opacity="0.08627451" transform="translate(68,21)"/>
<path d="M0,0 L1,0 L1,1 L0,1 Z " fill="#8EA5F6" opacity="0.21176471" transform="translate(8,21)"/>
<path d="M0,0 L1,0 L1,1 L0,1 Z " fill="#8FA5F8" opacity="0.13333334" transform="translate(67,20)"/>
<path d="M0,0 L1,0 L1,1 L0,1 Z " fill="#8DA4F3" opacity="0.9019608" transform="translate(66,20)"/>
<path d="M0,0 L1,0 L1,1 L0,1 Z " fill="#8CA5F3" opacity="0.9764706" transform="translate(10,20)"/>
<path d="M0,0 L1,0 L1,1 L0,1 Z " fill="#8CA6F4" opacity="0.27058825" transform="translate(9,20)"/>
<path d="M0,0 L1,0 L1,1 L0,1 Z " fill="#8EA6F4" opacity="0.16862746" transform="translate(66,19)"/>
<path d="M0,0 L1,0 L1,1 L0,1 Z " fill="#8CA4F3" opacity="0.99215686" transform="translate(11,19)"/>
<path d="M0,0 L1,0 L1,1 L0,1 Z " fill="#8BA6F4" opacity="0.18039216" transform="translate(65,18)"/>
<path d="M0,0 L1,0 L1,1 L0,1 Z " fill="#8DA5F3" opacity="0.89411765" transform="translate(64,18)"/>
<path d="M0,0 L1,0 L1,1 L0,1 Z " fill="#8DA5F3" opacity="0.972549" transform="translate(12,18)"/>
<path d="M0,0 L1,0 L1,1 L0,1 Z " fill="#8DA7F7" opacity="0.11372549" transform="translate(64,17)"/>
<path d="M0,0 L1,0 L1,1 L0,1 Z " fill="#8CA6F3" opacity="0.23529412" transform="translate(12,17)"/>
<path d="M0,0 L1,0 L1,1 L0,1 Z " fill="#8DA5F3" opacity="0.0627451" transform="translate(63,16)"/>
<path d="M0,0 L1,0 L1,1 L0,1 Z " fill="#8DA5F3" opacity="0.7176471" transform="translate(62,16)"/>
<path d="M0,0 L1,0 L1,1 L0,1 Z " fill="#8FA8F3" opacity="0.16078432" transform="translate(13,16)"/>
<path d="M0,0 L1,0 L1,1 L0,1 Z " fill="#8CA4F4" opacity="0.007843138" transform="translate(62,15)"/>
<path d="M0,0 L1,0 L1,1 L0,1 Z " fill="#8CA4F4" opacity="0.4509804" transform="translate(61,15)"/>
<path d="M0,0 L1,0 L1,1 L0,1 Z " fill="#8DA4F2" opacity="0.043137256" transform="translate(14,15)"/>
<path d="M0,0 L1,0 L1,1 L0,1 Z " fill="#8CA5F5" opacity="0.2" transform="translate(60,14)"/>
<path d="M0,0 L1,0 L1,1 L0,1 Z " fill="#8CA4F3" opacity="0.8352941" transform="translate(59,14)"/>
<path d="M0,0 L1,0 L1,1 L0,1 Z " fill="#8BA6F4" opacity="0.3372549" transform="translate(16,14)"/>
<path d="M0,0 L1,0 L1,1 L0,1 Z " fill="#8DA6F4" opacity="0.019607844" transform="translate(59,13)"/>
<path d="M0,0 L1,0 L1,1 L0,1 Z " fill="#8DA6F4" opacity="0.44705883" transform="translate(58,13)"/>
<path d="M0,0 L1,0 L1,1 L0,1 Z " fill="#8CA4F3" opacity="0.99215686" transform="translate(19,13)"/>
<path d="M0,0 L1,0 L1,1 L0,1 Z " fill="#8DA6F3" opacity="0.07058824" transform="translate(17,13)"/>
<path d="M0,0 L1,0 L1,1 L0,1 Z " fill="#8AAAF5" opacity="0.09411765" transform="translate(57,12)"/>
<path d="M0,0 L1,0 L1,1 L0,1 Z " fill="#8CA5F4" opacity="0.6" transform="translate(56,12)"/>
<path d="M0,0 L1,0 L1,1 L0,1 Z " fill="#8CA5F3" opacity="0.9764706" transform="translate(55,12)"/>
<path d="M0,0 L1,0 L1,1 L0,1 Z " fill="#8DA3F5" opacity="0.18431373" transform="translate(19,12)"/>
<path d="M0,0 L1,0 L1,1 L0,1 Z " fill="#8EA4F2" opacity="0.5372549" transform="translate(54,11)"/>
<path d="M0,0 L1,0 L1,1 L0,1 Z " fill="#8DA4F3" opacity="0.94509804" transform="translate(53,11)"/>
<path d="M0,0 L1,0 L1,1 L0,1 Z " fill="#8DA5F3" opacity="0.9882353" transform="translate(23,11)"/>
<path d="M0,0 L1,0 L1,1 L0,1 Z " fill="#8EA4F4" opacity="0.1764706" transform="translate(21,11)"/>
<path d="M0,0 L1,0 L1,1 L0,1 Z " fill="#8DA5F5" opacity="0.3764706" transform="translate(52,10)"/>
<path d="M0,0 L1,0 L1,1 L0,1 Z " fill="#8DA5F3" opacity="0.73333335" transform="translate(51,10)"/>
<path d="M0,0 L1,0 L1,1 L0,1 Z " fill="#8CA4F3" opacity="0.99215686" transform="translate(50,10)"/>
<path d="M0,0 L1,0 L1,1 L0,1 Z " fill="#8CA5F3" opacity="0.8117647" transform="translate(25,10)"/>
<path d="M0,0 L1,0 L1,1 L0,1 Z " fill="#8EAAF6" opacity="0.105882354" transform="translate(23,10)"/>
<path d="M0,0 L1,0 L1,1 L0,1 Z " fill="#8FA3F5" opacity="0.09803922" transform="translate(50,9)"/>
<path d="M0,0 L1,0 L1,1 L0,1 Z " fill="#8DA4F3" opacity="0.65882355" transform="translate(48,9)"/>
<path d="M0,0 L1,0 L1,1 L0,1 Z " fill="#8DA5F3" opacity="0.9098039" transform="translate(47,9)"/>
<path d="M0,0 L1,0 L1,1 L0,1 Z " fill="#8CA4F3" opacity="0.7137255" transform="translate(28,9)"/>
<path d="M0,0 L1,0 L1,1 L0,1 Z " fill="#8CA4F3" opacity="0.16470589" transform="translate(26,9)"/>
<path d="M0,0 L1,0 L1,1 L0,1 Z " fill="#8CA6F3" opacity="0.003921569" transform="translate(47,8)"/>
<path d="M0,0 L1,0 L1,1 L0,1 Z " fill="#8DA4F4" opacity="0.34117648" transform="translate(45,8)"/>
<path d="M0,0 L1,0 L1,1 L0,1 Z " fill="#8DA4F3" opacity="0.6392157" transform="translate(43,8)"/>
<path d="M0,0 L1,0 L1,1 L0,1 Z " fill="#8CA5F3" opacity="0.78431374" transform="translate(42,8)"/>
<path d="M0,0 L1,0 L1,1 L0,1 Z " fill="#8CA5F3" opacity="0.90588236" transform="translate(40,8)"/>
<path d="M0,0 L1,0 L1,1 L0,1 Z " fill="#8DA5F3" opacity="0.9529412" transform="translate(39,8)"/>
<path d="M0,0 L1,0 L1,1 L0,1 Z " fill="#8DA5F3" opacity="0.9647059" transform="translate(37,8)"/>
<path d="M0,0 L1,0 L1,1 L0,1 Z " fill="#8DA5F3" opacity="0.8666667" transform="translate(35,8)"/>
<path d="M0,0 L1,0 L1,1 L0,1 Z " fill="#8DA5F4" opacity="0.6745098" transform="translate(33,8)"/>
<path d="M0,0 L1,0 L1,1 L0,1 Z " fill="#8DA5F5" opacity="0.3764706" transform="translate(31,8)"/>
<path d="M0,0 L1,0 L1,1 L0,1 Z " fill="#8CA4F6" opacity="0.015686275" transform="translate(29,8)"/>
</svg>
