<?xml version="1.0" encoding="UTF-8"?>
<!-- Generator: visioncortex VTracer 0.6.4 -->
<svg version="1.1" xmlns="http://www.w3.org/2000/svg" width="128" height="128">
<path d="M0,0 L16,0 L16,1 L19,1 L19,2 L22,2 L22,3 L24,3 L24,4 L25,4 L25,5 L27,5 L27,6 L28,6 L28,7 L30,7 L30,8 L31,8 L31,9 L32,9 L32,10 L33,10 L33,12 L34,12 L34,13 L35,13 L35,14 L36,14 L36,16 L37,16 L37,18 L38,18 L38,20 L39,20 L39,23 L40,23 L40,28 L41,28 L41,41 L37,41 L37,40 L38,40 L38,31 L37,31 L37,28 L36,28 L36,26 L35,26 L35,25 L34,25 L34,24 L33,24 L33,23 L28,23 L28,24 L27,24 L27,25 L26,25 L26,26 L25,26 L25,27 L24,27 L24,30 L23,30 L23,40 L24,40 L24,43 L25,43 L25,44 L22,44 L22,45 L21,45 L21,46 L20,46 L20,47 L19,47 L19,48 L18,48 L18,49 L17,49 L17,50 L16,50 L16,51 L15,51 L15,53 L14,53 L14,55 L13,55 L13,58 L12,58 L12,70 L13,70 L13,73 L14,73 L14,74 L15,74 L15,76 L16,76 L16,77 L17,77 L17,78 L18,78 L18,80 L20,80 L20,81 L21,81 L21,88 L22,88 L22,93 L21,93 L21,95 L20,95 L20,96 L15,96 L15,95 L14,95 L14,94 L13,94 L13,86 L12,86 L12,84 L11,84 L11,83 L4,83 L4,85 L3,85 L3,87 L2,87 L2,95 L1,95 L1,96 L-5,96 L-5,95 L-6,95 L-6,87 L-7,87 L-7,85 L-8,85 L-8,83 L-15,83 L-15,84 L-16,84 L-16,86 L-17,86 L-17,94 L-18,94 L-18,95 L-19,95 L-19,96 L-24,96 L-24,95 L-25,95 L-25,93 L-26,93 L-26,31 L-25,31 L-25,24 L-24,24 L-24,20 L-23,20 L-23,18 L-22,18 L-22,16 L-21,16 L-21,15 L-20,15 L-20,13 L-19,13 L-19,12 L-18,12 L-18,11 L-17,11 L-17,10 L-16,10 L-16,9 L-15,9 L-15,8 L-14,8 L-14,7 L-13,7 L-13,6 L-12,6 L-12,5 L-10,5 L-10,4 L-9,4 L-9,3 L-7,3 L-7,2 L-4,2 L-4,1 L0,1 Z M4,23 L4,24 L3,24 L3,25 L2,25 L2,26 L1,26 L1,27 L0,27 L0,30 L-1,30 L-1,40 L0,40 L0,43 L1,43 L1,45 L3,45 L3,46 L4,46 L4,47 L9,47 L9,46 L10,46 L10,45 L11,45 L11,44 L12,44 L12,42 L13,42 L13,40 L14,40 L14,31 L13,31 L13,28 L12,28 L12,26 L11,26 L11,25 L10,25 L10,24 L9,24 L9,23 Z " fill="#E1E0E1" transform="translate(34,16)"/>
<path d="M0,0 L7,0 L7,1 L10,1 L10,2 L12,2 L12,3 L13,3 L13,4 L14,4 L14,5 L15,5 L15,6 L16,6 L16,7 L17,7 L17,10 L18,10 L18,16 L17,16 L17,18 L16,18 L16,20 L15,20 L15,21 L14,21 L14,22 L13,22 L13,23 L14,23 L14,25 L15,25 L15,28 L17,28 L17,27 L18,27 L18,26 L20,26 L20,25 L22,25 L22,24 L23,24 L23,23 L25,23 L25,22 L27,22 L27,21 L28,21 L28,49 L27,49 L27,48 L26,48 L26,47 L24,47 L24,46 L22,46 L22,45 L21,45 L21,44 L19,44 L19,43 L17,43 L17,42 L16,42 L16,41 L15,41 L15,44 L14,44 L14,46 L13,46 L13,48 L11,48 L11,49 L-23,49 L-23,48 L-25,48 L-25,46 L-26,46 L-26,44 L-27,44 L-27,33 L-29,33 L-29,32 L-31,32 L-31,31 L-32,31 L-32,30 L-33,30 L-33,29 L-34,29 L-34,28 L-35,28 L-35,25 L-36,25 L-36,18 L-35,18 L-35,16 L-34,16 L-34,14 L-33,14 L-33,13 L-32,13 L-32,12 L-31,12 L-31,11 L-29,11 L-29,10 L-26,10 L-26,9 L-18,9 L-18,10 L-15,10 L-15,11 L-14,11 L-14,12 L-12,12 L-12,13 L-10,13 L-10,9 L-9,9 L-9,7 L-8,7 L-8,5 L-7,5 L-7,4 L-6,4 L-6,3 L-4,3 L-4,2 L-2,2 L-2,1 L0,1 Z " fill="#E1E0E1" transform="translate(92,58)"/>
<path d="M0,0 L1,0 L1,2 L2,2 L2,3 L3,3 L3,4 L4,4 L4,6 L0,6 Z M-11,6 L0,6 L0,14 L-1,14 L-1,12 L-2,12 L-2,10 L-3,10 L-3,9 L-10,9 L-10,11 L-11,11 L-11,12 L-12,12 L-12,7 L-11,7 Z M4,6 L6,6 L6,7 L7,7 L7,14 L4,14 Z M-20,18 L-12,18 L-12,21 L-13,21 L-13,22 L-19,22 L-19,21 L-20,21 Z M0,18 L8,18 L8,19 L7,19 L7,21 L6,21 L6,22 L1,22 L1,21 L0,21 Z " fill="#DEDFDE" transform="translate(48,90)"/>
<path d="M0,0 L1,0 L1,1 L2,1 L2,3 L3,3 L3,5 L4,5 L4,7 L0,7 Z M-8,7 L0,7 L0,11 L-1,11 L-1,10 L-6,10 L-6,11 L-7,11 L-7,12 L-8,12 L-8,13 L-9,13 L-9,14 L-10,14 L-10,15 L-12,15 L-12,11 L-8,11 Z M4,7 L5,7 L5,10 L6,10 L6,15 L7,15 L7,28 L3,28 L3,27 L4,27 L4,18 L3,18 L3,15 L2,15 L2,13 L1,13 L1,12 L0,12 L0,11 L4,11 Z " fill="#DEDFDE" transform="translate(68,29)"/>
<path d="M0,0 L4,0 L4,3 L3,3 L3,6 L2,6 L2,8 L1,8 L1,10 L-1,10 L-1,11 L-4,11 L-4,8 L0,8 Z M5,4 L12,4 L12,8 L10,8 L10,7 L9,7 L9,6 L7,6 L7,5 L5,5 Z M12,8 L16,8 L16,11 L15,11 L15,10 L14,10 L14,9 L12,9 Z " fill="#DEDFDE" transform="translate(104,96)"/>
<path d="M0,0 L8,0 L8,4 L7,4 L7,3 L2,3 L2,4 L1,4 L1,5 L0,5 L0,6 L-1,6 L-1,7 L-2,7 L-2,8 L-4,8 L-4,4 L0,4 Z M8,4 L9,4 L9,5 L8,5 Z M11,8 L12,8 L12,11 L11,11 Z M11,22 L12,22 L12,28 L6,28 L6,27 L7,27 L7,26 L8,26 L8,25 L9,25 L9,24 L10,24 L10,23 L11,23 Z " fill="#DEDFDE" transform="translate(36,36)"/>
<path d="M0,0 L2,0 L2,2 L1,2 L1,4 L0,4 Z M-4,4 L0,4 L0,6 L-1,6 L-1,7 L-2,7 L-2,8 L-3,8 L-3,9 L-2,9 L-2,11 L-1,11 L-1,14 L1,14 L1,13 L2,13 L2,12 L4,12 L4,16 L-4,16 Z M7,9 L8,9 L8,10 L7,10 Z M6,10 L7,10 L7,11 L6,11 Z M4,11 L6,11 L6,12 L4,12 Z " fill="#E6E3E6" transform="translate(108,72)"/>
<path d="M0,0 L3,0 L3,4 L2,4 L2,3 L1,3 L1,2 L0,2 Z M3,4 L11,4 L11,20 L12,20 L12,21 L11,21 L11,22 L10,22 L10,20 L9,20 L9,18 L8,18 L8,7 L6,7 L6,6 L4,6 L4,5 L3,5 Z " fill="#DEDFDE" transform="translate(57,84)"/>
<path d="M0,0 L2,0 L2,5 L3,5 L3,18 L-1,18 L-1,17 L0,17 L0,5 L-2,5 L-2,3 L-3,3 L-3,1 L0,1 Z " fill="#DEDFDE" transform="translate(72,39)"/>
<path d="M0,0 L1,0 L1,4 L2,4 L2,7 L3,7 L3,8 L0,8 Z M-4,8 L0,8 L0,9 L-1,9 L-1,10 L-2,10 L-2,11 L-3,11 L-3,12 L-4,12 Z M-8,12 L-4,12 L-4,13 L-5,13 L-5,14 L-6,14 L-6,15 L-7,15 L-7,17 L-8,17 L-8,19 L-9,19 L-9,22 L-10,22 L-10,34 L-9,34 L-9,36 L-12,36 L-12,16 L-8,16 Z " fill="#DEDFDE" transform="translate(56,52)"/>
<path d="M0,0 L31,0 L31,3 L0,3 L0,2 L-1,2 L-1,1 L0,1 Z " fill="#DEDFDE" transform="translate(69,104)"/>
<path d="M0,0 L8,0 L8,1 L7,1 L7,3 L6,3 L6,4 L1,4 L1,3 L0,3 Z " fill="#DEDFDE" transform="translate(48,108)"/>
<path d="M0,0 L7,0 L7,4 L5,4 L5,3 L4,3 L4,2 L2,2 L2,1 L0,1 Z M7,4 L11,4 L11,7 L10,7 L10,6 L9,6 L9,5 L7,5 Z " fill="#DEDFDE" transform="translate(109,100)"/>
<path d="M0,0 L1,0 L1,60 L0,60 Z " fill="#000000" opacity="0.29803923" transform="translate(7,48)"/>
<path d="M0,0 L2,0 L2,4 L-9,4 L-9,3 L-7,3 L-7,2 L-4,2 L-4,1 L0,1 Z " fill="#DEDFDE" transform="translate(34,16)"/>
<path d="M0,0 L8,0 L8,3 L7,3 L7,4 L1,4 L1,3 L0,3 Z " fill="#DEDFDE" transform="translate(28,108)"/>
<path d="M0,0 L9,0 L9,2 L8,2 L8,3 L7,3 L7,4 L2,4 L2,3 L1,3 L1,1 L0,1 Z " fill="#DEDFDE" transform="translate(8,108)"/>
<path d="M0,0 L3,0 L3,8 L7,8 L7,12 L-1,12 L-1,14 L-2,14 L-2,8 L-1,8 L-1,1 L0,1 Z " fill="#E1E0E1" transform="translate(49,96)"/>
<path d="M0,0 L7,0 L7,1 L10,1 L10,2 L-2,2 L-2,1 L0,1 Z M-6,3 L-5,3 L-5,4 L-6,4 Z M-7,4 L-6,4 L-6,5 L-7,5 Z M-8,5 L-7,5 L-7,6 L-8,6 Z " fill="#DEDFDE" transform="translate(92,58)"/>
<path d="M0,0 L12,0 L12,6 L11,6 L11,5 L10,5 L10,3 L3,3 L3,4 L2,4 L2,6 L1,6 L1,8 L0,8 Z " fill="#DEDFDE" transform="translate(16,96)"/>
<path d="M0,0 L3,0 L3,4 L2,4 L2,3 L1,3 L1,2 L0,2 Z M3,4 L7,4 L7,7 L6,7 L6,6 L4,6 L4,5 L3,5 Z " fill="#DEDBDE" transform="translate(57,84)"/>
<path d="M0,0 L1,0 L1,4 L2,4 L2,7 L3,7 L3,8 L0,8 Z M-4,8 L0,8 L0,9 L-1,9 L-1,10 L-2,10 L-2,11 L-3,11 L-3,12 L-4,12 Z M-8,12 L-4,12 L-4,13 L-5,13 L-5,14 L-6,14 L-6,15 L-7,15 L-7,16 L-8,16 Z " fill="#DEDFDE" transform="translate(56,52)"/>
<path d="M0,0 L1,0 L1,1 L0,1 Z M-1,1 L0,1 L0,2 L-1,2 Z M-3,2 L-1,2 L-1,3 L-3,3 Z M-10,3 L-8,3 L-8,5 L-6,5 L-6,4 L-5,4 L-5,3 L-3,3 L-3,7 L-11,7 L-11,4 L-10,4 Z " fill="#DEDFDE" transform="translate(115,81)"/>
<path d="M0,0 L1,0 L1,2 L0,2 Z M-1,2 L0,2 L0,3 L-1,3 Z " fill="#4A4A4A" opacity="0.4117647" transform="translate(61,68)"/>
<path d="M0,0 L1,0 L1,8 L0,8 Z " fill="#505150" opacity="0.05490196" transform="translate(76,48)"/>
<path d="M0,0 L27,0 L27,1 L0,1 Z " fill="#000000" opacity="0.105882354" transform="translate(73,108)"/>
<path d="M0,0 L1,0 L1,4 L-3,4 L-3,8 L-6,8 L-6,6 L-5,6 L-5,4 L-4,4 L-4,3 L-2,3 L-2,2 L-1,2 L-1,1 L0,1 Z " fill="#DEDFDE" transform="translate(63,68)"/>
<path d="M0,0 L1,0 L1,6 L-5,6 L-5,5 L-4,5 L-4,4 L-3,4 L-3,3 L-2,3 L-2,2 L-1,2 L-1,1 L0,1 Z " fill="#DEDFDE" transform="translate(47,58)"/>
<path d="M0,0 L1,0 L1,1 L0,1 Z M1,5 L2,5 L2,8 L1,8 Z " fill="#101010" opacity="0.31764707" transform="translate(47,85)"/>
<path d="M0,0 L1,0 L1,1 L2,1 L2,8 L-1,8 L-1,1 L0,1 Z " fill="#DEDFDE" transform="translate(53,96)"/>
<path d="M0,0 L1,0 L1,30 L0,30 Z " fill="#000000" opacity="0.29803923" transform="translate(120,78)"/>
<path d="M0,0 L1,0 L1,1 L0,1 Z " fill="#101010" opacity="0.02745098" transform="translate(59,56)"/>
<path d="M0,0 L1,0 L1,1 L0,1 Z " fill="#101010" opacity="0.16470589" transform="translate(59,57)"/>
<path d="M0,0 L1,0 L1,4 L0,4 Z " fill="#000000" opacity="0.23529412" transform="translate(26,104)"/>
<path d="M0,0 L1,0 L1,1 L2,1 L2,2 L4,2 L4,3 L0,3 Z " fill="#D6DBD6" transform="translate(60,21)"/>
<path d="M0,0 L1,0 L1,7 L-7,7 L-7,3 L-6,3 L-6,4 L-5,4 L-5,5 L-3,5 L-3,6 L-1,6 L-1,2 L0,2 Z " fill="#DEDBDE" transform="translate(83,65)"/>
<path d="M0,0 L1,0 L1,3 L0,3 Z " fill="#000400" opacity="0.14117648" transform="translate(45,105)"/>
<path d="M0,0 L1,0 L1,5 L0,5 Z " fill="#000400" opacity="0.14117648" transform="translate(18,105)"/>
<path d="M0,0 L2,0 L2,1 L5,1 L5,2 L8,2 L8,4 L0,4 Z M8,4 L9,4 L9,5 L8,5 Z " fill="#DEDFDE" transform="translate(48,16)"/>
<path d="M0,0 L1,0 L1,3 L0,3 Z " fill="#D6D7D6" transform="translate(47,44)"/>
<path d="M0,0 L27,0 L27,1 L0,1 Z " fill="#8C8A8C" opacity="0.47843137" transform="translate(73,107)"/>
<path d="M0,0 L2,0 L2,1 L0,1 Z " fill="#000400" opacity="0.14117648" transform="translate(100,57)"/>
<path d="M0,0 L1,0 L1,3 L0,3 Z " fill="#D6D7D6" transform="translate(71,44)"/>
<path d="M0,0 L1,0 L1,1 L0,1 Z M-1,1 L0,1 L0,2 L-1,2 Z M-2,2 L-1,2 L-1,3 L-2,3 Z M-3,3 L-2,3 L-2,4 L-3,4 Z M-4,4 L-3,4 L-3,5 L-4,5 Z M-5,5 L-4,5 L-4,6 L-5,6 Z M-6,6 L-5,6 L-5,7 L-6,7 Z M-7,7 L-6,7 L-6,11 L-9,11 L-9,10 L-8,10 L-8,8 L-7,8 Z " fill="#DEDFDE" transform="translate(22,21)"/>
<path d="M0,0 L1,0 L1,3 L0,3 Z " fill="#4A4D4A" opacity="0.42745098" transform="translate(33,50)"/>
<path d="M0,0 L1,0 L1,1 L2,1 L2,3 L0,3 Z " fill="#DEDBDE" transform="translate(68,29)"/>
<path d="M0,0 L4,0 L4,1 L3,1 L3,2 L2,2 L2,3 L1,3 L1,4 L0,4 Z " fill="#DEDBDE" transform="translate(48,64)"/>
<path d="M0,0 L1,0 L1,5 L-5,5 L-5,4 L-4,4 L-4,3 L-3,3 L-3,2 L-2,2 L-2,1 L0,1 Z " fill="#DEDFDE" transform="translate(119,79)"/>
<path d="M0,0 L1,0 L1,1 L0,1 Z M-1,1 L0,1 L0,2 L-1,2 Z M-2,2 L-1,2 L-1,3 L-2,3 Z " fill="#000000" opacity="0.12156863" transform="translate(19,21)"/>
<path d="M0,0 L1,0 L1,1 L0,1 Z " fill="#080808" opacity="0.15686275" transform="translate(8,37)"/>
<path d="M0,0 L1,0 L1,1 L2,1 L2,3 L3,3 L3,4 L1,4 L1,5 L0,5 Z " fill="#DEDBDE" transform="translate(104,80)"/>
<path d="M0,0 L3,0 L3,4 L-1,4 L-1,3 L0,3 Z " fill="#DEDFDE" transform="translate(9,44)"/>
<path d="M0,0 L1,0 L1,8 L0,8 Z " fill="#000000" opacity="0.28627452" transform="translate(64,92)"/>
<path d="M0,0 L1,0 L1,1 L0,1 Z " fill="#555555" opacity="0.43137255" transform="translate(110,70)"/>
<path d="M0,0 L1,0 L1,1 L0,1 Z M-1,1 L0,1 L0,2 L-1,2 Z M-2,2 L-1,2 L-1,3 L-2,3 Z " fill="#DEDFDE" transform="translate(86,61)"/>
<path d="M0,0 L1,0 L1,1 L0,1 Z " fill="#100C10" opacity="0.25490198" transform="translate(78,68)"/>
<path d="M0,0 L2,0 L2,1 L3,1 L3,2 L4,2 L4,5 L0,5 L0,2 L1,2 L1,1 L0,1 Z " fill="#DEDFDE" transform="translate(56,19)"/>
<path d="M0,0 L1,0 L1,1 L0,1 Z " fill="#4D514D" opacity="0.42745098" transform="translate(57,18)"/>
<path d="M0,0 L1,0 L1,4 L0,4 Z " fill="#000000" opacity="0.29411766" transform="translate(56,104)"/>
<path d="M0,0 L5,0 L5,2 L3,2 L3,3 L0,3 Z " fill="#DEDBDE" transform="translate(100,104)"/>
<path d="M0,0 L1,0 L1,1 L2,1 L2,2 L4,2 L4,4 L0,4 Z " fill="#DEDFDE" transform="translate(76,68)"/>
<path d="M0,0 L1,0 L1,2 L0,2 Z " fill="#8F928F" opacity="0.42745098" transform="translate(57,52)"/>
<path d="M0,0 L3,0 L3,3 L2,3 L2,2 L1,2 L1,1 L0,1 Z " fill="#DEDFDE" transform="translate(117,104)"/>
<path d="M0,0 L3,0 L3,4 L-1,4 L-1,1 L0,1 Z " fill="#E1E0E1" transform="translate(69,36)"/>
<path d="M0,0 L4,0 L4,1 L0,1 Z " fill="#000000" opacity="0.28235295" transform="translate(40,14)"/>
<path d="M0,0 L1,0 L1,2 L0,2 Z " fill="#000400" opacity="0.19607843" transform="translate(54,78)"/>
<path d="M0,0 L1,0 L1,2 L0,2 Z " fill="#000400" opacity="0.13333334" transform="translate(46,52)"/>
<path d="M0,0 L1,0 L1,6 L-1,6 L-1,2 L0,2 Z " fill="#DEDBDE" transform="translate(11,34)"/>
<path d="M0,0 L2,0 L2,2 L1,2 L1,4 L0,4 Z " fill="#D6D7D6" transform="translate(108,72)"/>
<path d="M0,0 L3,0 L3,1 L0,1 Z " fill="#9A979A" opacity="0.5686275" transform="translate(68,66)"/>
<path d="M0,0 L1,0 L1,1 L0,1 Z " fill="#080408" opacity="0.023529412" transform="translate(56,87)"/>
<path d="M0,0 L3,0 L3,4 L2,4 L2,3 L1,3 L1,2 L0,2 Z " fill="#DEDFDE" transform="translate(57,84)"/>
<path d="M0,0 L1,0 L1,3 L2,3 L2,7 L0,7 Z " fill="#DEDFDE" transform="translate(108,65)"/>
<path d="M0,0 L2,0 L2,3 L3,3 L3,4 L0,4 Z " fill="#DEDFDE" transform="translate(32,56)"/>
<path d="M0,0 L1,0 L1,8 L0,8 Z " fill="#525152" opacity="0.38431373" transform="translate(75,48)"/>
<path d="M0,0 L3,0 L3,4 L0,4 Z " fill="#DEE3DE" transform="translate(9,40)"/>
<path d="M0,0 L1,0 L1,4 L0,4 Z " fill="#9FA19F" opacity="0.7137255" transform="translate(46,104)"/>
<path d="M0,0 L1,0 L1,4 L0,4 Z " fill="#9FA19F" opacity="0.7137255" transform="translate(17,104)"/>
<path d="M0,0 L1,0 L1,2 L0,2 Z " fill="#101010" opacity="0.32156864" transform="translate(107,100)"/>
<path d="M0,0 L3,0 L3,4 L1,4 L1,2 L0,2 Z " fill="#DEDFDE" transform="translate(45,40)"/>
<path d="M0,0 L1,0 L1,1 L0,1 Z " fill="#000000" opacity="0.30588236" transform="translate(33,15)"/>
<path d="M0,0 L3,0 L3,2 L2,2 L2,1 L0,1 Z " fill="#D6D7D6" transform="translate(109,100)"/>
<path d="M0,0 L1,0 L1,1 L2,1 L2,2 L3,2 L3,3 L0,3 Z " fill="#DEDBDE" transform="translate(104,61)"/>
<path d="M0,0 L4,0 L4,1 L0,1 Z " fill="#000000" opacity="0.14117648" transform="translate(71,58)"/>
<path d="M0,0 L1,0 L1,2 L0,2 Z " fill="#080408" opacity="0.13725491" transform="translate(70,52)"/>
<path d="M0,0 L1,0 L1,1 L2,1 L2,2 L3,2 L3,4 L0,4 Z " fill="#DEDFDE" transform="translate(64,24)"/>
<path d="M0,0 L2,0 L2,1 L0,1 Z " fill="#000000" opacity="0.23921569" transform="translate(12,113)"/>
<path d="M0,0 L1,0 L1,4 L0,4 Z " fill="#000000" opacity="0.23137255" transform="translate(37,104)"/>
<path d="M0,0 L2,0 L2,4 L1,4 L1,2 L0,2 Z " fill="#D6DBD6" transform="translate(46,100)"/>
<path d="M0,0 L2,0 L2,2 L1,2 L1,4 L0,4 Z " fill="#D6D7D6" transform="translate(16,100)"/>
<path d="M0,0 L1,0 L1,1 L0,1 Z " fill="#4A4A4A" opacity="0.3882353" transform="translate(42,99)"/>
<path d="M0,0 L1,0 L1,3 L0,3 Z " fill="#DEDFDE" transform="translate(48,90)"/>
<path d="M0,0 L1,0 L1,1 L0,1 Z " fill="#4A4D4A" opacity="0.3137255" transform="translate(46,80)"/>
<path d="M0,0 L1,0 L1,2 L0,2 Z " fill="#080408" opacity="0.2784314" transform="translate(47,73)"/>
<path d="M0,0 L2,0 L2,1 L0,1 Z " fill="#000400" opacity="0.14117648" transform="translate(40,61)"/>
<path d="M0,0 L1,0 L1,1 L0,1 Z " fill="#191419" opacity="0.30588236" transform="translate(87,59)"/>
<path d="M0,0 L1,0 L1,1 L0,1 Z " fill="#4A4A4A" opacity="0.42745098" transform="translate(95,57)"/>
<path d="M0,0 L1,0 L1,1 L0,1 Z " fill="#000000" opacity="0.19607843" transform="translate(64,40)"/>
<path d="M0,0 L1,0 L1,1 L0,1 Z " fill="#000000" opacity="0.19607843" transform="translate(40,40)"/>
<path d="M0,0 L1,0 L1,1 L0,1 Z " fill="#080C08" opacity="0.2901961" transform="translate(12,30)"/>
<path d="M0,0 L1,0 L1,1 L0,1 Z " fill="#4A4A4A" opacity="0.39215687" transform="translate(23,99)"/>
<path d="M0,0 L1,0 L1,1 L0,1 Z " fill="#424242" opacity="0.31764707" transform="translate(110,83)"/>
<path d="M0,0 L1,0 L1,1 L0,1 Z " fill="#4A4D4A" opacity="0.42745098" transform="translate(115,80)"/>
<path d="M0,0 L1,0 L1,1 L0,1 Z " fill="#000000" opacity="0.05882353" transform="translate(107,80)"/>
<path d="M0,0 L1,0 L1,1 L0,1 Z M-1,1 L0,1 L0,2 L-1,2 Z " fill="#DEDFDE" transform="translate(61,69)"/>
<path d="M0,0 L1,0 L1,1 L0,1 Z " fill="#080808" opacity="0.28627452" transform="translate(110,67)"/>
<path d="M0,0 L1,0 L1,1 L0,1 Z M-1,1 L0,1 L0,2 L-1,2 Z " fill="#000000" opacity="0.13725491" transform="translate(57,61)"/>
<path d="M0,0 L1,0 L1,1 L0,1 Z M1,1 L2,1 L2,2 L1,2 Z " fill="#080808" opacity="0.14117648" transform="translate(106,60)"/>
<path d="M0,0 L1,0 L1,1 L0,1 Z " fill="#101010" opacity="0.023529412" transform="translate(35,56)"/>
<path d="M0,0 L1,0 L1,1 L0,1 Z " fill="#101010" opacity="0.16078432" transform="translate(35,57)"/>
<path d="M0,0 L1,0 L1,7 L0,7 Z " fill="#DEDFDE" transform="translate(32,49)"/>
<path d="M0,0 L1,0 L1,2 L0,2 Z " fill="#000400" opacity="0.14117648" transform="translate(58,48)"/>
<path d="M0,0 L1,0 L1,2 L0,2 Z " fill="#000400" opacity="0.14117648" transform="translate(34,48)"/>
<path d="M0,0 L1,0 L1,2 L0,2 Z " fill="#000000" opacity="0.23529412" transform="translate(75,42)"/>
<path d="M0,0 L1,0 L1,3 L-2,3 L-2,2 L-1,2 L-1,1 L0,1 Z " fill="#DEE3DE" transform="translate(15,29)"/>
<path d="M0,0 L1,0 L1,1 L0,1 Z " fill="#313131" opacity="0.33333334" transform="translate(68,27)"/>
<path d="M0,0 L1,0 L1,1 L0,1 Z " fill="#000000" opacity="0.08235294" transform="translate(52,15)"/>
<path d="M0,0 L1,0 L1,1 L0,1 Z " fill="#424242" opacity="0.11372549" transform="translate(34,113)"/>
<path d="M0,0 L1,0 L1,1 L0,1 Z " fill="#000000" opacity="0.105882354" transform="translate(72,108)"/>
<path d="M0,0 L1,0 L1,6 L0,6 Z " fill="#EFEFEF" transform="translate(47,104)"/>
<path d="M0,0 L1,0 L1,1 L0,1 Z " fill="#3C3E3C" opacity="0.29411766" transform="translate(114,104)"/>
<path d="M0,0 L1,0 L1,1 L0,1 Z M1,1 L2,1 L2,2 L1,2 Z M2,2 L3,2 L3,3 L2,3 Z " fill="#000000" opacity="0.13333334" transform="translate(52,93)"/>
<path d="M0,0 L1,0 L1,1 L0,1 Z " fill="#080C08" opacity="0.27450982" transform="translate(56,73)"/>
<path d="M0,0 L1,0 L1,3 L-1,3 L-1,2 L0,2 Z " fill="#DEDFDE" transform="translate(83,65)"/>
<path d="M0,0 L1,0 L1,1 L2,1 L2,2 L3,2 L3,3 L0,3 Z " fill="#DEDBDE" transform="translate(36,61)"/>
<path d="M0,0 L1,0 L1,3 L-2,3 L-2,2 L-1,2 L-1,1 L0,1 Z " fill="#DEDFDE" transform="translate(87,61)"/>
<path d="M0,0 L1,0 L1,1 L0,1 Z " fill="#949494" opacity="0.5686275" transform="translate(73,37)"/>
<path d="M0,0 L1,0 L1,1 L0,1 Z " fill="#000400" opacity="0.007843138" transform="translate(72,31)"/>
<path d="M0,0 L1,0 L1,3 L-2,3 L-2,2 L-1,2 L-1,1 L0,1 Z " fill="#DEDFDE" transform="translate(23,21)"/>
<path d="M0,0 L1,0 L1,1 L0,1 Z M1,1 L2,1 L2,2 L1,2 Z " fill="#000400" opacity="0.28627452" transform="translate(61,20)"/>
<path d="M0,0 L1,0 L1,4 L0,4 Z " fill="#CECECE" opacity="0.8117647" transform="translate(36,104)"/>
<path d="M0,0 L1,0 L1,4 L0,4 Z " fill="#CED2CE" opacity="0.8235294" transform="translate(27,104)"/>
<path d="M0,0 L1,0 L1,1 L0,1 Z " fill="#080408" opacity="0.14117648" transform="translate(19,101)"/>
<path d="M0,0 L1,0 L1,1 L0,1 Z " fill="#000400" opacity="0.003921569" transform="translate(60,91)"/>
<path d="M0,0 L1,0 L1,1 L0,1 Z " fill="#000400" opacity="0.14509805" transform="translate(61,91)"/>
<path d="M0,0 L1,0 L1,1 L0,1 Z " fill="#000000" opacity="0.047058824" transform="translate(76,66)"/>
<path d="M0,0 L1,0 L1,1 L0,1 Z M-1,1 L0,1 L0,2 L-1,2 Z " fill="#080808" opacity="0.3137255" transform="translate(51,66)"/>
<path d="M0,0 L6,0 L6,1 L0,1 Z " fill="#000000" opacity="0.14117648" transform="translate(67,65)"/>
<path d="M0,0 L2,0 L2,1 L0,1 Z " fill="#D6D7D6" transform="translate(90,59)"/>
<path d="M0,0 L1,0 L1,2 L0,2 Z " fill="#000000" opacity="0.14117648" transform="translate(45,56)"/>
<path d="M0,0 L1,0 L1,2 L0,2 Z " fill="#A5A6A5" opacity="0.5647059" transform="translate(71,50)"/>
<path d="M0,0 L1,0 L1,2 L0,2 Z " fill="#A5A6A5" opacity="0.5647059" transform="translate(47,50)"/>
<path d="M0,0 L2,0 L2,2 L1,2 L1,3 L0,3 Z " fill="#DEE3DE" transform="translate(56,44)"/>
<path d="M0,0 L2,0 L2,2 L1,2 L1,3 L0,3 Z " fill="#DEE3DE" transform="translate(32,44)"/>
<path d="M0,0 L1,0 L1,3 L-2,3 L-2,2 L-1,2 L-1,1 L0,1 Z " fill="#DEDFDE" transform="translate(19,25)"/>
<path d="M0,0 L1,0 L1,1 L0,1 Z " fill="#080808" opacity="0.28235295" transform="translate(23,19)"/>
<path d="M0,0 L1,0 L1,1 L0,1 Z " fill="#DEDBDE" opacity="0.90588236" transform="translate(38,15)"/>
<path d="M0,0 L3,0 L3,1 L0,1 Z " fill="#000000" opacity="0.25882354" transform="translate(37,14)"/>
<path d="M0,0 L1,0 L1,1 L0,1 Z " fill="#000000" opacity="0.19215687" transform="translate(52,113)"/>
<path d="M0,0 L1,0 L1,1 L0,1 Z " fill="#000000" opacity="0.23921569" transform="translate(50,113)"/>
<path d="M0,0 L3,0 L3,1 L0,1 Z " fill="#000000" opacity="0.23137255" transform="translate(31,113)"/>
<path d="M0,0 L1,0 L1,1 L0,1 Z " fill="#000000" opacity="0.23137255" transform="translate(28,112)"/>
<path d="M0,0 L1,0 L1,1 L0,1 Z " fill="#080408" opacity="0.14117648" transform="translate(46,111)"/>
<path d="M0,0 L1,0 L1,1 L0,1 Z " fill="#000400" opacity="0.14117648" transform="translate(17,111)"/>
<path d="M0,0 L1,0 L1,1 L0,1 Z M1,1 L2,1 L2,2 L1,2 Z " fill="#000000" opacity="0.14117648" transform="translate(65,105)"/>
<path d="M0,0 L1,0 L1,1 L0,1 Z M-1,1 L0,1 L0,2 L-1,2 Z M-2,2 L-1,2 L-1,3 L-2,3 Z " fill="#000000" opacity="0.14117648" transform="translate(107,104)"/>
<path d="M0,0 L1,0 L1,1 L0,1 Z " fill="#CECECE" opacity="0.8117647" transform="translate(55,100)"/>
<path d="M0,0 L1,0 L1,1 L0,1 Z " fill="#080808" opacity="0.28627452" transform="translate(44,100)"/>
<path d="M0,0 L1,0 L1,3 L0,3 Z " fill="#000000" opacity="0.23529412" transform="translate(56,97)"/>
<path d="M0,0 L1,0 L1,1 L0,1 Z " fill="#ADAEAD" opacity="0.5529412" transform="translate(55,81)"/>
<path d="M0,0 L1,0 L1,4 L0,4 Z " fill="#D6DBD6" transform="translate(56,52)"/>
<path d="M0,0 L1,0 L1,5 L0,5 Z " fill="#DEDFDE" transform="translate(56,47)"/>
<path d="M0,0 L1,0 L1,1 L0,1 Z " fill="#000000" opacity="0.2509804" transform="translate(7,44)"/>
<path d="M0,0 L1,0 L1,1 L0,1 Z " fill="#100C10" opacity="0.09803922" transform="translate(68,43)"/>
<path d="M0,0 L1,0 L1,1 L0,1 Z " fill="#100C10" opacity="0.09803922" transform="translate(44,43)"/>
<path d="M0,0 L1,0 L1,1 L0,1 Z M-2,1 L0,1 L0,2 L-2,2 Z " fill="#DEDFDE" transform="translate(27,18)"/>
<path d="M0,0 L1,0 L1,1 L0,1 Z " fill="#CECECE" opacity="0.74509805" transform="translate(45,15)"/>
<path d="M0,0 L1,0 L1,1 L0,1 Z " fill="#C5C6C5" opacity="0.8156863" transform="translate(31,112)"/>
<path d="M0,0 L1,0 L1,1 L0,1 Z " fill="#CED2CE" opacity="0.84705883" transform="translate(12,112)"/>
<path d="M0,0 L1,0 L1,1 L0,1 Z " fill="#949494" opacity="0.56078434" transform="translate(9,111)"/>
<path d="M0,0 L1,0 L1,2 L0,2 Z " fill="#D6D2D6" transform="translate(104,104)"/>
<path d="M0,0 L1,0 L1,4 L0,4 Z " fill="#EFEFEF" transform="translate(16,104)"/>
<path d="M0,0 L1,0 L1,1 L0,1 Z " fill="#080C08" opacity="0.28235295" transform="translate(112,103)"/>
<path d="M0,0 L1,0 L1,3 L0,3 Z " fill="#000400" opacity="0.29803923" transform="translate(64,100)"/>
<path d="M0,0 L1,0 L1,1 L0,1 Z M-1,1 L0,1 L0,2 L-1,2 Z " fill="#000000" opacity="0.14117648" transform="translate(39,100)"/>
<path d="M0,0 L2,0 L2,1 L1,1 L1,2 L0,2 Z " fill="#DEDBDE" transform="translate(36,100)"/>
<path d="M0,0 L2,0 L2,2 L1,2 L1,1 L0,1 Z " fill="#DEDBDE" transform="translate(26,100)"/>
<path d="M0,0 L1,0 L1,1 L0,1 Z M1,1 L2,1 L2,2 L1,2 Z " fill="#000000" opacity="0.14117648" transform="translate(49,89)"/>
<path d="M0,0 L1,0 L1,1 L0,1 Z M1,1 L2,1 L2,2 L1,2 Z " fill="#101010" opacity="0.33333334" transform="translate(58,88)"/>
<path d="M0,0 L1,0 L1,1 L0,1 Z " fill="#DEDFDE" opacity="0.85490197" transform="translate(113,82)"/>
<path d="M0,0 L1,0 L1,1 L0,1 Z M-1,1 L0,1 L0,2 L-1,2 Z M-2,2 L-1,2 L-1,3 L-2,3 Z " fill="#DEDFDE" transform="translate(115,81)"/>
<path d="M0,0 L1,0 L1,2 L0,2 Z " fill="#4A4D4A" opacity="0.043137256" transform="translate(47,80)"/>
<path d="M0,0 L1,0 L1,1 L0,1 Z " fill="#DEDFDE" opacity="0.85490197" transform="translate(118,79)"/>
<path d="M0,0 L1,0 L1,1 L0,1 Z " fill="#000000" opacity="0.23921569" transform="translate(108,78)"/>
<path d="M0,0 L1,0 L1,2 L0,2 Z " fill="#4A4A4A" opacity="0.44705883" transform="translate(46,77)"/>
<path d="M0,0 L1,0 L1,1 L0,1 Z " fill="#000000" opacity="0.015686275" transform="translate(48,73)"/>
<path d="M0,0 L1,0 L1,1 L0,1 Z " fill="#949294" opacity="0.63529414" transform="translate(81,68)"/>
<path d="M0,0 L1,0 L1,1 L0,1 Z " fill="#D6DBD6" opacity="0.7137255" transform="translate(109,67)"/>
<path d="M0,0 L1,0 L1,3 L0,3 Z " fill="#D6DBD6" transform="translate(108,65)"/>
<path d="M0,0 L2,0 L2,1 L0,1 Z " fill="#D6D7D6" transform="translate(72,67)"/>
<path d="M0,0 L4,0 L4,1 L0,1 Z " fill="#E6E3E6" transform="translate(68,67)"/>
<path d="M0,0 L1,0 L1,1 L0,1 Z " fill="#080C08" opacity="0.28627452" transform="translate(82,64)"/>
<path d="M0,0 L2,0 L2,1 L0,1 Z M2,1 L3,1 L3,2 L2,2 Z " fill="#DEDBDE" opacity="0.85490197" transform="translate(104,61)"/>
<path d="M0,0 L1,0 L1,1 L0,1 Z " fill="#000000" opacity="0.047058824" transform="translate(60,60)"/>
<path d="M0,0 L1,0 L1,1 L0,1 Z M1,1 L2,1 L2,2 L1,2 Z " fill="#4A4C4A" opacity="0.42745098" transform="translate(36,60)"/>
<path d="M0,0 L1,0 L1,1 L0,1 Z " fill="#454345" opacity="0.14117648" transform="translate(70,58)"/>
<path d="M0,0 L1,0 L1,1 L0,1 Z " fill="#949494" opacity="0.7137255" transform="translate(73,57)"/>
<path d="M0,0 L1,0 L1,2 L0,2 Z M-1,2 L0,2 L0,3 L-1,3 Z " fill="#DEDFDE" transform="translate(47,56)"/>
<path d="M0,0 L1,0 L1,3 L0,3 Z " fill="#000000" opacity="0.14117648" transform="translate(58,52)"/>
<path d="M0,0 L1,0 L1,3 L0,3 Z " fill="#000400" opacity="0.14117648" transform="translate(34,52)"/>
<path d="M0,0 L1,0 L1,2 L0,2 Z " fill="#000000" opacity="0.1882353" transform="translate(70,48)"/>
<path d="M0,0 L1,0 L1,2 L0,2 Z " fill="#000000" opacity="0.1882353" transform="translate(46,48)"/>
<path d="M0,0 L1,0 L1,1 L0,1 Z " fill="#4A4C4A" opacity="0.28627452" transform="translate(58,45)"/>
<path d="M0,0 L1,0 L1,1 L0,1 Z " fill="#4A4C4A" opacity="0.28627452" transform="translate(34,45)"/>
<path d="M0,0 L1,0 L1,1 L0,1 Z " fill="#DEDFDE" opacity="0.87058824" transform="translate(74,43)"/>
<path d="M0,0 L1,0 L1,1 L0,1 Z M-1,1 L0,1 L0,2 L-1,2 Z " fill="#DEE3DE" transform="translate(15,28)"/>
<path d="M0,0 L1,0 L1,1 L0,1 Z M1,1 L2,1 L2,2 L1,2 Z " fill="#505050" opacity="0.42745098" transform="translate(66,25)"/>
<path d="M0,0 L1,0 L1,1 L0,1 Z M-1,1 L0,1 L0,2 L-1,2 Z " fill="#000000" opacity="0.11372549" transform="translate(15,25)"/>
<path d="M0,0 L1,0 L1,1 L0,1 Z " fill="#DEDFDE" opacity="0.75686276" transform="translate(29,17)"/>
<path d="M0,0 L3,0 L3,1 L0,1 Z " fill="#DEDBDE" opacity="0.99607843" transform="translate(40,15)"/>
<path d="M0,0 L1,0 L1,1 L0,1 Z " fill="#000000" opacity="0.21568628" transform="translate(36,111)"/>
<path d="M0,0 L1,0 L1,2 L0,2 Z " fill="#DEE3DE" transform="translate(47,108)"/>
<path d="M0,0 L1,0 L1,1 L0,1 Z " fill="#505050" opacity="0.28627452" transform="translate(119,107)"/>
<path d="M0,0 L1,0 L1,1 L0,1 Z " fill="#080808" opacity="0.33333334" transform="translate(102,107)"/>
<path d="M0,0 L1,0 L1,1 L0,1 Z " fill="#080808" opacity="0.3254902" transform="translate(69,107)"/>
<path d="M0,0 L1,0 L1,2 L0,2 Z " fill="#D6D7D6" transform="translate(67,104)"/>
<path d="M0,0 L1,0 L1,3 L0,3 Z " fill="#000000" opacity="0.23921569" transform="translate(56,100)"/>
<path d="M0,0 L1,0 L1,1 L0,1 Z M1,1 L2,1 L2,2 L1,2 Z " fill="#000400" opacity="0.14117648" transform="translate(24,100)"/>
<path d="M0,0 L1,0 L1,1 L0,1 Z " fill="#000000" opacity="0.20392157" transform="translate(48,87)"/>
<path d="M0,0 L1,0 L1,1 L0,1 Z " fill="#000000" opacity="0.29803923" transform="translate(107,84)"/>
<path d="M0,0 L1,0 L1,1 L0,1 Z " fill="#000000" opacity="0.2" transform="translate(55,84)"/>
<path d="M0,0 L1,0 L1,2 L0,2 Z " fill="#000000" opacity="0.18431373" transform="translate(54,80)"/>
<path d="M0,0 L1,0 L1,1 L0,1 Z " fill="#000000" opacity="0.29803923" transform="translate(120,77)"/>
<path d="M0,0 L1,0 L1,1 L0,1 Z " fill="#000000" opacity="0.14117648" transform="translate(110,74)"/>
<path d="M0,0 L1,0 L1,3 L0,3 Z " fill="#555555" opacity="0.007843138" transform="translate(111,69)"/>
<path d="M0,0 L1,0 L1,1 L0,1 Z " fill="#DEDBDE" opacity="0.75686276" transform="translate(81,70)"/>
<path d="M0,0 L1,0 L1,1 L0,1 Z M-1,1 L0,1 L0,2 L-1,2 Z M-2,2 L-1,2 L-1,3 L-2,3 Z " fill="#000000" opacity="0.28627452" transform="translate(59,69)"/>
<path d="M0,0 L1,0 L1,1 L0,1 Z " fill="#000000" opacity="0.14117648" transform="translate(64,66)"/>
<path d="M0,0 L3,0 L3,1 L0,1 Z " fill="#DEDFDE" transform="translate(39,63)"/>
<path d="M0,0 L1,0 L1,1 L0,1 Z " fill="#4A4D4A" opacity="0.42745098" transform="translate(40,62)"/>
<path d="M0,0 L1,0 L1,1 L0,1 Z " fill="#000400" opacity="0.15686275" transform="translate(85,60)"/>
<path d="M0,0 L1,0 L1,1 L0,1 Z " fill="#000400" opacity="0.14117648" transform="translate(43,60)"/>
<path d="M0,0 L2,0 L2,1 L0,1 Z " fill="#DEDFDE" transform="translate(100,59)"/>
<path d="M0,0 L1,0 L1,1 L0,1 Z " fill="#000000" opacity="0.14117648" transform="translate(88,58)"/>
<path d="M0,0 L1,0 L1,1 L0,1 Z " fill="#000000" opacity="0.28627452" transform="translate(91,57)"/>
<path d="M0,0 L1,0 L1,2 L0,2 Z " fill="#000400" opacity="0.27058825" transform="translate(46,54)"/>
<path d="M0,0 L1,0 L1,1 L0,1 Z " fill="#949694" opacity="0.42745098" transform="translate(57,48)"/>
<path d="M0,0 L1,0 L1,1 L0,1 Z " fill="#949694" opacity="0.42745098" transform="translate(33,48)"/>
<path d="M0,0 L1,0 L1,1 L0,1 Z " fill="#D6D7D6" transform="translate(71,44)"/>
<path d="M0,0 L1,0 L1,1 L0,1 Z " fill="#D6D7D6" transform="translate(47,44)"/>
<path d="M0,0 L1,0 L1,1 L0,1 Z " fill="#B2B6B2" opacity="0.6431373" transform="translate(8,42)"/>
<path d="M0,0 L1,0 L1,1 L0,1 Z " fill="#3A3B3A" opacity="0.09803922" transform="translate(66,41)"/>
<path d="M0,0 L1,0 L1,1 L0,1 Z " fill="#3A3B3A" opacity="0.09803922" transform="translate(42,41)"/>
<path d="M0,0 L1,0 L1,1 L0,1 Z M-1,1 L0,1 L0,2 L-1,2 Z M-2,2 L-1,2 L-1,3 L-2,3 Z " fill="#000400" opacity="0.28627452" transform="translate(62,40)"/>
<path d="M0,0 L1,0 L1,1 L0,1 Z M-1,1 L0,1 L0,2 L-1,2 Z M-2,2 L-1,2 L-1,3 L-2,3 Z " fill="#000400" opacity="0.28627452" transform="translate(38,40)"/>
<path d="M0,0 L1,0 L1,1 L0,1 Z " fill="#ADAAAD" opacity="0.58431375" transform="translate(64,39)"/>
<path d="M0,0 L1,0 L1,1 L0,1 Z " fill="#ADAAAD" opacity="0.58431375" transform="translate(40,39)"/>
<path d="M0,0 L1,0 L1,1 L0,1 Z " fill="#000000" opacity="0.28627452" transform="translate(74,38)"/>
<path d="M0,0 L1,0 L1,1 L0,1 Z " fill="#4A4A4A" opacity="0.42745098" transform="translate(10,34)"/>
<path d="M0,0 L1,0 L1,1 L0,1 Z M1,1 L2,1 L2,2 L1,2 Z " fill="#000400" opacity="0.14117648" transform="translate(70,29)"/>
<path d="M0,0 L1,0 L1,1 L0,1 Z " fill="#DEDBDE" transform="translate(68,29)"/>
<path d="M0,0 L1,0 L1,1 L0,1 Z " fill="#080C08" opacity="0.14901961" transform="translate(12,29)"/>
<path d="M0,0 L1,0 L1,1 L0,1 Z M-1,1 L0,1 L0,2 L-1,2 Z M-2,2 L-1,2 L-1,3 L-2,3 Z " fill="#DEDFDE" opacity="0.8784314" transform="translate(18,24)"/>
<path d="M0,0 L1,0 L1,1 L0,1 Z M-1,1 L0,1 L0,2 L-1,2 Z " fill="#4A4A4A" opacity="0.39215687" transform="translate(17,24)"/>
<path d="M0,0 L1,0 L1,1 L0,1 Z M1,1 L2,1 L2,2 L1,2 Z " fill="#000000" opacity="0.17254902" transform="translate(64,22)"/>
<path d="M0,0 L1,0 L1,1 L0,1 Z " fill="#080808" opacity="0.16470589" transform="translate(21,20)"/>
<path d="M0,0 L1,0 L1,1 L0,1 Z " fill="#000000" opacity="0.14117648" transform="translate(24,18)"/>
<path d="M0,0 L1,0 L1,1 L0,1 Z " fill="#4A4A4A" opacity="0.31764707" transform="translate(55,17)"/>
<path d="M0,0 L1,0 L1,1 L0,1 Z " fill="#000000" opacity="0.27450982" transform="translate(29,16)"/>
<path d="M0,0 L1,0 L1,1 L0,1 Z " fill="#9C9E9C" opacity="0.5372549" transform="translate(35,15)"/>
<path d="M0,0 L2,0 L2,1 L0,1 Z " fill="#000000" opacity="0.12156863" transform="translate(46,14)"/>
<path d="M0,0 L1,0 L1,1 L0,1 Z " fill="#000000" opacity="0.15294118" transform="translate(35,14)"/>
<path d="M0,0 L1,0 L1,1 L0,1 Z " fill="#000000" opacity="0.23137255" transform="translate(30,113)"/>
<path d="M0,0 L1,0 L1,1 L0,1 Z " fill="#000000" opacity="0.19607843" transform="translate(11,113)"/>
<path d="M0,0 L1,0 L1,1 L0,1 Z " fill="#D6D2D6" opacity="0.84313726" transform="translate(50,112)"/>
<path d="M0,0 L1,0 L1,1 L0,1 Z " fill="#000000" opacity="0.007843138" transform="translate(36,112)"/>
<path d="M0,0 L1,0 L1,1 L0,1 Z " fill="#000000" opacity="0.14117648" transform="translate(16,112)"/>
<path d="M0,0 L1,0 L1,1 L0,1 Z " fill="#000000" opacity="0.21960784" transform="translate(27,111)"/>
<path d="M0,0 L1,0 L1,1 L0,1 Z " fill="#000000" opacity="0.11764706" transform="translate(56,110)"/>
<path d="M0,0 L1,0 L1,2 L0,2 Z " fill="#000000" opacity="0.105882354" transform="translate(37,109)"/>
<path d="M0,0 L1,0 L1,2 L0,2 Z " fill="#000000" opacity="0.10980392" transform="translate(26,109)"/>
<path d="M0,0 L1,0 L1,1 L0,1 Z " fill="#979897" opacity="0.42745098" transform="translate(46,109)"/>
<path d="M0,0 L1,0 L1,2 L0,2 Z " fill="#080408" opacity="0.14117648" transform="translate(45,108)"/>
<path d="M0,0 L1,0 L1,1 L0,1 Z " fill="#BDBABD" opacity="0.5411765" transform="translate(36,109)"/>
<path d="M0,0 L1,0 L1,1 L0,1 Z " fill="#BDBEBD" opacity="0.6627451" transform="translate(27,109)"/>
<path d="M0,0 L1,0 L1,1 L0,1 Z " fill="#949694" opacity="0.42745098" transform="translate(17,109)"/>
<path d="M0,0 L1,0 L1,1 L0,1 Z " fill="#000000" opacity="0.07058824" transform="translate(70,108)"/>
<path d="M0,0 L1,0 L1,1 L0,1 Z " fill="#8C8A8C" opacity="0.47843137" transform="translate(72,107)"/>
<path d="M0,0 L1,0 L1,1 L0,1 Z " fill="#080808" opacity="0.28627452" transform="translate(117,106)"/>
<path d="M0,0 L1,0 L1,1 L0,1 Z " fill="#000400" opacity="0.14117648" transform="translate(45,104)"/>
<path d="M0,0 L1,0 L1,1 L0,1 Z " fill="#000400" opacity="0.14117648" transform="translate(18,104)"/>
<path d="M0,0 L1,0 L1,1 L0,1 Z " fill="#101010" opacity="0.20784314" transform="translate(107,103)"/>
<path d="M0,0 L1,0 L1,1 L0,1 Z " fill="#D6DBD6" opacity="0.7137255" transform="translate(46,103)"/>
<path d="M0,0 L1,0 L1,2 L0,2 Z " fill="#000000" opacity="0.28627452" transform="translate(37,102)"/>
<path d="M0,0 L1,0 L1,2 L0,2 Z " fill="#000400" opacity="0.28627452" transform="translate(26,102)"/>
<path d="M0,0 L1,0 L1,1 L0,1 Z " fill="#474847" opacity="0.42745098" transform="translate(111,102)"/>
<path d="M0,0 L1,0 L1,1 L0,1 Z " fill="#080808" opacity="0.28627452" transform="translate(45,102)"/>
<path d="M0,0 L1,0 L1,1 L0,1 Z " fill="#080408" opacity="0.28627452" transform="translate(18,102)"/>
<path d="M0,0 L1,0 L1,1 L0,1 Z " fill="#D6D7D6" transform="translate(109,100)"/>
<path d="M0,0 L1,0 L1,1 L0,1 Z " fill="#D6DBD6" transform="translate(46,100)"/>
<path d="M0,0 L1,0 L1,1 L0,1 Z " fill="#DEDBDE" opacity="0.9019608" transform="translate(44,99)"/>
<path d="M0,0 L1,0 L1,1 L0,1 Z " fill="#4A4A4A" opacity="0.3882353" transform="translate(40,99)"/>
<path d="M0,0 L1,0 L1,1 L0,1 Z " fill="#DEDFDE" opacity="0.93333334" transform="translate(25,99)"/>
<path d="M0,0 L1,0 L1,1 L0,1 Z " fill="#4A4A4A" opacity="0.39215687" transform="translate(21,99)"/>
<path d="M0,0 L1,0 L1,1 L0,1 Z " fill="#DEDFDE" opacity="0.78039217" transform="translate(55,98)"/>
<path d="M0,0 L1,0 L1,1 L0,1 Z " fill="#000000" opacity="0.03137255" transform="translate(56,96)"/>
<path d="M0,0 L1,0 L1,1 L0,1 Z M1,1 L2,1 L2,2 L1,2 Z " fill="#4D4D4D" opacity="0.40392157" transform="translate(52,94)"/>
<path d="M0,0 L1,0 L1,1 L0,1 Z " fill="#949494" opacity="0.43529412" transform="translate(51,93)"/>
<path d="M0,0 L1,0 L1,1 L0,1 Z " fill="#000000" opacity="0.13725491" transform="translate(63,92)"/>
<path d="M0,0 L1,0 L1,1 L0,1 Z " fill="#D6D2D6" opacity="0.8117647" transform="translate(64,91)"/>
<path d="M0,0 L1,0 L1,1 L0,1 Z " fill="#DEDBDE" opacity="0.85490197" transform="translate(62,90)"/>
<path d="M0,0 L1,0 L1,1 L0,1 Z " fill="#D6DBD6" transform="translate(48,90)"/>
<path d="M0,0 L1,0 L1,1 L0,1 Z M1,1 L2,1 L2,2 L1,2 Z " fill="#101010" opacity="0.10980392" transform="translate(57,88)"/>
<path d="M0,0 L1,0 L1,1 L0,1 Z " fill="#DEDFDE" opacity="0.8980392" transform="translate(108,85)"/>
<path d="M0,0 L1,0 L1,1 L0,1 Z " fill="#504D50" opacity="0.3019608" transform="translate(56,85)"/>
<path d="M0,0 L1,0 L1,1 L0,1 Z " fill="#DEDFDE" opacity="0.8862745" transform="translate(46,85)"/>
<path d="M0,0 L1,0 L1,1 L0,1 Z " fill="#000400" opacity="0.18039216" transform="translate(47,83)"/>
<path d="M0,0 L1,0 L1,1 L0,1 Z " fill="#949694" opacity="0.5882353" transform="translate(46,83)"/>
<path d="M0,0 L1,0 L1,1 L0,1 Z " fill="#000000" opacity="0.21176471" transform="translate(111,82)"/>
<path d="M0,0 L1,0 L1,2 L0,2 Z " fill="#000000" opacity="0.19215687" transform="translate(107,81)"/>
<path d="M0,0 L1,0 L1,1 L0,1 Z " fill="#DEDBDE" opacity="0.7294118" transform="translate(106,82)"/>
<path d="M0,0 L1,0 L1,1 L0,1 Z " fill="#000400" opacity="0.28627452" transform="translate(113,81)"/>
<path d="M0,0 L1,0 L1,1 L0,1 Z " fill="#000400" opacity="0.28627452" transform="translate(116,79)"/>
<path d="M0,0 L1,0 L1,1 L0,1 Z " fill="#C5C2C5" opacity="0.6862745" transform="translate(55,79)"/>
<path d="M0,0 L1,0 L1,2 L0,2 Z " fill="#4A4A4A" opacity="0.03137255" transform="translate(47,78)"/>
<path d="M0,0 L1,0 L1,1 L0,1 Z " fill="#000400" opacity="0.28627452" transform="translate(118,78)"/>
<path d="M0,0 L1,0 L1,1 L0,1 Z " fill="#000000" opacity="0.11764706" transform="translate(109,77)"/>
<path d="M0,0 L1,0 L1,1 L0,1 Z " fill="#848384" opacity="0.49019608" transform="translate(55,77)"/>
<path d="M0,0 L1,0 L1,2 L0,2 Z " fill="#000400" opacity="0.09803922" transform="translate(54,76)"/>
<path d="M0,0 L1,0 L1,2 L0,2 Z " fill="#000000" opacity="0.03137255" transform="translate(47,76)"/>
<path d="M0,0 L1,0 L1,1 L0,1 Z " fill="#949494" opacity="0.44705883" transform="translate(46,76)"/>
<path d="M0,0 L1,0 L1,1 L0,1 Z " fill="#DEDFDE" opacity="0.8784314" transform="translate(56,75)"/>
<path d="M0,0 L1,0 L1,1 L0,1 Z " fill="#000000" opacity="0.27058825" transform="translate(55,75)"/>
<path d="M0,0 L1,0 L1,1 L0,1 Z " fill="#DEDFDE" opacity="0.8784314" transform="translate(57,73)"/>
<path d="M0,0 L1,0 L1,1 L0,1 Z " fill="#000000" opacity="0.28627452" transform="translate(48,71)"/>
<path d="M0,0 L1,0 L1,1 L0,1 Z M-1,1 L0,1 L0,2 L-1,2 Z " fill="#9F9F9F" opacity="0.5686275" transform="translate(59,70)"/>
<path d="M0,0 L1,0 L1,1 L0,1 Z " fill="#000000" opacity="0.27058825" transform="translate(80,69)"/>
<path d="M0,0 L1,0 L1,1 L0,1 Z " fill="#000000" opacity="0.28627452" transform="translate(49,69)"/>
<path d="M0,0 L1,0 L1,1 L0,1 Z " fill="#000000" opacity="0.14901961" transform="translate(80,68)"/>
<path d="M0,0 L1,0 L1,1 L0,1 Z " fill="#000000" opacity="0.1882353" transform="translate(77,67)"/>
<path d="M0,0 L1,0 L1,1 L0,1 Z " fill="#DEDFDE" transform="translate(66,67)"/>
<path d="M0,0 L1,0 L1,1 L0,1 Z " fill="#949494" opacity="0.5686275" transform="translate(64,67)"/>
<path d="M0,0 L1,0 L1,1 L0,1 Z " fill="#000000" opacity="0.20784314" transform="translate(62,67)"/>
<path d="M0,0 L1,0 L1,1 L0,1 Z " fill="#DEDFDE" opacity="0.85490197" transform="translate(82,66)"/>
<path d="M0,0 L1,0 L1,1 L0,1 Z " fill="#080C08" opacity="0.28627452" transform="translate(81,66)"/>
<path d="M0,0 L1,0 L1,1 L0,1 Z " fill="#000000" opacity="0.28627452" transform="translate(74,66)"/>
<path d="M0,0 L1,0 L1,1 L0,1 Z " fill="#8F8F8F" opacity="0.42745098" transform="translate(72,66)"/>
<path d="M0,0 L1,0 L1,1 L0,1 Z " fill="#949494" opacity="0.42745098" transform="translate(67,66)"/>
<path d="M0,0 L1,0 L1,1 L0,1 Z " fill="#080808" opacity="0.28627452" transform="translate(109,65)"/>
<path d="M0,0 L1,0 L1,1 L0,1 Z " fill="#D6DBD6" transform="translate(108,65)"/>
<path d="M0,0 L1,0 L1,1 L0,1 Z " fill="#DEDFDE" transform="translate(83,65)"/>
<path d="M0,0 L1,0 L1,1 L0,1 Z M-1,1 L0,1 L0,2 L-1,2 Z " fill="#000000" opacity="0.21176471" transform="translate(53,64)"/>
<path d="M0,0 L1,0 L1,1 L0,1 Z " fill="#7B797B" opacity="0.4509804" transform="translate(83,63)"/>
<path d="M0,0 L1,0 L1,1 L0,1 Z " fill="#101010" opacity="0.03529412" transform="translate(55,63)"/>
<path d="M0,0 L1,0 L1,1 L0,1 Z M-1,1 L0,1 L0,2 L-1,2 Z " fill="#9A9A9A" opacity="0.58431375" transform="translate(54,62)"/>
<path d="M0,0 L1,0 L1,1 L0,1 Z " fill="#DEDBDE" transform="translate(104,61)"/>
<path d="M0,0 L1,0 L1,1 L0,1 Z M-1,1 L0,1 L0,2 L-1,2 Z " fill="#949694" opacity="0.5803922" transform="translate(85,61)"/>
<path d="M0,0 L1,0 L1,1 L0,1 Z " fill="#000400" opacity="0.14117648" transform="translate(39,61)"/>
<path d="M0,0 L1,0 L1,1 L0,1 Z " fill="#080808" opacity="0.28627452" transform="translate(105,60)"/>
<path d="M0,0 L1,0 L1,1 L0,1 Z " fill="#4A4A4A" opacity="0.2784314" transform="translate(58,60)"/>
<path d="M0,0 L1,0 L1,1 L0,1 Z " fill="#000000" opacity="0.23137255" transform="translate(104,59)"/>
<path d="M0,0 L1,0 L1,1 L0,1 Z " fill="#D6D7D6" opacity="0.85490197" transform="translate(89,59)"/>
<path d="M0,0 L1,0 L1,1 L0,1 Z " fill="#000000" opacity="0.16470589" transform="translate(60,59)"/>
<path d="M0,0 L1,0 L1,1 L0,1 Z " fill="#000400" opacity="0.14117648" transform="translate(103,58)"/>
<path d="M0,0 L1,0 L1,1 L0,1 Z " fill="#4A4D4A" opacity="0.42745098" transform="translate(101,58)"/>
<path d="M0,0 L1,0 L1,1 L0,1 Z " fill="#D6D7D6" opacity="0.7137255" transform="translate(91,58)"/>
<path d="M0,0 L1,0 L1,1 L0,1 Z " fill="#DEDFDE" opacity="0.85882354" transform="translate(58,58)"/>
<path d="M0,0 L1,0 L1,1 L0,1 Z " fill="#DEDFDE" opacity="0.85882354" transform="translate(34,58)"/>
<path d="M0,0 L2,0 L2,1 L0,1 Z " fill="#000400" opacity="0.28627452" transform="translate(98,57)"/>
<path d="M0,0 L1,0 L1,1 L0,1 Z " fill="#4A4D4A" opacity="0.28627452" transform="translate(97,57)"/>
<path d="M0,0 L1,0 L1,1 L0,1 Z " fill="#4A4A4A" opacity="0.42745098" transform="translate(94,57)"/>
<path d="M0,0 L1,0 L1,2 L0,2 Z " fill="#4A4A4A" opacity="0.42745098" transform="translate(75,56)"/>
<path d="M0,0 L1,0 L1,2 L0,2 Z " fill="#000000" opacity="0.14117648" transform="translate(69,56)"/>
<path d="M0,0 L1,0 L1,1 L0,1 Z M1,1 L2,1 L2,2 L1,2 Z " fill="#898789" opacity="0.42745098" transform="translate(70,56)"/>
<path d="M0,0 L1,0 L1,1 L0,1 Z " fill="#E6E3E6" opacity="0.972549" transform="translate(71,55)"/>
<path d="M0,0 L1,0 L1,2 L0,2 Z " fill="#080408" opacity="0.2784314" transform="translate(70,54)"/>
<path d="M0,0 L1,0 L1,1 L0,1 Z " fill="#DEE3DE" opacity="0.94509804" transform="translate(47,55)"/>
<path d="M0,0 L1,0 L1,1 L0,1 Z " fill="#949694" opacity="0.5686275" transform="translate(33,54)"/>
<path d="M0,0 L1,0 L1,1 L0,1 Z " fill="#949894" opacity="0.6745098" transform="translate(47,53)"/>
<path d="M0,0 L1,0 L1,2 L0,2 Z " fill="#000000" opacity="0.09411765" transform="translate(70,50)"/>
<path d="M0,0 L1,0 L1,2 L0,2 Z " fill="#4A4D4A" opacity="0.42745098" transform="translate(57,50)"/>
<path d="M0,0 L1,0 L1,2 L0,2 Z " fill="#000000" opacity="0.09411765" transform="translate(46,50)"/>
<path d="M0,0 L1,0 L1,1 L0,1 Z " fill="#A5A6A5" opacity="0.5647059" transform="translate(71,49)"/>
<path d="M0,0 L1,0 L1,1 L0,1 Z " fill="#A5A6A5" opacity="0.5647059" transform="translate(47,49)"/>
<path d="M0,0 L1,0 L1,2 L0,2 Z " fill="#DEDFDE" transform="translate(56,47)"/>
<path d="M0,0 L1,0 L1,2 L0,2 Z " fill="#DEDFDE" transform="translate(32,47)"/>
<path d="M0,0 L1,0 L1,1 L0,1 Z " fill="#525152" opacity="0.050980393" transform="translate(76,47)"/>
<path d="M0,0 L1,0 L1,1 L0,1 Z " fill="#505250" opacity="0.4" transform="translate(75,47)"/>
<path d="M0,0 L1,0 L1,2 L0,2 Z " fill="#000000" opacity="0.28627452" transform="translate(70,46)"/>
<path d="M0,0 L1,0 L1,1 L0,1 Z " fill="#000000" opacity="0.14117648" transform="translate(58,47)"/>
<path d="M0,0 L1,0 L1,2 L0,2 Z " fill="#000000" opacity="0.28627452" transform="translate(46,46)"/>
<path d="M0,0 L1,0 L1,1 L0,1 Z " fill="#000000" opacity="0.14117648" transform="translate(34,47)"/>
<path d="M0,0 L1,0 L1,2 L0,2 Z " fill="#000000" opacity="0.29411766" transform="translate(7,46)"/>
<path d="M0,0 L1,0 L1,1 L0,1 Z " fill="#212021" opacity="0.019607844" transform="translate(76,45)"/>
<path d="M0,0 L1,0 L1,2 L0,2 Z " fill="#080C08" opacity="0.3019608" transform="translate(75,44)"/>
<path d="M0,0 L1,0 L1,1 L0,1 Z " fill="#000000" opacity="0.14117648" transform="translate(69,45)"/>
<path d="M0,0 L1,0 L1,1 L0,1 Z " fill="#000000" opacity="0.14117648" transform="translate(45,45)"/>
<path d="M0,0 L1,0 L1,1 L0,1 Z " fill="#D9D9D9" opacity="0.8901961" transform="translate(8,45)"/>
<path d="M0,0 L1,0 L1,1 L0,1 Z " fill="#000000" opacity="0.14117648" transform="translate(59,44)"/>
<path d="M0,0 L1,0 L1,1 L0,1 Z " fill="#000000" opacity="0.14117648" transform="translate(35,44)"/>
<path d="M0,0 L1,0 L1,1 L0,1 Z " fill="#000000" opacity="0.14901961" transform="translate(7,42)"/>
<path d="M0,0 L1,0 L1,2 L0,2 Z " fill="#000000" opacity="0.10980392" transform="translate(75,40)"/>
<path d="M0,0 L1,0 L1,1 L0,1 Z " fill="#949494" opacity="0.6156863" transform="translate(74,41)"/>
<path d="M0,0 L1,0 L1,1 L0,1 Z " fill="#5A5D5A" opacity="0.3764706" transform="translate(8,40)"/>
<path d="M0,0 L1,0 L1,1 L0,1 Z " fill="#DEDBDE" opacity="0.7176471" transform="translate(9,38)"/>
<path d="M0,0 L1,0 L1,1 L0,1 Z " fill="#080808" opacity="0.29411766" transform="translate(9,36)"/>
<path d="M0,0 L1,0 L1,1 L0,1 Z " fill="#000000" opacity="0.22352941" transform="translate(73,35)"/>
<path d="M0,0 L1,0 L1,1 L0,1 Z " fill="#C5C6C5" opacity="0.78039217" transform="translate(72,35)"/>
<path d="M0,0 L1,0 L1,1 L0,1 Z " fill="#DEDFDE" transform="translate(11,34)"/>
<path d="M0,0 L1,0 L1,1 L0,1 Z " fill="#DEDFDE" opacity="0.84705883" transform="translate(71,33)"/>
<path d="M0,0 L1,0 L1,1 L0,1 Z " fill="#000000" opacity="0.28627452" transform="translate(10,33)"/>
<path d="M0,0 L1,0 L1,1 L0,1 Z M1,1 L2,1 L2,2 L1,2 Z " fill="#080808" opacity="0.14117648" transform="translate(66,24)"/>
<path d="M0,0 L1,0 L1,1 L0,1 Z M-1,1 L0,1 L0,2 L-1,2 Z " fill="#454345" opacity="0.3647059" transform="translate(19,22)"/>
<path d="M0,0 L1,0 L1,1 L0,1 Z " fill="#D6DBD6" transform="translate(60,21)"/>
<path d="M0,0 L1,0 L1,1 L0,1 Z " fill="#000000" opacity="0.15294118" transform="translate(60,19)"/>
<path d="M0,0 L2,0 L2,1 L0,1 Z " fill="#E6EBE6" transform="translate(56,19)"/>
<path d="M0,0 L1,0 L1,1 L0,1 Z " fill="#DEDFDE" transform="translate(25,19)"/>
<path d="M0,0 L1,0 L1,1 L0,1 Z " fill="#000000" opacity="0.28627452" transform="translate(27,17)"/>
<path d="M0,0 L1,0 L1,1 L0,1 Z " fill="#000000" opacity="0.047058824" transform="translate(55,16)"/>
<path d="M0,0 L1,0 L1,1 L0,1 Z " fill="#000000" opacity="0.31764707" transform="translate(53,16)"/>
<path d="M0,0 L1,0 L1,1 L0,1 Z " fill="#CECECE" opacity="0.78039217" transform="translate(32,16)"/>
<path d="M0,0 L1,0 L1,1 L0,1 Z " fill="#000000" opacity="0.25490198" transform="translate(50,15)"/>
<path d="M0,0 L1,0 L1,1 L0,1 Z " fill="#737573" opacity="0.44705883" transform="translate(48,15)"/>
<path d="M0,0 L1,0 L1,1 L0,1 Z " fill="#000000" opacity="0.16078432" transform="translate(31,15)"/>
<path d="M0,0 L2,0 L2,1 L0,1 Z " fill="#000000" opacity="0.24705882" transform="translate(44,14)"/>
<path d="M0,0 L1,0 L1,1 L0,1 Z " fill="#000000" opacity="0.09803922" transform="translate(53,113)"/>
<path d="M0,0 L1,0 L1,1 L0,1 Z " fill="#000000" opacity="0.23921569" transform="translate(51,113)"/>
<path d="M0,0 L1,0 L1,1 L0,1 Z " fill="#000000" opacity="0.11764706" transform="translate(49,113)"/>
<path d="M0,0 L1,0 L1,1 L0,1 Z " fill="#000000" opacity="0.11372549" transform="translate(29,113)"/>
<path d="M0,0 L1,0 L1,1 L0,1 Z " fill="#000000" opacity="0.12156863" transform="translate(14,113)"/>
<path d="M0,0 L1,0 L1,1 L0,1 Z " fill="#000000" opacity="0.09803922" transform="translate(10,113)"/>
<path d="M0,0 L1,0 L1,1 L0,1 Z " fill="#000000" opacity="0.19215687" transform="translate(54,112)"/>
<path d="M0,0 L1,0 L1,1 L0,1 Z " fill="#797779" opacity="0.3882353" transform="translate(53,112)"/>
<path d="M0,0 L1,0 L1,1 L0,1 Z " fill="#B5B2B5" opacity="0.68235296" transform="translate(52,112)"/>
<path d="M0,0 L1,0 L1,1 L0,1 Z " fill="#D6D2D6" opacity="0.84313726" transform="translate(51,112)"/>
<path d="M0,0 L1,0 L1,1 L0,1 Z " fill="#8F8C8F" opacity="0.6" transform="translate(49,112)"/>
<path d="M0,0 L1,0 L1,1 L0,1 Z " fill="#474647" opacity="0.36078432" transform="translate(48,112)"/>
<path d="M0,0 L1,0 L1,1 L0,1 Z " fill="#000000" opacity="0.15294118" transform="translate(47,112)"/>
<path d="M0,0 L1,0 L1,1 L0,1 Z " fill="#000000" opacity="0.23137255" transform="translate(35,112)"/>
<path d="M0,0 L1,0 L1,1 L0,1 Z " fill="#424242" opacity="0.34901962" transform="translate(34,112)"/>
<path d="M0,0 L1,0 L1,1 L0,1 Z " fill="#C5C6C5" opacity="0.69803923" transform="translate(33,112)"/>
<path d="M0,0 L1,0 L1,1 L0,1 Z " fill="#C5C6C5" opacity="0.8156863" transform="translate(32,112)"/>
<path d="M0,0 L1,0 L1,1 L0,1 Z " fill="#C5C6C5" opacity="0.69803923" transform="translate(30,112)"/>
<path d="M0,0 L1,0 L1,1 L0,1 Z " fill="#424242" opacity="0.34901962" transform="translate(29,112)"/>
<path d="M0,0 L1,0 L1,1 L0,1 Z " fill="#000000" opacity="0.015686275" transform="translate(27,112)"/>
<path d="M0,0 L1,0 L1,1 L0,1 Z " fill="#454645" opacity="0.36078432" transform="translate(15,112)"/>
<path d="M0,0 L1,0 L1,1 L0,1 Z " fill="#898C89" opacity="0.6039216" transform="translate(14,112)"/>
<path d="M0,0 L1,0 L1,1 L0,1 Z " fill="#CED2CE" opacity="0.7254902" transform="translate(13,112)"/>
<path d="M0,0 L1,0 L1,1 L0,1 Z " fill="#B5B6B5" opacity="0.6862745" transform="translate(11,112)"/>
<path d="M0,0 L1,0 L1,1 L0,1 Z " fill="#797979" opacity="0.39215687" transform="translate(10,112)"/>
<path d="M0,0 L1,0 L1,1 L0,1 Z " fill="#000000" opacity="0.19607843" transform="translate(9,112)"/>
<path d="M0,0 L1,0 L1,1 L0,1 Z " fill="#000000" opacity="0.22745098" transform="translate(55,111)"/>
<path d="M0,0 L1,0 L1,1 L0,1 Z " fill="#949494" opacity="0.5568628" transform="translate(54,111)"/>
<path d="M0,0 L1,0 L1,1 L0,1 Z " fill="#DEDBDE" opacity="0.92156863" transform="translate(48,111)"/>
<path d="M0,0 L1,0 L1,1 L0,1 Z " fill="#504E50" opacity="0.42745098" transform="translate(47,111)"/>
<path d="M0,0 L1,0 L1,1 L0,1 Z " fill="#848684" opacity="0.4862745" transform="translate(35,111)"/>
<path d="M0,0 L1,0 L1,1 L0,1 Z " fill="#8C8A8C" opacity="0.49019608" transform="translate(28,111)"/>
<path d="M0,0 L1,0 L1,1 L0,1 Z " fill="#4A4D4A" opacity="0.42745098" transform="translate(16,111)"/>
<path d="M0,0 L1,0 L1,1 L0,1 Z " fill="#D9D9D9" opacity="0.9137255" transform="translate(15,111)"/>
<path d="M0,0 L1,0 L1,1 L0,1 Z " fill="#000000" opacity="0.23529412" transform="translate(8,111)"/>
<path d="M0,0 L1,0 L1,1 L0,1 Z " fill="#949494" opacity="0.44705883" transform="translate(55,110)"/>
<path d="M0,0 L1,0 L1,1 L0,1 Z " fill="#DEE3DE" opacity="0.85490197" transform="translate(47,110)"/>
<path d="M0,0 L1,0 L1,1 L0,1 Z " fill="#080408" opacity="0.28627452" transform="translate(46,110)"/>
<path d="M0,0 L1,0 L1,1 L0,1 Z " fill="#3F3E3F" opacity="0.3254902" transform="translate(36,110)"/>
<path d="M0,0 L1,0 L1,1 L0,1 Z " fill="#3F3F3F" opacity="0.33333334" transform="translate(27,110)"/>
<path d="M0,0 L1,0 L1,1 L0,1 Z " fill="#000400" opacity="0.28627452" transform="translate(17,110)"/>
<path d="M0,0 L1,0 L1,1 L0,1 Z " fill="#DEDFDE" opacity="0.85490197" transform="translate(16,110)"/>
<path d="M0,0 L1,0 L1,1 L0,1 Z " fill="#949494" opacity="0.4509804" transform="translate(8,110)"/>
<path d="M0,0 L1,0 L1,1 L0,1 Z " fill="#000000" opacity="0.11764706" transform="translate(7,110)"/>
<path d="M0,0 L1,0 L1,1 L0,1 Z " fill="#000000" opacity="0.19607843" transform="translate(56,109)"/>
<path d="M0,0 L1,0 L1,1 L0,1 Z " fill="#DEDFDE" opacity="0.7764706" transform="translate(55,109)"/>
<path d="M0,0 L1,0 L1,1 L0,1 Z " fill="#DEDFDE" opacity="0.78039217" transform="translate(8,109)"/>
<path d="M0,0 L1,0 L1,1 L0,1 Z " fill="#000000" opacity="0.23921569" transform="translate(7,109)"/>
<path d="M0,0 L1,0 L1,1 L0,1 Z " fill="#000000" opacity="0.25490198" transform="translate(120,108)"/>
<path d="M0,0 L1,0 L1,1 L0,1 Z " fill="#313531" opacity="0.06666667" transform="translate(119,108)"/>
<path d="M0,0 L1,0 L1,1 L0,1 Z " fill="#101010" opacity="0.02745098" transform="translate(102,108)"/>
<path d="M0,0 L1,0 L1,1 L0,1 Z " fill="#000000" opacity="0.07058824" transform="translate(101,108)"/>
<path d="M0,0 L1,0 L1,1 L0,1 Z " fill="#000000" opacity="0.101960786" transform="translate(100,108)"/>
<path d="M0,0 L1,0 L1,1 L0,1 Z " fill="#000000" opacity="0.101960786" transform="translate(71,108)"/>
<path d="M0,0 L1,0 L1,1 L0,1 Z " fill="#080808" opacity="0.02745098" transform="translate(69,108)"/>
<path d="M0,0 L1,0 L1,1 L0,1 Z " fill="#000000" opacity="0.27450982" transform="translate(56,108)"/>
<path d="M0,0 L1,0 L1,1 L0,1 Z " fill="#979897" opacity="0.5686275" transform="translate(46,108)"/>
<path d="M0,0 L1,0 L1,1 L0,1 Z " fill="#000000" opacity="0.21568628" transform="translate(37,108)"/>
<path d="M0,0 L1,0 L1,1 L0,1 Z " fill="#BDBABD" opacity="0.7607843" transform="translate(36,108)"/>
<path d="M0,0 L1,0 L1,1 L0,1 Z " fill="#BDBEBD" opacity="0.7764706" transform="translate(27,108)"/>
<path d="M0,0 L1,0 L1,1 L0,1 Z " fill="#000000" opacity="0.21960784" transform="translate(26,108)"/>
<path d="M0,0 L1,0 L1,1 L0,1 Z " fill="#949694" opacity="0.5686275" transform="translate(17,108)"/>
<path d="M0,0 L1,0 L1,1 L0,1 Z " fill="#000000" opacity="0.2784314" transform="translate(7,108)"/>
<path d="M0,0 L1,0 L1,1 L0,1 Z " fill="#080808" opacity="0.14117648" transform="translate(118,107)"/>
<path d="M0,0 L1,0 L1,1 L0,1 Z " fill="#080808" opacity="0.22352941" transform="translate(103,107)"/>
<path d="M0,0 L1,0 L1,1 L0,1 Z " fill="#504E50" opacity="0.33333334" transform="translate(101,107)"/>
<path d="M0,0 L1,0 L1,1 L0,1 Z " fill="#979497" opacity="0.44313726" transform="translate(100,107)"/>
<path d="M0,0 L1,0 L1,1 L0,1 Z " fill="#979797" opacity="0.4392157" transform="translate(71,107)"/>
<path d="M0,0 L1,0 L1,1 L0,1 Z " fill="#505050" opacity="0.3254902" transform="translate(70,107)"/>
<path d="M0,0 L1,0 L1,1 L0,1 Z " fill="#080808" opacity="0.21568628" transform="translate(68,107)"/>
<path d="M0,0 L1,0 L1,1 L0,1 Z " fill="#979797" opacity="0.5686275" transform="translate(118,106)"/>
<path d="M0,0 L1,0 L1,1 L0,1 Z " fill="#080808" opacity="0.14117648" transform="translate(116,106)"/>
<path d="M0,0 L1,0 L1,1 L0,1 Z " fill="#474647" opacity="0.28627452" transform="translate(104,106)"/>
<path d="M0,0 L1,0 L1,1 L0,1 Z " fill="#DEDBDE" opacity="0.6666667" transform="translate(103,106)"/>
<path d="M0,0 L1,0 L1,1 L0,1 Z " fill="#979797" opacity="0.6627451" transform="translate(68,106)"/>
<path d="M0,0 L1,0 L1,1 L0,1 Z " fill="#474847" opacity="0.28627452" transform="translate(67,106)"/>
<path d="M0,0 L1,0 L1,1 L0,1 Z " fill="#DEDFDE" opacity="0.85490197" transform="translate(117,105)"/>
<path d="M0,0 L1,0 L1,1 L0,1 Z " fill="#505050" opacity="0.42745098" transform="translate(116,105)"/>
<path d="M0,0 L1,0 L1,1 L0,1 Z " fill="#000000" opacity="0.19607843" transform="translate(115,105)"/>
<path d="M0,0 L1,0 L1,1 L0,1 Z " fill="#3C3E3C" opacity="0.09803922" transform="translate(114,105)"/>
<path d="M0,0 L1,0 L1,1 L0,1 Z " fill="#8F8C8F" opacity="0.42745098" transform="translate(105,105)"/>
<path d="M0,0 L1,0 L1,1 L0,1 Z " fill="#D6D7D6" transform="translate(67,105)"/>
<path d="M0,0 L1,0 L1,1 L0,1 Z " fill="#474847" opacity="0.42745098" transform="translate(66,105)"/>
<path d="M0,0 L1,0 L1,1 L0,1 Z " fill="#B5BAB5" opacity="0.6901961" transform="translate(115,104)"/>
<path d="M0,0 L1,0 L1,1 L0,1 Z " fill="#000000" opacity="0.19607843" transform="translate(113,104)"/>
<path d="M0,0 L1,0 L1,1 L0,1 Z " fill="#474647" opacity="0.28627452" transform="translate(106,104)"/>
<path d="M0,0 L1,0 L1,1 L0,1 Z " fill="#D6D2D6" opacity="0.85490197" transform="translate(105,104)"/>
<path d="M0,0 L1,0 L1,1 L0,1 Z " fill="#D6D7D6" opacity="0.85490197" transform="translate(66,104)"/>
<path d="M0,0 L1,0 L1,1 L0,1 Z " fill="#000000" opacity="0.28627452" transform="translate(65,104)"/>
<path d="M0,0 L1,0 L1,1 L0,1 Z " fill="#979897" opacity="0.5882353" transform="translate(113,103)"/>
<path d="M0,0 L1,0 L1,1 L0,1 Z " fill="#000000" opacity="0.14117648" transform="translate(111,103)"/>
<path d="M0,0 L1,0 L1,1 L0,1 Z " fill="#DEDFDE" opacity="0.65882355" transform="translate(106,103)"/>
<path d="M0,0 L1,0 L1,1 L0,1 Z " fill="#949694" opacity="0.6509804" transform="translate(65,103)"/>
<path d="M0,0 L1,0 L1,1 L0,1 Z " fill="#000400" opacity="0.18431373" transform="translate(64,103)"/>
<path d="M0,0 L1,0 L1,1 L0,1 Z " fill="#000000" opacity="0.28235295" transform="translate(56,103)"/>
<path d="M0,0 L1,0 L1,1 L0,1 Z " fill="#DEDFDE" opacity="0.972549" transform="translate(55,103)"/>
<path d="M0,0 L1,0 L1,1 L0,1 Z " fill="#080808" opacity="0.14117648" transform="translate(45,103)"/>
<path d="M0,0 L1,0 L1,1 L0,1 Z " fill="#DEDBDE" opacity="0.85490197" transform="translate(36,103)"/>
<path d="M0,0 L1,0 L1,1 L0,1 Z " fill="#DEDBDE" opacity="0.85490197" transform="translate(27,103)"/>
<path d="M0,0 L1,0 L1,1 L0,1 Z " fill="#080408" opacity="0.14117648" transform="translate(18,103)"/>
<path d="M0,0 L1,0 L1,1 L0,1 Z " fill="#D6D7D6" opacity="0.7137255" transform="translate(17,103)"/>
<path d="M0,0 L1,0 L1,1 L0,1 Z " fill="#D6D7D6" transform="translate(16,103)"/>
<path d="M0,0 L1,0 L1,1 L0,1 Z " fill="#DEDFDE" opacity="0.7921569" transform="translate(112,102)"/>
<path d="M0,0 L1,0 L1,1 L0,1 Z " fill="#000000" opacity="0.28627452" transform="translate(110,102)"/>
<path d="M0,0 L1,0 L1,1 L0,1 Z " fill="#101010" opacity="0.32156864" transform="translate(107,102)"/>
<path d="M0,0 L1,0 L1,1 L0,1 Z " fill="#DEDFDE" opacity="0.8862745" transform="translate(106,102)"/>
<path d="M0,0 L1,0 L1,1 L0,1 Z " fill="#DEDFDE" opacity="0.88235295" transform="translate(65,102)"/>
<path d="M0,0 L1,0 L1,1 L0,1 Z " fill="#D9D9D9" opacity="0.8901961" transform="translate(55,102)"/>
<path d="M0,0 L1,0 L1,1 L0,1 Z " fill="#D6DBD6" opacity="0.85490197" transform="translate(46,102)"/>
<path d="M0,0 L1,0 L1,1 L0,1 Z " fill="#DEDBDE" transform="translate(36,102)"/>
<path d="M0,0 L1,0 L1,1 L0,1 Z " fill="#DEDBDE" transform="translate(27,102)"/>
<path d="M0,0 L1,0 L1,1 L0,1 Z " fill="#D6D7D6" opacity="0.85490197" transform="translate(17,102)"/>
<path d="M0,0 L1,0 L1,1 L0,1 Z " fill="#D6D7D6" opacity="0.7137255" transform="translate(110,101)"/>
<path d="M0,0 L1,0 L1,1 L0,1 Z " fill="#474847" opacity="0.28627452" transform="translate(109,101)"/>
<path d="M0,0 L1,0 L1,1 L0,1 Z " fill="#000000" opacity="0.14117648" transform="translate(108,101)"/>
<path d="M0,0 L1,0 L1,1 L0,1 Z " fill="#D3D4D3" opacity="0.8117647" transform="translate(55,101)"/>
<path d="M0,0 L1,0 L1,1 L0,1 Z " fill="#4D4E4D" opacity="0.42745098" transform="translate(45,101)"/>
<path d="M0,0 L1,0 L1,1 L0,1 Z " fill="#080808" opacity="0.14117648" transform="translate(44,101)"/>
<path d="M0,0 L1,0 L1,1 L0,1 Z " fill="#949294" opacity="0.42745098" transform="translate(37,101)"/>
<path d="M0,0 L1,0 L1,1 L0,1 Z " fill="#949394" opacity="0.42745098" transform="translate(26,101)"/>
<path d="M0,0 L1,0 L1,1 L0,1 Z " fill="#4D4A4D" opacity="0.42745098" transform="translate(18,101)"/>
<path d="M0,0 L1,0 L1,1 L0,1 Z " fill="#8F8F8F" opacity="0.5686275" transform="translate(108,100)"/>
<path d="M0,0 L1,0 L1,1 L0,1 Z " fill="#D6DBD6" opacity="0.85490197" transform="translate(45,100)"/>
<path d="M0,0 L1,0 L1,1 L0,1 Z " fill="#000000" opacity="0.14509805" transform="translate(43,100)"/>
<path d="M0,0 L1,0 L1,1 L0,1 Z " fill="#2C2B2C" opacity="0.019607844" transform="translate(42,100)"/>
<path d="M0,0 L1,0 L1,1 L0,1 Z " fill="#424142" opacity="0.039215688" transform="translate(40,100)"/>
<path d="M0,0 L1,0 L1,1 L0,1 Z " fill="#4A494A" opacity="0.42745098" transform="translate(38,100)"/>
<path d="M0,0 L1,0 L1,1 L0,1 Z " fill="#4A4C4A" opacity="0.42745098" transform="translate(25,100)"/>
<path d="M0,0 L1,0 L1,1 L0,1 Z " fill="#424142" opacity="0.03529412" transform="translate(23,100)"/>
<path d="M0,0 L1,0 L1,1 L0,1 Z " fill="#2C2B2C" opacity="0.015686275" transform="translate(21,100)"/>
<path d="M0,0 L1,0 L1,1 L0,1 Z " fill="#000000" opacity="0.12941177" transform="translate(20,100)"/>
<path d="M0,0 L1,0 L1,1 L0,1 Z " fill="#080408" opacity="0.28627452" transform="translate(19,100)"/>
<path d="M0,0 L1,0 L1,1 L0,1 Z " fill="#D6D7D6" opacity="0.85490197" transform="translate(18,100)"/>
<path d="M0,0 L1,0 L1,1 L0,1 Z " fill="#D6D2D6" opacity="0.8627451" transform="translate(107,99)"/>
<path d="M0,0 L1,0 L1,1 L0,1 Z " fill="#DEDFDE" opacity="0.78039217" transform="translate(55,99)"/>
<path d="M0,0 L1,0 L1,1 L0,1 Z " fill="#949494" opacity="0.49019608" transform="translate(43,99)"/>
<path d="M0,0 L1,0 L1,1 L0,1 Z " fill="#000000" opacity="0.28627452" transform="translate(41,99)"/>
<path d="M0,0 L1,0 L1,1 L0,1 Z " fill="#9C9A9C" opacity="0.5411765" transform="translate(39,99)"/>
<path d="M0,0 L1,0 L1,1 L0,1 Z " fill="#DEDFDE" opacity="0.93333334" transform="translate(38,99)"/>
<path d="M0,0 L1,0 L1,1 L0,1 Z " fill="#9C9E9C" opacity="0.54509807" transform="translate(24,99)"/>
<path d="M0,0 L1,0 L1,1 L0,1 Z " fill="#000000" opacity="0.2901961" transform="translate(22,99)"/>
<path d="M0,0 L1,0 L1,1 L0,1 Z " fill="#949494" opacity="0.49019608" transform="translate(20,99)"/>
<path d="M0,0 L1,0 L1,1 L0,1 Z " fill="#D9D7D9" opacity="0.8980392" transform="translate(19,99)"/>
<path d="M0,0 L1,0 L1,1 L0,1 Z " fill="#949694" opacity="0.5647059" transform="translate(55,97)"/>
<path d="M0,0 L1,0 L1,1 L0,1 Z " fill="#000400" opacity="0.23921569" transform="translate(55,96)"/>
<path d="M0,0 L1,0 L1,1 L0,1 Z " fill="#949694" opacity="0.45490196" transform="translate(54,96)"/>
<path d="M0,0 L1,0 L1,1 L0,1 Z " fill="#DEDFDE" transform="translate(36,96)"/>
<path d="M0,0 L1,0 L1,1 L0,1 Z " fill="#E6E7E6" opacity="0.9490196" transform="translate(52,95)"/>
<path d="M0,0 L1,0 L1,1 L0,1 Z " fill="#101010" opacity="0.019607844" transform="translate(62,92)"/>
<path d="M0,0 L1,0 L1,1 L0,1 Z " fill="#000000" opacity="0.21176471" transform="translate(51,92)"/>
<path d="M0,0 L1,0 L1,1 L0,1 Z " fill="#949494" opacity="0.54901963" transform="translate(50,92)"/>
<path d="M0,0 L1,0 L1,1 L0,1 Z " fill="#949394" opacity="0.57254905" transform="translate(63,91)"/>
<path d="M0,0 L1,0 L1,1 L0,1 Z " fill="#000400" opacity="0.28627452" transform="translate(62,91)"/>
<path d="M0,0 L1,0 L1,1 L0,1 Z " fill="#000000" opacity="0.28627452" transform="translate(50,91)"/>
<path d="M0,0 L1,0 L1,1 L0,1 Z " fill="#D6DBD6" opacity="0.7137255" transform="translate(49,91)"/>
<path d="M0,0 L1,0 L1,1 L0,1 Z " fill="#D6DBD6" transform="translate(48,91)"/>
<path d="M0,0 L1,0 L1,1 L0,1 Z " fill="#949394" opacity="0.43137255" transform="translate(61,90)"/>
<path d="M0,0 L1,0 L1,1 L0,1 Z " fill="#000400" opacity="0.28627452" transform="translate(60,90)"/>
<path d="M0,0 L1,0 L1,1 L0,1 Z " fill="#474947" opacity="0.42745098" transform="translate(49,90)"/>
<path d="M0,0 L1,0 L1,1 L0,1 Z " fill="#DEDBDE" opacity="0.7137255" transform="translate(60,89)"/>
<path d="M0,0 L1,0 L1,1 L0,1 Z " fill="#8F928F" opacity="0.5686275" transform="translate(48,89)"/>
<path d="M0,0 L1,0 L1,1 L0,1 Z " fill="#CECACE" opacity="0.78431374" transform="translate(59,88)"/>
<path d="M0,0 L1,0 L1,1 L0,1 Z " fill="#474947" opacity="0.28627452" transform="translate(48,88)"/>
<path d="M0,0 L1,0 L1,1 L0,1 Z " fill="#E1E0E1" opacity="0.972549" transform="translate(47,88)"/>
<path d="M0,0 L1,0 L1,1 L0,1 Z " fill="#DEDFDE" opacity="0.72156864" transform="translate(58,87)"/>
<path d="M0,0 L1,0 L1,1 L0,1 Z " fill="#080408" opacity="0.3019608" transform="translate(57,87)"/>
<path d="M0,0 L1,0 L1,1 L0,1 Z " fill="#9A9A9A" opacity="0.65882355" transform="translate(47,87)"/>
<path d="M0,0 L1,0 L1,1 L0,1 Z " fill="#979697" opacity="0.5803922" transform="translate(57,86)"/>
<path d="M0,0 L1,0 L1,1 L0,1 Z " fill="#080408" opacity="0.16078432" transform="translate(56,86)"/>
<path d="M0,0 L1,0 L1,1 L0,1 Z " fill="#000000" opacity="0.08627451" transform="translate(48,86)"/>
<path d="M0,0 L1,0 L1,1 L0,1 Z " fill="#555555" opacity="0.43137255" transform="translate(47,86)"/>
<path d="M0,0 L1,0 L1,1 L0,1 Z " fill="#949494" opacity="0.49803922" transform="translate(107,85)"/>
<path d="M0,0 L1,0 L1,1 L0,1 Z " fill="#000000" opacity="0.05490196" transform="translate(55,85)"/>
<path d="M0,0 L1,0 L1,1 L0,1 Z " fill="#E1E0E1" transform="translate(112,84)"/>
<path d="M0,0 L1,0 L1,1 L0,1 Z " fill="#9C9D9C" opacity="0.6039216" transform="translate(109,84)"/>
<path d="M0,0 L1,0 L1,1 L0,1 Z " fill="#191819" opacity="0.30588236" transform="translate(108,84)"/>
<path d="M0,0 L1,0 L1,1 L0,1 Z " fill="#DEDFDE" transform="translate(104,84)"/>
<path d="M0,0 L1,0 L1,1 L0,1 Z " fill="#979697" opacity="0.5803922" transform="translate(56,84)"/>
<path d="M0,0 L1,0 L1,1 L0,1 Z " fill="#101010" opacity="0.20392157" transform="translate(47,84)"/>
<path d="M0,0 L1,0 L1,1 L0,1 Z " fill="#DEDFDE" opacity="0.65882355" transform="translate(46,84)"/>
<path d="M0,0 L1,0 L1,1 L0,1 Z " fill="#C5C6C5" opacity="0.74509805" transform="translate(111,83)"/>
<path d="M0,0 L1,0 L1,1 L0,1 Z " fill="#000000" opacity="0.21176471" transform="translate(109,83)"/>
<path d="M0,0 L1,0 L1,1 L0,1 Z " fill="#000000" opacity="0.3254902" transform="translate(107,83)"/>
<path d="M0,0 L1,0 L1,1 L0,1 Z " fill="#E1E0E1" opacity="0.96862745" transform="translate(56,83)"/>
<path d="M0,0 L1,0 L1,1 L0,1 Z " fill="#000000" opacity="0.27450982" transform="translate(55,83)"/>
<path d="M0,0 L1,0 L1,1 L0,1 Z " fill="#949694" opacity="0.42745098" transform="translate(112,82)"/>
<path d="M0,0 L1,0 L1,1 L0,1 Z " fill="#000000" opacity="0.105882354" transform="translate(110,82)"/>
<path d="M0,0 L1,0 L1,1 L0,1 Z " fill="#737473" opacity="0.4627451" transform="translate(55,82)"/>
<path d="M0,0 L1,0 L1,1 L0,1 Z " fill="#000000" opacity="0.09019608" transform="translate(54,82)"/>
<path d="M0,0 L1,0 L1,1 L0,1 Z " fill="#000400" opacity="0.043137256" transform="translate(47,82)"/>
<path d="M0,0 L1,0 L1,1 L0,1 Z " fill="#949694" opacity="0.4509804" transform="translate(46,82)"/>
<path d="M0,0 L1,0 L1,1 L0,1 Z " fill="#949694" opacity="0.5686275" transform="translate(114,81)"/>
<path d="M0,0 L1,0 L1,1 L0,1 Z " fill="#000400" opacity="0.14117648" transform="translate(112,81)"/>
<path d="M0,0 L1,0 L1,1 L0,1 Z " fill="#949294" opacity="0.4627451" transform="translate(106,81)"/>
<path d="M0,0 L1,0 L1,1 L0,1 Z " fill="#4A4D4A" opacity="0.4509804" transform="translate(46,81)"/>
<path d="M0,0 L1,0 L1,1 L0,1 Z " fill="#C5CAC5" opacity="0.7607843" transform="translate(116,80)"/>
<path d="M0,0 L1,0 L1,1 L0,1 Z " fill="#000400" opacity="0.14117648" transform="translate(114,80)"/>
<path d="M0,0 L1,0 L1,1 L0,1 Z " fill="#000000" opacity="0.3254902" transform="translate(106,80)"/>
<path d="M0,0 L1,0 L1,1 L0,1 Z " fill="#DEDBDE" opacity="0.8627451" transform="translate(105,80)"/>
<path d="M0,0 L1,0 L1,1 L0,1 Z " fill="#ADAEAD" opacity="0.64705884" transform="translate(55,80)"/>
<path d="M0,0 L1,0 L1,1 L0,1 Z " fill="#949694" opacity="0.42745098" transform="translate(117,79)"/>
<path d="M0,0 L1,0 L1,1 L0,1 Z " fill="#000000" opacity="0.08627451" transform="translate(115,79)"/>
<path d="M0,0 L1,0 L1,1 L0,1 Z " fill="#101010" opacity="0.25490198" transform="translate(107,79)"/>
<path d="M0,0 L1,0 L1,1 L0,1 Z " fill="#9F9D9F" opacity="0.6784314" transform="translate(106,79)"/>
<path d="M0,0 L1,0 L1,1 L0,1 Z " fill="#4A4A4A" opacity="0.30588236" transform="translate(46,79)"/>
<path d="M0,0 L1,0 L1,1 L0,1 Z " fill="#949694" opacity="0.5686275" transform="translate(119,78)"/>
<path d="M0,0 L1,0 L1,1 L0,1 Z " fill="#000400" opacity="0.14117648" transform="translate(117,78)"/>
<path d="M0,0 L1,0 L1,1 L0,1 Z " fill="#9F9D9F" opacity="0.57254905" transform="translate(107,78)"/>
<path d="M0,0 L1,0 L1,1 L0,1 Z " fill="#C5C2C5" opacity="0.5882353" transform="translate(55,78)"/>
<path d="M0,0 L1,0 L1,1 L0,1 Z " fill="#000400" opacity="0.14117648" transform="translate(119,77)"/>
<path d="M0,0 L1,0 L1,1 L0,1 Z " fill="#474847" opacity="0.35686275" transform="translate(108,77)"/>
<path d="M0,0 L1,0 L1,1 L0,1 Z " fill="#000000" opacity="0.08235294" transform="translate(120,76)"/>
<path d="M0,0 L1,0 L1,1 L0,1 Z " fill="#000000" opacity="0.23921569" transform="translate(109,76)"/>
<path d="M0,0 L1,0 L1,1 L0,1 Z " fill="#D6D7D6" opacity="0.8352941" transform="translate(108,76)"/>
<path d="M0,0 L1,0 L1,1 L0,1 Z " fill="#E1E0E1" transform="translate(56,76)"/>
<path d="M0,0 L1,0 L1,1 L0,1 Z " fill="#424342" opacity="0.39215687" transform="translate(55,76)"/>
<path d="M0,0 L1,0 L1,1 L0,1 Z " fill="#000000" opacity="0.14117648" transform="translate(110,75)"/>
<path d="M0,0 L1,0 L1,1 L0,1 Z " fill="#8F8F8F" opacity="0.42745098" transform="translate(109,75)"/>
<path d="M0,0 L1,0 L1,1 L0,1 Z " fill="#D6D7D6" transform="translate(108,75)"/>
<path d="M0,0 L1,0 L1,1 L0,1 Z " fill="#080408" opacity="0.16078432" transform="translate(47,75)"/>
<path d="M0,0 L1,0 L1,1 L0,1 Z " fill="#979697" opacity="0.6392157" transform="translate(46,75)"/>
<path d="M0,0 L1,0 L1,1 L0,1 Z " fill="#D6D7D6" opacity="0.7137255" transform="translate(109,74)"/>
<path d="M0,0 L1,0 L1,1 L0,1 Z " fill="#979897" opacity="0.5137255" transform="translate(56,74)"/>
<path d="M0,0 L1,0 L1,1 L0,1 Z " fill="#000000" opacity="0.19215687" transform="translate(55,74)"/>
<path d="M0,0 L1,0 L1,1 L0,1 Z " fill="#DEDFDE" opacity="0.7607843" transform="translate(46,74)"/>
<path d="M0,0 L1,0 L1,1 L0,1 Z " fill="#000000" opacity="0.28627452" transform="translate(110,73)"/>
<path d="M0,0 L1,0 L1,1 L0,1 Z " fill="#191419" opacity="0.039215688" transform="translate(55,73)"/>
<path d="M0,0 L1,0 L1,1 L0,1 Z " fill="#474847" opacity="0.28627452" transform="translate(110,72)"/>
<path d="M0,0 L1,0 L1,1 L0,1 Z " fill="#E1E0E1" transform="translate(60,72)"/>
<path d="M0,0 L1,0 L1,1 L0,1 Z " fill="#DEDFDE" transform="translate(58,72)"/>
<path d="M0,0 L1,0 L1,1 L0,1 Z " fill="#979897" opacity="0.5137255" transform="translate(57,72)"/>
<path d="M0,0 L1,0 L1,1 L0,1 Z " fill="#080C08" opacity="0.15294118" transform="translate(56,72)"/>
<path d="M0,0 L1,0 L1,1 L0,1 Z " fill="#000000" opacity="0.11372549" transform="translate(48,72)"/>
<path d="M0,0 L1,0 L1,1 L0,1 Z " fill="#979697" opacity="0.5176471" transform="translate(47,72)"/>
<path d="M0,0 L1,0 L1,1 L0,1 Z " fill="#555555" opacity="0.43137255" transform="translate(110,71)"/>
<path d="M0,0 L1,0 L1,1 L0,1 Z " fill="#EFEFEF" transform="translate(59,71)"/>
<path d="M0,0 L1,0 L1,1 L0,1 Z " fill="#C5C6C5" opacity="0.75686276" transform="translate(47,71)"/>
<path d="M0,0 L1,0 L1,1 L0,1 Z " fill="#949294" opacity="0.39215687" transform="translate(80,70)"/>
<path d="M0,0 L1,0 L1,1 L0,1 Z " fill="#474647" opacity="0.42745098" transform="translate(48,70)"/>
<path d="M0,0 L1,0 L1,1 L0,1 Z " fill="#555555" opacity="0.2901961" transform="translate(110,69)"/>
<path d="M0,0 L1,0 L1,1 L0,1 Z " fill="#DEDBDE" opacity="0.63529414" transform="translate(81,69)"/>
<path d="M0,0 L1,0 L1,1 L0,1 Z " fill="#555255" opacity="0.38039216" transform="translate(79,69)"/>
<path d="M0,0 L1,0 L1,1 L0,1 Z " fill="#DEDFDE" opacity="0.8745098" transform="translate(78,69)"/>
<path d="M0,0 L1,0 L1,1 L0,1 Z " fill="#949494" opacity="0.5294118" transform="translate(60,69)"/>
<path d="M0,0 L1,0 L1,1 L0,1 Z " fill="#D6D2D6" opacity="0.7137255" transform="translate(48,69)"/>
<path d="M0,0 L1,0 L1,1 L0,1 Z " fill="#101010" opacity="0.007843138" transform="translate(111,68)"/>
<path d="M0,0 L1,0 L1,1 L0,1 Z " fill="#101010" opacity="0.2901961" transform="translate(110,68)"/>
<path d="M0,0 L1,0 L1,1 L0,1 Z " fill="#100C10" opacity="0.13333334" transform="translate(79,68)"/>
<path d="M0,0 L1,0 L1,1 L0,1 Z " fill="#9A989A" opacity="0.5019608" transform="translate(77,68)"/>
<path d="M0,0 L1,0 L1,1 L0,1 Z " fill="#E1E0E1" transform="translate(64,68)"/>
<path d="M0,0 L1,0 L1,1 L0,1 Z " fill="#DEDFDE" opacity="0.64705884" transform="translate(62,68)"/>
<path d="M0,0 L1,0 L1,1 L0,1 Z " fill="#000000" opacity="0.18039216" transform="translate(60,68)"/>
<path d="M0,0 L1,0 L1,1 L0,1 Z " fill="#000000" opacity="0.14117648" transform="translate(50,68)"/>
<path d="M0,0 L1,0 L1,1 L0,1 Z " fill="#474647" opacity="0.42745098" transform="translate(49,68)"/>
<path d="M0,0 L1,0 L1,1 L0,1 Z " fill="#D6D2D6" transform="translate(48,68)"/>
<path d="M0,0 L1,0 L1,1 L0,1 Z " fill="#505250" opacity="0.42745098" transform="translate(81,67)"/>
<path d="M0,0 L1,0 L1,1 L0,1 Z " fill="#080C08" opacity="0.14117648" transform="translate(80,67)"/>
<path d="M0,0 L1,0 L1,1 L0,1 Z " fill="#000000" opacity="0.047058824" transform="translate(78,67)"/>
<path d="M0,0 L1,0 L1,1 L0,1 Z " fill="#313131" opacity="0.33333334" transform="translate(76,67)"/>
<path d="M0,0 L1,0 L1,1 L0,1 Z " fill="#8F8F8F" opacity="0.5686275" transform="translate(75,67)"/>
<path d="M0,0 L1,0 L1,1 L0,1 Z " fill="#D6D7D6" opacity="0.7137255" transform="translate(74,67)"/>
<path d="M0,0 L1,0 L1,1 L0,1 Z " fill="#DEDFDE" transform="translate(67,67)"/>
<path d="M0,0 L1,0 L1,1 L0,1 Z " fill="#DEDFDE" opacity="0.85490197" transform="translate(65,67)"/>
<path d="M0,0 L1,0 L1,1 L0,1 Z " fill="#4A494A" opacity="0.36862746" transform="translate(63,67)"/>
<path d="M0,0 L1,0 L1,1 L0,1 Z " fill="#000000" opacity="0.105882354" transform="translate(61,67)"/>
<path d="M0,0 L1,0 L1,1 L0,1 Z " fill="#080808" opacity="0.039215688" transform="translate(51,67)"/>
<path d="M0,0 L1,0 L1,1 L0,1 Z " fill="#DEDBDE" opacity="0.8627451" transform="translate(49,67)"/>
<path d="M0,0 L1,0 L1,1 L0,1 Z " fill="#080808" opacity="0.14117648" transform="translate(110,66)"/>
<path d="M0,0 L1,0 L1,1 L0,1 Z " fill="#919491" opacity="0.5686275" transform="translate(109,66)"/>
<path d="M0,0 L1,0 L1,1 L0,1 Z " fill="#000000" opacity="0.14117648" transform="translate(75,66)"/>
<path d="M0,0 L1,0 L1,1 L0,1 Z " fill="#474847" opacity="0.28627452" transform="translate(73,66)"/>
<path d="M0,0 L1,0 L1,1 L0,1 Z " fill="#9A979A" opacity="0.42745098" transform="translate(71,66)"/>
<path d="M0,0 L1,0 L1,1 L0,1 Z " fill="#4A4A4A" opacity="0.42745098" transform="translate(66,66)"/>
<path d="M0,0 L1,0 L1,1 L0,1 Z " fill="#000000" opacity="0.28627452" transform="translate(65,66)"/>
<path d="M0,0 L1,0 L1,1 L0,1 Z " fill="#000000" opacity="0.050980393" transform="translate(63,66)"/>
<path d="M0,0 L1,0 L1,1 L0,1 Z " fill="#DEDBDE" opacity="0.7254902" transform="translate(50,66)"/>
<path d="M0,0 L1,0 L1,1 L0,1 Z " fill="#979897" opacity="0.5686275" transform="translate(82,65)"/>
<path d="M0,0 L1,0 L1,1 L0,1 Z " fill="#080C08" opacity="0.14117648" transform="translate(81,65)"/>
<path d="M0,0 L1,0 L1,1 L0,1 Z " fill="#979497" opacity="0.5882353" transform="translate(51,65)"/>
<path d="M0,0 L1,0 L1,1 L0,1 Z " fill="#080808" opacity="0.14117648" transform="translate(109,64)"/>
<path d="M0,0 L1,0 L1,1 L0,1 Z " fill="#919491" opacity="0.5686275" transform="translate(108,64)"/>
<path d="M0,0 L1,0 L1,1 L0,1 Z " fill="#DEDFDE" opacity="0.85490197" transform="translate(83,64)"/>
<path d="M0,0 L1,0 L1,1 L0,1 Z " fill="#8C8E8C" opacity="0.49411765" transform="translate(52,64)"/>
<path d="M0,0 L1,0 L1,1 L0,1 Z " fill="#0B090B" opacity="0.27450982" transform="translate(108,63)"/>
<path d="M0,0 L1,0 L1,1 L0,1 Z " fill="#DEDBDE" opacity="0.7137255" transform="translate(107,63)"/>
<path d="M0,0 L1,0 L1,1 L0,1 Z " fill="#000000" opacity="0.12941177" transform="translate(82,63)"/>
<path d="M0,0 L1,0 L1,1 L0,1 Z " fill="#101010" opacity="0.17254902" transform="translate(54,63)"/>
<path d="M0,0 L1,0 L1,1 L0,1 Z " fill="#DEDFDE" transform="translate(41,63)"/>
<path d="M0,0 L1,0 L1,1 L0,1 Z " fill="#DEDBDE" transform="translate(39,63)"/>
<path d="M0,0 L1,0 L1,1 L0,1 Z " fill="#211C21" opacity="0.078431375" transform="translate(108,62)"/>
<path d="M0,0 L1,0 L1,1 L0,1 Z " fill="#080808" opacity="0.28627452" transform="translate(107,62)"/>
<path d="M0,0 L1,0 L1,1 L0,1 Z " fill="#000000" opacity="0.19215687" transform="translate(83,62)"/>
<path d="M0,0 L1,0 L1,1 L0,1 Z " fill="#101010" opacity="0.30980393" transform="translate(55,62)"/>
<path d="M0,0 L1,0 L1,1 L0,1 Z " fill="#DEDFDE" opacity="0.85490197" transform="translate(42,62)"/>
<path d="M0,0 L1,0 L1,1 L0,1 Z " fill="#949694" opacity="0.5686275" transform="translate(41,62)"/>
<path d="M0,0 L1,0 L1,1 L0,1 Z " fill="#949394" opacity="0.42745098" transform="translate(39,62)"/>
<path d="M0,0 L1,0 L1,1 L0,1 Z " fill="#DEDBDE" opacity="0.7137255" transform="translate(38,62)"/>
<path d="M0,0 L1,0 L1,1 L0,1 Z " fill="#504E50" opacity="0.28627452" transform="translate(106,61)"/>
<path d="M0,0 L1,0 L1,1 L0,1 Z " fill="#000400" opacity="0.29803923" transform="translate(84,61)"/>
<path d="M0,0 L1,0 L1,1 L0,1 Z " fill="#4A4A4A" opacity="0.41960785" transform="translate(56,61)"/>
<path d="M0,0 L1,0 L1,1 L0,1 Z " fill="#DEDFDE" opacity="0.8627451" transform="translate(55,61)"/>
<path d="M0,0 L1,0 L1,1 L0,1 Z " fill="#949694" opacity="0.5686275" transform="translate(43,61)"/>
<path d="M0,0 L1,0 L1,1 L0,1 Z " fill="#000400" opacity="0.28627452" transform="translate(42,61)"/>
<path d="M0,0 L1,0 L1,1 L0,1 Z " fill="#000400" opacity="0.28627452" transform="translate(38,61)"/>
<path d="M0,0 L1,0 L1,1 L0,1 Z " fill="#979497" opacity="0.5686275" transform="translate(104,60)"/>
<path d="M0,0 L1,0 L1,1 L0,1 Z " fill="#DEDFDE" opacity="0.85882354" transform="translate(87,60)"/>
<path d="M0,0 L1,0 L1,1 L0,1 Z " fill="#4A4D4A" opacity="0.4392157" transform="translate(86,60)"/>
<path d="M0,0 L1,0 L1,1 L0,1 Z " fill="#000400" opacity="0.019607844" transform="translate(84,60)"/>
<path d="M0,0 L1,0 L1,1 L0,1 Z " fill="#000000" opacity="0.13725491" transform="translate(59,60)"/>
<path d="M0,0 L1,0 L1,1 L0,1 Z " fill="#949494" opacity="0.56078434" transform="translate(57,60)"/>
<path d="M0,0 L1,0 L1,1 L0,1 Z " fill="#DEDFDE" opacity="0.98039216" transform="translate(56,60)"/>
<path d="M0,0 L1,0 L1,1 L0,1 Z " fill="#8C8E8C" opacity="0.49411765" transform="translate(44,60)"/>
<path d="M0,0 L1,0 L1,1 L0,1 Z " fill="#000400" opacity="0.14117648" transform="translate(37,60)"/>
<path d="M0,0 L1,0 L1,1 L0,1 Z " fill="#E1E0E1" opacity="0.972549" transform="translate(35,60)"/>
<path d="M0,0 L1,0 L1,1 L0,1 Z " fill="#000000" opacity="0.03137255" transform="translate(105,59)"/>
<path d="M0,0 L1,0 L1,1 L0,1 Z " fill="#4A4D4A" opacity="0.42745098" transform="translate(103,59)"/>
<path d="M0,0 L1,0 L1,1 L0,1 Z " fill="#DEDFDE" opacity="0.7137255" transform="translate(102,59)"/>
<path d="M0,0 L1,0 L1,1 L0,1 Z " fill="#8F8F8F" opacity="0.5686275" transform="translate(88,59)"/>
<path d="M0,0 L1,0 L1,1 L0,1 Z " fill="#000000" opacity="0.12941177" transform="translate(86,59)"/>
<path d="M0,0 L1,0 L1,1 L0,1 Z " fill="#555555" opacity="0.44313726" transform="translate(59,59)"/>
<path d="M0,0 L1,0 L1,1 L0,1 Z " fill="#DEDFDE" opacity="0.7137255" transform="translate(45,59)"/>
<path d="M0,0 L1,0 L1,1 L0,1 Z " fill="#000000" opacity="0.28627452" transform="translate(44,59)"/>
<path d="M0,0 L1,0 L1,1 L0,1 Z " fill="#000000" opacity="0.007843138" transform="translate(43,59)"/>
<path d="M0,0 L1,0 L1,1 L0,1 Z " fill="#000000" opacity="0.18431373" transform="translate(36,59)"/>
<path d="M0,0 L1,0 L1,1 L0,1 Z " fill="#9A9A9A" opacity="0.5803922" transform="translate(35,59)"/>
<path d="M0,0 L1,0 L1,1 L0,1 Z " fill="#000400" opacity="0.28627452" transform="translate(102,58)"/>
<path d="M0,0 L1,0 L1,1 L0,1 Z " fill="#949694" opacity="0.5686275" transform="translate(100,58)"/>
<path d="M0,0 L1,0 L1,1 L0,1 Z " fill="#DEDFDE" opacity="0.85490197" transform="translate(99,58)"/>
<path d="M0,0 L1,0 L1,1 L0,1 Z " fill="#8F8F8F" opacity="0.42745098" transform="translate(90,58)"/>
<path d="M0,0 L1,0 L1,1 L0,1 Z " fill="#000000" opacity="0.28627452" transform="translate(89,58)"/>
<path d="M0,0 L1,0 L1,1 L0,1 Z " fill="#000000" opacity="0.043137256" transform="translate(87,58)"/>
<path d="M0,0 L1,0 L1,1 L0,1 Z " fill="#000000" opacity="0.05490196" transform="translate(76,58)"/>
<path d="M0,0 L1,0 L1,1 L0,1 Z " fill="#000000" opacity="0.28627452" transform="translate(75,58)"/>
<path d="M0,0 L1,0 L1,1 L0,1 Z " fill="#080808" opacity="0.023529412" transform="translate(60,58)"/>
<path d="M0,0 L1,0 L1,1 L0,1 Z " fill="#101010" opacity="0.30588236" transform="translate(59,58)"/>
<path d="M0,0 L1,0 L1,1 L0,1 Z " fill="#4A4A4A" opacity="0.28627452" transform="translate(45,58)"/>
<path d="M0,0 L1,0 L1,1 L0,1 Z " fill="#101010" opacity="0.3019608" transform="translate(35,58)"/>
<path d="M0,0 L1,0 L1,1 L0,1 Z " fill="#4A4D4A" opacity="0.42745098" transform="translate(96,57)"/>
<path d="M0,0 L1,0 L1,1 L0,1 Z " fill="#4A4A4A" opacity="0.28627452" transform="translate(93,57)"/>
<path d="M0,0 L1,0 L1,1 L0,1 Z " fill="#000000" opacity="0.28627452" transform="translate(92,57)"/>
<path d="M0,0 L1,0 L1,1 L0,1 Z " fill="#000000" opacity="0.14117648" transform="translate(90,57)"/>
<path d="M0,0 L1,0 L1,1 L0,1 Z " fill="#373937" opacity="0.05490196" transform="translate(76,57)"/>
<path d="M0,0 L1,0 L1,1 L0,1 Z " fill="#DEDFDE" opacity="0.7137255" transform="translate(74,57)"/>
<path d="M0,0 L1,0 L1,1 L0,1 Z " fill="#949494" opacity="0.5686275" transform="translate(72,57)"/>
<path d="M0,0 L1,0 L1,1 L0,1 Z " fill="#454345" opacity="0.42745098" transform="translate(70,57)"/>
<path d="M0,0 L1,0 L1,1 L0,1 Z " fill="#9A9A9A" opacity="0.44313726" transform="translate(58,57)"/>
<path d="M0,0 L1,0 L1,1 L0,1 Z " fill="#949494" opacity="0.7137255" transform="translate(46,57)"/>
<path d="M0,0 L1,0 L1,1 L0,1 Z " fill="#9A9A9A" opacity="0.4392157" transform="translate(34,57)"/>
<path d="M0,0 L1,0 L1,1 L0,1 Z " fill="#000000" opacity="0.14117648" transform="translate(95,56)"/>
<path d="M0,0 L1,0 L1,1 L0,1 Z " fill="#525552" opacity="0.05490196" transform="translate(76,56)"/>
<path d="M0,0 L1,0 L1,1 L0,1 Z " fill="#CECACE" transform="translate(71,56)"/>
<path d="M0,0 L1,0 L1,1 L0,1 Z " fill="#101010" opacity="0.30588236" transform="translate(58,56)"/>
<path d="M0,0 L1,0 L1,1 L0,1 Z " fill="#4A4A4A" opacity="0.42745098" transform="translate(46,56)"/>
<path d="M0,0 L1,0 L1,1 L0,1 Z " fill="#101010" opacity="0.3019608" transform="translate(34,56)"/>
<path d="M0,0 L1,0 L1,1 L0,1 Z " fill="#000000" opacity="0.28627452" transform="translate(58,55)"/>
<path d="M0,0 L1,0 L1,1 L0,1 Z " fill="#D6DBD6" opacity="0.7137255" transform="translate(57,55)"/>
<path d="M0,0 L1,0 L1,1 L0,1 Z " fill="#000400" opacity="0.28627452" transform="translate(34,55)"/>
<path d="M0,0 L1,0 L1,1 L0,1 Z " fill="#DEDFDE" opacity="0.7137255" transform="translate(33,55)"/>
<path d="M0,0 L1,0 L1,1 L0,1 Z " fill="#E6E3E6" opacity="0.69411767" transform="translate(71,54)"/>
<path d="M0,0 L1,0 L1,1 L0,1 Z " fill="#8F928F" opacity="0.5686275" transform="translate(57,54)"/>
<path d="M0,0 L1,0 L1,1 L0,1 Z " fill="#DEE3DE" opacity="0.80784315" transform="translate(47,54)"/>
<path d="M0,0 L1,0 L1,1 L0,1 Z " fill="#9C989C" opacity="0.69411767" transform="translate(71,53)"/>
<path d="M0,0 L1,0 L1,1 L0,1 Z " fill="#949694" opacity="0.42745098" transform="translate(33,53)"/>
<path d="M0,0 L1,0 L1,1 L0,1 Z " fill="#9C989C" opacity="0.5529412" transform="translate(71,52)"/>
<path d="M0,0 L1,0 L1,1 L0,1 Z " fill="#949894" opacity="0.5372549" transform="translate(47,52)"/>
<path d="M0,0 L1,0 L1,1 L0,1 Z " fill="#949694" opacity="0.42745098" transform="translate(57,49)"/>
<path d="M0,0 L1,0 L1,1 L0,1 Z " fill="#949694" opacity="0.42745098" transform="translate(33,49)"/>
<path d="M0,0 L1,0 L1,1 L0,1 Z " fill="#A5A6A5" opacity="0.65882355" transform="translate(71,48)"/>
<path d="M0,0 L1,0 L1,1 L0,1 Z " fill="#A5A6A5" opacity="0.65882355" transform="translate(47,48)"/>
<path d="M0,0 L1,0 L1,1 L0,1 Z " fill="#E1E0E1" transform="translate(8,48)"/>
<path d="M0,0 L1,0 L1,1 L0,1 Z " fill="#D6D7D6" opacity="0.85490197" transform="translate(71,47)"/>
<path d="M0,0 L1,0 L1,1 L0,1 Z " fill="#949794" opacity="0.5686275" transform="translate(57,47)"/>
<path d="M0,0 L1,0 L1,1 L0,1 Z " fill="#DEE3DE" transform="translate(56,47)"/>
<path d="M0,0 L1,0 L1,1 L0,1 Z " fill="#D6D7D6" opacity="0.85490197" transform="translate(47,47)"/>
<path d="M0,0 L1,0 L1,1 L0,1 Z " fill="#949794" opacity="0.5686275" transform="translate(33,47)"/>
<path d="M0,0 L1,0 L1,1 L0,1 Z " fill="#DEE3DE" transform="translate(32,47)"/>
<path d="M0,0 L1,0 L1,1 L0,1 Z " fill="#3A393A" opacity="0.03529412" transform="translate(76,46)"/>
<path d="M0,0 L1,0 L1,1 L0,1 Z " fill="#505250" opacity="0.3019608" transform="translate(75,46)"/>
<path d="M0,0 L1,0 L1,1 L0,1 Z " fill="#000000" opacity="0.28627452" transform="translate(58,46)"/>
<path d="M0,0 L1,0 L1,1 L0,1 Z " fill="#DEE3DE" opacity="0.85490197" transform="translate(57,46)"/>
<path d="M0,0 L1,0 L1,1 L0,1 Z " fill="#000000" opacity="0.28627452" transform="translate(34,46)"/>
<path d="M0,0 L1,0 L1,1 L0,1 Z " fill="#DEE3DE" opacity="0.85490197" transform="translate(33,46)"/>
<path d="M0,0 L1,0 L1,1 L0,1 Z " fill="#DBDCDB" opacity="0.95686275" transform="translate(8,46)"/>
<path d="M0,0 L1,0 L1,1 L0,1 Z " fill="#8F8F8F" opacity="0.42745098" transform="translate(70,45)"/>
<path d="M0,0 L1,0 L1,1 L0,1 Z " fill="#8F8F8F" opacity="0.42745098" transform="translate(46,45)"/>
<path d="M0,0 L1,0 L1,1 L0,1 Z " fill="#000000" opacity="0.2509804" transform="translate(7,45)"/>
<path d="M0,0 L1,0 L1,1 L0,1 Z " fill="#080808" opacity="0.007843138" transform="translate(76,44)"/>
<path d="M0,0 L1,0 L1,1 L0,1 Z " fill="#D6D7D6" opacity="0.7137255" transform="translate(70,44)"/>
<path d="M0,0 L1,0 L1,1 L0,1 Z " fill="#000000" opacity="0.28627452" transform="translate(69,44)"/>
<path d="M0,0 L1,0 L1,1 L0,1 Z " fill="#949794" opacity="0.5686275" transform="translate(58,44)"/>
<path d="M0,0 L1,0 L1,1 L0,1 Z " fill="#D6D7D6" opacity="0.7137255" transform="translate(46,44)"/>
<path d="M0,0 L1,0 L1,1 L0,1 Z " fill="#000000" opacity="0.28627452" transform="translate(45,44)"/>
<path d="M0,0 L1,0 L1,1 L0,1 Z " fill="#949794" opacity="0.5686275" transform="translate(34,44)"/>
<path d="M0,0 L1,0 L1,1 L0,1 Z " fill="#D6D7D6" opacity="0.84705883" transform="translate(8,44)"/>
<path d="M0,0 L1,0 L1,1 L0,1 Z " fill="#555255" opacity="0.3529412" transform="translate(69,43)"/>
<path d="M0,0 L1,0 L1,1 L0,1 Z " fill="#292429" opacity="0.3137255" transform="translate(59,43)"/>
<path d="M0,0 L1,0 L1,1 L0,1 Z " fill="#DEDFDE" opacity="0.9019608" transform="translate(58,43)"/>
<path d="M0,0 L1,0 L1,1 L0,1 Z " fill="#555255" opacity="0.3529412" transform="translate(45,43)"/>
<path d="M0,0 L1,0 L1,1 L0,1 Z " fill="#292429" opacity="0.3137255" transform="translate(35,43)"/>
<path d="M0,0 L1,0 L1,1 L0,1 Z " fill="#DEDFDE" opacity="0.9019608" transform="translate(34,43)"/>
<path d="M0,0 L1,0 L1,1 L0,1 Z " fill="#B2B6B2" opacity="0.73333335" transform="translate(8,43)"/>
<path d="M0,0 L1,0 L1,1 L0,1 Z " fill="#000000" opacity="0.21176471" transform="translate(7,43)"/>
<path d="M0,0 L1,0 L1,1 L0,1 Z " fill="#DEDFDE" opacity="0.74509805" transform="translate(74,42)"/>
<path d="M0,0 L1,0 L1,1 L0,1 Z " fill="#DEDFDE" opacity="0.7411765" transform="translate(69,42)"/>
<path d="M0,0 L1,0 L1,1 L0,1 Z " fill="#100C10" opacity="0.22745098" transform="translate(68,42)"/>
<path d="M0,0 L1,0 L1,1 L0,1 Z " fill="#A2A1A2" opacity="0.60784316" transform="translate(59,42)"/>
<path d="M0,0 L1,0 L1,1 L0,1 Z " fill="#DEDFDE" opacity="0.7411765" transform="translate(45,42)"/>
<path d="M0,0 L1,0 L1,1 L0,1 Z " fill="#100C10" opacity="0.22745098" transform="translate(44,42)"/>
<path d="M0,0 L1,0 L1,1 L0,1 Z " fill="#A2A1A2" opacity="0.60784316" transform="translate(35,42)"/>
<path d="M0,0 L1,0 L1,1 L0,1 Z " fill="#9A989A" opacity="0.6117647" transform="translate(68,41)"/>
<path d="M0,0 L1,0 L1,1 L0,1 Z " fill="#000000" opacity="0.29803923" transform="translate(67,41)"/>
<path d="M0,0 L1,0 L1,1 L0,1 Z " fill="#949894" opacity="0.42745098" transform="translate(60,41)"/>
<path d="M0,0 L1,0 L1,1 L0,1 Z " fill="#9A989A" opacity="0.6117647" transform="translate(44,41)"/>
<path d="M0,0 L1,0 L1,1 L0,1 Z " fill="#000000" opacity="0.29803923" transform="translate(43,41)"/>
<path d="M0,0 L1,0 L1,1 L0,1 Z " fill="#949894" opacity="0.42745098" transform="translate(36,41)"/>
<path d="M0,0 L1,0 L1,1 L0,1 Z " fill="#868A86" opacity="0.4627451" transform="translate(8,41)"/>
<path d="M0,0 L1,0 L1,1 L0,1 Z " fill="#000000" opacity="0.12156863" transform="translate(7,41)"/>
<path d="M0,0 L1,0 L1,1 L0,1 Z " fill="#949494" opacity="0.49019608" transform="translate(74,40)"/>
<path d="M0,0 L1,0 L1,1 L0,1 Z " fill="#ADB2AD" opacity="0.69411767" transform="translate(67,40)"/>
<path d="M0,0 L1,0 L1,1 L0,1 Z " fill="#3A3B3A" opacity="0.29803923" transform="translate(66,40)"/>
<path d="M0,0 L1,0 L1,1 L0,1 Z " fill="#000000" opacity="0.19607843" transform="translate(65,40)"/>
<path d="M0,0 L1,0 L1,1 L0,1 Z " fill="#000400" opacity="0.14117648" transform="translate(63,40)"/>
<path d="M0,0 L1,0 L1,1 L0,1 Z " fill="#949894" opacity="0.5686275" transform="translate(61,40)"/>
<path d="M0,0 L1,0 L1,1 L0,1 Z " fill="#DEE3DE" transform="translate(60,40)"/>
<path d="M0,0 L1,0 L1,1 L0,1 Z " fill="#DEDFDE" transform="translate(56,40)"/>
<path d="M0,0 L1,0 L1,1 L0,1 Z " fill="#ADB2AD" opacity="0.69411767" transform="translate(43,40)"/>
<path d="M0,0 L1,0 L1,1 L0,1 Z " fill="#3A3B3A" opacity="0.29803923" transform="translate(42,40)"/>
<path d="M0,0 L1,0 L1,1 L0,1 Z " fill="#000000" opacity="0.19607843" transform="translate(41,40)"/>
<path d="M0,0 L1,0 L1,1 L0,1 Z " fill="#000400" opacity="0.14117648" transform="translate(39,40)"/>
<path d="M0,0 L1,0 L1,1 L0,1 Z " fill="#949894" opacity="0.5686275" transform="translate(37,40)"/>
<path d="M0,0 L1,0 L1,1 L0,1 Z " fill="#DEE3DE" transform="translate(36,40)"/>
<path d="M0,0 L1,0 L1,1 L0,1 Z " fill="#DEDFDE" transform="translate(32,40)"/>
<path d="M0,0 L1,0 L1,1 L0,1 Z " fill="#525152" opacity="0.05882353" transform="translate(7,40)"/>
<path d="M0,0 L1,0 L1,1 L0,1 Z " fill="#4A4A4A" opacity="0.28627452" transform="translate(74,39)"/>
<path d="M0,0 L1,0 L1,1 L0,1 Z " fill="#DEDFDE" opacity="0.9411765" transform="translate(66,39)"/>
<path d="M0,0 L1,0 L1,1 L0,1 Z " fill="#BDBCBD" opacity="0.7019608" transform="translate(65,39)"/>
<path d="M0,0 L1,0 L1,1 L0,1 Z " fill="#B5BAB5" opacity="0.654902" transform="translate(63,39)"/>
<path d="M0,0 L1,0 L1,1 L0,1 Z " fill="#DEDFDE" opacity="0.9019608" transform="translate(62,39)"/>
<path d="M0,0 L1,0 L1,1 L0,1 Z " fill="#DEDFDE" opacity="0.9411765" transform="translate(42,39)"/>
<path d="M0,0 L1,0 L1,1 L0,1 Z " fill="#BDBCBD" opacity="0.7019608" transform="translate(41,39)"/>
<path d="M0,0 L1,0 L1,1 L0,1 Z " fill="#B5BAB5" opacity="0.654902" transform="translate(39,39)"/>
<path d="M0,0 L1,0 L1,1 L0,1 Z " fill="#DEDFDE" opacity="0.9019608" transform="translate(38,39)"/>
<path d="M0,0 L1,0 L1,1 L0,1 Z " fill="#DEDBDE" opacity="0.85882354" transform="translate(9,39)"/>
<path d="M0,0 L1,0 L1,1 L0,1 Z " fill="#080808" opacity="0.29411766" transform="translate(8,39)"/>
<path d="M0,0 L1,0 L1,1 L0,1 Z " fill="#DEDFDE" opacity="0.85490197" transform="translate(73,38)"/>
<path d="M0,0 L1,0 L1,1 L0,1 Z " fill="#080808" opacity="0.15686275" transform="translate(8,38)"/>
<path d="M0,0 L1,0 L1,1 L0,1 Z " fill="#000000" opacity="0.14117648" transform="translate(74,37)"/>
<path d="M0,0 L1,0 L1,1 L0,1 Z " fill="#979497" opacity="0.43529412" transform="translate(9,37)"/>
<path d="M0,0 L1,0 L1,1 L0,1 Z " fill="#4A4A4A" opacity="0.42745098" transform="translate(73,36)"/>
<path d="M0,0 L1,0 L1,1 L0,1 Z " fill="#080808" opacity="0.015686275" transform="translate(8,36)"/>
<path d="M0,0 L1,0 L1,1 L0,1 Z " fill="#DEDFDE" transform="translate(11,35)"/>
<path d="M0,0 L1,0 L1,1 L0,1 Z " fill="#949494" opacity="0.5686275" transform="translate(10,35)"/>
<path d="M0,0 L1,0 L1,1 L0,1 Z " fill="#000000" opacity="0.14117648" transform="translate(9,35)"/>
<path d="M0,0 L1,0 L1,1 L0,1 Z " fill="#000000" opacity="0.10980392" transform="translate(73,34)"/>
<path d="M0,0 L1,0 L1,1 L0,1 Z " fill="#848484" opacity="0.44313726" transform="translate(72,34)"/>
<path d="M0,0 L1,0 L1,1 L0,1 Z " fill="#4A4A4A" opacity="0.14117648" transform="translate(9,34)"/>
<path d="M0,0 L1,0 L1,1 L0,1 Z " fill="#000000" opacity="0.22352941" transform="translate(72,33)"/>
<path d="M0,0 L1,0 L1,1 L0,1 Z " fill="#DEDFDE" opacity="0.7137255" transform="translate(11,33)"/>
<path d="M0,0 L1,0 L1,1 L0,1 Z " fill="#000000" opacity="0.10980392" transform="translate(72,32)"/>
<path d="M0,0 L1,0 L1,1 L0,1 Z " fill="#848284" opacity="0.4745098" transform="translate(71,32)"/>
<path d="M0,0 L1,0 L1,1 L0,1 Z " fill="#E1E0E1" transform="translate(12,32)"/>
<path d="M0,0 L1,0 L1,1 L0,1 Z " fill="#4A4A4A" opacity="0.42745098" transform="translate(11,32)"/>
<path d="M0,0 L1,0 L1,1 L0,1 Z " fill="#000000" opacity="0.14117648" transform="translate(10,32)"/>
<path d="M0,0 L1,0 L1,1 L0,1 Z " fill="#000400" opacity="0.28627452" transform="translate(71,31)"/>
<path d="M0,0 L1,0 L1,1 L0,1 Z " fill="#DEDBDE" opacity="0.85490197" transform="translate(70,31)"/>
<path d="M0,0 L1,0 L1,1 L0,1 Z " fill="#979B97" opacity="0.57254905" transform="translate(12,31)"/>
<path d="M0,0 L1,0 L1,1 L0,1 Z " fill="#000000" opacity="0.22745098" transform="translate(11,31)"/>
<path d="M0,0 L1,0 L1,1 L0,1 Z " fill="#4A4C4A" opacity="0.42745098" transform="translate(70,30)"/>
<path d="M0,0 L1,0 L1,1 L0,1 Z " fill="#DEE3DE" opacity="0.85882354" transform="translate(13,30)"/>
<path d="M0,0 L1,0 L1,1 L0,1 Z " fill="#212021" opacity="0.0627451" transform="translate(11,30)"/>
<path d="M0,0 L1,0 L1,1 L0,1 Z " fill="#949394" opacity="0.5686275" transform="translate(69,29)"/>
<path d="M0,0 L1,0 L1,1 L0,1 Z " fill="#979B97" opacity="0.43137255" transform="translate(13,29)"/>
<path d="M0,0 L1,0 L1,1 L0,1 Z " fill="#000400" opacity="0.28627452" transform="translate(69,28)"/>
<path d="M0,0 L1,0 L1,1 L0,1 Z " fill="#DEDBDE" opacity="0.7137255" transform="translate(68,28)"/>
<path d="M0,0 L1,0 L1,1 L0,1 Z " fill="#E1E0E1" transform="translate(16,28)"/>
<path d="M0,0 L1,0 L1,1 L0,1 Z " fill="#979B97" opacity="0.57254905" transform="translate(14,28)"/>
<path d="M0,0 L1,0 L1,1 L0,1 Z " fill="#080C08" opacity="0.2901961" transform="translate(13,28)"/>
<path d="M0,0 L1,0 L1,1 L0,1 Z " fill="#080C08" opacity="0.007843138" transform="translate(12,28)"/>
<path d="M0,0 L1,0 L1,1 L0,1 Z " fill="#313131" opacity="0.09411765" transform="translate(69,27)"/>
<path d="M0,0 L1,0 L1,1 L0,1 Z " fill="#DEDFDE" opacity="0.85490197" transform="translate(67,27)"/>
<path d="M0,0 L1,0 L1,1 L0,1 Z " fill="#CECECE" opacity="0.80784315" transform="translate(15,27)"/>
<path d="M0,0 L1,0 L1,1 L0,1 Z " fill="#000000" opacity="0.34509805" transform="translate(14,27)"/>
<path d="M0,0 L1,0 L1,1 L0,1 Z " fill="#000000" opacity="0.14117648" transform="translate(68,26)"/>
<path d="M0,0 L1,0 L1,1 L0,1 Z " fill="#454545" opacity="0.34509805" transform="translate(15,26)"/>
<path d="M0,0 L1,0 L1,1 L0,1 Z " fill="#979797" opacity="0.42745098" transform="translate(65,24)"/>
<path d="M0,0 L1,0 L1,1 L0,1 Z " fill="#000000" opacity="0.14901961" transform="translate(16,24)"/>
<path d="M0,0 L1,0 L1,1 L0,1 Z " fill="#636163" opacity="0.40784314" transform="translate(64,23)"/>
<path d="M0,0 L1,0 L1,1 L0,1 Z " fill="#D6DBD6" transform="translate(63,23)"/>
<path d="M0,0 L1,0 L1,1 L0,1 Z " fill="#CECACE" opacity="0.85490197" transform="translate(19,23)"/>
<path d="M0,0 L1,0 L1,1 L0,1 Z " fill="#474C47" opacity="0.42745098" transform="translate(63,22)"/>
<path d="M0,0 L1,0 L1,1 L0,1 Z " fill="#D6DBD6" opacity="0.85490197" transform="translate(62,22)"/>
<path d="M0,0 L1,0 L1,1 L0,1 Z " fill="#DEDFDE" opacity="0.72156864" transform="translate(20,22)"/>
<path d="M0,0 L1,0 L1,1 L0,1 Z " fill="#000400" opacity="0.14117648" transform="translate(63,21)"/>
<path d="M0,0 L1,0 L1,1 L0,1 Z " fill="#D6DBD6" opacity="0.7137255" transform="translate(61,21)"/>
<path d="M0,0 L1,0 L1,1 L0,1 Z " fill="#979797" opacity="0.5803922" transform="translate(21,21)"/>
<path d="M0,0 L1,0 L1,1 L0,1 Z " fill="#080808" opacity="0.30588236" transform="translate(20,21)"/>
<path d="M0,0 L1,0 L1,1 L0,1 Z " fill="#8F938F" opacity="0.42745098" transform="translate(60,20)"/>
<path d="M0,0 L1,0 L1,1 L0,1 Z " fill="#DEDBDE" opacity="0.90588236" transform="translate(59,20)"/>
<path d="M0,0 L1,0 L1,1 L0,1 Z " fill="#DEDFDE" opacity="0.85882354" transform="translate(23,20)"/>
<path d="M0,0 L1,0 L1,1 L0,1 Z " fill="#505050" opacity="0.44313726" transform="translate(22,20)"/>
<path d="M0,0 L1,0 L1,1 L0,1 Z " fill="#080808" opacity="0.02745098" transform="translate(20,20)"/>
<path d="M0,0 L1,0 L1,1 L0,1 Z " fill="#000400" opacity="0.28627452" transform="translate(59,19)"/>
<path d="M0,0 L1,0 L1,1 L0,1 Z " fill="#9A9E9A" opacity="0.5686275" transform="translate(58,19)"/>
<path d="M0,0 L1,0 L1,1 L0,1 Z " fill="#949494" opacity="0.5686275" transform="translate(24,19)"/>
<path d="M0,0 L1,0 L1,1 L0,1 Z " fill="#000000" opacity="0.12156863" transform="translate(22,19)"/>
<path d="M0,0 L1,0 L1,1 L0,1 Z " fill="#000400" opacity="0.14117648" transform="translate(58,18)"/>
<path d="M0,0 L1,0 L1,1 L0,1 Z " fill="#9A9E9A" opacity="0.5686275" transform="translate(56,18)"/>
<path d="M0,0 L1,0 L1,1 L0,1 Z " fill="#949494" opacity="0.5686275" transform="translate(26,18)"/>
<path d="M0,0 L1,0 L1,1 L0,1 Z " fill="#4A4A4A" opacity="0.28627452" transform="translate(25,18)"/>
<path d="M0,0 L1,0 L1,1 L0,1 Z " fill="#000000" opacity="0.039215688" transform="translate(23,18)"/>
<path d="M0,0 L1,0 L1,1 L0,1 Z " fill="#000400" opacity="0.14117648" transform="translate(56,17)"/>
<path d="M0,0 L1,0 L1,1 L0,1 Z " fill="#949494" opacity="0.5921569" transform="translate(54,17)"/>
<path d="M0,0 L1,0 L1,1 L0,1 Z " fill="#DEDFDE" opacity="0.8627451" transform="translate(53,17)"/>
<path d="M0,0 L1,0 L1,1 L0,1 Z " fill="#949494" opacity="0.5137255" transform="translate(28,17)"/>
<path d="M0,0 L1,0 L1,1 L0,1 Z " fill="#000000" opacity="0.14117648" transform="translate(26,17)"/>
<path d="M0,0 L1,0 L1,1 L0,1 Z " fill="#000000" opacity="0.18039216" transform="translate(54,16)"/>
<path d="M0,0 L1,0 L1,1 L0,1 Z " fill="#4A4A4A" opacity="0.45490196" transform="translate(52,16)"/>
<path d="M0,0 L1,0 L1,1 L0,1 Z " fill="#ADB2AD" opacity="0.6156863" transform="translate(51,16)"/>
<path d="M0,0 L1,0 L1,1 L0,1 Z " fill="#CED0CE" opacity="0.8352941" transform="translate(50,16)"/>
<path d="M0,0 L1,0 L1,1 L0,1 Z " fill="#DEDFDE" opacity="0.96862745" transform="translate(33,16)"/>
<path d="M0,0 L1,0 L1,1 L0,1 Z " fill="#949494" opacity="0.63529414" transform="translate(31,16)"/>
<path d="M0,0 L1,0 L1,1 L0,1 Z " fill="#4A4A4A" opacity="0.39215687" transform="translate(30,16)"/>
<path d="M0,0 L1,0 L1,1 L0,1 Z " fill="#000000" opacity="0.15294118" transform="translate(28,16)"/>
<path d="M0,0 L1,0 L1,1 L0,1 Z " fill="#000000" opacity="0.19215687" transform="translate(51,15)"/>
<path d="M0,0 L1,0 L1,1 L0,1 Z " fill="#262726" opacity="0.31764707" transform="translate(49,15)"/>
<path d="M0,0 L1,0 L1,1 L0,1 Z " fill="#898A89" opacity="0.49803922" transform="translate(47,15)"/>
<path d="M0,0 L1,0 L1,1 L0,1 Z " fill="#CECECE" opacity="0.61960787" transform="translate(46,15)"/>
<path d="M0,0 L1,0 L1,1 L0,1 Z " fill="#CECECE" opacity="0.87058824" transform="translate(44,15)"/>
<path d="M0,0 L1,0 L1,1 L0,1 Z " fill="#DEDBDE" opacity="0.8509804" transform="translate(43,15)"/>
<path d="M0,0 L1,0 L1,1 L0,1 Z " fill="#DEDBDE" opacity="0.90588236" transform="translate(39,15)"/>
<path d="M0,0 L1,0 L1,1 L0,1 Z " fill="#DEDBDE" opacity="0.7764706" transform="translate(37,15)"/>
<path d="M0,0 L1,0 L1,1 L0,1 Z " fill="#949294" opacity="0.64705884" transform="translate(36,15)"/>
<path d="M0,0 L1,0 L1,1 L0,1 Z " fill="#686968" opacity="0.45882353" transform="translate(34,15)"/>
<path d="M0,0 L1,0 L1,1 L0,1 Z " fill="#000000" opacity="0.22745098" transform="translate(32,15)"/>
<path d="M0,0 L1,0 L1,1 L0,1 Z " fill="#000000" opacity="0.06666667" transform="translate(30,15)"/>
<path d="M0,0 L1,0 L1,1 L0,1 Z " fill="#000000" opacity="0.0627451" transform="translate(48,14)"/>
<path d="M0,0 L1,0 L1,1 L0,1 Z " fill="#000000" opacity="0.12941177" transform="translate(36,14)"/>
<path d="M0,0 L1,0 L1,1 L0,1 Z " fill="#000000" opacity="0.07450981" transform="translate(34,14)"/>
</svg>
