<?xml version="1.0" encoding="UTF-8"?>
<!-- Generator: visioncortex VTracer 0.6.4 -->
<svg version="1.1" xmlns="http://www.w3.org/2000/svg" width="24" height="24">
<path d="M0,0 L6,0 L6,1 L7,1 L7,7 L6,7 L6,8 L0,8 Z " fill="#8EEF97" transform="translate(2,8)"/>
<path d="M0,0 L6,0 L6,6 L5,6 L5,7 L1,7 L1,6 L0,6 L0,5 L-1,5 L-1,1 L0,1 Z " fill="#8EEF97" transform="translate(16,2)"/>
<path d="M0,0 L4,0 L4,1 L5,1 L5,7 L-1,7 L-1,6 L-2,6 L-2,2 L-1,2 L-1,1 L0,1 Z " fill="#8EEF97" transform="translate(17,15)"/>
<path d="M0,0 L4,0 L4,1 L0,1 Z " fill="#8EF098" opacity="0.5019608" transform="translate(3,16)"/>
<path d="M0,0 L1,0 L1,1 L2,1 L2,3 L1,3 L1,2 L0,2 Z " fill="#8EEF97" transform="translate(11,14)"/>
<path d="M0,0 L2,0 L2,2 L0,2 Z " fill="#8EEF97" transform="translate(11,7)"/>
<path d="M0,0 L4,0 L4,1 L0,1 Z " fill="#8EF098" opacity="0.5019608" transform="translate(17,1)"/>
<path d="M0,0 L1,0 L1,4 L0,4 Z " fill="#8EF098" opacity="0.5019608" transform="translate(22,17)"/>
<path d="M0,0 L4,0 L4,1 L0,1 Z " fill="#8EF098" opacity="0.5019608" transform="translate(3,7)"/>
<path d="M0,0 L1,0 L1,1 L0,1 Z " fill="#8EEF96" opacity="0.49411765" transform="translate(13,17)"/>
<path d="M0,0 L1,0 L1,6 L0,6 Z " fill="#8EF098" opacity="0.5019608" transform="translate(1,9)"/>
<path d="M0,0 L1,0 L1,1 L0,1 Z " fill="#8FEF97" opacity="0.49803922" transform="translate(13,6)"/>
<path d="M0,0 L4,0 L4,1 L0,1 Z " fill="#8EF098" opacity="0.5019608" transform="translate(17,22)"/>
<path d="M0,0 L1,0 L1,1 L0,1 Z M-1,1 L0,1 L0,2 L-1,2 Z M-2,2 L-1,2 L-1,3 L-2,3 Z " fill="#8EEF97" transform="translate(17,15)"/>
<path d="M0,0 L1,0 L1,4 L0,4 Z " fill="#8EF098" opacity="0.5019608" transform="translate(22,3)"/>
<path d="M0,0 L1,0 L1,1 L0,1 Z " fill="#8DF096" opacity="0.6392157" transform="translate(10,15)"/>
<path d="M0,0 L1,0 L1,1 L0,1 Z " fill="#8DF096" opacity="0.6392157" transform="translate(10,8)"/>
<path d="M0,0 L1,0 L1,1 L0,1 Z M-1,1 L0,1 L0,2 L-1,2 Z " fill="#8EEF96" opacity="0.9529412" transform="translate(16,15)"/>
<path d="M0,0 L1,0 L1,1 L0,1 Z " fill="#8EF097" opacity="0.7607843" transform="translate(13,8)"/>
<path d="M0,0 L1,0 L1,1 L0,1 Z M1,1 L2,1 L2,2 L1,2 Z " fill="#8DEF97" opacity="0.9490196" transform="translate(15,7)"/>
<path d="M0,0 L1,0 L1,1 L0,1 Z M-1,1 L0,1 L0,2 L-1,2 Z " fill="#8DEF97" opacity="0.29803923" transform="translate(2,7)"/>
<path d="M0,0 L1,0 L1,1 L0,1 Z M-1,1 L0,1 L0,2 L-1,2 Z " fill="#8EEF97" transform="translate(16,2)"/>
<path d="M0,0 L1,0 L1,1 L0,1 Z " fill="#8DF096" opacity="0.44705883" transform="translate(16,22)"/>
<path d="M0,0 L1,0 L1,1 L0,1 Z M-1,1 L0,1 L0,2 L-1,2 Z " fill="#8EF198" opacity="0.28235295" transform="translate(22,21)"/>
<path d="M0,0 L1,0 L1,1 L0,1 Z " fill="#8DEF97" opacity="0.6745098" transform="translate(12,17)"/>
<path d="M0,0 L1,0 L1,1 L0,1 Z " fill="#8DF096" opacity="0.44705883" transform="translate(22,16)"/>
<path d="M0,0 L1,0 L1,1 L0,1 Z " fill="#8EF198" opacity="0.28235295" transform="translate(2,16)"/>
<path d="M0,0 L1,0 L1,1 L0,1 Z " fill="#8EF097" opacity="0.7607843" transform="translate(13,15)"/>
<path d="M0,0 L1,0 L1,1 L0,1 Z " fill="#8DF097" opacity="0.19215687" transform="translate(11,13)"/>
<path d="M0,0 L1,0 L1,1 L0,1 Z " fill="#90EF96" opacity="0.18039216" transform="translate(11,10)"/>
<path d="M0,0 L1,0 L1,1 L0,1 Z " fill="#8DF096" opacity="0.69411767" transform="translate(12,6)"/>
<path d="M0,0 L1,0 L1,1 L0,1 Z " fill="#8EF198" opacity="0.28235295" transform="translate(22,2)"/>
<path d="M0,0 L1,0 L1,1 L0,1 Z " fill="#8EF097" opacity="0.4509804" transform="translate(16,1)"/>
<path d="M0,0 L1,0 L1,1 L0,1 Z " fill="#8AF595" opacity="0.09411765" transform="translate(15,22)"/>
<path d="M0,0 L1,0 L1,1 L0,1 Z " fill="#8EEF97" opacity="0.79607844" transform="translate(15,21)"/>
<path d="M0,0 L1,0 L1,1 L0,1 Z " fill="#8EEF96" opacity="0.02745098" transform="translate(13,18)"/>
<path d="M0,0 L1,0 L1,1 L0,1 Z " fill="#8DEF98" opacity="0.18431373" transform="translate(11,17)"/>
<path d="M0,0 L1,0 L1,1 L0,1 Z " fill="#8DEF96" opacity="0.53333336" transform="translate(13,16)"/>
<path d="M0,0 L1,0 L1,1 L0,1 Z " fill="#8EEF97" opacity="0.99607843" transform="translate(11,16)"/>
<path d="M0,0 L1,0 L1,1 L0,1 Z " fill="#8EEF96" opacity="0.6117647" transform="translate(10,16)"/>
<path d="M0,0 L1,0 L1,1 L0,1 Z " fill="#90F49B" opacity="0.09019608" transform="translate(8,16)"/>
<path d="M0,0 L1,0 L1,1 L0,1 Z " fill="#8DF096" opacity="0.44705883" transform="translate(7,16)"/>
<path d="M0,0 L1,0 L1,1 L0,1 Z " fill="#8FEE96" opacity="0.003921569" transform="translate(1,16)"/>
<path d="M0,0 L1,0 L1,1 L0,1 Z " fill="#8AF595" opacity="0.09411765" transform="translate(22,15)"/>
<path d="M0,0 L1,0 L1,1 L0,1 Z " fill="#8EEF97" opacity="0.79607844" transform="translate(21,15)"/>
<path d="M0,0 L1,0 L1,1 L0,1 Z " fill="#8DF096" opacity="0.44705883" transform="translate(15,15)"/>
<path d="M0,0 L1,0 L1,1 L0,1 Z " fill="#8EEF97" opacity="0.78431374" transform="translate(8,15)"/>
<path d="M0,0 L1,0 L1,1 L0,1 Z " fill="#8FEE96" opacity="0.29411766" transform="translate(1,15)"/>
<path d="M0,0 L1,0 L1,1 L0,1 Z " fill="#8FF099" opacity="0.19607843" transform="translate(13,14)"/>
<path d="M0,0 L1,0 L1,1 L0,1 Z " fill="#8DF096" opacity="0.69411767" transform="translate(12,14)"/>
<path d="M0,0 L1,0 L1,1 L0,1 Z " fill="#8EF098" opacity="0.5019608" transform="translate(10,14)"/>
<path d="M0,0 L1,0 L1,1 L0,1 Z " fill="#8EF198" opacity="0.28235295" transform="translate(10,13)"/>
<path d="M0,0 L1,0 L1,1 L0,1 Z " fill="#8EF195" opacity="0.27450982" transform="translate(10,10)"/>
<path d="M0,0 L1,0 L1,1 L0,1 Z " fill="#8DF097" opacity="0.19215687" transform="translate(13,9)"/>
<path d="M0,0 L1,0 L1,1 L0,1 Z " fill="#8DEF96" opacity="0.6862745" transform="translate(12,9)"/>
<path d="M0,0 L1,0 L1,1 L0,1 Z " fill="#8EEF97" opacity="0.99607843" transform="translate(11,9)"/>
<path d="M0,0 L1,0 L1,1 L0,1 Z " fill="#8EF098" opacity="0.5019608" transform="translate(10,9)"/>
<path d="M0,0 L1,0 L1,1 L0,1 Z " fill="#90F49B" opacity="0.09019608" transform="translate(22,8)"/>
<path d="M0,0 L1,0 L1,1 L0,1 Z " fill="#8EEF97" opacity="0.78431374" transform="translate(21,8)"/>
<path d="M0,0 L1,0 L1,1 L0,1 Z " fill="#8DF096" opacity="0.4392157" transform="translate(15,8)"/>
<path d="M0,0 L1,0 L1,1 L0,1 Z " fill="#8EEF97" opacity="0.78431374" transform="translate(8,8)"/>
<path d="M0,0 L1,0 L1,1 L0,1 Z " fill="#8DF096" opacity="0.44705883" transform="translate(22,7)"/>
<path d="M0,0 L1,0 L1,1 L0,1 Z " fill="#8DEF96" opacity="0.53333336" transform="translate(13,7)"/>
<path d="M0,0 L1,0 L1,1 L0,1 Z " fill="#8DEF97" opacity="0.62352943" transform="translate(10,7)"/>
<path d="M0,0 L1,0 L1,1 L0,1 Z " fill="#8FF599" opacity="0.09803922" transform="translate(8,7)"/>
<path d="M0,0 L1,0 L1,1 L0,1 Z " fill="#8DF096" opacity="0.44705883" transform="translate(7,7)"/>
<path d="M0,0 L1,0 L1,1 L0,1 Z " fill="#8DEF97" opacity="0.003921569" transform="translate(1,7)"/>
<path d="M0,0 L1,0 L1,1 L0,1 Z " fill="#8CF096" opacity="0.2" transform="translate(11,6)"/>
<path d="M0,0 L1,0 L1,1 L0,1 Z " fill="#8FEF97" opacity="0.03529412" transform="translate(13,5)"/>
<path d="M0,0 L1,0 L1,1 L0,1 Z " fill="#8EEF97" opacity="0.79607844" transform="translate(15,2)"/>
<path d="M0,0 L1,0 L1,1 L0,1 Z " fill="#8FEE96" opacity="0.003921569" transform="translate(22,1)"/>
<path d="M0,0 L1,0 L1,1 L0,1 Z " fill="#8FEE96" opacity="0.29411766" transform="translate(21,1)"/>
<path d="M0,0 L1,0 L1,1 L0,1 Z " fill="#89F693" opacity="0.101960786" transform="translate(15,1)"/>
</svg>
