<?xml version="1.0" encoding="UTF-8"?>
<!-- Generator: visioncortex VTracer 0.6.4 -->
<svg version="1.1" xmlns="http://www.w3.org/2000/svg" width="24" height="24">
<path d="M0,0 L14,0 L14,14 L0,14 Z " fill="#E0E0E0" transform="translate(5,5)"/>
<path d="M0,0 L1,0 L1,12 L0,12 Z " fill="#E0E0E0" opacity="0.5019608" transform="translate(4,6)"/>
<path d="M0,0 L12,0 L12,1 L0,1 Z " fill="#E0E0E0" opacity="0.5019608" transform="translate(6,4)"/>
<path d="M0,0 L1,0 L1,12 L0,12 Z " fill="#E0E0E0" opacity="0.5019608" transform="translate(19,6)"/>
<path d="M0,0 L12,0 L12,1 L0,1 Z " fill="#E0E0E0" opacity="0.5019608" transform="translate(6,19)"/>
<path d="M0,0 L1,0 L1,1 L0,1 Z M-1,1 L0,1 L0,2 L-1,2 Z " fill="#E1E1E1" opacity="0.29411766" transform="translate(19,18)"/>
<path d="M0,0 L1,0 L1,1 L0,1 Z M-1,1 L0,1 L0,2 L-1,2 Z " fill="#E2E2E2" opacity="0.3019608" transform="translate(5,4)"/>
<path d="M0,0 L1,0 L1,1 L0,1 Z " fill="#E1E1E1" opacity="0.29411766" transform="translate(5,19)"/>
<path d="M0,0 L1,0 L1,1 L0,1 Z " fill="#E1E1E1" opacity="0.29411766" transform="translate(19,5)"/>
<path d="M0,0 L1,0 L1,1 L0,1 Z " fill="#E1E1E1" opacity="0.007843138" transform="translate(19,19)"/>
<path d="M0,0 L1,0 L1,1 L0,1 Z " fill="#E1E1E1" opacity="0.007843138" transform="translate(4,19)"/>
<path d="M0,0 L1,0 L1,1 L0,1 Z " fill="#E1E1E1" opacity="0.29803923" transform="translate(4,18)"/>
<path d="M0,0 L1,0 L1,1 L0,1 Z " fill="#E1E1E1" opacity="0.007843138" transform="translate(19,4)"/>
<path d="M0,0 L1,0 L1,1 L0,1 Z " fill="#E1E1E1" opacity="0.29803923" transform="translate(18,4)"/>
<path d="M0,0 L1,0 L1,1 L0,1 Z " fill="#E2E2E2" opacity="0.007843138" transform="translate(4,4)"/>
</svg>
