<?xml version="1.0" encoding="UTF-8"?>
<!-- Generator: visioncortex VTracer 0.6.4 -->
<svg version="1.1" xmlns="http://www.w3.org/2000/svg" width="16" height="16">
<path d="M0,0 L7,0 L7,1 L8,1 L8,2 L9,2 L9,4 L6,4 L6,12 L5,12 L5,13 L4,13 L4,14 L-3,14 L-3,12 L-5,12 L-5,9 L-2,9 L-2,2 L0,2 Z " fill="#E0E0E0" transform="translate(6,1)"/>
<path d="M0,0 L1,0 L1,1 L0,1 Z M1,1 L2,1 L2,4 L6,4 L6,5 L1,5 Z M-2,2 L-1,2 L-1,13 L-2,13 L-2,14 L-3,14 L-3,12 L-5,12 L-5,9 L-2,9 Z " fill="#B3B3B3" transform="translate(6,1)"/>
<path d="M0,0 L6,0 L6,1 L7,1 L7,2 L8,2 L8,4 L1,4 L1,1 L0,1 Z M-1,1 L0,1 L0,2 L-1,2 Z " fill="#E0E0E0" transform="translate(7,1)"/>
<path d="M0,0 L1,0 L1,1 L0,1 Z M1,1 L2,1 L2,4 L6,4 L6,5 L1,5 Z " fill="#B3B3B3" transform="translate(6,1)"/>
<path d="M0,0 L2,0 L2,1 L1,1 L1,3 L0,3 Z " fill="#B3B3B3" transform="translate(1,10)"/>
<path d="M0,0 L2,0 L2,3 L1,3 L1,2 L0,2 Z " fill="#E0E0E0" transform="translate(2,11)"/>
<path d="M0,0 L1,0 L1,4 L0,4 Z M-1,4 L0,4 L0,5 L-1,5 Z " fill="#B3B3B3" transform="translate(4,10)"/>
<path d="M0,0 L1,0 L1,1 L0,1 Z M1,1 L2,1 L2,4 L1,4 Z " fill="#B3B3B3" transform="translate(6,1)"/>
<path d="M0,0 L1,0 L1,1 L0,1 Z M-1,1 L0,1 L0,2 L-1,2 Z " fill="#E0E0E0" opacity="0.88235295" transform="translate(11,13)"/>
<path d="M0,0 L1,0 L1,1 L0,1 Z M-1,1 L0,1 L0,2 L-1,2 Z " fill="#D3D3D3" transform="translate(7,1)"/>
<path d="M0,0 L1,0 L1,1 L0,1 Z M-1,1 L0,1 L0,2 L-1,2 Z " fill="#B3B3B3" opacity="0.89411765" transform="translate(5,1)"/>
<path d="M0,0 L1,0 L1,1 L0,1 Z " fill="#B2B2B2" opacity="0.8862745" transform="translate(2,14)"/>
<path d="M0,0 L1,0 L1,1 L0,1 Z M-1,1 L0,1 L0,2 L-1,2 Z " fill="#B8B8B8" transform="translate(4,13)"/>
<path d="M0,0 L1,0 L1,1 L0,1 Z " fill="#D2D2D2" transform="translate(3,13)"/>
<path d="M0,0 L1,0 L1,1 L0,1 Z " fill="#E0E0E0" opacity="0.8862745" transform="translate(14,2)"/>
<path d="M0,0 L1,0 L1,1 L0,1 Z M1,1 L2,1 L2,2 L1,2 Z " fill="#B8B8B8" transform="translate(6,1)"/>
<path d="M0,0 L1,0 L1,1 L0,1 Z " fill="#E2E2E2" opacity="0.27450982" transform="translate(11,14)"/>
<path d="M0,0 L1,0 L1,1 L0,1 Z " fill="#D3D3D3" transform="translate(4,14)"/>
<path d="M0,0 L1,0 L1,1 L0,1 Z " fill="#B2B2B2" opacity="0.28627452" transform="translate(1,14)"/>
<path d="M0,0 L1,0 L1,1 L0,1 Z " fill="#D0D0D0" opacity="0.81960785" transform="translate(2,13)"/>
<path d="M0,0 L1,0 L1,1 L0,1 Z " fill="#B3B3B3" opacity="0.8901961" transform="translate(1,13)"/>
<path d="M0,0 L1,0 L1,1 L0,1 Z " fill="#D0D0D0" opacity="0.8" transform="translate(5,2)"/>
<path d="M0,0 L1,0 L1,1 L0,1 Z " fill="#E0E0E0" opacity="0.28627452" transform="translate(14,1)"/>
<path d="M0,0 L1,0 L1,1 L0,1 Z " fill="#E0E0E0" opacity="0.89411765" transform="translate(13,1)"/>
<path d="M0,0 L1,0 L1,1 L0,1 Z " fill="#B4B4B4" opacity="0.29411766" transform="translate(4,1)"/>
</svg>
