<?xml version="1.0" encoding="UTF-8"?>
<!-- Generator: visioncortex VTracer 0.6.4 -->
<svg version="1.1" xmlns="http://www.w3.org/2000/svg" width="64" height="64">
<path d="M0,0 L10,0 L10,1 L4,1 L4,2 L-8,2 L-8,3 L-13,3 L-13,2 L-11,2 L-11,1 L0,1 Z " fill="#37B799" opacity="0.4" transform="translate(38,15)"/>
<path d="M0,0 L30,0 L30,1 L32,1 L32,7 L30,7 L30,8 L0,8 L0,7 L-2,7 L-2,1 L0,1 Z " fill="#25A788" transform="translate(17,28)"/>
<path d="M0,0 L2,0 L2,2 L-6,2 L-6,3 L-13,3 L-13,2 L-11,2 L-11,1 L0,1 Z " fill="#1B9E80" opacity="0.4" transform="translate(42,48)"/>
<path d="M0,0 L45,0 L45,1 L36,1 L36,2 L25,2 L25,3 L14,3 L14,4 L2,4 L2,5 L-3,5 L-3,3 L-2,3 L-2,2 L-1,2 L-1,1 L0,1 Z " fill="#39B999" opacity="0.4" transform="translate(10,12)"/>
<path d="M0,0 L10,0 L10,1 L0,1 Z M-12,1 L-2,1 L-2,2 L-12,2 Z " fill="#37B796" opacity="0.4" transform="translate(42,16)"/>
<path d="M0,0 L30,0 L30,1 L32,1 L32,3 L-2,3 L-2,1 L0,1 Z " fill="#36B596" transform="translate(17,28)"/>
<path d="M0,0 L1,0 L1,1 L0,1 Z M-11,1 L0,1 L0,2 L-6,2 L-6,3 L-13,3 L-13,2 L-11,2 Z " fill="#1EA382" opacity="0.4" transform="translate(39,44)"/>
<path d="M0,0 L34,0 L34,2 L25,2 L25,1 L0,1 Z " fill="#2CAD8E" transform="translate(15,31)"/>
<path d="M0,0 L10,0 L10,1 L4,1 L4,2 L-8,2 L-8,3 L-19,3 L-19,4 L-31,4 L-31,5 L-36,5 L-36,4 L-34,4 L-34,3 L-22,3 L-22,2 L-11,2 L-11,1 L0,1 Z " fill="#37B999" opacity="0.4" transform="translate(46,13)"/>
<path d="M0,0 L10,0 L10,1 L4,1 L4,2 L-7,2 L-7,3 L-11,3 L-11,2 L-10,2 L-10,1 L0,1 Z " fill="#1EA082" opacity="0.4" transform="translate(33,46)"/>
<path d="M0,0 L10,0 L10,1 L4,1 L4,2 L-2,2 L-2,1 L0,1 Z " fill="#34B496" opacity="0.4" transform="translate(47,17)"/>
<path d="M0,0 L30,0 L30,1 L0,1 Z " fill="#1C9F80" transform="translate(17,35)"/>
<path d="M0,0 L34,0 L34,1 L0,1 Z " fill="#22A485" transform="translate(15,34)"/>
<path d="M0,0 L34,0 L34,1 L0,1 Z " fill="#31B192" transform="translate(15,30)"/>
<path d="M0,0 L30,0 L30,1 L0,1 Z " fill="#3AB99A" transform="translate(17,28)"/>
<path d="M0,0 L13,0 L13,1 L2,1 L2,2 L-1,2 L-1,1 L0,1 Z " fill="#20A385" opacity="0.4" transform="translate(23,44)"/>
<path d="M0,0 L25,0 L25,1 L0,1 Z " fill="#2AAB8C" transform="translate(15,32)"/>
<path d="M0,0 L10,0 L10,1 L0,1 Z " fill="#37B796" opacity="0.4" transform="translate(19,18)"/>
<path d="M0,0 L9,0 L9,1 L3,1 L3,2 L-12,2 L-12,1 L0,1 Z " fill="#34B496" opacity="0.4" transform="translate(36,18)"/>
<path d="M0,0 L10,0 L10,1 L4,1 L4,2 L-7,2 L-7,1 L0,1 Z " fill="#37B799" opacity="0.4" transform="translate(15,17)"/>
<path d="M0,0 L9,0 L9,1 L0,1 Z " fill="#28A98A" transform="translate(40,32)"/>
<path d="M0,0 L9,0 L9,1 L0,1 Z " fill="#2EAF90" transform="translate(15,31)"/>
<path d="M0,0 L9,0 L9,1 L0,1 Z " fill="#32B494" opacity="0.4" transform="translate(46,19)"/>
<path d="M0,0 L14,0 L14,1 L0,1 Z " fill="#1DA081" transform="translate(17,35)"/>
<path d="M0,0 L16,0 L16,1 L0,1 Z " fill="#24A687" transform="translate(33,33)"/>
<path d="M0,0 L16,0 L16,1 L0,1 Z " fill="#32B293" transform="translate(15,30)"/>
<path d="M0,0 L7,0 L7,1 L3,1 L3,2 L-2,2 L-2,1 L0,1 Z " fill="#37B799" opacity="0.4" transform="translate(50,14)"/>
<path d="M0,0 L7,0 L7,1 L5,1 L5,2 L-1,2 L-1,1 L0,1 Z " fill="#199E80" opacity="0.4" transform="translate(37,50)"/>
<path d="M0,0 L13,0 L13,1 L0,1 Z " fill="#39B899" transform="translate(34,28)"/>
<path d="M0,0 L9,0 L9,1 L5,1 L5,2 L2,2 L2,1 L0,1 Z " fill="#1B9E80" opacity="0.4" transform="translate(20,50)"/>
<path d="M0,0 L1,0 L1,1 L0,1 Z M-11,1 L0,1 L0,2 L-11,2 Z " fill="#199E80" opacity="0.4" transform="translate(36,50)"/>
<path d="M0,0 L12,0 L12,1 L0,1 Z " fill="#20A283" transform="translate(37,34)"/>
<path d="M0,0 L12,0 L12,1 L0,1 Z " fill="#29AA8B" transform="translate(28,32)"/>
<path d="M0,0 L12,0 L12,1 L0,1 Z " fill="#2DAE8F" transform="translate(24,31)"/>
<path d="M0,0 L12,0 L12,1 L0,1 Z " fill="#34B495" transform="translate(37,29)"/>
<path d="M0,0 L11,0 L11,1 L0,1 Z " fill="#37B697" transform="translate(15,29)"/>
<path d="M0,0 L10,0 L10,1 L0,1 Z " fill="#1BA080" opacity="0.4" transform="translate(21,49)"/>
<path d="M0,0 L10,0 L10,1 L0,1 Z " fill="#1BA080" opacity="0.4" transform="translate(32,48)"/>
<path d="M0,0 L10,0 L10,1 L0,1 Z " fill="#21A384" transform="translate(27,34)"/>
<path d="M0,0 L1,0 L1,2 L0,2 Z " fill="#1B9D7E" opacity="0.29411766" transform="translate(44,48)"/>
<path d="M0,0 L1,0 L1,1 L0,1 Z " fill="#1EA180" opacity="0.29803923" transform="translate(19,49)"/>
<path d="M0,0 L6,0 L6,1 L2,1 L2,2 L0,2 Z " fill="#1EA382" opacity="0.4" transform="translate(20,46)"/>
<path d="M0,0 L2,0 L2,1 L3,1 L3,2 L-1,2 L-1,1 L0,1 Z " fill="#1EA382" opacity="0.4" transform="translate(40,44)"/>
<path d="M0,0 L1,0 L1,1 L0,1 Z " fill="#22A685" opacity="0.43529412" transform="translate(49,33)"/>
<path d="M0,0 L1,0 L1,1 L0,1 Z " fill="#25A98A" opacity="0.4509804" transform="translate(14,33)"/>
<path d="M0,0 L8,0 L8,1 L0,1 Z " fill="#30B091" transform="translate(41,30)"/>
<path d="M0,0 L8,0 L8,1 L0,1 Z " fill="#37B796" opacity="0.4" transform="translate(9,19)"/>
<path d="M0,0 L5,0 L5,1 L0,1 Z " fill="#34B494" opacity="0.4" transform="translate(51,18)"/>
<path d="M0,0 L7,0 L7,1 L0,1 Z " fill="#1EA080" opacity="0.4" transform="translate(37,47)"/>
<path d="M0,0 L5,0 L5,1 L0,1 Z " fill="#1B9E7F" transform="translate(42,35)"/>
<path d="M0,0 L7,0 L7,1 L0,1 Z " fill="#26A889" transform="translate(15,33)"/>
<path d="M0,0 L7,0 L7,1 L0,1 Z " fill="#34B494" opacity="0.4" transform="translate(39,19)"/>
<path d="M0,0 L7,0 L7,1 L0,1 Z " fill="#34B796" opacity="0.4" transform="translate(17,19)"/>
<path d="M0,0 L7,0 L7,1 L0,1 Z " fill="#34B796" opacity="0.4" transform="translate(29,18)"/>
<path d="M0,0 L7,0 L7,1 L0,1 Z " fill="#34B796" opacity="0.4" transform="translate(40,17)"/>
<path d="M0,0 L6,0 L6,1 L0,1 Z " fill="#1EA080" opacity="0.4" transform="translate(26,48)"/>
<path d="M0,0 L6,0 L6,1 L0,1 Z " fill="#2EAE8F" transform="translate(24,31)"/>
<path d="M0,0 L3,0 L3,1 L0,1 Z " fill="#37B999" opacity="0.4" transform="translate(7,17)"/>
<path d="M0,0 L1,0 L1,1 L0,1 Z M-1,1 L0,1 L0,2 L-1,2 Z M-2,2 L-1,2 L-1,3 L-2,3 Z " fill="#39B999" opacity="0.4" transform="translate(9,12)"/>
<path d="M0,0 L1,0 L1,1 L0,1 Z M-2,1 L0,1 L0,2 L-2,2 Z " fill="#20A385" opacity="0.4" transform="translate(22,44)"/>
<path d="M0,0 L3,0 L3,1 L0,1 Z " fill="#1EA182" transform="translate(17,35)"/>
<path d="M0,0 L5,0 L5,1 L0,1 Z " fill="#1FA283" transform="translate(44,34)"/>
<path d="M0,0 L5,0 L5,1 L0,1 Z " fill="#23A586" transform="translate(44,33)"/>
<path d="M0,0 L5,0 L5,1 L0,1 Z " fill="#26A788" transform="translate(22,33)"/>
<path d="M0,0 L5,0 L5,1 L0,1 Z " fill="#35B495" transform="translate(37,29)"/>
<path d="M0,0 L3,0 L3,1 L0,1 Z " fill="#38B798" transform="translate(44,28)"/>
<path d="M0,0 L5,0 L5,1 L0,1 Z " fill="#34B796" opacity="0.4" transform="translate(52,16)"/>
<path d="M0,0 L1,0 L1,1 L0,1 Z " fill="#1BA07E" opacity="0.29411766" transform="translate(44,47)"/>
<path d="M0,0 L1,0 L1,1 L0,1 Z M-2,1 L0,1 L0,2 L-2,2 Z " fill="#1EA082" opacity="0.4" transform="translate(22,47)"/>
<path d="M0,0 L1,0 L1,2 L0,2 Z " fill="#1EA583" opacity="0.29803923" transform="translate(19,46)"/>
<path d="M0,0 L4,0 L4,1 L0,1 Z " fill="#1EA081" transform="translate(20,35)"/>
<path d="M0,0 L1,0 L1,1 L0,1 Z " fill="#29AC8C" opacity="0.43529412" transform="translate(49,31)"/>
<path d="M0,0 L4,0 L4,1 L0,1 Z " fill="#2FAF90" transform="translate(15,31)"/>
<path d="M0,0 L1,0 L1,1 L0,1 Z " fill="#2EAF90" opacity="0.4509804" transform="translate(14,31)"/>
<path d="M0,0 L4,0 L4,1 L0,1 Z " fill="#33B394" transform="translate(15,30)"/>
<path d="M0,0 L4,0 L4,1 L0,1 Z " fill="#35B596" transform="translate(33,29)"/>
<path d="M0,0 L4,0 L4,1 L0,1 Z " fill="#36B697" transform="translate(22,29)"/>
<path d="M0,0 L4,0 L4,1 L0,1 Z " fill="#37B796" opacity="0.4" transform="translate(53,15)"/>
<path d="M0,0 L3,0 L3,1 L0,1 Z " fill="#1EA385" opacity="0.4" transform="translate(25,45)"/>
<path d="M0,0 L3,0 L3,1 L0,1 Z " fill="#1EA385" opacity="0.4" transform="translate(36,44)"/>
<path d="M0,0 L3,0 L3,1 L0,1 Z " fill="#1D9F80" transform="translate(31,35)"/>
<path d="M0,0 L3,0 L3,1 L0,1 Z " fill="#25A687" transform="translate(33,33)"/>
<path d="M0,0 L3,0 L3,1 L0,1 Z " fill="#2BAC8D" transform="translate(15,32)"/>
<path d="M0,0 L3,0 L3,1 L0,1 Z " fill="#2CAC8D" transform="translate(46,31)"/>
<path d="M0,0 L3,0 L3,1 L0,1 Z " fill="#2DAD8E" transform="translate(36,31)"/>
<path d="M0,0 L1,0 L1,1 L0,1 Z M-1,1 L0,1 L0,2 L-1,2 Z " fill="#38B997" opacity="0.35686275" transform="translate(8,12)"/>
<path d="M0,0 L1,0 L1,1 L0,1 Z " fill="#199D7E" opacity="0.39607844" transform="translate(21,51)"/>
<path d="M0,0 L1,0 L1,1 L0,1 Z " fill="#1EA082" opacity="0.4" transform="translate(43,46)"/>
<path d="M0,0 L1,0 L1,1 L0,1 Z " fill="#1C9E82" opacity="0.24705882" transform="translate(44,45)"/>
<path d="M0,0 L1,0 L1,1 L0,1 Z " fill="#1FA185" opacity="0.25490198" transform="translate(19,45)"/>
<path d="M0,0 L1,0 L1,1 L0,1 Z " fill="#1EA283" opacity="0.39607844" transform="translate(21,44)"/>
<path d="M0,0 L1,0 L1,1 L0,1 Z " fill="#1DA182" opacity="0.972549" transform="translate(16,35)"/>
<path d="M0,0 L2,0 L2,1 L0,1 Z " fill="#20A384" transform="translate(35,34)"/>
<path d="M0,0 L2,0 L2,1 L0,1 Z " fill="#21A485" transform="translate(25,34)"/>
<path d="M0,0 L2,0 L2,1 L0,1 Z " fill="#24A586" transform="translate(44,33)"/>
<path d="M0,0 L2,0 L2,1 L0,1 Z " fill="#27A98A" transform="translate(47,32)"/>
<path d="M0,0 L2,0 L2,1 L0,1 Z " fill="#28AA8B" transform="translate(38,32)"/>
<path d="M0,0 L2,0 L2,1 L0,1 Z " fill="#33B293" transform="translate(19,30)"/>
<path d="M0,0 L1,0 L1,1 L0,1 Z " fill="#31B592" opacity="0.32156864" transform="translate(49,29)"/>
<path d="M0,0 L1,0 L1,1 L0,1 Z " fill="#37B797" opacity="0.34509805" transform="translate(14,29)"/>
<path d="M0,0 L1,0 L1,1 L0,1 Z " fill="#39B899" opacity="0.972549" transform="translate(16,28)"/>
<path d="M0,0 L1,0 L1,1 L0,1 Z " fill="#36B696" opacity="0.3529412" transform="translate(8,19)"/>
<path d="M0,0 L1,0 L1,1 L0,1 Z " fill="#36B899" opacity="0.3529412" transform="translate(56,13)"/>
<path d="M0,0 L1,0 L1,1 L0,1 Z " fill="#189E7D" opacity="0.047058824" transform="translate(44,51)"/>
<path d="M0,0 L1,0 L1,1 L0,1 Z " fill="#169C80" opacity="0.3137255" transform="translate(43,51)"/>
<path d="M0,0 L1,0 L1,1 L0,1 Z " fill="#169D7E" opacity="0.39607844" transform="translate(42,51)"/>
<path d="M0,0 L1,0 L1,1 L0,1 Z " fill="#199C80" opacity="0.3137255" transform="translate(20,51)"/>
<path d="M0,0 L1,0 L1,1 L0,1 Z " fill="#1B9D7E" opacity="0.050980393" transform="translate(19,51)"/>
<path d="M0,0 L1,0 L1,1 L0,1 Z " fill="#189E7D" opacity="0.24705882" transform="translate(44,50)"/>
<path d="M0,0 L1,0 L1,1 L0,1 Z " fill="#1B9D7E" opacity="0.25490198" transform="translate(19,50)"/>
<path d="M0,0 L1,0 L1,1 L0,1 Z " fill="#1EA080" opacity="0.4" transform="translate(20,49)"/>
<path d="M0,0 L1,0 L1,1 L0,1 Z " fill="#1EA183" opacity="0.29803923" transform="translate(19,48)"/>
<path d="M0,0 L1,0 L1,1 L0,1 Z " fill="#1BA081" opacity="0.29411766" transform="translate(44,46)"/>
<path d="M0,0 L1,0 L1,1 L0,1 Z " fill="#1EA382" opacity="0.4" transform="translate(43,45)"/>
<path d="M0,0 L1,0 L1,1 L0,1 Z " fill="#1CA383" opacity="0.050980393" transform="translate(44,44)"/>
<path d="M0,0 L1,0 L1,1 L0,1 Z " fill="#1CA383" opacity="0.3137255" transform="translate(43,44)"/>
<path d="M0,0 L1,0 L1,1 L0,1 Z " fill="#1BA281" opacity="0.39607844" transform="translate(42,44)"/>
<path d="M0,0 L1,0 L1,1 L0,1 Z " fill="#1FA484" opacity="0.31764707" transform="translate(20,44)"/>
<path d="M0,0 L1,0 L1,1 L0,1 Z " fill="#1FA484" opacity="0.050980393" transform="translate(19,44)"/>
<path d="M0,0 L1,0 L1,1 L0,1 Z " fill="#1FA283" opacity="0.007843138" transform="translate(49,35)"/>
<path d="M0,0 L1,0 L1,1 L0,1 Z " fill="#199E7E" opacity="0.627451" transform="translate(48,35)"/>
<path d="M0,0 L1,0 L1,1 L0,1 Z " fill="#1A9E7F" opacity="0.96862745" transform="translate(47,35)"/>
<path d="M0,0 L1,0 L1,1 L0,1 Z " fill="#1C9E7F" transform="translate(42,35)"/>
<path d="M0,0 L1,0 L1,1 L0,1 Z " fill="#1DA081" opacity="0.6431373" transform="translate(15,35)"/>
<path d="M0,0 L1,0 L1,1 L0,1 Z " fill="#23A487" opacity="0.015686275" transform="translate(14,35)"/>
<path d="M0,0 L1,0 L1,1 L0,1 Z " fill="#1FA283" opacity="0.32156864" transform="translate(49,34)"/>
<path d="M0,0 L1,0 L1,1 L0,1 Z " fill="#23A487" opacity="0.34117648" transform="translate(14,34)"/>
<path d="M0,0 L1,0 L1,1 L0,1 Z " fill="#27A889" transform="translate(15,33)"/>
<path d="M0,0 L1,0 L1,1 L0,1 Z " fill="#27A88A" opacity="0.43529412" transform="translate(49,32)"/>
<path d="M0,0 L1,0 L1,1 L0,1 Z " fill="#2AAB8C" opacity="0.4509804" transform="translate(14,32)"/>
<path d="M0,0 L1,0 L1,1 L0,1 Z " fill="#2BAC8D" transform="translate(48,31)"/>
<path d="M0,0 L1,0 L1,1 L0,1 Z " fill="#30B191" opacity="0.43529412" transform="translate(49,30)"/>
<path d="M0,0 L1,0 L1,1 L0,1 Z " fill="#30B192" transform="translate(40,30)"/>
<path d="M0,0 L1,0 L1,1 L0,1 Z " fill="#33B495" opacity="0.4509804" transform="translate(14,30)"/>
<path d="M0,0 L1,0 L1,1 L0,1 Z " fill="#37B797" opacity="0.011764706" transform="translate(49,28)"/>
<path d="M0,0 L1,0 L1,1 L0,1 Z " fill="#37B797" opacity="0.63529414" transform="translate(48,28)"/>
<path d="M0,0 L1,0 L1,1 L0,1 Z " fill="#37B697" opacity="0.972549" transform="translate(47,28)"/>
<path d="M0,0 L1,0 L1,1 L0,1 Z " fill="#38B899" transform="translate(43,28)"/>
<path d="M0,0 L1,0 L1,1 L0,1 Z " fill="#39B99A" opacity="0.6509804" transform="translate(15,28)"/>
<path d="M0,0 L1,0 L1,1 L0,1 Z " fill="#39B99A" opacity="0.015686275" transform="translate(14,28)"/>
<path d="M0,0 L1,0 L1,1 L0,1 Z " fill="#2DB692" opacity="0.10980392" transform="translate(56,19)"/>
<path d="M0,0 L1,0 L1,1 L0,1 Z " fill="#30B393" opacity="0.3529412" transform="translate(55,19)"/>
<path d="M0,0 L1,0 L1,1 L0,1 Z " fill="#34B996" opacity="0.11372549" transform="translate(7,19)"/>
<path d="M0,0 L1,0 L1,1 L0,1 Z " fill="#33B393" opacity="0.3529412" transform="translate(56,18)"/>
<path d="M0,0 L1,0 L1,1 L0,1 Z " fill="#36B899" opacity="0.3529412" transform="translate(7,18)"/>
<path d="M0,0 L1,0 L1,1 L0,1 Z " fill="#34B996" opacity="0.11372549" transform="translate(56,12)"/>
<path d="M0,0 L1,0 L1,1 L0,1 Z " fill="#38B899" opacity="0.3529412" transform="translate(55,12)"/>
<path d="M0,0 L1,0 L1,1 L0,1 Z " fill="#33B399" opacity="0.11764706" transform="translate(7,12)"/>
</svg>
