<?xml version="1.0" encoding="UTF-8"?>
<!-- Generator: visioncortex VTracer 0.6.4 -->
<svg version="1.1" xmlns="http://www.w3.org/2000/svg" width="64" height="64">
<path d="M0,0 L8,0 L8,1 L10,1 L10,2 L12,2 L12,3 L13,3 L13,4 L14,4 L14,5 L15,5 L15,7 L16,7 L16,10 L17,10 L17,12 L16,12 L16,15 L15,15 L15,17 L14,17 L14,18 L13,18 L13,22 L14,22 L14,25 L15,25 L15,24 L17,24 L17,23 L19,23 L19,22 L20,22 L20,21 L22,21 L22,20 L24,20 L24,19 L25,19 L25,42 L24,42 L24,41 L22,41 L22,40 L20,40 L20,39 L19,39 L19,38 L17,38 L17,37 L15,37 L15,36 L14,36 L14,39 L13,39 L13,41 L12,41 L12,42 L10,42 L10,43 L-19,43 L-19,42 L-21,42 L-21,41 L-22,41 L-22,39 L-23,39 L-23,29 L-25,29 L-25,28 L-26,28 L-26,27 L-28,27 L-28,26 L-29,26 L-29,24 L-30,24 L-30,22 L-31,22 L-31,15 L-30,15 L-30,13 L-29,13 L-29,12 L-28,12 L-28,11 L-27,11 L-27,10 L-25,10 L-25,9 L-23,9 L-23,8 L-14,8 L-14,9 L-12,9 L-12,10 L-11,10 L-11,11 L-10,11 L-10,12 L-8,12 L-8,8 L-7,8 L-7,6 L-6,6 L-6,4 L-5,4 L-5,3 L-3,3 L-3,2 L-2,2 L-2,1 L0,1 Z " fill="#8DA5F3" transform="translate(35,11)"/>
<path d="M0,0 L1,0 L1,24 L0,24 Z " fill="#8CA5F3" opacity="0.8" transform="translate(60,29)"/>
<path d="M0,0 L24,0 L24,1 L0,1 Z " fill="#8CA6F3" opacity="0.39215687" transform="translate(19,54)"/>
<path d="M0,0 L1,0 L1,1 L0,1 Z M-1,1 L0,1 L0,2 L-1,2 Z M-2,2 L-1,2 L-1,3 L-2,3 Z M-3,3 L-2,3 L-2,4 L-3,4 Z " fill="#8DA5F3" transform="translate(8,21)"/>
<path d="M0,0 L1,0 L1,1 L0,1 Z " fill="#8CA5F3" opacity="0.8117647" transform="translate(16,18)"/>
<path d="M0,0 L1,0 L1,8 L0,8 Z " fill="#8BA8F4" opacity="0.17254902" transform="translate(11,41)"/>
<path d="M0,0 L1,0 L1,1 L0,1 Z " fill="#8CA5F4" opacity="0.75686276" transform="translate(3,30)"/>
<path d="M0,0 L1,0 L1,1 L0,1 Z " fill="#8DA5F3" opacity="0.49803922" transform="translate(40,10)"/>
<path d="M0,0 L1,0 L1,1 L0,1 Z " fill="#8DA5F3" opacity="0.6666667" transform="translate(26,21)"/>
<path d="M0,0 L1,0 L1,1 L0,1 Z " fill="#8CA5F3" opacity="0.4862745" transform="translate(30,13)"/>
<path d="M0,0 L1,0 L1,1 L0,1 Z " fill="#8CA6F3" opacity="0.39215687" transform="translate(18,54)"/>
<path d="M0,0 L1,0 L1,1 L0,1 Z " fill="#8CA4F3" opacity="0.41568628" transform="translate(57,52)"/>
<path d="M0,0 L1,0 L1,1 L0,1 Z " fill="#8CA4F3" opacity="0.7490196" transform="translate(13,52)"/>
<path d="M0,0 L1,0 L1,1 L0,1 Z " fill="#8FA4F2" opacity="0.23137255" transform="translate(50,48)"/>
<path d="M0,0 L1,0 L1,1 L0,1 Z " fill="#8DA5F4" opacity="0.25490198" transform="translate(10,40)"/>
<path d="M0,0 L1,0 L1,1 L0,1 Z " fill="#8EA6F4" opacity="0.16862746" transform="translate(49,33)"/>
<path d="M0,0 L1,0 L1,1 L0,1 Z " fill="#8CA5F3" opacity="0.7294118" transform="translate(54,32)"/>
<path d="M0,0 L1,0 L1,1 L0,1 Z " fill="#8DA5F3" opacity="0.7176471" transform="translate(59,29)"/>
<path d="M0,0 L1,0 L1,1 L0,1 Z " fill="#8DA5F4" opacity="0.6745098" transform="translate(3,28)"/>
<path d="M0,0 L1,0 L1,1 L0,1 Z " fill="#8BA6F4" opacity="0.3372549" transform="translate(4,24)"/>
<path d="M0,0 L1,0 L1,1 L0,1 Z " fill="#8AAAF5" opacity="0.09411765" transform="translate(52,21)"/>
<path d="M0,0 L1,0 L1,1 L0,1 Z " fill="#8CA5F3" opacity="0.8" transform="translate(7,21)"/>
<path d="M0,0 L1,0 L1,1 L0,1 Z " fill="#8DA4F3" opacity="0.98039216" transform="translate(51,20)"/>
<path d="M0,0 L1,0 L1,1 L0,1 Z " fill="#8DA5F3" opacity="0.7019608" transform="translate(14,18)"/>
<path d="M0,0 L1,0 L1,1 L0,1 Z " fill="#8CA5F3" opacity="0.9764706" transform="translate(45,12)"/>
<path d="M0,0 L1,0 L1,1 L0,1 Z " fill="#8DA4F3" opacity="0.88235295" transform="translate(32,12)"/>
<path d="M0,0 L1,0 L1,1 L0,1 Z " fill="#8DA6F4" opacity="0.5254902" transform="translate(38,10)"/>
<path d="M0,0 L1,0 L1,1 L0,1 Z " fill="#8CA4F3" opacity="0.96862745" transform="translate(5,35)"/>
<path d="M0,0 L1,0 L1,1 L0,1 Z " fill="#8CA5F4" opacity="0.92156863" transform="translate(24,21)"/>
<path d="M0,0 L1,0 L1,1 L0,1 Z " fill="#8DA5F3" opacity="0.8862745" transform="translate(48,14)"/>
<path d="M0,0 L1,0 L1,1 L0,1 Z " fill="#8DA4F3" opacity="0.039215688" transform="translate(45,54)"/>
<path d="M0,0 L1,0 L1,1 L0,1 Z " fill="#8DA7F5" opacity="0.19215687" transform="translate(16,54)"/>
<path d="M0,0 L1,0 L1,1 L0,1 Z " fill="#8DA4F2" opacity="0.6156863" transform="translate(59,53)"/>
<path d="M0,0 L1,0 L1,1 L0,1 Z " fill="#8CA5F3" opacity="0.8117647" transform="translate(56,51)"/>
<path d="M0,0 L1,0 L1,1 L0,1 Z " fill="#8CA5F3" opacity="0.61960787" transform="translate(54,50)"/>
<path d="M0,0 L1,0 L1,1 L0,1 Z " fill="#8EA5F4" opacity="0.42352942" transform="translate(52,49)"/>
<path d="M0,0 L1,0 L1,1 L0,1 Z " fill="#8DA4F2" opacity="0.76862746" transform="translate(9,39)"/>
<path d="M0,0 L1,0 L1,1 L0,1 Z " fill="#8DA5F4" opacity="0.43137255" transform="translate(7,38)"/>
<path d="M0,0 L1,0 L1,1 L0,1 Z " fill="#8DA5F4" opacity="0.53333336" transform="translate(52,33)"/>
<path d="M0,0 L1,0 L1,1 L0,1 Z " fill="#8DA6F3" opacity="0.3254902" transform="translate(55,31)"/>
<path d="M0,0 L1,0 L1,1 L0,1 Z " fill="#8DA5F4" opacity="0.6745098" transform="translate(48,31)"/>
<path d="M0,0 L1,0 L1,1 L0,1 Z " fill="#8CA5F4" opacity="0.52156866" transform="translate(57,30)"/>
<path d="M0,0 L1,0 L1,1 L0,1 Z " fill="#8CA5F5" opacity="0.2" transform="translate(60,28)"/>
<path d="M0,0 L1,0 L1,1 L0,1 Z " fill="#8AA6F9" opacity="0.14509805" transform="translate(51,26)"/>
<path d="M0,0 L1,0 L1,1 L0,1 Z " fill="#8DA7F7" opacity="0.22745098" transform="translate(3,26)"/>
<path d="M0,0 L1,0 L1,1 L0,1 Z " fill="#8CA5F3" opacity="0.72156864" transform="translate(5,23)"/>
<path d="M0,0 L1,0 L1,1 L0,1 Z " fill="#8CA5F3" opacity="0.5647059" transform="translate(8,20)"/>
<path d="M0,0 L1,0 L1,1 L0,1 Z " fill="#8EA5F4" opacity="0.42352942" transform="translate(26,19)"/>
<path d="M0,0 L1,0 L1,1 L0,1 Z " fill="#8DA4F3" opacity="0.6392157" transform="translate(10,19)"/>
<path d="M0,0 L1,0 L1,1 L0,1 Z " fill="#8DA5F3" opacity="0.4745098" transform="translate(51,18)"/>
<path d="M0,0 L1,0 L1,1 L0,1 Z " fill="#8DA6F3" opacity="0.3254902" transform="translate(12,18)"/>
<path d="M0,0 L1,0 L1,1 L0,1 Z " fill="#8DA4F3" opacity="0.65882355" transform="translate(27,17)"/>
<path d="M0,0 L1,0 L1,1 L0,1 Z " fill="#8DA6F4" opacity="0.5254902" transform="translate(50,16)"/>
<path d="M0,0 L1,0 L1,1 L0,1 Z " fill="#8DA6F3" opacity="0.40392157" transform="translate(28,15)"/>
<path d="M0,0 L1,0 L1,1 L0,1 Z M-1,1 L0,1 L0,2 L-1,2 Z " fill="#8DA5F3" transform="translate(30,14)"/>
<path d="M0,0 L1,0 L1,1 L0,1 Z " fill="#8CA5F3" opacity="0.32156864" transform="translate(33,11)"/>
<path d="M0,0 L1,0 L1,1 L0,1 Z " fill="#8DA3F5" opacity="0.003921569" transform="translate(43,10)"/>
<path d="M0,0 L1,0 L1,1 L0,1 Z " fill="#8EA4F5" opacity="0.27450982" transform="translate(36,10)"/>
<path d="M0,0 L1,0 L1,1 L0,1 Z " fill="#8BA2F8" opacity="0.12941177" transform="translate(60,54)"/>
<path d="M0,0 L1,0 L1,1 L0,1 Z " fill="#8EA5F6" opacity="0.21176471" transform="translate(44,54)"/>
<path d="M0,0 L1,0 L1,1 L0,1 Z " fill="#8CA4F5" opacity="0.37254903" transform="translate(43,54)"/>
<path d="M0,0 L1,0 L1,1 L0,1 Z " fill="#8DA4F4" opacity="0.36078432" transform="translate(17,54)"/>
<path d="M0,0 L1,0 L1,1 L0,1 Z " fill="#8DA5F3" opacity="0.03137255" transform="translate(15,54)"/>
<path d="M0,0 L1,0 L1,1 L0,1 Z " fill="#8DA5F3" opacity="0.79607844" transform="translate(60,53)"/>
<path d="M0,0 L1,0 L1,1 L0,1 Z " fill="#8BA2F4" opacity="0.08627451" transform="translate(58,53)"/>
<path d="M0,0 L1,0 L1,1 L0,1 Z " fill="#8CA5F3" opacity="0.043137256" transform="translate(47,53)"/>
<path d="M0,0 L1,0 L1,1 L0,1 Z " fill="#8CA4F4" opacity="0.5294118" transform="translate(46,53)"/>
<path d="M0,0 L1,0 L1,1 L0,1 Z " fill="#8DA4F3" opacity="0.98039216" transform="translate(45,53)"/>
<path d="M0,0 L1,0 L1,1 L0,1 Z " fill="#8DA5F3" opacity="0.9647059" transform="translate(15,53)"/>
<path d="M0,0 L1,0 L1,1 L0,1 Z " fill="#8DA5F3" opacity="0.4745098" transform="translate(14,53)"/>
<path d="M0,0 L1,0 L1,1 L0,1 Z " fill="#8CA4F3" opacity="0.02745098" transform="translate(13,53)"/>
<path d="M0,0 L1,0 L1,1 L0,1 Z " fill="#8DA4F3" opacity="0.9372549" transform="translate(58,52)"/>
<path d="M0,0 L1,0 L1,1 L0,1 Z " fill="#8CA5F3" opacity="0.011764706" transform="translate(56,52)"/>
<path d="M0,0 L1,0 L1,1 L0,1 Z " fill="#8DA5F4" opacity="0.039215688" transform="translate(48,52)"/>
<path d="M0,0 L1,0 L1,1 L0,1 Z " fill="#8CA5F3" opacity="0.81960785" transform="translate(47,52)"/>
<path d="M0,0 L1,0 L1,1 L0,1 Z " fill="#8DA5F4" opacity="0.015686275" transform="translate(12,52)"/>
<path d="M0,0 L1,0 L1,1 L0,1 Z " fill="#8DA7F7" opacity="0.22745098" transform="translate(55,51)"/>
<path d="M0,0 L1,0 L1,1 L0,1 Z " fill="#8DA5F4" opacity="0.59607846" transform="translate(48,51)"/>
<path d="M0,0 L1,0 L1,1 L0,1 Z " fill="#8DA5F4" opacity="0.50980395" transform="translate(12,51)"/>
<path d="M0,0 L1,0 L1,1 L0,1 Z " fill="#8BA2F4" opacity="0.08627451" transform="translate(53,50)"/>
<path d="M0,0 L1,0 L1,1 L0,1 Z " fill="#8CA5F5" opacity="0.019607844" transform="translate(49,50)"/>
<path d="M0,0 L1,0 L1,1 L0,1 Z " fill="#8DA5F3" opacity="0.9607843" transform="translate(48,50)"/>
<path d="M0,0 L1,0 L1,1 L0,1 Z " fill="#8DA5F3" opacity="0.89411765" transform="translate(12,50)"/>
<path d="M0,0 L1,0 L1,1 L0,1 Z " fill="#8CA5F3" opacity="0.9411765" transform="translate(53,49)"/>
<path d="M0,0 L1,0 L1,1 L0,1 Z " fill="#8DA4F3" opacity="0.015686275" transform="translate(51,49)"/>
<path d="M0,0 L1,0 L1,1 L0,1 Z " fill="#8CA5F5" opacity="0.2" transform="translate(49,49)"/>
<path d="M0,0 L1,0 L1,1 L0,1 Z " fill="#8EAAF6" opacity="0.105882354" transform="translate(11,49)"/>
<path d="M0,0 L1,0 L1,1 L0,1 Z " fill="#8DA4F3" opacity="0.8156863" transform="translate(51,48)"/>
<path d="M0,0 L1,0 L1,1 L0,1 Z " fill="#8FA5F4" opacity="0.26666668" transform="translate(49,48)"/>
<path d="M0,0 L1,0 L1,1 L0,1 Z " fill="#8DA5F3" opacity="0.7882353" transform="translate(49,47)"/>
<path d="M0,0 L1,0 L1,1 L0,1 Z " fill="#8CA5F4" opacity="0.6862745" transform="translate(11,40)"/>
<path d="M0,0 L1,0 L1,1 L0,1 Z " fill="#8DA4F2" opacity="0.003921569" transform="translate(9,40)"/>
<path d="M0,0 L1,0 L1,1 L0,1 Z " fill="#8CA5F5" opacity="0.2" transform="translate(8,39)"/>
<path d="M0,0 L1,0 L1,1 L0,1 Z " fill="#8DA5F3" opacity="0.9882353" transform="translate(8,38)"/>
<path d="M0,0 L1,0 L1,1 L0,1 Z " fill="#8DA5F4" opacity="0.003921569" transform="translate(6,38)"/>
<path d="M0,0 L1,0 L1,1 L0,1 Z " fill="#8DA5F4" opacity="0.53333336" transform="translate(6,37)"/>
<path d="M0,0 L1,0 L1,1 L0,1 Z " fill="#8EA5F4" opacity="0.42352942" transform="translate(5,36)"/>
<path d="M0,0 L1,0 L1,1 L0,1 Z " fill="#8CA5F3" opacity="0.8627451" transform="translate(49,35)"/>
<path d="M0,0 L1,0 L1,1 L0,1 Z " fill="#8CA6F3" opacity="0.15686275" transform="translate(4,35)"/>
<path d="M0,0 L1,0 L1,1 L0,1 Z " fill="#8CA4F3" opacity="0.8901961" transform="translate(51,34)"/>
<path d="M0,0 L1,0 L1,1 L0,1 Z " fill="#8BA6F4" opacity="0.3372549" transform="translate(50,34)"/>
<path d="M0,0 L1,0 L1,1 L0,1 Z " fill="#8DA4F6" opacity="0.21960784" transform="translate(49,34)"/>
<path d="M0,0 L1,0 L1,1 L0,1 Z " fill="#8CA5F4" opacity="0.6784314" transform="translate(4,34)"/>
<path d="M0,0 L1,0 L1,1 L0,1 Z " fill="#8DA4F3" opacity="0.98039216" transform="translate(53,33)"/>
<path d="M0,0 L1,0 L1,1 L0,1 Z " fill="#8DA5F4" opacity="0.047058824" transform="translate(51,33)"/>
<path d="M0,0 L1,0 L1,1 L0,1 Z " fill="#8DA5F3" opacity="0.99607843" transform="translate(4,33)"/>
<path d="M0,0 L1,0 L1,1 L0,1 Z " fill="#8FA5F8" opacity="0.13333334" transform="translate(3,33)"/>
<path d="M0,0 L1,0 L1,1 L0,1 Z " fill="#90A4F2" opacity="0.15294118" transform="translate(53,32)"/>
<path d="M0,0 L1,0 L1,1 L0,1 Z " fill="#8CA5F3" opacity="0.05490196" transform="translate(49,32)"/>
<path d="M0,0 L1,0 L1,1 L0,1 Z " fill="#8CA5F3" opacity="0.9843137" transform="translate(48,32)"/>
<path d="M0,0 L1,0 L1,1 L0,1 Z " fill="#8CA4F4" opacity="0.42745098" transform="translate(3,32)"/>
<path d="M0,0 L1,0 L1,1 L0,1 Z " fill="#8DA5F3" opacity="0.8862745" transform="translate(56,31)"/>
<path d="M0,0 L1,0 L1,1 L0,1 Z " fill="#8DA6F3" opacity="0.003921569" transform="translate(54,31)"/>
<path d="M0,0 L1,0 L1,1 L0,1 Z " fill="#8DA4F3" opacity="0.65882355" transform="translate(3,31)"/>
<path d="M0,0 L1,0 L1,1 L0,1 Z " fill="#8CA5F3" opacity="0.9764706" transform="translate(58,30)"/>
<path d="M0,0 L1,0 L1,1 L0,1 Z " fill="#8CA5F4" opacity="0.043137256" transform="translate(56,30)"/>
<path d="M0,0 L1,0 L1,1 L0,1 Z " fill="#8EA7F5" opacity="0.28235295" transform="translate(48,30)"/>
<path d="M0,0 L1,0 L1,1 L0,1 Z " fill="#8AA6F9" opacity="0.14509805" transform="translate(58,29)"/>
<path d="M0,0 L1,0 L1,1 L0,1 Z " fill="#90A4F2" opacity="0.15294118" transform="translate(49,29)"/>
<path d="M0,0 L1,0 L1,1 L0,1 Z " fill="#8DA5F3" opacity="0.9098039" transform="translate(48,29)"/>
<path d="M0,0 L1,0 L1,1 L0,1 Z " fill="#8DA4F3" opacity="0.78039217" transform="translate(3,29)"/>
<path d="M0,0 L1,0 L1,1 L0,1 Z " fill="#8CA5F5" opacity="0.003921569" transform="translate(59,28)"/>
<path d="M0,0 L1,0 L1,1 L0,1 Z " fill="#8DA5F3" opacity="0.050980393" transform="translate(50,28)"/>
<path d="M0,0 L1,0 L1,1 L0,1 Z " fill="#8DA4F3" opacity="0.88235295" transform="translate(49,28)"/>
<path d="M0,0 L1,0 L1,1 L0,1 Z " fill="#8DA5F3" opacity="0.5764706" transform="translate(50,27)"/>
<path d="M0,0 L1,0 L1,1 L0,1 Z " fill="#8EA4F2" opacity="0.5372549" transform="translate(3,27)"/>
<path d="M0,0 L1,0 L1,1 L0,1 Z " fill="#8DA5F3" opacity="0.99607843" transform="translate(50,26)"/>
<path d="M0,0 L1,0 L1,1 L0,1 Z " fill="#8EA6F4" opacity="0.5019608" transform="translate(51,25)"/>
<path d="M0,0 L1,0 L1,1 L0,1 Z " fill="#8DA5F3" opacity="0.8666667" transform="translate(4,25)"/>
<path d="M0,0 L1,0 L1,1 L0,1 Z " fill="#8DA5F3" opacity="0.003921569" transform="translate(3,25)"/>
<path d="M0,0 L1,0 L1,1 L0,1 Z " fill="#8CA4F3" opacity="0.8352941" transform="translate(51,24)"/>
<path d="M0,0 L1,0 L1,1 L0,1 Z " fill="#8EAAF6" opacity="0.007843138" transform="translate(52,23)"/>
<path d="M0,0 L1,0 L1,1 L0,1 Z " fill="#8DA4F3" opacity="0.98039216" transform="translate(51,23)"/>
<path d="M0,0 L1,0 L1,1 L0,1 Z " fill="#8CA5F3" opacity="0.003921569" transform="translate(4,23)"/>
<path d="M0,0 L1,0 L1,1 L0,1 Z " fill="#8EAAF6" opacity="0.105882354" transform="translate(52,22)"/>
<path d="M0,0 L1,0 L1,1 L0,1 Z " fill="#8DA4F3" opacity="0.9019608" transform="translate(26,22)"/>
<path d="M0,0 L1,0 L1,1 L0,1 Z " fill="#8DA5F3" opacity="0.9607843" transform="translate(25,22)"/>
<path d="M0,0 L1,0 L1,1 L0,1 Z " fill="#8CA5F3" opacity="0.81960785" transform="translate(6,22)"/>
<path d="M0,0 L1,0 L1,1 L0,1 Z " fill="#8CA5F3" opacity="0.0627451" transform="translate(5,22)"/>
<path d="M0,0 L1,0 L1,1 L0,1 Z " fill="#8CA4F6" opacity="0.20784314" transform="translate(25,21)"/>
<path d="M0,0 L1,0 L1,1 L0,1 Z " fill="#8AAAF5" opacity="0.09411765" transform="translate(6,21)"/>
<path d="M0,0 L1,0 L1,1 L0,1 Z " fill="#8DA4F3" opacity="0.007843138" transform="translate(52,20)"/>
<path d="M0,0 L1,0 L1,1 L0,1 Z " fill="#8CA5F3" opacity="0.5647059" transform="translate(26,20)"/>
<path d="M0,0 L1,0 L1,1 L0,1 Z " fill="#8AA8F8" opacity="0.13725491" transform="translate(24,20)"/>
<path d="M0,0 L1,0 L1,1 L0,1 Z " fill="#8CA5F3" opacity="0.72156864" transform="translate(23,20)"/>
<path d="M0,0 L1,0 L1,1 L0,1 Z " fill="#8DA5F3" opacity="0.99607843" transform="translate(9,20)"/>
<path d="M0,0 L1,0 L1,1 L0,1 Z " fill="#8CA5F3" opacity="0.02745098" transform="translate(7,20)"/>
<path d="M0,0 L1,0 L1,1 L0,1 Z " fill="#8CA5F3" opacity="0.8117647" transform="translate(51,19)"/>
<path d="M0,0 L1,0 L1,1 L0,1 Z " fill="#8DA6F5" opacity="0.2901961" transform="translate(22,19)"/>
<path d="M0,0 L1,0 L1,1 L0,1 Z " fill="#8CA5F3" opacity="0.7764706" transform="translate(21,19)"/>
<path d="M0,0 L1,0 L1,1 L0,1 Z " fill="#8DA5F3" opacity="0.9882353" transform="translate(11,19)"/>
<path d="M0,0 L1,0 L1,1 L0,1 Z " fill="#8FA8F3" opacity="0.16078432" transform="translate(9,19)"/>
<path d="M0,0 L1,0 L1,1 L0,1 Z " fill="#8DA4F3" opacity="0.98039216" transform="translate(27,18)"/>
<path d="M0,0 L1,0 L1,1 L0,1 Z " fill="#8BA2F4" opacity="0.08627451" transform="translate(26,18)"/>
<path d="M0,0 L1,0 L1,1 L0,1 Z " fill="#8EAAF6" opacity="0.105882354" transform="translate(20,18)"/>
<path d="M0,0 L1,0 L1,1 L0,1 Z " fill="#8DA5F4" opacity="0.41960785" transform="translate(19,18)"/>
<path d="M0,0 L1,0 L1,1 L0,1 Z " fill="#8CA5F4" opacity="0.60784316" transform="translate(18,18)"/>
<path d="M0,0 L1,0 L1,1 L0,1 Z " fill="#8DA5F3" opacity="0.70980394" transform="translate(17,18)"/>
<path d="M0,0 L1,0 L1,1 L0,1 Z " fill="#8CA4F3" opacity="0.7921569" transform="translate(15,18)"/>
<path d="M0,0 L1,0 L1,1 L0,1 Z " fill="#8DA5F4" opacity="0.5882353" transform="translate(13,18)"/>
<path d="M0,0 L1,0 L1,1 L0,1 Z " fill="#8DA6F3" opacity="0.0627451" transform="translate(11,18)"/>
<path d="M0,0 L1,0 L1,1 L0,1 Z " fill="#90A8F8" opacity="0.1254902" transform="translate(51,17)"/>
<path d="M0,0 L1,0 L1,1 L0,1 Z " fill="#8DA4F3" opacity="0.98039216" transform="translate(50,17)"/>
<path d="M0,0 L1,0 L1,1 L0,1 Z " fill="#8CA5F3" opacity="0.9764706" transform="translate(28,16)"/>
<path d="M0,0 L1,0 L1,1 L0,1 Z " fill="#8FA3F5" opacity="0.19607843" transform="translate(27,16)"/>
<path d="M0,0 L1,0 L1,1 L0,1 Z " fill="#8DA5F4" opacity="0.043137256" transform="translate(50,15)"/>
<path d="M0,0 L1,0 L1,1 L0,1 Z " fill="#8DA5F4" opacity="0.8392157" transform="translate(49,15)"/>
<path d="M0,0 L1,0 L1,1 L0,1 Z " fill="#8DA7F7" opacity="0.11372549" transform="translate(49,14)"/>
<path d="M0,0 L1,0 L1,1 L0,1 Z " fill="#8DA4F2" opacity="0.6156863" transform="translate(29,14)"/>
<path d="M0,0 L1,0 L1,1 L0,1 Z " fill="#8DA4F2" opacity="0.003921569" transform="translate(28,14)"/>
<path d="M0,0 L1,0 L1,1 L0,1 Z " fill="#8AA8F8" opacity="0.13725491" transform="translate(48,13)"/>
<path d="M0,0 L1,0 L1,1 L0,1 Z " fill="#8DA5F3" opacity="0.80784315" transform="translate(47,13)"/>
<path d="M0,0 L1,0 L1,1 L0,1 Z " fill="#8CA4F3" opacity="0.99215686" transform="translate(31,13)"/>
<path d="M0,0 L1,0 L1,1 L0,1 Z " fill="#8CA5F3" opacity="0.011764706" transform="translate(29,13)"/>
<path d="M0,0 L1,0 L1,1 L0,1 Z " fill="#8DA5F3" opacity="0.03137255" transform="translate(47,12)"/>
<path d="M0,0 L1,0 L1,1 L0,1 Z " fill="#8DA5F3" opacity="0.5529412" transform="translate(46,12)"/>
<path d="M0,0 L1,0 L1,1 L0,1 Z " fill="#8EA3F3" opacity="0.23921569" transform="translate(31,12)"/>
<path d="M0,0 L1,0 L1,1 L0,1 Z " fill="#89A4F6" opacity="0.10980392" transform="translate(45,11)"/>
<path d="M0,0 L1,0 L1,1 L0,1 Z " fill="#8CA5F3" opacity="0.5647059" transform="translate(44,11)"/>
<path d="M0,0 L1,0 L1,1 L0,1 Z " fill="#8DA4F3" opacity="0.9019608" transform="translate(43,11)"/>
<path d="M0,0 L1,0 L1,1 L0,1 Z " fill="#8DA4F3" opacity="0.7254902" transform="translate(34,11)"/>
<path d="M0,0 L1,0 L1,1 L0,1 Z " fill="#8CA5F3" opacity="0.019607844" transform="translate(32,11)"/>
<path d="M0,0 L1,0 L1,1 L0,1 Z " fill="#8DA3F5" opacity="0.18431373" transform="translate(42,10)"/>
<path d="M0,0 L1,0 L1,1 L0,1 Z " fill="#8CA4F3" opacity="0.40784314" transform="translate(41,10)"/>
<path d="M0,0 L1,0 L1,1 L0,1 Z " fill="#8CA4F3" opacity="0.58431375" transform="translate(39,10)"/>
<path d="M0,0 L1,0 L1,1 L0,1 Z " fill="#8CA5F3" opacity="0.4" transform="translate(37,10)"/>
<path d="M0,0 L1,0 L1,1 L0,1 Z " fill="#8EAAF6" opacity="0.105882354" transform="translate(35,10)"/>
</svg>
