<?xml version="1.0" encoding="UTF-8"?>
<!-- Generator: visioncortex VTracer 0.6.4 -->
<svg version="1.1" xmlns="http://www.w3.org/2000/svg" width="148" height="64">
<path d="M0,0 L3,0 L3,1 L4,1 L4,2 L5,2 L5,3 L6,3 L6,5 L7,5 L7,6 L8,6 L8,7 L9,7 L9,8 L10,8 L10,10 L11,10 L11,11 L12,11 L12,12 L13,12 L13,13 L14,13 L14,16 L5,16 L5,36 L7,36 L7,35 L8,35 L8,34 L9,34 L9,33 L10,33 L10,32 L11,32 L11,31 L12,31 L12,30 L13,30 L13,29 L14,29 L14,28 L15,28 L15,27 L16,27 L16,26 L17,26 L17,25 L18,25 L18,24 L19,24 L19,23 L20,23 L20,22 L21,22 L21,21 L22,21 L22,20 L23,20 L23,19 L24,19 L24,18 L25,18 L25,17 L26,17 L26,15 L25,15 L25,14 L24,14 L24,13 L23,13 L23,12 L22,12 L22,11 L21,11 L21,10 L20,10 L20,8 L21,8 L21,7 L29,7 L29,6 L38,6 L38,5 L39,5 L39,6 L40,6 L40,11 L39,11 L39,20 L38,20 L38,25 L37,25 L37,26 L36,26 L36,25 L35,25 L35,24 L34,24 L34,23 L33,23 L33,22 L32,22 L32,21 L29,21 L29,22 L28,22 L28,23 L27,23 L27,24 L26,24 L26,25 L25,25 L25,26 L24,26 L24,27 L23,27 L23,28 L22,28 L22,29 L21,29 L21,30 L20,30 L20,31 L19,31 L19,32 L18,32 L18,33 L17,33 L17,34 L16,34 L16,35 L15,35 L15,36 L14,36 L14,37 L13,37 L13,38 L12,38 L12,39 L11,39 L11,40 L10,40 L10,41 L29,41 L29,31 L32,31 L32,32 L33,32 L33,33 L34,33 L34,34 L35,34 L35,35 L37,35 L37,36 L38,36 L38,37 L39,37 L39,38 L40,38 L40,39 L42,39 L42,40 L43,40 L43,41 L44,41 L44,42 L45,42 L45,44 L44,44 L44,45 L42,45 L42,46 L41,46 L41,47 L40,47 L40,48 L39,48 L39,49 L37,49 L37,50 L36,50 L36,51 L35,51 L35,52 L34,52 L34,53 L32,53 L32,54 L31,54 L31,55 L29,55 L29,48 L-1,48 L-1,16 L-10,16 L-10,13 L-9,13 L-9,12 L-8,12 L-8,10 L-7,10 L-7,9 L-6,9 L-6,8 L-5,8 L-5,7 L-4,7 L-4,5 L-3,5 L-3,4 L-2,4 L-2,3 L-1,3 L-1,2 L0,2 Z " fill="#F5F5F5" transform="translate(99,5)"/>
<path d="M0,0 L1,0 L1,1 L0,1 Z M32,5 L33,5 L33,6 L32,6 Z " fill="#F5F5F5" opacity="0.99607843" transform="translate(109,45)"/>
<path d="M0,0 L3,0 L3,1 L4,1 L4,2 L5,2 L5,3 L6,3 L6,4 L8,4 L8,5 L9,5 L9,6 L10,6 L10,7 L11,7 L11,8 L13,8 L13,9 L14,9 L14,10 L15,10 L15,11 L16,11 L16,13 L15,13 L15,14 L14,14 L14,15 L12,15 L12,16 L11,16 L11,17 L10,17 L10,18 L9,18 L9,19 L7,19 L7,20 L6,20 L6,21 L5,21 L5,22 L4,22 L4,23 L2,23 L2,24 L0,24 L0,15 L-24,15 L-24,39 L-15,39 L-15,41 L-16,41 L-16,43 L-17,43 L-17,44 L-18,44 L-18,45 L-19,45 L-19,46 L-20,46 L-20,48 L-21,48 L-21,49 L-22,49 L-22,50 L-23,50 L-23,51 L-24,51 L-24,53 L-25,53 L-25,54 L-26,54 L-26,55 L-28,55 L-28,54 L-29,54 L-29,53 L-30,53 L-30,52 L-31,52 L-31,50 L-32,50 L-32,49 L-33,49 L-33,48 L-34,48 L-34,47 L-35,47 L-35,45 L-36,45 L-36,44 L-37,44 L-37,43 L-38,43 L-38,42 L-39,42 L-39,39 L-30,39 L-30,9 L0,9 Z " fill="#F5F5F5" transform="translate(44,5)"/>
<path d="M0,0 L1,0 L1,31 L0,31 Z " fill="#F4F4F4" opacity="0.9098039" transform="translate(97,22)"/>
<path d="M0,0 L28,0 L28,1 L0,1 Z " fill="#F4F4F4" opacity="0.9098039" transform="translate(15,13)"/>
<path d="M0,0 L1,0 L1,1 L0,1 Z M-1,1 L0,1 L0,2 L-1,2 Z M-2,2 L-1,2 L-1,3 L-2,3 Z M-3,3 L-2,3 L-2,4 L-3,4 Z M-4,4 L-3,4 L-3,5 L-4,5 Z M-5,5 L-4,5 L-4,6 L-5,6 Z M-6,6 L-5,6 L-5,7 L-6,7 Z M-7,7 L-6,7 L-6,8 L-7,8 Z M-8,8 L-7,8 L-7,9 L-8,9 Z M-9,9 L-8,9 L-8,10 L-9,10 Z M-10,10 L-9,10 L-9,11 L-10,11 Z M-11,11 L-10,11 L-10,12 L-11,12 Z M-12,12 L-11,12 L-11,13 L-12,13 Z M-13,13 L-12,13 L-12,14 L-13,14 Z " fill="#F5F5F5" opacity="0.99215686" transform="translate(128,26)"/>
<path d="M0,0 L22,0 L22,1 L0,1 Z M-1,1 L0,1 L0,23 L-1,23 Z " fill="#F5F5F5" opacity="0.59607846" transform="translate(21,20)"/>
<path d="M0,0 L28,0 L28,1 L0,1 Z " fill="#F4F4F4" opacity="0.45490196" transform="translate(99,53)"/>
<path d="M0,0 L1,0 L1,28 L0,28 Z " fill="#F4F4F4" opacity="0.9098039" transform="translate(13,15)"/>
<path d="M0,0 L15,0 L15,1 L0,1 Z " fill="#F5F5F5" opacity="0.0627451" transform="translate(112,45)"/>
<path d="M0,0 L1,0 L1,1 L0,1 Z M-1,1 L0,1 L0,2 L-1,2 Z M-2,2 L-1,2 L-1,3 L-2,3 Z M-3,3 L-2,3 L-2,4 L-3,4 Z M-4,4 L-3,4 L-3,5 L-4,5 Z M-5,5 L-4,5 L-4,6 L-5,6 Z M-6,6 L-5,6 L-5,7 L-6,7 Z M-7,7 L-6,7 L-6,8 L-7,8 Z M-8,8 L-7,8 L-7,9 L-8,9 Z M-9,9 L-8,9 L-8,10 L-9,10 Z M-10,10 L-9,10 L-9,11 L-10,11 Z M-11,11 L-10,11 L-10,12 L-11,12 Z M-12,12 L-11,12 L-11,13 L-12,13 Z M-13,13 L-12,13 L-12,14 L-13,14 Z M-14,14 L-13,14 L-13,15 L-14,15 Z M-15,15 L-14,15 L-14,16 L-15,16 Z M-16,16 L-15,16 L-15,17 L-16,17 Z M-17,17 L-16,17 L-16,18 L-17,18 Z M-18,18 L-17,18 L-17,19 L-18,19 Z " fill="#F5F5F5" opacity="0.29411766" transform="translate(123,21)"/>
<path d="M0,0 L1,0 L1,1 L0,1 Z M-1,1 L0,1 L0,2 L-1,2 Z M-2,2 L-1,2 L-1,3 L-2,3 Z M-3,3 L-2,3 L-2,4 L-3,4 Z M-4,4 L-3,4 L-3,5 L-4,5 Z M-5,5 L-4,5 L-4,6 L-5,6 Z M-6,6 L-5,6 L-5,7 L-6,7 Z M-7,7 L-6,7 L-6,8 L-7,8 Z M-8,8 L-7,8 L-7,9 L-8,9 Z M-9,9 L-8,9 L-8,10 L-9,10 Z M-10,10 L-9,10 L-9,11 L-10,11 Z M-11,11 L-10,11 L-10,12 L-11,12 Z M-12,12 L-11,12 L-11,13 L-12,13 Z M-13,13 L-12,13 L-12,14 L-13,14 Z M-14,14 L-13,14 L-13,15 L-14,15 Z M-15,15 L-14,15 L-14,16 L-15,16 Z M-16,16 L-15,16 L-15,17 L-16,17 Z M-17,17 L-16,17 L-16,18 L-17,18 Z M-18,18 L-17,18 L-17,19 L-18,19 Z M-19,19 L-18,19 L-18,20 L-19,20 Z " fill="#F5F5F5" opacity="0.9764706" transform="translate(124,21)"/>
<path d="M0,0 L1,0 L1,18 L0,18 Z " fill="#F5F5F5" opacity="0.59607846" transform="translate(104,22)"/>
<path d="M0,0 L1,0 L1,8 L0,8 Z " fill="#F5F5F5" opacity="0.89411765" transform="translate(127,37)"/>
<path d="M0,0 L6,0 L6,1 L0,1 Z " fill="#F5F5F5" opacity="0.89411765" transform="translate(21,43)"/>
<path d="M0,0 L7,0 L7,1 L0,1 Z " fill="#F5F5F5" opacity="0.89411765" transform="translate(6,43)"/>
<path d="M0,0 L1,0 L1,6 L0,6 Z " fill="#F5F5F5" opacity="0.89411765" transform="translate(43,21)"/>
<path d="M0,0 L1,0 L1,1 L0,1 Z " fill="#F5F5F5" opacity="0.7764706" transform="translate(134,10)"/>
<path d="M0,0 L1,0 L1,7 L0,7 Z " fill="#F5F5F5" opacity="0.89411765" transform="translate(43,6)"/>
<path d="M0,0 L1,0 L1,1 L0,1 Z M-1,1 L0,1 L0,2 L-1,2 Z M-2,2 L-1,2 L-1,3 L-2,3 Z M-3,3 L-2,3 L-2,4 L-3,4 Z M-4,4 L-3,4 L-3,5 L-4,5 Z M-5,5 L-4,5 L-4,6 L-5,6 Z M-6,6 L-5,6 L-5,7 L-6,7 Z M-7,7 L-6,7 L-6,8 L-7,8 Z " fill="#F7F7F7" opacity="0.35686275" transform="translate(118,37)"/>
<path d="M0,0 L1,0 L1,3 L0,3 Z " fill="#F5F5F5" opacity="0.89411765" transform="translate(127,55)"/>
<path d="M0,0 L1,0 L1,1 L0,1 Z M1,1 L2,1 L2,2 L1,2 Z M2,2 L3,2 L3,3 L2,3 Z M3,3 L4,3 L4,4 L3,4 Z " fill="#F5F5F5" opacity="0.8509804" transform="translate(130,26)"/>
<path d="M0,0 L7,0 L7,1 L0,1 Z " fill="#F5F5F5" opacity="0.54901963" transform="translate(90,21)"/>
<path d="M0,0 L1,0 L1,1 L0,1 Z M1,1 L2,1 L2,2 L1,2 Z M2,2 L3,2 L3,3 L2,3 Z M3,3 L4,3 L4,4 L3,4 Z M4,4 L5,4 L5,5 L4,5 Z " fill="#F5F5F5" opacity="0.8509804" transform="translate(119,15)"/>
<path d="M0,0 L1,0 L1,1 L0,1 Z " fill="#F5F5F5" opacity="0.91764706" transform="translate(129,35)"/>
<path d="M0,0 L6,0 L6,1 L0,1 Z " fill="#F5F5F5" opacity="0.54901963" transform="translate(105,21)"/>
<path d="M0,0 L1,0 L1,1 L0,1 Z " fill="#F5F5F5" opacity="0.8862745" transform="translate(126,11)"/>
<path d="M0,0 L1,0 L1,1 L0,1 Z " fill="#F6F6F6" opacity="0.30588236" transform="translate(138,22)"/>
<path d="M0,0 L1,0 L1,1 L0,1 Z " fill="#F6F6F6" opacity="0.3019608" transform="translate(139,13)"/>
<path d="M0,0 L1,0 L1,1 L0,1 Z " fill="#F5F5F5" opacity="0.89411765" transform="translate(4,45)"/>
<path d="M0,0 L1,0 L1,1 L0,1 Z M-1,1 L0,1 L0,2 L-1,2 Z M-2,2 L-1,2 L-1,3 L-2,3 Z M-3,3 L-2,3 L-2,4 L-3,4 Z M-4,4 L-3,4 L-3,5 L-4,5 Z " fill="#F5F5F5" opacity="0.9882353" transform="translate(114,40)"/>
<path d="M0,0 L1,0 L1,1 L0,1 Z M-1,1 L0,1 L0,2 L-1,2 Z M-2,2 L-1,2 L-1,3 L-2,3 Z M-3,3 L-2,3 L-2,4 L-3,4 Z M-4,4 L-3,4 L-3,5 L-4,5 Z " fill="#F7F7F7" opacity="0.36078432" transform="translate(123,32)"/>
<path d="M0,0 L1,0 L1,1 L0,1 Z " fill="#F5F5F5" opacity="0.75686276" transform="translate(137,27)"/>
<path d="M0,0 L1,0 L1,1 L0,1 Z M-1,1 L0,1 L0,2 L-1,2 Z M-2,2 L-1,2 L-1,3 L-2,3 Z M-3,3 L-2,3 L-2,4 L-3,4 Z M-4,4 L-3,4 L-3,5 L-4,5 Z " fill="#F4F4F4" opacity="0.3647059" transform="translate(128,27)"/>
<path d="M0,0 L1,0 L1,1 L0,1 Z M1,1 L2,1 L2,2 L1,2 Z M2,2 L3,2 L3,3 L2,3 Z M3,3 L4,3 L4,4 L3,4 Z M4,4 L5,4 L5,5 L4,5 Z " fill="#F6F6F6" opacity="0.101960786" transform="translate(119,16)"/>
<path d="M0,0 L1,0 L1,1 L0,1 Z " fill="#F5F5F5" opacity="0.89411765" transform="translate(45,4)"/>
<path d="M0,0 L1,0 L1,1 L0,1 Z " fill="#F5F5F5" opacity="0.49803922" transform="translate(128,60)"/>
<path d="M0,0 L1,0 L1,1 L0,1 Z " fill="#F5F5F5" opacity="0.5921569" transform="translate(16,60)"/>
<path d="M0,0 L1,0 L1,1 L0,1 Z " fill="#F5F5F5" opacity="0.5921569" transform="translate(144,47)"/>
<path d="M0,0 L1,0 L1,1 L0,1 Z " fill="#F6F6F6" opacity="0.5176471" transform="translate(29,44)"/>
<path d="M0,0 L1,0 L1,1 L0,1 Z " fill="#F6F6F6" opacity="0.5176471" transform="translate(44,29)"/>
<path d="M0,0 L1,0 L1,1 L0,1 Z M1,1 L2,1 L2,2 L1,2 Z M2,2 L3,2 L3,3 L2,3 Z M3,3 L4,3 L4,4 L3,4 Z " fill="#F6F6F6" opacity="0.101960786" transform="translate(130,27)"/>
<path d="M0,0 L1,0 L1,1 L0,1 Z " fill="#F5F5F5" opacity="0.78431374" transform="translate(111,16)"/>
<path d="M0,0 L1,0 L1,1 L0,1 Z " fill="#F5F5F5" opacity="0.5921569" transform="translate(60,16)"/>
<path d="M0,0 L1,0 L1,1 L0,1 Z " fill="#F5F5F5" opacity="0.69411767" transform="translate(118,13)"/>
<path d="M0,0 L1,0 L1,1 L0,1 Z " fill="#F6F6F6" opacity="0.7176471" transform="translate(92,13)"/>
<path d="M0,0 L1,0 L1,1 L0,1 Z " fill="#F6F6F6" opacity="0.4392157" transform="translate(122,11)"/>
<path d="M0,0 L1,0 L1,1 L0,1 Z " fill="#F5F5F5" opacity="0.78431374" transform="translate(107,11)"/>
<path d="M0,0 L1,0 L1,1 L0,1 Z " fill="#F5F5F5" opacity="0.9843137" transform="translate(136,10)"/>
<path d="M0,0 L1,0 L1,1 L0,1 Z " fill="#F6F6F6" opacity="0.32941177" transform="translate(130,10)"/>
<path d="M0,0 L1,0 L1,1 L0,1 Z " fill="#F6F6F6" opacity="0.7137255" transform="translate(96,8)"/>
<path d="M0,0 L1,0 L1,1 L0,1 Z " fill="#F6F6F6" opacity="0.8156863" transform="translate(14,58)"/>
<path d="M0,0 L1,0 L1,1 L0,1 Z " fill="#F6F6F6" opacity="0.8156863" transform="translate(10,53)"/>
<path d="M0,0 L1,0 L1,1 L0,1 Z " fill="#F6F6F6" opacity="0.8117647" transform="translate(6,48)"/>
<path d="M0,0 L1,0 L1,1 L0,1 Z " fill="#F5F5F5" opacity="0.827451" transform="translate(142,45)"/>
<path d="M0,0 L1,0 L1,1 L0,1 Z " fill="#F5F5F5" opacity="0.99215686" transform="translate(139,43)"/>
<path d="M0,0 L1,0 L1,1 L0,1 Z " fill="#F5F5F5" opacity="0.83137256" transform="translate(137,41)"/>
<path d="M0,0 L1,0 L1,1 L0,1 Z " fill="#F5F5F5" opacity="0.9372549" transform="translate(133,38)"/>
<path d="M0,0 L1,0 L1,1 L0,1 Z " fill="#F5F5F5" opacity="0.6745098" transform="translate(131,36)"/>
<path d="M0,0 L1,0 L1,1 L0,1 Z " fill="#F6F6F6" opacity="0.61960787" transform="translate(113,19)"/>
<path d="M0,0 L1,0 L1,1 L0,1 Z " fill="#F5F5F5" opacity="0.9529412" transform="translate(90,16)"/>
<path d="M0,0 L1,0 L1,1 L0,1 Z " fill="#F5F5F5" opacity="0.98039216" transform="translate(109,14)"/>
<path d="M0,0 L1,0 L1,1 L0,1 Z " fill="#F6F6F6" opacity="0.8156863" transform="translate(58,14)"/>
<path d="M0,0 L1,0 L1,1 L0,1 Z M-1,1 L0,1 L0,2 L-1,2 Z " fill="#F4F4F4" opacity="0.9098039" transform="translate(14,13)"/>
<path d="M0,0 L1,0 L1,1 L0,1 Z M-1,1 L0,1 L0,2 L-1,2 Z " fill="#F5F5F5" transform="translate(120,12)"/>
<path d="M0,0 L1,0 L1,1 L0,1 Z " fill="#F5F5F5" opacity="0.9882353" transform="translate(55,12)"/>
<path d="M0,0 L1,0 L1,1 L0,1 Z " fill="#F5F5F5" opacity="0.9529412" transform="translate(94,11)"/>
<path d="M0,0 L1,0 L1,1 L0,1 Z " fill="#F6F6F6" opacity="0.8156863" transform="translate(53,10)"/>
<path d="M0,0 L1,0 L1,1 L0,1 Z " fill="#F5F5F5" opacity="0.98039216" transform="translate(105,9)"/>
<path d="M0,0 L1,0 L1,1 L0,1 Z " fill="#F5F5F5" opacity="0.9882353" transform="translate(50,8)"/>
<path d="M0,0 L1,0 L1,1 L0,1 Z " fill="#F5F5F5" opacity="0.9529412" transform="translate(98,6)"/>
<path d="M0,0 L1,0 L1,1 L0,1 Z " fill="#F6F6F6" opacity="0.8117647" transform="translate(48,6)"/>
<path d="M0,0 L1,0 L1,1 L0,1 Z " fill="#F6F6F6" opacity="0.90588236" transform="translate(102,5)"/>
<path d="M0,0 L1,0 L1,1 L0,1 Z " fill="#F5F5F5" opacity="0.89411765" transform="translate(127,54)"/>
<path d="M0,0 L1,0 L1,1 L0,1 Z " fill="#F4F4F4" opacity="0.45490196" transform="translate(98,53)"/>
<path d="M0,0 L1,0 L1,1 L0,1 Z " fill="#F7F7F7" opacity="0.0627451" transform="translate(111,45)"/>
<path d="M0,0 L1,0 L1,1 L0,1 Z " fill="#F5F5F5" opacity="0.7490196" transform="translate(5,43)"/>
<path d="M0,0 L1,0 L1,1 L0,1 Z " fill="#F5F5F5" opacity="0.75686276" transform="translate(127,36)"/>
<path d="M0,0 L1,0 L1,1 L0,1 Z " fill="#F5F5F5" opacity="0.015686275" transform="translate(136,31)"/>
<path d="M0,0 L1,0 L1,1 L0,1 Z " fill="#FFFFFF" opacity="0.003921569" transform="translate(138,25)"/>
<path d="M0,0 L1,0 L1,1 L0,1 Z " fill="#F5F5F5" opacity="0.39607844" transform="translate(89,21)"/>
<path d="M0,0 L1,0 L1,1 L0,1 Z " fill="#F6F6F6" opacity="0.5294118" transform="translate(138,20)"/>
<path d="M0,0 L1,0 L1,1 L0,1 Z " fill="#F5F5F5" opacity="0.7490196" transform="translate(138,18)"/>
<path d="M0,0 L1,0 L1,1 L0,1 Z " fill="#F6F6F6" opacity="0.6313726" transform="translate(88,18)"/>
<path d="M0,0 L1,0 L1,1 L0,1 Z " fill="#F7F7F7" opacity="0.36078432" transform="translate(139,11)"/>
<path d="M0,0 L1,0 L1,1 L0,1 Z " fill="#F5F5F5" opacity="0.6627451" transform="translate(124,11)"/>
<path d="M0,0 L1,0 L1,1 L0,1 Z " fill="#F6F6F6" opacity="0.21568628" transform="translate(120,11)"/>
<path d="M0,0 L1,0 L1,1 L0,1 Z " fill="#F5F5F5" opacity="0.5529412" transform="translate(132,10)"/>
<path d="M0,0 L1,0 L1,1 L0,1 Z " fill="#F6F6F6" opacity="0.105882354" transform="translate(128,10)"/>
<path d="M0,0 L1,0 L1,1 L0,1 Z " fill="#F5F5F5" opacity="0.039215688" transform="translate(137,9)"/>
<path d="M0,0 L1,0 L1,1 L0,1 Z " fill="#F6F6F6" opacity="0.60784316" transform="translate(104,7)"/>
<path d="M0,0 L1,0 L1,1 L0,1 Z " fill="#F5F5F5" opacity="0.7490196" transform="translate(43,5)"/>
<path d="M0,0 L1,0 L1,1 L0,1 Z " fill="#F5F5F5" opacity="0.93333334" transform="translate(100,4)"/>
<path d="M0,0 L1,0 L1,1 L0,1 Z " fill="#F8F8F8" opacity="0.14117648" transform="translate(130,60)"/>
<path d="M0,0 L1,0 L1,1 L0,1 Z " fill="#F5F5F5" opacity="0.5568628" transform="translate(129,60)"/>
<path d="M0,0 L1,0 L1,1 L0,1 Z " fill="#F6F6F6" opacity="0.039215688" transform="translate(127,60)"/>
<path d="M0,0 L1,0 L1,1 L0,1 Z " fill="#F4F4F4" opacity="0.03529412" transform="translate(18,60)"/>
<path d="M0,0 L1,0 L1,1 L0,1 Z " fill="#F5F5F5" opacity="0.49803922" transform="translate(17,60)"/>
<path d="M0,0 L1,0 L1,1 L0,1 Z " fill="#F9F9F9" opacity="0.15294118" transform="translate(15,60)"/>
<path d="M0,0 L1,0 L1,1 L0,1 Z " fill="#F6F6F6" opacity="0.32156864" transform="translate(131,59)"/>
<path d="M0,0 L1,0 L1,1 L0,1 Z " fill="#F5F5F5" opacity="0.9529412" transform="translate(130,59)"/>
<path d="M0,0 L1,0 L1,1 L0,1 Z " fill="#F6F6F6" opacity="0.627451" transform="translate(127,59)"/>
<path d="M0,0 L1,0 L1,1 L0,1 Z " fill="#F6F6F6" opacity="0.011764706" transform="translate(19,59)"/>
<path d="M0,0 L1,0 L1,1 L0,1 Z " fill="#F4F4F4" opacity="0.7294118" transform="translate(18,59)"/>
<path d="M0,0 L1,0 L1,1 L0,1 Z " fill="#F5F5F5" opacity="0.9254902" transform="translate(15,59)"/>
<path d="M0,0 L1,0 L1,1 L0,1 Z " fill="#F8F8F8" opacity="0.12941177" transform="translate(14,59)"/>
<path d="M0,0 L1,0 L1,1 L0,1 Z " fill="#F6F6F6" opacity="0.007843138" transform="translate(133,58)"/>
<path d="M0,0 L1,0 L1,1 L0,1 Z " fill="#F6F6F6" opacity="0.5176471" transform="translate(132,58)"/>
<path d="M0,0 L1,0 L1,1 L0,1 Z " fill="#F5F5F5" opacity="0.99607843" transform="translate(131,58)"/>
<path d="M0,0 L1,0 L1,1 L0,1 Z " fill="#F5F5F5" opacity="0.8784314" transform="translate(127,58)"/>
<path d="M0,0 L1,0 L1,1 L0,1 Z " fill="#F6F6F6" opacity="0.5411765" transform="translate(19,58)"/>
<path d="M0,0 L1,0 L1,1 L0,1 Z " fill="#F5F5F5" opacity="0.039215688" transform="translate(13,58)"/>
<path d="M0,0 L1,0 L1,1 L0,1 Z " fill="#F5F5F5" opacity="0.0627451" transform="translate(134,57)"/>
<path d="M0,0 L1,0 L1,1 L0,1 Z " fill="#F6F6F6" opacity="0.70980394" transform="translate(133,57)"/>
<path d="M0,0 L1,0 L1,1 L0,1 Z " fill="#F7F7F7" opacity="0.34117648" transform="translate(20,57)"/>
<path d="M0,0 L1,0 L1,1 L0,1 Z " fill="#F5F5F5" opacity="0.654902" transform="translate(13,57)"/>
<path d="M0,0 L1,0 L1,1 L0,1 Z " fill="#F9F9F9" opacity="0.16470589" transform="translate(135,56)"/>
<path d="M0,0 L1,0 L1,1 L0,1 Z " fill="#F5F5F5" opacity="0.85490197" transform="translate(134,56)"/>
<path d="M0,0 L1,0 L1,1 L0,1 Z " fill="#F4F4F4" opacity="0.18039216" transform="translate(21,56)"/>
<path d="M0,0 L1,0 L1,1 L0,1 Z " fill="#F5F5F5" opacity="0.9607843" transform="translate(20,56)"/>
<path d="M0,0 L1,0 L1,1 L0,1 Z " fill="#F5F5F5" opacity="0.45882353" transform="translate(12,56)"/>
<path d="M0,0 L1,0 L1,1 L0,1 Z " fill="#F6F6F6" opacity="0.31764707" transform="translate(136,55)"/>
<path d="M0,0 L1,0 L1,1 L0,1 Z " fill="#F5F5F5" opacity="0.9529412" transform="translate(135,55)"/>
<path d="M0,0 L1,0 L1,1 L0,1 Z " fill="#F4F4F4" opacity="0.07058824" transform="translate(22,55)"/>
<path d="M0,0 L1,0 L1,1 L0,1 Z " fill="#F5F5F5" opacity="0.87058824" transform="translate(21,55)"/>
<path d="M0,0 L1,0 L1,1 L0,1 Z " fill="#F5F5F5" opacity="0.9882353" transform="translate(12,55)"/>
<path d="M0,0 L1,0 L1,1 L0,1 Z " fill="#F8F8F8" opacity="0.26666668" transform="translate(11,55)"/>
<path d="M0,0 L1,0 L1,1 L0,1 Z " fill="#F6F6F6" opacity="0.007843138" transform="translate(138,54)"/>
<path d="M0,0 L1,0 L1,1 L0,1 Z " fill="#F6F6F6" opacity="0.5137255" transform="translate(137,54)"/>
<path d="M0,0 L1,0 L1,1 L0,1 Z " fill="#F5F5F5" opacity="0.99607843" transform="translate(136,54)"/>
<path d="M0,0 L1,0 L1,1 L0,1 Z " fill="#F6F6F6" opacity="0.011764706" transform="translate(23,54)"/>
<path d="M0,0 L1,0 L1,1 L0,1 Z " fill="#F4F4F4" opacity="0.7294118" transform="translate(22,54)"/>
<path d="M0,0 L1,0 L1,1 L0,1 Z " fill="#F5F5F5" opacity="0.9254902" transform="translate(11,54)"/>
<path d="M0,0 L1,0 L1,1 L0,1 Z " fill="#F8F8F8" opacity="0.12941177" transform="translate(10,54)"/>
<path d="M0,0 L1,0 L1,1 L0,1 Z " fill="#F5F5F5" opacity="0.05882353" transform="translate(139,53)"/>
<path d="M0,0 L1,0 L1,1 L0,1 Z " fill="#F6F6F6" opacity="0.7058824" transform="translate(138,53)"/>
<path d="M0,0 L1,0 L1,1 L0,1 Z " fill="#F5F5F5" opacity="0.9411765" transform="translate(127,53)"/>
<path d="M0,0 L1,0 L1,1 L0,1 Z " fill="#F6F6F6" opacity="0.4117647" transform="translate(97,53)"/>
<path d="M0,0 L1,0 L1,1 L0,1 Z " fill="#F6F6F6" opacity="0.5411765" transform="translate(23,53)"/>
<path d="M0,0 L1,0 L1,1 L0,1 Z " fill="#F5F5F5" opacity="0.039215688" transform="translate(9,53)"/>
<path d="M0,0 L1,0 L1,1 L0,1 Z " fill="#F9F9F9" opacity="0.16078432" transform="translate(140,52)"/>
<path d="M0,0 L1,0 L1,1 L0,1 Z " fill="#F5F5F5" opacity="0.8509804" transform="translate(139,52)"/>
<path d="M0,0 L1,0 L1,1 L0,1 Z " fill="#F7F7F7" opacity="0.34117648" transform="translate(24,52)"/>
<path d="M0,0 L1,0 L1,1 L0,1 Z " fill="#F5F5F5" opacity="0.6509804" transform="translate(9,52)"/>
<path d="M0,0 L1,0 L1,1 L0,1 Z " fill="#F6F6F6" opacity="0.31764707" transform="translate(141,51)"/>
<path d="M0,0 L1,0 L1,1 L0,1 Z " fill="#F5F5F5" opacity="0.9490196" transform="translate(140,51)"/>
<path d="M0,0 L1,0 L1,1 L0,1 Z " fill="#F4F4F4" opacity="0.18039216" transform="translate(25,51)"/>
<path d="M0,0 L1,0 L1,1 L0,1 Z " fill="#F5F5F5" opacity="0.9607843" transform="translate(24,51)"/>
<path d="M0,0 L1,0 L1,1 L0,1 Z " fill="#F4F4F4" opacity="0.45490196" transform="translate(8,51)"/>
<path d="M0,0 L1,0 L1,1 L0,1 Z " fill="#F5F5F5" opacity="0.003921569" transform="translate(143,50)"/>
<path d="M0,0 L1,0 L1,1 L0,1 Z " fill="#F6F6F6" opacity="0.50980395" transform="translate(142,50)"/>
<path d="M0,0 L1,0 L1,1 L0,1 Z " fill="#F6F6F6" opacity="0.07058824" transform="translate(26,50)"/>
<path d="M0,0 L1,0 L1,1 L0,1 Z " fill="#F5F5F5" opacity="0.8666667" transform="translate(25,50)"/>
<path d="M0,0 L1,0 L1,1 L0,1 Z " fill="#F5F5F5" opacity="0.9882353" transform="translate(8,50)"/>
<path d="M0,0 L1,0 L1,1 L0,1 Z " fill="#F8F8F8" opacity="0.2627451" transform="translate(7,50)"/>
<path d="M0,0 L1,0 L1,1 L0,1 Z " fill="#F5F5F5" opacity="0.02745098" transform="translate(144,49)"/>
<path d="M0,0 L1,0 L1,1 L0,1 Z " fill="#F5F5F5" opacity="0.7019608" transform="translate(143,49)"/>
<path d="M0,0 L1,0 L1,1 L0,1 Z " fill="#F6F6F6" opacity="0.011764706" transform="translate(27,49)"/>
<path d="M0,0 L1,0 L1,1 L0,1 Z " fill="#F6F6F6" opacity="0.7254902" transform="translate(26,49)"/>
<path d="M0,0 L1,0 L1,1 L0,1 Z " fill="#F5F5F5" opacity="0.9254902" transform="translate(7,49)"/>
<path d="M0,0 L1,0 L1,1 L0,1 Z " fill="#F8F8F8" opacity="0.1254902" transform="translate(6,49)"/>
<path d="M0,0 L1,0 L1,1 L0,1 Z " fill="#F5F5F5" opacity="0.4862745" transform="translate(144,48)"/>
<path d="M0,0 L1,0 L1,1 L0,1 Z " fill="#F6F6F6" opacity="0.5372549" transform="translate(27,48)"/>
<path d="M0,0 L1,0 L1,1 L0,1 Z " fill="#F5F5F5" opacity="0.039215688" transform="translate(5,48)"/>
<path d="M0,0 L1,0 L1,1 L0,1 Z " fill="#F7F7F7" opacity="0.3372549" transform="translate(28,47)"/>
<path d="M0,0 L1,0 L1,1 L0,1 Z " fill="#F5F5F5" opacity="0.6509804" transform="translate(5,47)"/>
<path d="M0,0 L1,0 L1,1 L0,1 Z " fill="#F9F9F9" opacity="0.16078432" transform="translate(144,46)"/>
<path d="M0,0 L1,0 L1,1 L0,1 Z " fill="#F5F5F5" opacity="0.93333334" transform="translate(143,46)"/>
<path d="M0,0 L1,0 L1,1 L0,1 Z " fill="#F9F9F9" opacity="0.15294118" transform="translate(29,46)"/>
<path d="M0,0 L1,0 L1,1 L0,1 Z " fill="#F5F5F5" opacity="0.95686275" transform="translate(28,46)"/>
<path d="M0,0 L1,0 L1,1 L0,1 Z " fill="#F6F6F6" opacity="0.42352942" transform="translate(4,46)"/>
<path d="M0,0 L1,0 L1,1 L0,1 Z " fill="#F8F8F8" opacity="0.13725491" transform="translate(143,45)"/>
<path d="M0,0 L1,0 L1,1 L0,1 Z " fill="#F5F5F5" opacity="0.8980392" transform="translate(127,45)"/>
<path d="M0,0 L1,0 L1,1 L0,1 Z " fill="#F6F6F6" opacity="0.41568628" transform="translate(110,45)"/>
<path d="M0,0 L1,0 L1,1 L0,1 Z " fill="#F5F5F5" opacity="0.57254905" transform="translate(29,45)"/>
<path d="M0,0 L1,0 L1,1 L0,1 Z " fill="#F5F5F5" opacity="0.043137256" transform="translate(142,44)"/>
<path d="M0,0 L1,0 L1,1 L0,1 Z " fill="#F5F5F5" opacity="0.67058825" transform="translate(141,44)"/>
<path d="M0,0 L1,0 L1,1 L0,1 Z " fill="#F5F5F5" transform="translate(5,44)"/>
<path d="M0,0 L1,0 L1,1 L0,1 Z " fill="#F5F5F5" opacity="0.8392157" transform="translate(4,44)"/>
<path d="M0,0 L1,0 L1,1 L0,1 Z " fill="#F5F5F5" opacity="0.4745098" transform="translate(140,43)"/>
<path d="M0,0 L1,0 L1,1 L0,1 Z " fill="#F4F4F4" opacity="0.043137256" transform="translate(29,43)"/>
<path d="M0,0 L1,0 L1,1 L0,1 Z " fill="#F4F4F4" opacity="0.63529414" transform="translate(28,43)"/>
<path d="M0,0 L1,0 L1,1 L0,1 Z " fill="#F5F5F5" opacity="0.8784314" transform="translate(27,43)"/>
<path d="M0,0 L1,0 L1,1 L0,1 Z " fill="#F5F5F5" opacity="0.95686275" transform="translate(20,43)"/>
<path d="M0,0 L1,0 L1,1 L0,1 Z " fill="#F5F5F5" opacity="0.99215686" transform="translate(13,43)"/>
<path d="M0,0 L1,0 L1,1 L0,1 Z " fill="#F6F6F6" opacity="0.20392157" transform="translate(4,43)"/>
<path d="M0,0 L1,0 L1,1 L0,1 Z " fill="#F5F5F5" opacity="0.28235295" transform="translate(139,42)"/>
<path d="M0,0 L1,0 L1,1 L0,1 Z " fill="#F5F5F5" opacity="0.9372549" transform="translate(138,42)"/>
<path d="M0,0 L1,0 L1,1 L0,1 Z " fill="#F8F8F8" opacity="0.14117648" transform="translate(138,41)"/>
<path d="M0,0 L1,0 L1,1 L0,1 Z " fill="#F5F5F5" opacity="0.047058824" transform="translate(137,40)"/>
<path d="M0,0 L1,0 L1,1 L0,1 Z " fill="#F5F5F5" opacity="0.6745098" transform="translate(136,40)"/>
<path d="M0,0 L1,0 L1,1 L0,1 Z " fill="#F5F5F5" opacity="0.8235294" transform="translate(104,40)"/>
<path d="M0,0 L1,0 L1,1 L0,1 Z " fill="#F5F5F5" opacity="0.47843137" transform="translate(135,39)"/>
<path d="M0,0 L1,0 L1,1 L0,1 Z " fill="#F5F5F5" opacity="0.99215686" transform="translate(134,39)"/>
<path d="M0,0 L1,0 L1,1 L0,1 Z " fill="#F5F5F5" opacity="0.28627452" transform="translate(134,38)"/>
<path d="M0,0 L1,0 L1,1 L0,1 Z " fill="#F8F8F8" opacity="0.14117648" transform="translate(133,37)"/>
<path d="M0,0 L1,0 L1,1 L0,1 Z " fill="#F5F5F5" opacity="0.83137256" transform="translate(132,37)"/>
<path d="M0,0 L1,0 L1,1 L0,1 Z " fill="#F5F5F5" opacity="0.047058824" transform="translate(132,36)"/>
<path d="M0,0 L1,0 L1,1 L0,1 Z " fill="#F5F5F5" transform="translate(128,36)"/>
<path d="M0,0 L1,0 L1,1 L0,1 Z " fill="#F4F4F4" opacity="0.003921569" transform="translate(131,35)"/>
<path d="M0,0 L1,0 L1,1 L0,1 Z " fill="#F4F4F4" opacity="0.45490196" transform="translate(130,35)"/>
<path d="M0,0 L1,0 L1,1 L0,1 Z " fill="#F5F5F5" opacity="0.8627451" transform="translate(128,35)"/>
<path d="M0,0 L1,0 L1,1 L0,1 Z " fill="#F6F6F6" opacity="0.21568628" transform="translate(127,35)"/>
<path d="M0,0 L1,0 L1,1 L0,1 Z " fill="#F6F6F6" opacity="0.105882354" transform="translate(135,31)"/>
<path d="M0,0 L1,0 L1,1 L0,1 Z " fill="#F4F4F4" opacity="0.09019608" transform="translate(137,30)"/>
<path d="M0,0 L1,0 L1,1 L0,1 Z " fill="#F5F5F5" opacity="0.83137256" transform="translate(136,30)"/>
<path d="M0,0 L1,0 L1,1 L0,1 Z " fill="#F5F5F5" opacity="0.78431374" transform="translate(134,30)"/>
<path d="M0,0 L1,0 L1,1 L0,1 Z " fill="#F5F5F5" opacity="0.47843137" transform="translate(137,29)"/>
<path d="M0,0 L1,0 L1,1 L0,1 Z " fill="#F9F9F9" opacity="0.15294118" transform="translate(46,29)"/>
<path d="M0,0 L1,0 L1,1 L0,1 Z " fill="#F5F5F5" opacity="0.57254905" transform="translate(45,29)"/>
<path d="M0,0 L1,0 L1,1 L0,1 Z " fill="#F4F4F4" opacity="0.043137256" transform="translate(43,29)"/>
<path d="M0,0 L1,0 L1,1 L0,1 Z " fill="#F5F5F5" opacity="0.64705884" transform="translate(137,28)"/>
<path d="M0,0 L1,0 L1,1 L0,1 Z " fill="#F7F7F7" opacity="0.3372549" transform="translate(47,28)"/>
<path d="M0,0 L1,0 L1,1 L0,1 Z " fill="#F5F5F5" opacity="0.95686275" transform="translate(46,28)"/>
<path d="M0,0 L1,0 L1,1 L0,1 Z " fill="#F4F4F4" opacity="0.63529414" transform="translate(43,28)"/>
<path d="M0,0 L1,0 L1,1 L0,1 Z " fill="#F6F6F6" opacity="0.011764706" transform="translate(49,27)"/>
<path d="M0,0 L1,0 L1,1 L0,1 Z " fill="#F6F6F6" opacity="0.5372549" transform="translate(48,27)"/>
<path d="M0,0 L1,0 L1,1 L0,1 Z " fill="#F5F5F5" opacity="0.8784314" transform="translate(43,27)"/>
<path d="M0,0 L1,0 L1,1 L0,1 Z " fill="#F5F5F5" opacity="0.8666667" transform="translate(137,26)"/>
<path d="M0,0 L1,0 L1,1 L0,1 Z " fill="#F7F7F7" opacity="0.44705883" transform="translate(129,26)"/>
<path d="M0,0 L1,0 L1,1 L0,1 Z " fill="#F5F5F5" opacity="0.07058824" transform="translate(50,26)"/>
<path d="M0,0 L1,0 L1,1 L0,1 Z " fill="#F6F6F6" opacity="0.7254902" transform="translate(49,26)"/>
<path d="M0,0 L1,0 L1,1 L0,1 Z " fill="#F5F5F5" opacity="0.972549" transform="translate(137,25)"/>
<path d="M0,0 L1,0 L1,1 L0,1 Z " fill="#F4F4F4" opacity="0.18039216" transform="translate(51,25)"/>
<path d="M0,0 L1,0 L1,1 L0,1 Z " fill="#F5F5F5" opacity="0.8666667" transform="translate(50,25)"/>
<path d="M0,0 L1,0 L1,1 L0,1 Z " fill="#FFFFFF" opacity="0.08627451" transform="translate(138,24)"/>
<path d="M0,0 L1,0 L1,1 L0,1 Z " fill="#F7F7F7" opacity="0.34117648" transform="translate(52,24)"/>
<path d="M0,0 L1,0 L1,1 L0,1 Z " fill="#F5F5F5" opacity="0.9607843" transform="translate(51,24)"/>
<path d="M0,0 L1,0 L1,1 L0,1 Z " fill="#F5F5F5" opacity="0.19607843" transform="translate(138,23)"/>
<path d="M0,0 L1,0 L1,1 L0,1 Z " fill="#F4F4F4" opacity="0.011764706" transform="translate(54,23)"/>
<path d="M0,0 L1,0 L1,1 L0,1 Z " fill="#F6F6F6" opacity="0.5411765" transform="translate(53,23)"/>
<path d="M0,0 L1,0 L1,1 L0,1 Z " fill="#F5F5F5" opacity="0.07058824" transform="translate(55,22)"/>
<path d="M0,0 L1,0 L1,1 L0,1 Z " fill="#F4F4F4" opacity="0.7294118" transform="translate(54,22)"/>
<path d="M0,0 L1,0 L1,1 L0,1 Z " fill="#F6F6F6" opacity="0.41960785" transform="translate(138,21)"/>
<path d="M0,0 L1,0 L1,1 L0,1 Z " fill="#F5F5F5" opacity="0.28627452" transform="translate(112,21)"/>
<path d="M0,0 L1,0 L1,1 L0,1 Z " fill="#F6F6F6" opacity="0.53333336" transform="translate(111,21)"/>
<path d="M0,0 L1,0 L1,1 L0,1 Z " fill="#F6F6F6" opacity="0.8156863" transform="translate(104,21)"/>
<path d="M0,0 L1,0 L1,1 L0,1 Z " fill="#F5F5F5" opacity="0.9607843" transform="translate(97,21)"/>
<path d="M0,0 L1,0 L1,1 L0,1 Z " fill="#F5F5F5" opacity="0.043137256" transform="translate(88,21)"/>
<path d="M0,0 L1,0 L1,1 L0,1 Z " fill="#F4F4F4" opacity="0.18039216" transform="translate(56,21)"/>
<path d="M0,0 L1,0 L1,1 L0,1 Z " fill="#F5F5F5" opacity="0.87058824" transform="translate(55,21)"/>
<path d="M0,0 L1,0 L1,1 L0,1 Z " fill="#F5F5F5" opacity="0.8745098" transform="translate(124,20)"/>
<path d="M0,0 L1,0 L1,1 L0,1 Z " fill="#F7F7F7" opacity="0.35686275" transform="translate(113,20)"/>
<path d="M0,0 L1,0 L1,1 L0,1 Z " fill="#F5F5F5" opacity="0.6784314" transform="translate(88,20)"/>
<path d="M0,0 L1,0 L1,1 L0,1 Z " fill="#F7F7F7" opacity="0.34117648" transform="translate(57,20)"/>
<path d="M0,0 L1,0 L1,1 L0,1 Z " fill="#F5F5F5" opacity="0.9607843" transform="translate(56,20)"/>
<path d="M0,0 L1,0 L1,1 L0,1 Z " fill="#F5F5F5" opacity="0.95686275" transform="translate(43,20)"/>
<path d="M0,0 L1,0 L1,1 L0,1 Z " fill="#F5F5F5" opacity="0.8352941" transform="translate(20,20)"/>
<path d="M0,0 L1,0 L1,1 L0,1 Z " fill="#F5F5F5" opacity="0.6392157" transform="translate(138,19)"/>
<path d="M0,0 L1,0 L1,1 L0,1 Z " fill="#F5F5F5" opacity="0.9411765" transform="translate(88,19)"/>
<path d="M0,0 L1,0 L1,1 L0,1 Z " fill="#F4F4F4" opacity="0.011764706" transform="translate(59,19)"/>
<path d="M0,0 L1,0 L1,1 L0,1 Z " fill="#F6F6F6" opacity="0.5411765" transform="translate(58,19)"/>
<path d="M0,0 L1,0 L1,1 L0,1 Z " fill="#F6F6F6" opacity="0.3137255" transform="translate(113,18)"/>
<path d="M0,0 L1,0 L1,1 L0,1 Z " fill="#F5F5F5" opacity="0.03529412" transform="translate(60,18)"/>
<path d="M0,0 L1,0 L1,1 L0,1 Z " fill="#F4F4F4" opacity="0.7294118" transform="translate(59,18)"/>
<path d="M0,0 L1,0 L1,1 L0,1 Z " fill="#F5F5F5" opacity="0.8627451" transform="translate(138,17)"/>
<path d="M0,0 L1,0 L1,1 L0,1 Z " fill="#F6F6F6" opacity="0.6117647" transform="translate(112,17)"/>
<path d="M0,0 L1,0 L1,1 L0,1 Z " fill="#F5F5F5" opacity="0.8627451" transform="translate(89,17)"/>
<path d="M0,0 L1,0 L1,1 L0,1 Z " fill="#F5F5F5" opacity="0.06666667" transform="translate(88,17)"/>
<path d="M0,0 L1,0 L1,1 L0,1 Z " fill="#F5F5F5" opacity="0.49803922" transform="translate(60,17)"/>
<path d="M0,0 L1,0 L1,1 L0,1 Z " fill="#F5F5F5" opacity="0.96862745" transform="translate(138,16)"/>
<path d="M0,0 L1,0 L1,1 L0,1 Z " fill="#F5F5F5" opacity="0.02745098" transform="translate(112,16)"/>
<path d="M0,0 L1,0 L1,1 L0,1 Z " fill="#FAFAFA" opacity="0.17254902" transform="translate(89,16)"/>
<path d="M0,0 L1,0 L1,1 L0,1 Z " fill="#FFFFFF" opacity="0.078431375" transform="translate(139,15)"/>
<path d="M0,0 L1,0 L1,1 L0,1 Z " fill="#FFFFFF" opacity="0.08627451" transform="translate(118,15)"/>
<path d="M0,0 L1,0 L1,1 L0,1 Z " fill="#F6F6F6" opacity="0.105882354" transform="translate(111,15)"/>
<path d="M0,0 L1,0 L1,1 L0,1 Z " fill="#F6F6F6" opacity="0.90588236" transform="translate(110,15)"/>
<path d="M0,0 L1,0 L1,1 L0,1 Z " fill="#F6F6F6" opacity="0.32941177" transform="translate(90,15)"/>
<path d="M0,0 L1,0 L1,1 L0,1 Z " fill="#F9F9F9" opacity="0.15294118" transform="translate(60,15)"/>
<path d="M0,0 L1,0 L1,1 L0,1 Z " fill="#F5F5F5" opacity="0.9254902" transform="translate(59,15)"/>
<path d="M0,0 L1,0 L1,1 L0,1 Z " fill="#F5F5F5" opacity="0.19215687" transform="translate(139,14)"/>
<path d="M0,0 L1,0 L1,1 L0,1 Z " fill="#F5F5F5" opacity="0.59607846" transform="translate(118,14)"/>
<path d="M0,0 L1,0 L1,1 L0,1 Z " fill="#F7F7F7" opacity="0.23137255" transform="translate(110,14)"/>
<path d="M0,0 L1,0 L1,1 L0,1 Z " fill="#F6F6F6" opacity="0.5254902" transform="translate(91,14)"/>
<path d="M0,0 L1,0 L1,1 L0,1 Z " fill="#F8F8F8" opacity="0.12941177" transform="translate(59,14)"/>
<path d="M0,0 L1,0 L1,1 L0,1 Z " fill="#F5F5F5" transform="translate(14,14)"/>
<path d="M0,0 L1,0 L1,1 L0,1 Z " fill="#F6F6F6" opacity="0.40784314" transform="translate(109,13)"/>
<path d="M0,0 L1,0 L1,1 L0,1 Z " fill="#F6F6F6" opacity="0.007843138" transform="translate(91,13)"/>
<path d="M0,0 L1,0 L1,1 L0,1 Z " fill="#F5F5F5" opacity="0.039215688" transform="translate(58,13)"/>
<path d="M0,0 L1,0 L1,1 L0,1 Z " fill="#F5F5F5" opacity="0.654902" transform="translate(57,13)"/>
<path d="M0,0 L1,0 L1,1 L0,1 Z " fill="#F5F5F5" opacity="0.99215686" transform="translate(43,13)"/>
<path d="M0,0 L1,0 L1,1 L0,1 Z " fill="#F5F5F5" opacity="0.8235294" transform="translate(13,13)"/>
<path d="M0,0 L1,0 L1,1 L0,1 Z " fill="#F6F6F6" opacity="0.40784314" transform="translate(139,12)"/>
<path d="M0,0 L1,0 L1,1 L0,1 Z " fill="#F5F5F5" opacity="0.9254902" transform="translate(119,12)"/>
<path d="M0,0 L1,0 L1,1 L0,1 Z " fill="#F7F7F7" opacity="0.22352941" transform="translate(118,12)"/>
<path d="M0,0 L1,0 L1,1 L0,1 Z " fill="#F6F6F6" opacity="0.6117647" transform="translate(108,12)"/>
<path d="M0,0 L1,0 L1,1 L0,1 Z " fill="#F5F5F5" opacity="0.85882354" transform="translate(93,12)"/>
<path d="M0,0 L1,0 L1,1 L0,1 Z " fill="#F5F5F5" opacity="0.0627451" transform="translate(92,12)"/>
<path d="M0,0 L1,0 L1,1 L0,1 Z " fill="#F5F5F5" opacity="0.45882353" transform="translate(56,12)"/>
<path d="M0,0 L1,0 L1,1 L0,1 Z " fill="#F5F5F5" opacity="0.9843137" transform="translate(127,11)"/>
<path d="M0,0 L1,0 L1,1 L0,1 Z " fill="#F5F5F5" opacity="0.77254903" transform="translate(125,11)"/>
<path d="M0,0 L1,0 L1,1 L0,1 Z " fill="#F5F5F5" opacity="0.54901963" transform="translate(123,11)"/>
<path d="M0,0 L1,0 L1,1 L0,1 Z " fill="#F6F6F6" opacity="0.3254902" transform="translate(121,11)"/>
<path d="M0,0 L1,0 L1,1 L0,1 Z " fill="#F6F6F6" opacity="0.03137255" transform="translate(119,11)"/>
<path d="M0,0 L1,0 L1,1 L0,1 Z " fill="#F5F5F5" opacity="0.02745098" transform="translate(108,11)"/>
<path d="M0,0 L1,0 L1,1 L0,1 Z " fill="#FAFAFA" opacity="0.16862746" transform="translate(93,11)"/>
<path d="M0,0 L1,0 L1,1 L0,1 Z " fill="#F8F8F8" opacity="0.26666668" transform="translate(55,11)"/>
<path d="M0,0 L1,0 L1,1 L0,1 Z " fill="#F5F5F5" opacity="0.9254902" transform="translate(54,11)"/>
<path d="M0,0 L1,0 L1,1 L0,1 Z " fill="#F5F5F5" opacity="0.03137255" transform="translate(139,10)"/>
<path d="M0,0 L1,0 L1,1 L0,1 Z " fill="#F5F5F5" opacity="0.7372549" transform="translate(138,10)"/>
<path d="M0,0 L1,0 L1,1 L0,1 Z " fill="#F5F5F5" opacity="0.8862745" transform="translate(135,10)"/>
<path d="M0,0 L1,0 L1,1 L0,1 Z " fill="#F5F5F5" opacity="0.6627451" transform="translate(133,10)"/>
<path d="M0,0 L1,0 L1,1 L0,1 Z " fill="#F6F6F6" opacity="0.4392157" transform="translate(131,10)"/>
<path d="M0,0 L1,0 L1,1 L0,1 Z " fill="#F6F6F6" opacity="0.21568628" transform="translate(129,10)"/>
<path d="M0,0 L1,0 L1,1 L0,1 Z " fill="#F6F6F6" opacity="0.007843138" transform="translate(127,10)"/>
<path d="M0,0 L1,0 L1,1 L0,1 Z " fill="#F6F6F6" opacity="0.101960786" transform="translate(107,10)"/>
<path d="M0,0 L1,0 L1,1 L0,1 Z " fill="#F6F6F6" opacity="0.90588236" transform="translate(106,10)"/>
<path d="M0,0 L1,0 L1,1 L0,1 Z " fill="#F6F6F6" opacity="0.3254902" transform="translate(94,10)"/>
<path d="M0,0 L1,0 L1,1 L0,1 Z " fill="#F8F8F8" opacity="0.12941177" transform="translate(54,10)"/>
<path d="M0,0 L1,0 L1,1 L0,1 Z " fill="#F5F5F5" opacity="0.007843138" transform="translate(136,9)"/>
<path d="M0,0 L1,0 L1,1 L0,1 Z " fill="#F7F7F7" opacity="0.23137255" transform="translate(106,9)"/>
<path d="M0,0 L1,0 L1,1 L0,1 Z " fill="#F6F6F6" opacity="0.52156866" transform="translate(95,9)"/>
<path d="M0,0 L1,0 L1,1 L0,1 Z " fill="#F5F5F5" opacity="0.039215688" transform="translate(53,9)"/>
<path d="M0,0 L1,0 L1,1 L0,1 Z " fill="#F5F5F5" opacity="0.6509804" transform="translate(52,9)"/>
<path d="M0,0 L1,0 L1,1 L0,1 Z " fill="#F6F6F6" opacity="0.40392157" transform="translate(105,8)"/>
<path d="M0,0 L1,0 L1,1 L0,1 Z " fill="#F6F6F6" opacity="0.007843138" transform="translate(95,8)"/>
<path d="M0,0 L1,0 L1,1 L0,1 Z " fill="#F4F4F4" opacity="0.45490196" transform="translate(51,8)"/>
<path d="M0,0 L1,0 L1,1 L0,1 Z " fill="#F5F5F5" opacity="0.85882354" transform="translate(97,7)"/>
<path d="M0,0 L1,0 L1,1 L0,1 Z " fill="#F5F5F5" opacity="0.0627451" transform="translate(96,7)"/>
<path d="M0,0 L1,0 L1,1 L0,1 Z " fill="#F8F8F8" opacity="0.2627451" transform="translate(50,7)"/>
<path d="M0,0 L1,0 L1,1 L0,1 Z " fill="#F5F5F5" opacity="0.9254902" transform="translate(49,7)"/>
<path d="M0,0 L1,0 L1,1 L0,1 Z " fill="#F5F5F5" opacity="0.023529412" transform="translate(104,6)"/>
<path d="M0,0 L1,0 L1,1 L0,1 Z " fill="#F5F5F5" opacity="0.78039217" transform="translate(103,6)"/>
<path d="M0,0 L1,0 L1,1 L0,1 Z " fill="#FAFAFA" opacity="0.16862746" transform="translate(97,6)"/>
<path d="M0,0 L1,0 L1,1 L0,1 Z " fill="#F8F8F8" opacity="0.1254902" transform="translate(49,6)"/>
<path d="M0,0 L1,0 L1,1 L0,1 Z " fill="#F6F6F6" opacity="0.101960786" transform="translate(103,5)"/>
<path d="M0,0 L1,0 L1,1 L0,1 Z " fill="#F5F5F5" transform="translate(99,5)"/>
<path d="M0,0 L1,0 L1,1 L0,1 Z " fill="#F6F6F6" opacity="0.3254902" transform="translate(98,5)"/>
<path d="M0,0 L1,0 L1,1 L0,1 Z " fill="#F5F5F5" opacity="0.039215688" transform="translate(48,5)"/>
<path d="M0,0 L1,0 L1,1 L0,1 Z " fill="#F5F5F5" opacity="0.6509804" transform="translate(47,5)"/>
<path d="M0,0 L1,0 L1,1 L0,1 Z " fill="#F5F5F5" opacity="0.19215687" transform="translate(102,4)"/>
<path d="M0,0 L1,0 L1,1 L0,1 Z " fill="#F5F5F5" opacity="0.84313726" transform="translate(101,4)"/>
<path d="M0,0 L1,0 L1,1 L0,1 Z " fill="#F6F6F6" opacity="0.41568628" transform="translate(99,4)"/>
<path d="M0,0 L1,0 L1,1 L0,1 Z " fill="#F6F6F6" opacity="0.42352942" transform="translate(46,4)"/>
<path d="M0,0 L1,0 L1,1 L0,1 Z " fill="#F5F5F5" opacity="0.8392157" transform="translate(44,4)"/>
<path d="M0,0 L1,0 L1,1 L0,1 Z " fill="#F6F6F6" opacity="0.20392157" transform="translate(43,4)"/>
</svg>
