<?xml version="1.0" encoding="UTF-8"?>
<!-- Generator: visioncortex VTracer 0.6.4 -->
<svg version="1.1" xmlns="http://www.w3.org/2000/svg" width="23" height="22">
<path d="M0,0 L14,0 L14,5 L12,5 L12,4 L6,4 L6,3 L5,3 L5,2 L4,2 L4,3 L3,3 L3,10 L-1,10 L-1,9 L0,9 Z M10,7 L11,7 L11,8 L12,8 L12,10 L9,10 L9,9 L10,9 Z M9,11 L12,11 L12,12 L10,12 L10,13 L8,13 L8,12 L9,12 Z " fill="#FFFFFF" transform="translate(4,5)"/>
<path d="M0,0 L1,0 L1,1 L0,1 Z M-1,7 L0,7 L0,8 L-1,8 Z M4,7 L5,7 L5,8 L4,8 Z " fill="#FFFDFE" transform="translate(8,7)"/>
<path d="M0,0 L2,0 L2,2 L4,2 L4,1 L8,1 L8,2 L10,2 L10,3 L11,3 L11,6 L12,6 L12,7 L11,7 L11,9 L10,9 L10,5 L9,5 L9,4 L6,4 L6,6 L0,6 Z M9,10 L10,10 L10,11 L9,11 Z M4,11 L8,11 L8,12 L4,12 Z " fill="#FF4596" transform="translate(7,8)"/>
<path d="M0,0 L14,0 L14,1 L0,1 Z " fill="#FFFFFF" opacity="0.59607846" transform="translate(4,3)"/>
<path d="M0,0 L1,0 L1,1 L2,1 L2,2 L1,2 L1,4 L0,4 Z M-2,5 L0,5 L0,6 L-2,6 Z M-6,6 L-2,6 L-2,7 L-6,7 Z " fill="#FF4495" opacity="0.99215686" transform="translate(17,13)"/>
<path d="M0,0 L13,0 L13,1 L0,1 Z " fill="#FFFFFF" opacity="0.95686275" transform="translate(5,4)"/>
<path d="M0,0 L3,0 L3,1 L4,1 L4,3 L-5,3 L-5,2 L0,2 Z M0,4 L3,4 L3,5 L1,5 L1,6 L-1,6 L-1,5 L0,5 Z " fill="#FFFFFF" transform="translate(13,12)"/>
<path d="M0,0 L4,0 L4,1 L6,1 L6,2 L7,2 L7,4 L5,4 L5,3 L0,3 Z " fill="#FF4596" transform="translate(11,9)"/>
<path d="M0,0 L1,0 L1,9 L0,9 Z " fill="#FFFFFF" opacity="0.59607846" transform="translate(19,5)"/>
<path d="M0,0 L1,0 L1,9 L0,9 Z " fill="#FFFFFF" opacity="0.59607846" transform="translate(2,5)"/>
<path d="M0,0 L8,0 L8,1 L0,1 Z " fill="#FFFFFF" opacity="0.6392157" transform="translate(4,15)"/>
<path d="M0,0 L1,0 L1,1 L2,1 L2,2 L1,2 L1,4 L0,4 Z " fill="#FF4596" transform="translate(17,13)"/>
<path d="M0,0 L1,0 L1,1 L0,1 Z " fill="#FF4496" opacity="0.72156864" transform="translate(13,20)"/>
<path d="M0,0 L3,0 L3,1 L1,1 L1,2 L-1,2 L-1,1 L0,1 Z " fill="#FFFFFF" transform="translate(13,16)"/>
<path d="M0,0 L1,0 L1,9 L0,9 Z " fill="#FFFFFF" opacity="0.8352941" transform="translate(3,5)"/>
<path d="M0,0 L1,0 L1,7 L0,7 Z " fill="#FFFFFF" opacity="0.7607843" transform="translate(18,5)"/>
<path d="M0,0 L2,0 L2,1 L3,1 L3,3 L1,3 L1,2 L0,2 Z " fill="#FF4596" transform="translate(15,10)"/>
<path d="M0,0 L4,0 L4,1 L0,1 Z " fill="#FF4596" transform="translate(11,19)"/>
<path d="M0,0 L1,0 L1,6 L0,6 Z " fill="#FF7BB5" transform="translate(7,8)"/>
<path d="M0,0 L1,0 L1,1 L0,1 Z " fill="#FF4596" opacity="0.99607843" transform="translate(10,19)"/>
<path d="M0,0 L1,0 L1,1 L0,1 Z M-1,1 L0,1 L0,2 L-1,2 Z " fill="#FFFFFF" transform="translate(13,16)"/>
<path d="M0,0 L1,0 L1,2 L0,2 Z " fill="#FFC4DE" transform="translate(16,13)"/>
<path d="M0,0 L4,0 L4,1 L0,1 Z " fill="#FFF1F7" transform="translate(8,14)"/>
<path d="M0,0 L4,0 L4,1 L0,1 Z " fill="#FFC1DC" transform="translate(11,11)"/>
<path d="M0,0 L4,0 L4,1 L0,1 Z " fill="#FF73B0" transform="translate(11,9)"/>
<path d="M0,0 L1,0 L1,1 L0,1 Z " fill="#FFFFFF" opacity="0.5058824" transform="translate(11,17)"/>
<path d="M0,0 L1,0 L1,1 L0,1 Z " fill="#FF71AF" transform="translate(18,14)"/>
<path d="M0,0 L1,0 L1,1 L0,1 Z M1,1 L2,1 L2,2 L1,2 Z " fill="#FFFFFF" opacity="0.59607846" transform="translate(18,3)"/>
<path d="M0,0 L1,0 L1,1 L0,1 Z M-1,1 L0,1 L0,2 L-1,2 Z " fill="#FFFFFF" opacity="0.59607846" transform="translate(3,3)"/>
<path d="M0,0 L1,0 L1,1 L0,1 Z " fill="#FF4495" opacity="0.5294118" transform="translate(11,20)"/>
<path d="M0,0 L1,0 L1,1 L0,1 Z " fill="#FF4596" transform="translate(11,19)"/>
<path d="M0,0 L1,0 L1,1 L0,1 Z " fill="#FF4595" opacity="0.34901962" transform="translate(9,19)"/>
<path d="M0,0 L1,0 L1,1 L0,1 Z " fill="#FF82B8" opacity="0.56078434" transform="translate(13,18)"/>
<path d="M0,0 L1,0 L1,1 L0,1 Z " fill="#FF4596" opacity="0.9882353" transform="translate(16,17)"/>
<path d="M0,0 L1,0 L1,1 L0,1 Z " fill="#FFFFFF" opacity="0.93333334" transform="translate(15,15)"/>
<path d="M0,0 L2,0 L2,1 L0,1 Z " fill="#FFDCEB" transform="translate(8,14)"/>
<path d="M0,0 L1,0 L1,2 L0,2 Z " fill="#FFE8F2" transform="translate(13,12)"/>
<path d="M0,0 L1,0 L1,2 L0,2 Z " fill="#FF559F" transform="translate(12,12)"/>
<path d="M0,0 L2,0 L2,1 L0,1 Z " fill="#FFD6E8" transform="translate(9,9)"/>
<path d="M0,0 L1,0 L1,2 L0,2 Z " fill="#FF4596" transform="translate(8,8)"/>
<path d="M0,0 L1,0 L1,2 L0,2 Z " fill="#FF7BB5" transform="translate(7,8)"/>
<path d="M0,0 L1,0 L1,1 L0,1 Z " fill="#FFFFFF" opacity="0.95686275" transform="translate(4,4)"/>
<path d="M0,0 L1,0 L1,1 L0,1 Z " fill="#FF4194" opacity="0.16862746" transform="translate(15,20)"/>
<path d="M0,0 L1,0 L1,1 L0,1 Z " fill="#FF4595" opacity="0.5372549" transform="translate(14,20)"/>
<path d="M0,0 L1,0 L1,1 L0,1 Z " fill="#FF4396" opacity="0.69411767" transform="translate(12,20)"/>
<path d="M0,0 L1,0 L1,1 L0,1 Z " fill="#FF4199" opacity="0.13725491" transform="translate(10,20)"/>
<path d="M0,0 L1,0 L1,1 L0,1 Z " fill="#FF4395" opacity="0.007843138" transform="translate(17,19)"/>
<path d="M0,0 L1,0 L1,1 L0,1 Z " fill="#FF4495" opacity="0.58431375" transform="translate(16,19)"/>
<path d="M0,0 L1,0 L1,1 L0,1 Z " fill="#FF4495" opacity="0.99215686" transform="translate(15,19)"/>
<path d="M0,0 L1,0 L1,1 L0,1 Z " fill="#FF4395" opacity="0.5764706" transform="translate(17,18)"/>
<path d="M0,0 L1,0 L1,1 L0,1 Z " fill="#FF4596" transform="translate(16,18)"/>
<path d="M0,0 L1,0 L1,1 L0,1 Z " fill="#FF4495" opacity="0.6431373" transform="translate(14,18)"/>
<path d="M0,0 L1,0 L1,1 L0,1 Z " fill="#FFACD1" opacity="0.87058824" transform="translate(12,18)"/>
<path d="M0,0 L1,0 L1,1 L0,1 Z " fill="#FF81B8" opacity="0.99215686" transform="translate(11,18)"/>
<path d="M0,0 L1,0 L1,1 L0,1 Z " fill="#FF4596" opacity="0.9647059" transform="translate(10,18)"/>
<path d="M0,0 L1,0 L1,1 L0,1 Z " fill="#FF4496" opacity="0.3529412" transform="translate(9,18)"/>
<path d="M0,0 L1,0 L1,1 L0,1 Z " fill="#FF4198" opacity="0.18431373" transform="translate(18,17)"/>
<path d="M0,0 L1,0 L1,1 L0,1 Z " fill="#FF4496" opacity="0.99607843" transform="translate(17,17)"/>
<path d="M0,0 L1,0 L1,1 L0,1 Z " fill="#FF93C2" opacity="0.5372549" transform="translate(15,17)"/>
<path d="M0,0 L1,0 L1,1 L0,1 Z " fill="#FFFFFF" opacity="0.8156863" transform="translate(14,17)"/>
<path d="M0,0 L1,0 L1,1 L0,1 Z " fill="#FFFFFF" opacity="0.003921569" transform="translate(10,17)"/>
<path d="M0,0 L1,0 L1,1 L0,1 Z " fill="#FF4697" opacity="0.58431375" transform="translate(18,16)"/>
<path d="M0,0 L1,0 L1,1 L0,1 Z " fill="#FF83B9" opacity="0.9411765" transform="translate(16,16)"/>
<path d="M0,0 L1,0 L1,1 L0,1 Z " fill="#FFFFFF" opacity="0.8745098" transform="translate(12,16)"/>
<path d="M0,0 L1,0 L1,1 L0,1 Z " fill="#FFFFFF" opacity="0.03529412" transform="translate(11,16)"/>
<path d="M0,0 L1,0 L1,1 L0,1 Z " fill="#FFFFFF" opacity="0.02745098" transform="translate(19,15)"/>
<path d="M0,0 L1,0 L1,1 L0,1 Z " fill="#FF6FAE" opacity="0.98039216" transform="translate(18,15)"/>
<path d="M0,0 L1,0 L1,1 L0,1 Z " fill="#FFBFDB" opacity="0.9372549" transform="translate(16,15)"/>
<path d="M0,0 L1,0 L1,1 L0,1 Z " fill="#FFFFFF" opacity="0.9607843" transform="translate(14,15)"/>
<path d="M0,0 L1,0 L1,1 L0,1 Z " fill="#FFFFFF" opacity="0.9882353" transform="translate(13,15)"/>
<path d="M0,0 L1,0 L1,1 L0,1 Z " fill="#FFFFFF" opacity="0.7490196" transform="translate(12,15)"/>
<path d="M0,0 L1,0 L1,1 L0,1 Z " fill="#FFFFFF" opacity="0.8745098" transform="translate(3,15)"/>
<path d="M0,0 L1,0 L1,1 L0,1 Z " fill="#FFFFFF" opacity="0.38039216" transform="translate(19,14)"/>
<path d="M0,0 L1,0 L1,1 L0,1 Z " fill="#FFFDFE" transform="translate(12,14)"/>
<path d="M0,0 L1,0 L1,1 L0,1 Z " fill="#FFE6F1" transform="translate(10,14)"/>
<path d="M0,0 L1,0 L1,1 L0,1 Z " fill="#FFD7E9" transform="translate(8,14)"/>
<path d="M0,0 L1,0 L1,1 L0,1 Z " fill="#FFFFFF" opacity="0.3882353" transform="translate(2,14)"/>
<path d="M0,0 L1,0 L1,1 L0,1 Z " fill="#FF81B8" opacity="0.9098039" transform="translate(18,13)"/>
<path d="M0,0 L1,0 L1,1 L0,1 Z " fill="#FF90C0" transform="translate(16,13)"/>
<path d="M0,0 L1,0 L1,1 L0,1 Z " fill="#FF4596" transform="translate(11,13)"/>
<path d="M0,0 L1,0 L1,1 L0,1 Z " fill="#FF87BB" transform="translate(7,13)"/>
<path d="M0,0 L1,0 L1,1 L0,1 Z " fill="#FFCDE3" opacity="0.8117647" transform="translate(18,12)"/>
<path d="M0,0 L1,0 L1,1 L0,1 Z " fill="#FF4898" transform="translate(16,12)"/>
<path d="M0,0 L1,0 L1,1 L0,1 Z " fill="#FFCCE2" transform="translate(15,12)"/>
<path d="M0,0 L1,0 L1,1 L0,1 Z " fill="#FFE6F1" transform="translate(13,12)"/>
<path d="M0,0 L1,0 L1,1 L0,1 Z " fill="#FF509C" transform="translate(12,12)"/>
<path d="M0,0 L1,0 L1,1 L0,1 Z " fill="#FF4998" transform="translate(10,12)"/>
<path d="M0,0 L1,0 L1,1 L0,1 Z " fill="#FF72B0" transform="translate(7,12)"/>
<path d="M0,0 L1,0 L1,1 L0,1 Z " fill="#FF8BBD" transform="translate(17,11)"/>
<path d="M0,0 L1,0 L1,1 L0,1 Z " fill="#FF4797" transform="translate(15,11)"/>
<path d="M0,0 L1,0 L1,1 L0,1 Z " fill="#FF91C1" transform="translate(14,11)"/>
<path d="M0,0 L1,0 L1,1 L0,1 Z " fill="#FFC4DE" transform="translate(13,11)"/>
<path d="M0,0 L1,0 L1,1 L0,1 Z " fill="#FF8DBF" transform="translate(11,11)"/>
<path d="M0,0 L1,0 L1,1 L0,1 Z " fill="#FF4797" transform="translate(10,11)"/>
<path d="M0,0 L1,0 L1,1 L0,1 Z " fill="#FFFCFD" transform="translate(17,10)"/>
<path d="M0,0 L1,0 L1,1 L0,1 Z " fill="#FF8ABD" transform="translate(16,10)"/>
<path d="M0,0 L1,0 L1,1 L0,1 Z " fill="#FF72B0" transform="translate(9,10)"/>
<path d="M0,0 L1,0 L1,1 L0,1 Z " fill="#FFD4E7" transform="translate(15,9)"/>
<path d="M0,0 L1,0 L1,1 L0,1 Z " fill="#FF92C1" transform="translate(14,9)"/>
<path d="M0,0 L1,0 L1,1 L0,1 Z " fill="#FF6DAC" transform="translate(13,9)"/>
<path d="M0,0 L1,0 L1,1 L0,1 Z " fill="#FF8EBF" transform="translate(11,9)"/>
<path d="M0,0 L1,0 L1,1 L0,1 Z " fill="#FFB6D6" transform="translate(9,9)"/>
<path d="M0,0 L1,0 L1,1 L0,1 Z " fill="#FFDCEB" transform="translate(9,8)"/>
<path d="M0,0 L1,0 L1,1 L0,1 Z " fill="#FF4D9A" transform="translate(8,8)"/>
<path d="M0,0 L1,0 L1,1 L0,1 Z " fill="#FFA9CE" transform="translate(7,8)"/>
<path d="M0,0 L1,0 L1,1 L0,1 Z " fill="#FFFDFE" transform="translate(8,7)"/>
<path d="M0,0 L1,0 L1,1 L0,1 Z " fill="#FFFFFF" opacity="0.99607843" transform="translate(18,4)"/>
<path d="M0,0 L1,0 L1,1 L0,1 Z " fill="#FFFFFF" opacity="0.99215686" transform="translate(3,4)"/>
<path d="M0,0 L1,0 L1,1 L0,1 Z " fill="#FFFFFF" opacity="0.3372549" transform="translate(19,3)"/>
<path d="M0,0 L1,0 L1,1 L0,1 Z " fill="#FFFFFF" opacity="0.3254902" transform="translate(2,3)"/>
</svg>
