<?xml version="1.0" encoding="UTF-8"?>
<!-- Generator: visioncortex VTracer 0.6.4 -->
<svg version="1.1" xmlns="http://www.w3.org/2000/svg" width="23" height="22">
<path d="M0,0 L4,0 L4,1 L5,1 L5,5 L4,5 L4,6 L8,6 L8,7 L4,7 L4,8 L5,8 L5,10 L6,10 L6,13 L5,13 L5,14 L-1,14 L-1,13 L-2,13 L-2,9 L-1,9 L-1,8 L0,8 L0,5 L-1,5 L-1,1 L0,1 Z M1,6 L1,7 L2,7 L2,6 Z M8,7 L9,7 L9,8 L8,8 Z M9,8 L10,8 L10,13 L9,13 Z M8,14 L9,14 L9,15 L8,15 Z M3,15 L7,15 L7,16 L3,16 Z " fill="#FF4596" transform="translate(8,4)"/>
<path d="M0,0 L1,0 L1,1 L8,1 L8,4 L7,4 L7,5 L1,5 L1,4 L0,4 Z " fill="#FFFFFF" transform="translate(6,13)"/>
<path d="M0,0 L4,0 L4,1 L5,1 L5,5 L4,5 L4,6 L1,6 L1,4 L-1,4 L-1,1 L0,1 Z " fill="#FFFFFF" transform="translate(8,4)"/>
<path d="M0,0 L2,0 L2,3 L3,3 L3,2 L8,2 L8,3 L5,3 L5,4 L6,4 L6,6 L0,6 L0,4 L1,4 L1,1 L0,1 Z " fill="#FF4596" transform="translate(7,8)"/>
<path d="M0,0 L1,0 L1,1 L0,1 Z " fill="#FFFFFF" opacity="0.91764706" transform="translate(9,3)"/>
<path d="M0,0 L1,0 L1,1 L0,1 Z " fill="#FF4495" opacity="0.99215686" transform="translate(10,19)"/>
<path d="M0,0 L1,0 L1,5 L0,5 Z M-1,5 L0,5 L0,6 L-1,6 Z M-6,6 L-2,6 L-2,7 L-6,7 Z " fill="#FF4496" opacity="0.99607843" transform="translate(17,13)"/>
<path d="M0,0 L1,0 L1,1 L0,1 Z " fill="#FFFFFF" opacity="0.91764706" transform="translate(6,6)"/>
<path d="M0,0 L1,0 L1,1 L0,1 Z " fill="#FF4496" opacity="0.72156864" transform="translate(13,20)"/>
<path d="M0,0 L1,0 L1,1 L0,1 Z " fill="#FF4495" opacity="0.75686276" transform="translate(18,15)"/>
<path d="M0,0 L4,0 L4,1 L0,1 Z " fill="#FF4596" transform="translate(11,19)"/>
<path d="M0,0 L1,0 L1,1 L0,1 Z " fill="#FF4495" opacity="0.99215686" transform="translate(15,18)"/>
<path d="M0,0 L1,0 L1,1 L0,1 Z " fill="#FFFFFF" opacity="0.38431373" transform="translate(14,16)"/>
<path d="M0,0 L1,0 L1,1 L0,1 Z " fill="#FFFFFF" opacity="0.68235296" transform="translate(5,16)"/>
<path d="M0,0 L1,0 L1,1 L2,1 L2,2 L0,2 Z " fill="#FFFFFF" transform="translate(6,13)"/>
<path d="M0,0 L1,0 L1,1 L0,1 Z " fill="#FFFFFF" opacity="0.5529412" transform="translate(13,7)"/>
<path d="M0,0 L1,0 L1,4 L0,4 Z " fill="#FF4596" transform="translate(17,13)"/>
<path d="M0,0 L4,0 L4,1 L0,1 Z " fill="#FFF1F7" transform="translate(8,14)"/>
<path d="M0,0 L4,0 L4,1 L0,1 Z " fill="#FF4596" transform="translate(11,10)"/>
<path d="M0,0 L1,0 L1,1 L0,1 Z " fill="#FF4595" opacity="0.78431374" transform="translate(13,9)"/>
<path d="M0,0 L2,0 L2,2 L1,2 L1,1 L0,1 Z " fill="#FF4596" transform="translate(7,8)"/>
<path d="M0,0 L1,0 L1,1 L0,1 Z " fill="#FFFFFF" opacity="0.24313726" transform="translate(7,18)"/>
<path d="M0,0 L1,0 L1,1 L0,1 Z " fill="#FF4495" opacity="0.32156864" transform="translate(16,15)"/>
<path d="M0,0 L1,0 L1,2 L-1,2 L-1,1 L0,1 Z " fill="#FF559F" transform="translate(12,12)"/>
<path d="M0,0 L1,0 L1,2 L0,2 Z " fill="#FF72B0" transform="translate(7,12)"/>
<path d="M0,0 L3,0 L3,1 L0,1 Z " fill="#FFD6E8" transform="translate(9,9)"/>
<path d="M0,0 L1,0 L1,1 L0,1 Z M-1,1 L0,1 L0,2 L-1,2 Z " fill="#FFFFFF" transform="translate(8,4)"/>
<path d="M0,0 L1,0 L1,1 L0,1 Z " fill="#FF4495" opacity="0.5294118" transform="translate(11,20)"/>
<path d="M0,0 L1,0 L1,1 L0,1 Z " fill="#FF4595" opacity="0.34901962" transform="translate(9,19)"/>
<path d="M0,0 L1,0 L1,1 L0,1 Z " fill="#FF4A98" opacity="0.3882353" transform="translate(13,18)"/>
<path d="M0,0 L1,0 L1,1 L0,1 Z " fill="#FFFFFF" opacity="0.18431373" transform="translate(14,14)"/>
<path d="M0,0 L2,0 L2,1 L0,1 Z " fill="#FFDCEB" transform="translate(8,14)"/>
<path d="M0,0 L1,0 L1,1 L0,1 Z " fill="#FFFFFF" opacity="0.4862745" transform="translate(5,14)"/>
<path d="M0,0 L1,0 L1,1 L0,1 Z " fill="#FF4496" opacity="0.6156863" transform="translate(18,13)"/>
<path d="M0,0 L1,0 L1,1 L0,1 Z " fill="#FFE6F1" opacity="0.90588236" transform="translate(13,13)"/>
<path d="M0,0 L1,0 L1,2 L0,2 Z " fill="#FF4998" transform="translate(10,11)"/>
<path d="M0,0 L1,0 L1,1 L0,1 Z " fill="#FFFFFF" opacity="0.7411765" transform="translate(6,12)"/>
<path d="M0,0 L1,0 L1,1 L0,1 Z " fill="#FF4595" opacity="0.62352943" transform="translate(17,11)"/>
<path d="M0,0 L1,0 L1,1 L0,1 Z " fill="#FF4496" opacity="0.5882353" transform="translate(14,11)"/>
<path d="M0,0 L1,0 L1,1 L0,1 Z " fill="#FF4596" transform="translate(8,10)"/>
<path d="M0,0 L1,0 L1,2 L0,2 Z " fill="#FF72B0" opacity="0.9372549" transform="translate(7,8)"/>
<path d="M0,0 L1,0 L1,1 L0,1 Z " fill="#FFFFFF" opacity="0.38431373" transform="translate(13,5)"/>
<path d="M0,0 L1,0 L1,1 L0,1 Z M-1,1 L0,1 L0,2 L-1,2 Z " fill="#FFFFFF" opacity="0.15294118" transform="translate(7,3)"/>
<path d="M0,0 L1,0 L1,1 L0,1 Z " fill="#FF4194" opacity="0.16862746" transform="translate(15,20)"/>
<path d="M0,0 L1,0 L1,1 L0,1 Z " fill="#FF4595" opacity="0.5372549" transform="translate(14,20)"/>
<path d="M0,0 L1,0 L1,1 L0,1 Z " fill="#FF4396" opacity="0.69411767" transform="translate(12,20)"/>
<path d="M0,0 L1,0 L1,1 L0,1 Z " fill="#FF4199" opacity="0.13725491" transform="translate(10,20)"/>
<path d="M0,0 L1,0 L1,1 L0,1 Z " fill="#FF4395" opacity="0.007843138" transform="translate(17,19)"/>
<path d="M0,0 L1,0 L1,1 L0,1 Z " fill="#FF4495" opacity="0.58431375" transform="translate(16,19)"/>
<path d="M0,0 L1,0 L1,1 L0,1 Z " fill="#FF4495" opacity="0.99215686" transform="translate(15,19)"/>
<path d="M0,0 L1,0 L1,1 L0,1 Z " fill="#FF4395" opacity="0.5764706" transform="translate(17,18)"/>
<path d="M0,0 L1,0 L1,1 L0,1 Z " fill="#FF4596" transform="translate(16,18)"/>
<path d="M0,0 L1,0 L1,1 L0,1 Z " fill="#FF4495" opacity="0.6431373" transform="translate(14,18)"/>
<path d="M0,0 L1,0 L1,1 L0,1 Z " fill="#FF71B0" opacity="0.5058824" transform="translate(12,18)"/>
<path d="M0,0 L1,0 L1,1 L0,1 Z " fill="#FF5EA4" opacity="0.7764706" transform="translate(11,18)"/>
<path d="M0,0 L1,0 L1,1 L0,1 Z " fill="#FF4797" opacity="0.972549" transform="translate(10,18)"/>
<path d="M0,0 L1,0 L1,1 L0,1 Z " fill="#FF8EC0" opacity="0.58431375" transform="translate(9,18)"/>
<path d="M0,0 L1,0 L1,1 L0,1 Z " fill="#FFFFFF" opacity="0.3372549" transform="translate(8,18)"/>
<path d="M0,0 L1,0 L1,1 L0,1 Z " fill="#FFFFFF" opacity="0.06666667" transform="translate(6,18)"/>
<path d="M0,0 L1,0 L1,1 L0,1 Z " fill="#FF4198" opacity="0.18431373" transform="translate(18,17)"/>
<path d="M0,0 L1,0 L1,1 L0,1 Z " fill="#FF4596" opacity="0.9882353" transform="translate(16,17)"/>
<path d="M0,0 L1,0 L1,1 L0,1 Z " fill="#FF4495" opacity="0.30980393" transform="translate(15,17)"/>
<path d="M0,0 L1,0 L1,1 L0,1 Z " fill="#FFFFFF" opacity="0.09411765" transform="translate(14,17)"/>
<path d="M0,0 L1,0 L1,1 L0,1 Z " fill="#FFFFFF" opacity="0.8509804" transform="translate(13,17)"/>
<path d="M0,0 L1,0 L1,1 L0,1 Z " fill="#FFFEFF" transform="translate(10,17)"/>
<path d="M0,0 L1,0 L1,1 L0,1 Z " fill="#FFFFFF" opacity="0.9529412" transform="translate(6,17)"/>
<path d="M0,0 L1,0 L1,1 L0,1 Z " fill="#FFFFFF" opacity="0.29411766" transform="translate(5,17)"/>
<path d="M0,0 L1,0 L1,1 L0,1 Z " fill="#FF4596" opacity="0.5803922" transform="translate(18,16)"/>
<path d="M0,0 L1,0 L1,1 L0,1 Z " fill="#FF4496" opacity="0.627451" transform="translate(16,16)"/>
<path d="M0,0 L1,0 L1,1 L0,1 Z " fill="#FFFFFF" opacity="0.32941177" transform="translate(14,15)"/>
<path d="M0,0 L1,0 L1,1 L0,1 Z " fill="#FFFFFF" opacity="0.6313726" transform="translate(5,15)"/>
<path d="M0,0 L1,0 L1,1 L0,1 Z " fill="#FF4496" opacity="0.7607843" transform="translate(18,14)"/>
<path d="M0,0 L1,0 L1,1 L0,1 Z " fill="#FF4396" opacity="0.3137255" transform="translate(16,14)"/>
<path d="M0,0 L1,0 L1,1 L0,1 Z " fill="#FFFDFE" transform="translate(12,14)"/>
<path d="M0,0 L1,0 L1,1 L0,1 Z " fill="#FFE6F1" transform="translate(10,14)"/>
<path d="M0,0 L1,0 L1,1 L0,1 Z " fill="#FFD7E9" transform="translate(8,14)"/>
<path d="M0,0 L1,0 L1,1 L0,1 Z " fill="#FFFDFE" transform="translate(7,14)"/>
<path d="M0,0 L1,0 L1,1 L0,1 Z " fill="#FF4595" opacity="0.59607846" transform="translate(16,13)"/>
<path d="M0,0 L1,0 L1,1 L0,1 Z " fill="#FFE6F1" opacity="0.023529412" transform="translate(14,13)"/>
<path d="M0,0 L1,0 L1,1 L0,1 Z " fill="#FF4596" transform="translate(11,13)"/>
<path d="M0,0 L1,0 L1,1 L0,1 Z " fill="#FF87BB" transform="translate(7,13)"/>
<path d="M0,0 L1,0 L1,1 L0,1 Z " fill="#FFFFFF" opacity="0.21960784" transform="translate(5,13)"/>
<path d="M0,0 L1,0 L1,1 L0,1 Z " fill="#FF4496" opacity="0.21960784" transform="translate(18,12)"/>
<path d="M0,0 L1,0 L1,1 L0,1 Z " fill="#FF4496" opacity="0.98039216" transform="translate(16,12)"/>
<path d="M0,0 L1,0 L1,1 L0,1 Z " fill="#FF4595" opacity="0.27450982" transform="translate(15,12)"/>
<path d="M0,0 L1,0 L1,1 L0,1 Z " fill="#FFCEE4" opacity="0.50980395" transform="translate(13,12)"/>
<path d="M0,0 L1,0 L1,1 L0,1 Z " fill="#FF509C" transform="translate(12,12)"/>
<path d="M0,0 L1,0 L1,1 L0,1 Z " fill="#FF4495" opacity="0.9843137" transform="translate(15,11)"/>
<path d="M0,0 L1,0 L1,1 L0,1 Z " fill="#FF529E" opacity="0.34117648" transform="translate(13,11)"/>
<path d="M0,0 L1,0 L1,1 L0,1 Z " fill="#FFB4D6" opacity="0.8156863" transform="translate(12,11)"/>
<path d="M0,0 L1,0 L1,1 L0,1 Z " fill="#FF8DBF" transform="translate(11,11)"/>
<path d="M0,0 L1,0 L1,1 L0,1 Z " fill="#FF4797" transform="translate(10,11)"/>
<path d="M0,0 L1,0 L1,1 L0,1 Z " fill="#FF77B3" opacity="0.972549" transform="translate(7,11)"/>
<path d="M0,0 L1,0 L1,1 L0,1 Z " fill="#FFFFFF" opacity="0.16470589" transform="translate(6,11)"/>
<path d="M0,0 L1,0 L1,1 L0,1 Z " fill="#FF4496" opacity="0.015686275" transform="translate(17,10)"/>
<path d="M0,0 L1,0 L1,1 L0,1 Z " fill="#FF4496" opacity="0.627451" transform="translate(16,10)"/>
<path d="M0,0 L1,0 L1,1 L0,1 Z " fill="#FF71B0" opacity="0.99607843" transform="translate(9,10)"/>
<path d="M0,0 L1,0 L1,1 L0,1 Z " fill="#FF509D" opacity="0.7529412" transform="translate(7,10)"/>
<path d="M0,0 L1,0 L1,1 L0,1 Z " fill="#FF4296" opacity="0.22745098" transform="translate(15,9)"/>
<path d="M0,0 L1,0 L1,1 L0,1 Z " fill="#FF4495" opacity="0.58431375" transform="translate(14,9)"/>
<path d="M0,0 L1,0 L1,1 L0,1 Z " fill="#FF60A6" opacity="0.88235295" transform="translate(12,9)"/>
<path d="M0,0 L1,0 L1,1 L0,1 Z " fill="#FF8EBF" transform="translate(11,9)"/>
<path d="M0,0 L1,0 L1,1 L0,1 Z " fill="#FFB6D6" transform="translate(9,9)"/>
<path d="M0,0 L1,0 L1,1 L0,1 Z " fill="#FFFFFF" opacity="0.047058824" transform="translate(6,9)"/>
<path d="M0,0 L1,0 L1,1 L0,1 Z " fill="#FFFFFF" opacity="0.25490198" transform="translate(13,8)"/>
<path d="M0,0 L1,0 L1,1 L0,1 Z " fill="#FFDCEB" transform="translate(9,8)"/>
<path d="M0,0 L1,0 L1,1 L0,1 Z " fill="#FF4D9A" transform="translate(8,8)"/>
<path d="M0,0 L1,0 L1,1 L0,1 Z " fill="#FFA9CE" transform="translate(7,8)"/>
<path d="M0,0 L1,0 L1,1 L0,1 Z " fill="#FFFFFF" opacity="0.5568628" transform="translate(6,8)"/>
<path d="M0,0 L1,0 L1,1 L0,1 Z " fill="#FFFDFE" transform="translate(8,7)"/>
<path d="M0,0 L1,0 L1,1 L0,1 Z " fill="#FFFFFF" opacity="0.8627451" transform="translate(6,7)"/>
<path d="M0,0 L1,0 L1,1 L0,1 Z " fill="#FFFFFF" opacity="0.6156863" transform="translate(13,6)"/>
<path d="M0,0 L1,0 L1,1 L0,1 Z " fill="#FFFFFF" opacity="0.69411767" transform="translate(6,5)"/>
<path d="M0,0 L1,0 L1,1 L0,1 Z " fill="#FFFFFF" opacity="0.019607844" transform="translate(13,4)"/>
<path d="M0,0 L1,0 L1,1 L0,1 Z " fill="#FFFFFF" opacity="0.7921569" transform="translate(12,4)"/>
<path d="M0,0 L1,0 L1,1 L0,1 Z " fill="#FFFFFF" opacity="0.9607843" transform="translate(7,4)"/>
<path d="M0,0 L1,0 L1,1 L0,1 Z " fill="#FFFFFF" opacity="0.047058824" transform="translate(12,3)"/>
<path d="M0,0 L1,0 L1,1 L0,1 Z " fill="#FFFFFF" opacity="0.5568628" transform="translate(11,3)"/>
<path d="M0,0 L1,0 L1,1 L0,1 Z " fill="#FFFFFF" opacity="0.8627451" transform="translate(10,3)"/>
<path d="M0,0 L1,0 L1,1 L0,1 Z " fill="#FFFFFF" opacity="0.69411767" transform="translate(8,3)"/>
</svg>
